<svg xmlns="http://www.w3.org/2000/svg" width="25.662" height="22.454" viewBox="0 0 25.662 22.454">
  <path id="Icon_awesome-quote-right" data-name="Icon awesome-quote-right" d="M23.256,2.25H16.841a2.406,2.406,0,0,0-2.406,2.406v6.416a2.406,2.406,0,0,0,2.406,2.406h4.01v3.208a3.211,3.211,0,0,1-3.208,3.208h-.4a1.2,1.2,0,0,0-1.2,1.2V23.5a1.2,1.2,0,0,0,1.2,1.2h.4a8.017,8.017,0,0,0,8.019-8.019V4.656A2.406,2.406,0,0,0,23.256,2.25Zm-14.435,0H2.406A2.406,2.406,0,0,0,0,4.656v6.416a2.406,2.406,0,0,0,2.406,2.406h4.01v3.208a3.211,3.211,0,0,1-3.208,3.208h-.4a1.2,1.2,0,0,0-1.2,1.2V23.5a1.2,1.2,0,0,0,1.2,1.2h.4a8.017,8.017,0,0,0,8.019-8.019V4.656A2.406,2.406,0,0,0,8.821,2.25Z" transform="translate(0 -2.25)" fill="#cee284"/>
</svg>
