<svg xmlns="http://www.w3.org/2000/svg" width="109.314" height="91.413" viewBox="0 0 109.314 91.413">
  <g id="Grupo_1012891" data-name="Grupo 1012891" transform="translate(6700.131 660.411) rotate(97)">
    <g id="Grupo_1012890" data-name="Grupo 1012890" transform="matrix(0.208, 0.978, -0.978, 0.208, 229.595, 6612.122)">
      <path id="Trazado_122857" data-name="Trazado 122857" d="M21.8,77.652c2.764-1.755,4.607-4.606,6.279-7.343.874-1.431,1.673-2.912,2.582-4.321a11.172,11.172,0,0,1,1.9-2.324,12.431,12.431,0,0,0,1.078-.939,1.887,1.887,0,0,1,1.277.621,2.546,2.546,0,0,1,.13,2.335A14.116,14.116,0,0,1,32.79,70.47a18.638,18.638,0,0,1-4,3.74,18.176,18.176,0,0,1-2.159,1.375,8.453,8.453,0,0,0-2.025,1.138c-2.265,2.193,2.884,3.384,4.13,3.585a15.605,15.605,0,0,0,9.011-.886c4.956-2.271,8.239-7.492,10.676-12.149,1.451-2.772,2.758-5.6,4.422-8.26a28.371,28.371,0,0,1,2.662-3.8c.285-.322.732-.9,1.152-.581.375.285.234,1.621.23,2.06C56.815,64,52.848,70.708,47.9,75.82a20.389,20.389,0,0,1-3.546,2.948c-.7.459-1.732,1.184-1.483,2.169.6,2.358,5.234,1.9,6.9,1.64,5.582-.866,11.962-3.575,14.59-8.872,1.644-3.312,2.083-7.044,2.507-10.67.466-3.995.992-8,1.29-12.009.168-2.273.327-4.542,1.476-6.572.388-.686.992-1.669,1.842-1.822,1.239-.223,1.951,1.313,2.3,2.268,1.144,3.15.443,6.674.03,9.893a62.769,62.769,0,0,1-6,20.929,1.019,1.019,0,0,0,.282,1.775c2.4.895,5.177-.337,7.41-1.2a24.392,24.392,0,0,0,7.445-4.4c4.425-3.873,6.369-9.644,6.754-15.379.455-6.766-1.646-13.652-2.432-20.333-.228-1.937-.7-4.3-.241-6.244.764-3.251,4.366,1.537,4.975,2.765a36.114,36.114,0,0,1,3.159,9.89,78.382,78.382,0,0,1,.624,10.936.5.5,0,0,0,.107.285c.168,1.054,1.166,1.362,2.191.532,2.09-1.694,2.707-4.815,3.234-7.29,1.31-6.15,1.821-12.8-.038-18.884A36.608,36.608,0,0,0,91.567,12.97a46.326,46.326,0,0,0-7.286-5.853A38.851,38.851,0,0,0,75.58,3.3,76.619,76.619,0,0,0,65.644.487C63.133.022,60.1-.375,57.632.611,55.9.538,54.178.5,52.469.475c-7.993-.1-16.8,1.014-23.2,6.228C27.1,8.474,24.6,11.1,23.863,13.88a2.515,2.515,0,0,0,.844,2.9c1.39.881,3.362.254,4.858.059,4.476-.584,9.133.246,13.492,1.267,3.921.92,7.942,2.317,10.995,5.043a12.116,12.116,0,0,1,3.677,5.3c.864,3.044-2.324,3.688-4.6,3.012-2.447-.727-4.719-2.064-7.126-2.934-2.549-.922-5.158-1.625-7.765-2.361-8.2-2.317-17.443-2.566-24.79,2.423a16.863,16.863,0,0,0-6.254,7.4,4.313,4.313,0,0,0,.181,4.151c1.1,1.5,3.027,1.46,4.637.93,2.422-.8,4.676-2.036,7.126-2.8a50.885,50.885,0,0,1,7.881-1.941,20.877,20.877,0,0,1,7.2.45,31,31,0,0,1,5.8,1.436c.621.252,4.452,2.68,3.2,3.136-1.039.378-2.975-.438-4.034-.647a56.865,56.865,0,0,0-7.91-1.318A44.049,44.049,0,0,0,23.124,40c-4.393.6-8.551,1.527-12.4,3.814a23.672,23.672,0,0,0-8.535,8.546c-.7,1.222-1.469,2.712-.8,4.092a.988.988,0,0,0,1.123.439c1.8-.711,3.743-.812,5.572-1.407a41.045,41.045,0,0,1,6.865-1.912,8.989,8.989,0,0,1,7.207,2.017c.053,1.391-1.224,2.273-2.525,2.645-2.725.781-5.608.766-8.341,1.622a14.287,14.287,0,0,0-6.63,4.169,25.658,25.658,0,0,0-2.7,3.951C1.143,69.36-.185,71.35.021,73.032a.812.812,0,0,0,.038.139.241.241,0,0,0,.036.243c1.086,1.38,2.955,2.09,4.554,2.69,1.973.738,4.01,1.381,6.035,1.956C14.342,79.1,18.407,79.8,21.8,77.652ZM58.971,19.343c-1.913-.74-6.924-3.933-5.1-6.49,1.851-2.589,7.046-.738,9.284.031,3.7,1.273,9.188,3.506,11.754,6.649,1.38,1.689.268,2.359-1.432,2.352a47.215,47.215,0,0,1-6.117-.412A36.862,36.862,0,0,1,58.971,19.343Z" transform="translate(0 0)" fill="#0b481e"/>
      <g id="Grupo_86396" data-name="Grupo 86396" transform="translate(6.065 13.109)" opacity="0.7">
        <path id="Trazado_122858" data-name="Trazado 122858" d="M4.27,47.889c1.89-1.034,3.764-2.1,5.633-3.168,5.06-2.9,10.13-5.778,15.136-8.773C29.632,33.2,34.156,30.3,38.56,27.261c5.483-3.793,10.919-7.8,16.087-12.029a35.956,35.956,0,0,1,1.275,6.676c.023.213.38.3.41.045a13.846,13.846,0,0,0-.088-3.994,22.415,22.415,0,0,0-.853-3.328c.133-.11.273-.217.406-.328A184.869,184.869,0,0,0,70.888.78a.462.462,0,0,0-.661-.646A163.958,163.958,0,0,1,55.931,11.9c-5.663,4.359-11.471,8.566-17.276,12.735C29.784,31.005,20.4,36.8,11.067,42.455,7.55,44.584,3.834,46.336.29,48.389c-.613.355-.158,1.186.468,1.07A12.3,12.3,0,0,0,4.27,47.889Z" transform="translate(17.957)" fill="#adce32"/>
        <path id="Trazado_122859" data-name="Trazado 122859" d="M3.457.161A75.405,75.405,0,0,1,2.68,15.392c-.359,2.375-.835,4.735-1.312,7.088-.461,2.272-1.36,4.679-1.368,7a.246.246,0,0,0,.458.114c1.068-2.033,1.353-4.659,1.806-6.891.515-2.539.879-5.1,1.17-7.669A81.65,81.65,0,0,0,3.783.153C3.768-.055,3.445-.05,3.457.161Z" transform="translate(71.088 29.153)" fill="#adce32"/>
        <path id="Trazado_122860" data-name="Trazado 122860" d="M7.729,19.788A53.919,53.919,0,0,0,9.1,8.943,29.227,29.227,0,0,0,8.279.1c-.058-.192-.37-.094-.3.086,1.109,2.7.472,5.924.4,8.769A54.108,54.108,0,0,1,7.042,19.339,40.667,40.667,0,0,1,.057,35.591a.227.227,0,0,0,.278.352c2.109-.987,3-4.452,3.872-6.412.621-1.4,1.471-2.7,2.052-4.12A32.255,32.255,0,0,0,7.729,19.788Z" transform="translate(48.426 27.921)" fill="#adce32"/>
        <path id="Trazado_122861" data-name="Trazado 122861" d="M2.558,12.711C3.27,11.38,4,10.057,4.653,8.7A19.005,19.005,0,0,0,6.92.341.363.363,0,0,0,6.2.359,18.458,18.458,0,0,1,3.68,9.013c-.675,1.29-1.4,2.553-2.11,3.827C.991,13.885.02,15.186,0,16.411a.239.239,0,0,0,.4.159,5.886,5.886,0,0,0,1.058-1.763C1.814,14.1,2.185,13.405,2.558,12.711Z" transform="translate(33.749 39.973)" fill="#adce32"/>
        <path id="Trazado_122862" data-name="Trazado 122862" d="M2.543,5.788A16.475,16.475,0,0,0,4.425,4.2a28.643,28.643,0,0,0,3-3.807C7.6.144,7.211-.138,7.012.076,5.943,1.224,4.8,2.281,3.634,3.331,3.068,3.842,2.488,4.347,1.877,4.8c-.6.445-1.448.824-1.827,1.479a.376.376,0,0,0,.333.554A3.905,3.905,0,0,0,2.543,5.788Z" transform="translate(25.234 58.368)" fill="#adce32"/>
        <path id="Trazado_122863" data-name="Trazado 122863" d="M13.076.874a30.667,30.667,0,0,1,13.2,2.739c.5.252.924-.5.428-.757C22.709.745,17.968.171,13.5.013A27.173,27.173,0,0,0,6.863.7,25.194,25.194,0,0,0,.095,2.753a.2.2,0,0,0,.108.37c2.058-.056,4.07-.879,6.064-1.356A28.144,28.144,0,0,1,13.076.874Z" transform="translate(3.81 32.938)" fill="#adce32"/>
        <path id="Trazado_122864" data-name="Trazado 122864" d="M11.007.627c.359-.236.024-.8-.344-.574A57.6,57.6,0,0,1,.092,4.785c-.137.05-.121.276.042.267A16.845,16.845,0,0,0,5.786,3.479,34.674,34.674,0,0,0,11.007.627Z" transform="translate(4.652 50.919)" fill="#adce32"/>
        <path id="Trazado_122865" data-name="Trazado 122865" d="M1.1,1.406c.315-.128.639-.255.947-.4C2.643.729,3.234.447,3.841.194A.1.1,0,0,0,3.785,0C3.127.137,2.449.256,1.8.448a7.063,7.063,0,0,0-.96.367,4.291,4.291,0,0,0-.793.565c-.132.105.016.315.162.271C.506,1.561.82,1.519,1.1,1.406Z" transform="translate(0 56.318)" fill="#adce32"/>
        <path id="Trazado_122866" data-name="Trazado 122866" d="M.06.387A10.081,10.081,0,0,0,3.3,2.541,7.863,7.863,0,0,1,6.369,4.973a.335.335,0,0,0,.575-.344A7.792,7.792,0,0,0,3.967,1.913C2.792,1.228,1.549.628.33.028A.228.228,0,0,0,.06.387Z" transform="translate(41.408 21.638)" fill="#adce32"/>
        <path id="Trazado_122867" data-name="Trazado 122867" d="M3.183,3.3A18.223,18.223,0,0,1,6.646,1.862,25.8,25.8,0,0,1,13.858.857,38.373,38.373,0,0,1,28.044,3.638c.151.059.255-.2.107-.267A36.888,36.888,0,0,0,13.469,0,24.322,24.322,0,0,0,6.031,1.024c-2.006.616-4.83,1.591-6,3.464a.275.275,0,0,0,.313.394A19.767,19.767,0,0,0,3.183,3.3Z" transform="translate(9.398 16.504)" fill="#adce32"/>
      </g>
    </g>
  </g>
</svg>
