<svg xmlns="http://www.w3.org/2000/svg" width="95.035" height="108.556" viewBox="0 0 95.035 108.556">
  <g id="Grupo_1012892" data-name="Grupo 1012892" transform="translate(-264.26 -6607.226) rotate(-1)">
    <g id="Grupo_1012890" data-name="Grupo 1012890" transform="matrix(0.208, 0.978, -0.978, 0.208, 222.808, 6612.122)">
      <path id="Trazado_122857" data-name="Trazado 122857" d="M19.969,71.144c2.532-1.608,4.221-4.22,5.752-6.728.8-1.311,1.533-2.668,2.365-3.959a10.236,10.236,0,0,1,1.745-2.13,11.388,11.388,0,0,0,.988-.86,1.729,1.729,0,0,1,1.17.569,2.332,2.332,0,0,1,.119,2.139,12.933,12.933,0,0,1-2.067,4.388,17.076,17.076,0,0,1-3.665,3.426,16.653,16.653,0,0,1-1.978,1.26,7.744,7.744,0,0,0-1.856,1.043c-2.075,2.01,2.643,3.1,3.784,3.284a14.3,14.3,0,0,0,8.256-.811c4.541-2.081,7.548-6.865,9.781-11.131,1.33-2.54,2.527-5.132,4.051-7.568a25.994,25.994,0,0,1,2.439-3.477c.261-.3.671-.825,1.056-.532.343.261.215,1.485.21,1.887-.067,6.693-3.7,12.837-8.239,17.521a18.68,18.68,0,0,1-3.249,2.7c-.641.421-1.587,1.084-1.358,1.987.548,2.16,4.8,1.741,6.326,1.5,5.114-.793,10.959-3.276,13.367-8.129,1.506-3.035,1.909-6.453,2.3-9.776.427-3.66.909-7.327,1.182-11A13.889,13.889,0,0,1,63.8,40.729c.356-.629.909-1.529,1.688-1.67,1.135-.2,1.788,1.2,2.105,2.078,1.048,2.886.406,6.115.028,9.064a57.509,57.509,0,0,1-5.5,19.175A.934.934,0,0,0,62.381,71c2.2.82,4.743-.309,6.789-1.1a22.347,22.347,0,0,0,6.821-4.033c4.054-3.549,5.835-8.836,6.188-14.09.416-6.2-1.508-12.508-2.228-18.629-.209-1.775-.638-3.943-.221-5.721.7-2.978,4,1.408,4.558,2.533a33.088,33.088,0,0,1,2.894,9.061,71.814,71.814,0,0,1,.571,10.019.455.455,0,0,0,.1.261c.154.965,1.069,1.248,2.008.488,1.915-1.552,2.48-4.411,2.963-6.679,1.2-5.635,1.669-11.727-.035-17.3a33.541,33.541,0,0,0-8.893-13.934A42.444,42.444,0,0,0,77.218,6.52a35.6,35.6,0,0,0-7.971-3.494,70.2,70.2,0,0,0-9.1-2.58C57.842.02,55.06-.343,52.8.559,51.218.492,49.637.454,48.072.435c-7.323-.091-15.388.929-21.254,5.706-1.993,1.623-4.281,4.033-4.954,6.576a2.3,2.3,0,0,0,.773,2.656c1.274.807,3.08.233,4.45.054,4.1-.535,8.367.225,12.361,1.161,3.592.843,7.277,2.123,10.073,4.62a11.1,11.1,0,0,1,3.369,4.854c.791,2.789-2.13,3.379-4.214,2.759-2.242-.666-4.324-1.891-6.529-2.688-2.336-.844-4.726-1.489-7.114-2.164-7.516-2.123-15.981-2.351-22.713,2.22a15.45,15.45,0,0,0-5.73,6.775,3.951,3.951,0,0,0,.166,3.8c1,1.374,2.773,1.337,4.249.852,2.219-.731,4.285-1.865,6.529-2.567a46.621,46.621,0,0,1,7.22-1.778,19.127,19.127,0,0,1,6.593.412A28.4,28.4,0,0,1,36.662,35c.569.23,4.079,2.456,2.93,2.873-.952.346-2.725-.4-3.7-.593a52.1,52.1,0,0,0-7.247-1.208,40.358,40.358,0,0,0-7.464.567A29.238,29.238,0,0,0,9.825,40.138a21.688,21.688,0,0,0-7.819,7.83c-.643,1.119-1.346,2.484-.733,3.749a.906.906,0,0,0,1.029.4c1.645-.651,3.43-.743,5.1-1.289a37.606,37.606,0,0,1,6.29-1.751,8.236,8.236,0,0,1,6.6,1.848c.049,1.275-1.122,2.083-2.313,2.424-2.5.716-5.138.7-7.642,1.486A13.09,13.09,0,0,0,4.27,58.656,23.507,23.507,0,0,0,1.8,62.276c-.751,1.271-1.967,3.1-1.778,4.636a.744.744,0,0,0,.035.127.221.221,0,0,0,.033.223A9.321,9.321,0,0,0,4.26,69.727c1.808.677,3.674,1.265,5.53,1.792C13.14,72.471,16.864,73.116,19.969,71.144Zm34.06-53.422c-1.753-.678-6.344-3.6-4.669-5.946,1.7-2.372,6.456-.677,8.506.029,3.39,1.166,8.418,3.212,10.769,6.091,1.264,1.548.245,2.161-1.312,2.155a43.258,43.258,0,0,1-5.6-.377A33.773,33.773,0,0,1,54.029,17.722Z" transform="translate(0 0)" fill="#0b481e"/>
      <g id="Grupo_86396" data-name="Grupo 86396" transform="translate(5.556 12.01)" opacity="0.7">
        <path id="Trazado_122858" data-name="Trazado 122858" d="M3.912,43.876c1.731-.947,3.449-1.92,5.161-2.9,4.636-2.66,9.281-5.294,13.867-8.038,4.208-2.518,8.354-5.169,12.388-7.959,5.024-3.475,10-7.148,14.739-11.021a32.943,32.943,0,0,1,1.168,6.117c.021.2.348.272.376.041a12.686,12.686,0,0,0-.081-3.659,20.536,20.536,0,0,0-.782-3.049c.122-.1.25-.2.372-.3A169.375,169.375,0,0,0,64.948.715a.423.423,0,0,0-.605-.592,150.217,150.217,0,0,1-13.1,10.78C46.056,14.9,40.734,18.751,35.416,22.57,27.288,28.407,18.694,33.717,10.139,38.9c-3.223,1.95-6.627,3.555-9.873,5.436-.562.325-.145,1.087.429.98A11.267,11.267,0,0,0,3.912,43.876Z" transform="translate(16.452 0)" fill="#adce32"/>
        <path id="Trazado_122859" data-name="Trazado 122859" d="M3.167.148A69.086,69.086,0,0,1,2.456,14.1c-.329,2.176-.765,4.338-1.2,6.494C.83,22.678.007,24.883,0,27.011a.226.226,0,0,0,.419.1c.978-1.863,1.24-4.269,1.655-6.313.471-2.326.805-4.669,1.072-7.026A74.808,74.808,0,0,0,3.466.141C3.452-.051,3.157-.045,3.167.148Z" transform="translate(65.13 26.71)" fill="#adce32"/>
        <path id="Trazado_122860" data-name="Trazado 122860" d="M7.081,18.13A49.4,49.4,0,0,0,8.333,8.194,26.778,26.778,0,0,0,7.585.1C7.532-.08,7.247.01,7.315.175c1.016,2.476.432,5.428.37,8.034a49.574,49.574,0,0,1-1.232,9.509,37.259,37.259,0,0,1-6.4,14.89.208.208,0,0,0,.255.323c1.932-.9,2.751-4.079,3.548-5.875.569-1.286,1.348-2.473,1.88-3.775A29.552,29.552,0,0,0,7.081,18.13Z" transform="translate(44.368 25.581)" fill="#adce32"/>
        <path id="Trazado_122861" data-name="Trazado 122861" d="M2.343,11.646C3,10.426,3.663,9.215,4.263,7.967A17.413,17.413,0,0,0,6.34.313a.332.332,0,0,0-.664.016,16.911,16.911,0,0,1-2.3,7.929C2.753,9.44,2.085,10.6,1.438,11.764c-.53.958-1.42,2.15-1.438,3.272a.219.219,0,0,0,.371.146,5.392,5.392,0,0,0,.97-1.616C1.662,12.92,2,12.282,2.343,11.646Z" transform="translate(30.921 36.623)" fill="#adce32"/>
        <path id="Trazado_122862" data-name="Trazado 122862" d="M2.33,5.3A15.094,15.094,0,0,0,4.055,3.844,26.242,26.242,0,0,0,6.806.356c.159-.224-.2-.483-.382-.287C5.445,1.121,4.393,2.09,3.329,3.052,2.811,3.52,2.28,3.982,1.72,4.4S.393,5.155.046,5.755a.345.345,0,0,0,.305.508A3.578,3.578,0,0,0,2.33,5.3Z" transform="translate(23.119 53.477)" fill="#adce32"/>
        <path id="Trazado_122863" data-name="Trazado 122863" d="M11.98.8a28.1,28.1,0,0,1,12.1,2.51c.456.23.846-.454.392-.694C20.806.683,16.462.157,12.37.012A24.9,24.9,0,0,0,6.287.64a23.082,23.082,0,0,0-6.2,1.882.184.184,0,0,0,.1.339A27.769,27.769,0,0,0,5.742,1.619,25.785,25.785,0,0,1,11.98.8Z" transform="translate(3.491 30.177)" fill="#adce32"/>
        <path id="Trazado_122864" data-name="Trazado 122864" d="M10.085.574c.329-.217.022-.734-.315-.526A52.777,52.777,0,0,1,.085,4.384c-.125.046-.111.253.038.244A15.434,15.434,0,0,0,5.3,3.187,31.768,31.768,0,0,0,10.085.574Z" transform="translate(4.262 46.651)" fill="#adce32"/>
        <path id="Trazado_122865" data-name="Trazado 122865" d="M1.009,1.288c.289-.117.585-.234.868-.365C2.422.667,2.963.409,3.519.178A.091.091,0,0,0,3.468,0c-.6.123-1.225.232-1.815.408A6.471,6.471,0,0,0,.773.747a3.932,3.932,0,0,0-.727.517c-.121.1.015.289.149.249C.463,1.43.751,1.392,1.009,1.288Z" transform="translate(0 51.598)" fill="#adce32"/>
        <path id="Trazado_122866" data-name="Trazado 122866" d="M.055.355A9.237,9.237,0,0,0,3.021,2.328,7.2,7.2,0,0,1,5.835,4.556a.307.307,0,0,0,.527-.315A7.139,7.139,0,0,0,3.634,1.752C2.558,1.125,1.42.576.3.025A.209.209,0,0,0,.055.355Z" transform="translate(37.938 19.825)" fill="#adce32"/>
        <path id="Trazado_122867" data-name="Trazado 122867" d="M2.916,3.021A16.7,16.7,0,0,1,6.089,1.706,23.634,23.634,0,0,1,12.7.785a35.157,35.157,0,0,1,13,2.548c.138.054.234-.183.1-.244A33.8,33.8,0,0,0,12.34,0,22.284,22.284,0,0,0,5.526.938C3.688,1.5,1.1,2.4.032,4.111a.252.252,0,0,0,.287.361A18.111,18.111,0,0,0,2.916,3.021Z" transform="translate(8.61 15.121)" fill="#adce32"/>
      </g>
    </g>
  </g>
</svg>
