<svg xmlns="http://www.w3.org/2000/svg" width="186.319" height="176.871" viewBox="0 0 186.319 176.871">
  <g id="Grupo_901236" data-name="Grupo 901236" transform="translate(134.242 177.7) rotate(-139)">
    <path id="Trazado_122906" data-name="Trazado 122906" d="M68.692,4.517a195.335,195.335,0,0,0-25.468,8.434A251.084,251.084,0,0,0,18.6,24.56a39.652,39.652,0,0,0-9.369,6.7C6.593,33.91,4.1,37.171.913,39.182c-1.834,1.159-.687,4.269,1.519,3.6.281-.083.523-.214.792-.315,7.7,3.3,15.127,7.389,22.522,11.317,6.918,3.675,13.961,7.087,20.642,11.189C57.518,71.81,70.619,81.767,84.468,80.762c6.118-.445,11.729-3.626,16.487-7.319,5.5-4.264,9.655-11.051,16.815-12.583,12.119-2.592,24.184,3.7,36.282,3.719,7.566.01,19.472-.875,22-9.728,2.922-10.234-6.191-19.779-14.606-23.733A93.979,93.979,0,0,0,145.5,25.849c-6.433-1.709-12.041-3.5-17.461-7.564-5.28-3.959-9.915-8.7-15.328-12.5A32.544,32.544,0,0,0,93.123,0C84.932.108,76.566,2.457,68.692,4.517Z" transform="translate(1.264 0)" fill="#add031"/>
    <g id="Grupo_86435" data-name="Grupo 86435" transform="translate(0 33.935)">
      <path id="Trazado_122907" data-name="Trazado 122907" d="M173.774,16.145c-10.509-2.7-20.688-6.566-31.312-8.853a299.354,299.354,0,0,0-33.227-4.915C97.671,1.231,86.041,1.27,74.446.538a216.648,216.648,0,0,0-34.98.346C26.62,2.132,13.86,3.127,1.173,5.565c-1.526.292-1.6,2.93,0,3.157C6.156,9.431,11.258,7.373,16.2,6.8c5.954-.69,11.887-1.068,17.857-1.565,11.484-.956,22.608-1.9,34.152-1.292,23.03,1.219,46.39.974,69.214,4.688,12.208,1.985,23.842,6.478,35.925,9.054,1,.214,1.425-1.279.424-1.537Z" transform="translate(0 0)" fill="#36753c"/>
    </g>
    <g id="Grupo_86436" data-name="Grupo 86436" transform="translate(43.572 36.965)">
      <path id="Trazado_122908" data-name="Trazado 122908" d="M49.483,36.663A151.383,151.383,0,0,1,23.211,20.009a151.917,151.917,0,0,1-11.616-9.991C9.836,8.335,8.133,6.6,6.435,4.858,4.77,3.15,3.143,1.089.947.061.5-.148-.16.2.035.761.741,2.775,2.262,4.267,3.713,5.786c1.87,1.959,3.868,3.808,5.876,5.626,3.855,3.5,7.822,6.874,11.945,10.051A136.071,136.071,0,0,0,48.7,38c.893.4,1.688-.893.781-1.339Z" transform="translate(0 0)" fill="#36753c"/>
    </g>
    <g id="Grupo_86437" data-name="Grupo 86437" transform="translate(62.995 10.373)">
      <path id="Trazado_122909" data-name="Trazado 122909" d="M1.141,25.511c7.129-5.29,14.231-10.5,22.095-14.664A90.27,90.27,0,0,1,35.647,5.385c4.282-1.505,8.749-2.469,12.94-4.2A.6.6,0,0,0,48.428.015c-4.5-.167-8.905,1.128-13.135,2.581A95.082,95.082,0,0,0,22.535,8.073,86.015,86.015,0,0,0,.2,24.295c-.586.6.206,1.758.938,1.216Z" transform="translate(0 0)" fill="#36753c"/>
    </g>
    <g id="Grupo_86438" data-name="Grupo 86438" transform="translate(131.936 41.233)">
      <path id="Trazado_122910" data-name="Trazado 122910" d="M26.563,17.181a66.581,66.581,0,0,1-13.82-7.655C10.568,8.018,8.5,6.393,6.489,4.682,5.473,3.817,4.473,2.937,3.479,2.049A7.825,7.825,0,0,0,.757.03C.184-.144-.137.478.056.939.527,2.051,1.7,2.791,2.59,3.562Q4.11,4.871,5.661,6.143c2.092,1.709,4.222,3.391,6.4,4.985a48.876,48.876,0,0,0,14.143,7.335c.828.26,1.135-.982.354-1.281Z" transform="translate(0 0)" fill="#36753c"/>
    </g>
    <g id="Grupo_86439" data-name="Grupo 86439" transform="translate(107.395 31.655)">
      <path id="Trazado_122911" data-name="Trazado 122911" d="M40.375.359C33.25.257,26.134-.324,19.018.249A56.35,56.35,0,0,0,9.086,1.807a44.716,44.716,0,0,0-5.11,1.672c-1.3.518-2.9.985-3.839,2.05-.281.318-.117.943.375.909,1.464-.109,2.823-.951,4.212-1.414A44.806,44.806,0,0,1,9.61,3.708a84.966,84.966,0,0,1,10.4-1.532c6.785-.583,13.565-.8,20.368-.888a.465.465,0,0,0,0-.93Z" transform="translate(0 0)" fill="#36753c"/>
    </g>
  </g>
</svg>
