<svg xmlns="http://www.w3.org/2000/svg" width="123.267" height="61.406" viewBox="0 0 123.267 61.406">
  <g id="Grupo_901237" data-name="Grupo 901237" transform="translate(124.128 55.052) rotate(177)">
    <path id="Trazado_122906" data-name="Trazado 122906" d="M46.886,3.083A133.326,133.326,0,0,0,29.5,8.84a171.378,171.378,0,0,0-16.809,7.924A27.065,27.065,0,0,0,6.3,21.336c-1.8,1.81-3.5,4.036-5.676,5.408A1.351,1.351,0,0,0,1.659,29.2c.192-.057.357-.146.541-.215,5.257,2.251,10.325,5.044,15.372,7.724,4.722,2.508,9.529,4.837,14.089,7.637,7.6,4.667,16.54,11.463,25.993,10.777,4.176-.3,8.005-2.475,11.253-5,3.751-2.91,6.59-7.543,11.477-8.589,8.272-1.769,16.507,2.524,24.764,2.539,5.164.007,13.29-.6,15.015-6.64,1.995-6.985-4.226-13.5-9.97-16.2a64.146,64.146,0,0,0-10.884-3.6c-4.391-1.166-8.219-2.388-11.918-5.163-3.6-2.7-6.768-5.941-10.462-8.532A22.213,22.213,0,0,0,63.562,0C57.97.074,52.26,1.677,46.886,3.083Z" transform="translate(0.862 0)" fill="#add031"/>
    <g id="Grupo_86435" data-name="Grupo 86435" transform="translate(0 23.162)">
      <path id="Trazado_122907" data-name="Trazado 122907" d="M118.61,11.02c-7.173-1.842-14.121-4.482-21.372-6.043A204.325,204.325,0,0,0,74.559,1.622C66.665.84,58.728.867,50.813.367A147.874,147.874,0,0,0,26.938.6C18.17,1.455,9.46,2.135.8,3.8-.241,4-.293,5.8.8,5.953c3.4.484,6.884-.921,10.258-1.314,4.064-.471,8.114-.729,12.188-1.068,7.838-.652,15.431-1.3,23.31-.882,15.719.832,31.664.665,47.243,3.2,8.332,1.355,16.274,4.421,24.521,6.18.681.146.972-.873.29-1.049Z" transform="translate(0 0)" fill="#36753c"/>
    </g>
    <g id="Grupo_86436" data-name="Grupo 86436" transform="translate(29.74 25.23)">
      <path id="Trazado_122908" data-name="Trazado 122908" d="M33.775,25.025A103.327,103.327,0,0,1,15.843,13.657a103.691,103.691,0,0,1-7.929-6.82c-1.2-1.148-2.363-2.332-3.522-3.522A14.141,14.141,0,0,0,.646.041C.342-.1-.109.139.024.52a9.99,9.99,0,0,0,2.51,3.429c1.276,1.337,2.64,2.6,4.011,3.84,2.631,2.388,5.339,4.692,8.153,6.861A92.876,92.876,0,0,0,33.242,25.938c.61.274,1.152-.61.533-.914Z" transform="translate(0 0)" fill="#36753c"/>
    </g>
    <g id="Grupo_86437" data-name="Grupo 86437" transform="translate(42.998 7.081)">
      <path id="Trazado_122909" data-name="Trazado 122909" d="M.779,17.413A119.232,119.232,0,0,1,15.86,7.4a61.614,61.614,0,0,1,8.471-3.728C27.254,2.648,30.3,1.99,33.163.812a.41.41,0,0,0-.108-.8,25.033,25.033,0,0,0-8.966,1.762A64.9,64.9,0,0,0,15.382,5.51,58.71,58.71,0,0,0,.139,16.583c-.4.412.141,1.2.64.83Z" transform="translate(0 0)" fill="#36753c"/>
    </g>
    <g id="Grupo_86438" data-name="Grupo 86438" transform="translate(90.053 28.144)">
      <path id="Trazado_122910" data-name="Trazado 122910" d="M18.131,11.727A45.445,45.445,0,0,1,8.7,6.5C7.213,5.473,5.8,4.364,4.429,3.2,3.736,2.605,3.053,2,2.374,1.4A5.341,5.341,0,0,0,.516.021C.125-.1-.093.326.038.641a5.667,5.667,0,0,0,1.73,1.79q1.037.893,2.1,1.762C5.292,5.359,6.746,6.508,8.236,7.6A33.361,33.361,0,0,0,17.889,12.6c.565.178.775-.67.242-.875Z" transform="translate(0 0)" fill="#36753c"/>
    </g>
    <g id="Grupo_86439" data-name="Grupo 86439" transform="translate(73.303 21.607)">
      <path id="Trazado_122911" data-name="Trazado 122911" d="M27.558.245C22.695.175,17.838-.221,12.981.17A38.462,38.462,0,0,0,6.2,1.233,30.521,30.521,0,0,0,2.714,2.375a6.684,6.684,0,0,0-2.62,1.4c-.192.217-.08.644.256.62a12.527,12.527,0,0,0,2.875-.965,30.582,30.582,0,0,1,3.335-.9,57.994,57.994,0,0,1,7.1-1.045c4.631-.4,9.259-.546,13.9-.606a.318.318,0,0,0,0-.635Z" transform="translate(0 0)" fill="#36753c"/>
    </g>
  </g>
</svg>
