<svg xmlns="http://www.w3.org/2000/svg" width="1162.631" height="647.958" viewBox="0 0 1162.631 647.958">
  <g id="Grupo_1013389" data-name="Grupo 1013389" transform="translate(-188.099 -7634.5)">
    <g id="Grupo_953394" data-name="Grupo 953394" transform="translate(188.099 8101.823) rotate(-5)">
      <path id="Trazado_122857" data-name="Trazado 122857" d="M40.255,143.423c5.1-3.242,8.509-8.507,11.6-13.562,1.614-2.642,3.09-5.379,4.768-7.98a20.636,20.636,0,0,1,3.518-4.293,22.958,22.958,0,0,0,1.991-1.734A3.485,3.485,0,0,1,64.489,117c1.019,1.21.615,2.944.24,4.312a26.073,26.073,0,0,1-4.167,8.845,34.426,34.426,0,0,1-7.389,6.907,33.572,33.572,0,0,1-3.987,2.539,15.612,15.612,0,0,0-3.741,2.1c-4.184,4.051,5.327,6.25,7.629,6.621,5.576.9,11.443.749,16.644-1.636,9.154-4.195,15.217-13.839,19.718-22.44,2.681-5.12,5.094-10.346,8.167-15.256a52.4,52.4,0,0,1,4.916-7.01c.526-.6,1.353-1.664,2.128-1.073.692.527.433,2.993.424,3.8-.135,13.492-7.462,25.878-16.609,35.321a37.659,37.659,0,0,1-6.55,5.445c-1.291.848-3.2,2.186-2.739,4.006,1.1,4.355,9.668,3.509,12.753,3.03,10.31-1.6,22.093-6.6,26.947-16.387,3.036-6.117,3.848-13.01,4.631-19.708.861-7.379,1.833-14.77,2.383-22.181.31-4.2.6-8.389,2.726-12.138.717-1.268,1.833-3.083,3.4-3.366,2.289-.411,3.6,2.426,4.244,4.188,2.113,5.818.818,12.327.056,18.273-1.728,13.457-4.859,26.521-11.081,38.655a1.882,1.882,0,0,0,.52,3.278c4.426,1.653,9.562-.623,13.686-2.208a45.051,45.051,0,0,0,13.751-8.13c8.173-7.154,11.764-17.813,12.474-28.405.84-12.5-3.04-25.215-4.492-37.554-.422-3.578-1.287-7.948-.445-11.532,1.411-6,8.064,2.839,9.188,5.107a66.7,66.7,0,0,1,5.834,18.267c1.141,6.725.953,13.419,1.152,20.2a.917.917,0,0,0,.2.527c.311,1.946,2.154,2.516,4.047.983,3.86-3.128,5-8.892,5.973-13.464,2.42-11.359,3.364-23.641-.07-34.878-3.257-10.663-9.965-20.388-17.929-28.09a85.564,85.564,0,0,0-13.457-10.811A71.758,71.758,0,0,0,139.6,6.1,141.515,141.515,0,0,0,121.244.9C116.606.04,111-.692,106.446,1.128c-3.195-.135-6.381-.212-9.537-.251C82.146.693,65.888,2.751,54.062,12.38c-4.017,3.272-8.631,8.13-9.987,13.256-.514,1.946-.285,4.186,1.559,5.355,2.567,1.627,6.209.469,8.972.109,8.267-1.079,16.868.454,24.919,2.34,7.241,1.7,14.67,4.28,20.307,9.314,2.85,2.546,5.728,6.038,6.792,9.785,1.6,5.623-4.293,6.811-8.495,5.563-4.52-1.343-8.716-3.811-13.161-5.419-4.709-1.7-9.526-3-14.342-4.362C55.475,44.042,38.41,43.583,24.839,52.8c-4.831,3.28-9.423,8.156-11.552,13.659-.961,2.482-1.325,5.4.334,7.668,2.025,2.771,5.591,2.7,8.565,1.717,4.473-1.473,8.637-3.76,13.162-5.175A93.984,93.984,0,0,1,49.9,67.081c4.614-.664,8.77-.047,13.29.831a57.26,57.26,0,0,1,10.715,2.653c1.147.465,8.222,4.95,5.907,5.792-1.918.7-5.494-.809-7.451-1.195-4.833-.949-9.673-2.175-14.609-2.435-5.008-.261-10.091.471-15.046,1.143-8.113,1.1-15.793,2.82-22.9,7.045A43.721,43.721,0,0,0,4.044,96.7c-1.3,2.257-2.713,5.008-1.478,7.558a1.826,1.826,0,0,0,2.075.812c3.317-1.313,6.914-1.5,10.291-2.6,4.216-1.373,8.256-2.893,12.68-3.531a16.6,16.6,0,0,1,13.312,3.726c.1,2.569-2.261,4.2-4.663,4.886-5.034,1.443-10.357,1.415-15.406,3a26.388,26.388,0,0,0-12.246,7.7,47.391,47.391,0,0,0-4.984,7.3C2.11,128.107-.341,131.783.04,134.89a1.5,1.5,0,0,0,.071.257.445.445,0,0,0,.067.45c2.006,2.548,5.458,3.861,8.41,4.968,3.645,1.364,7.406,2.55,11.147,3.612C26.489,146.1,34,147.4,40.255,143.423Zm68.664-107.7c-3.533-1.366-12.789-7.265-9.413-11.986,3.42-4.781,13.014-1.364,17.147.058,6.835,2.351,16.971,6.475,21.71,12.28,2.548,3.12.494,4.357-2.645,4.344a87.206,87.206,0,0,1-11.3-.76A68.084,68.084,0,0,1,108.919,35.727Z" transform="translate(0 0)" fill="#0b481e"/>
      <g id="Grupo_86396" data-name="Grupo 86396" transform="translate(11.201 24.212)" opacity="0.7">
        <path id="Trazado_122858" data-name="Trazado 122858" d="M7.887,88.451c3.49-1.91,6.952-3.871,10.4-5.852,9.347-5.362,18.71-10.672,27.955-16.2,8.483-5.077,16.841-10.421,24.973-16.044,10.128-7.006,20.168-14.41,29.713-22.217a66.412,66.412,0,0,1,2.355,12.331c.043.394.7.548.758.083a25.574,25.574,0,0,0-.163-7.376,41.4,41.4,0,0,0-1.576-6.147c.246-.2.5-.4.75-.606,9.577-7.959,19.217-16.005,27.874-24.977A.854.854,0,0,0,129.71.248C121.546,8.156,112.3,15.057,103.3,21.979,92.845,30.03,82.117,37.8,71.4,45.5,55.01,57.266,37.686,67.972,20.44,78.415c-6.5,3.931-13.359,7.167-19.9,10.959-1.133.655-.292,2.19.865,1.976C3.741,90.911,5.821,89.583,7.887,88.451Z" transform="translate(33.167 0)" fill="#adce32"/>
        <path id="Trazado_122859" data-name="Trazado 122859" d="M6.385.3A139.273,139.273,0,0,1,4.95,28.429c-.664,4.387-1.541,8.745-2.424,13.091C1.674,45.717.015,50.162,0,54.453a.455.455,0,0,0,.845.21c1.972-3.756,2.5-8.605,3.336-12.727.95-4.689,1.623-9.413,2.16-14.164A150.808,150.808,0,0,0,6.987.283C6.959-.1,6.364-.091,6.385.3Z" transform="translate(131.298 53.846)" fill="#adce32"/>
        <path id="Trazado_122860" data-name="Trazado 122860" d="M14.275,36.549A99.587,99.587,0,0,0,16.8,16.518c.041-5.533.112-10.969-1.507-16.324-.107-.355-.683-.173-.546.158,2.049,4.991.871,10.942.745,16.2a99.938,99.938,0,0,1-2.484,19.17C10.661,46.544,6.83,56.865.1,65.736a.42.42,0,0,0,.514.651c3.9-1.822,5.546-8.222,7.152-11.843,1.148-2.593,2.717-4.985,3.79-7.61A59.575,59.575,0,0,0,14.275,36.549Z" transform="translate(89.443 51.57)" fill="#adce32"/>
        <path id="Trazado_122861" data-name="Trazado 122861" d="M4.724,23.477c1.317-2.458,2.661-4.9,3.871-7.417,2.34-4.867,4.229-9.954,4.186-15.429a.67.67,0,0,0-1.338.032C11.5,6.354,9.393,11.677,6.8,16.647,5.55,19.03,4.2,21.362,2.9,23.715,1.831,25.646.036,28.049,0,30.312a.441.441,0,0,0,.747.293A10.871,10.871,0,0,0,2.7,27.348C3.351,26.046,4.036,24.76,4.724,23.477Z" transform="translate(62.335 73.83)" fill="#adce32"/>
        <path id="Trazado_122862" data-name="Trazado 122862" d="M4.7,10.69A30.428,30.428,0,0,0,8.174,7.75,52.9,52.9,0,0,0,13.721.718c.321-.452-.4-.974-.771-.578C10.976,2.26,8.857,4.213,6.711,6.153,5.666,7.1,4.6,8.028,3.467,8.87,2.367,9.692.793,10.392.092,11.6a.7.7,0,0,0,.615,1.023C2.142,12.692,3.589,11.5,4.7,10.69Z" transform="translate(46.607 107.806)" fill="#adce32"/>
        <path id="Trazado_122863" data-name="Trazado 122863" d="M24.152,1.614c8.109.077,17.084,1.377,24.384,5.06.918.465,1.706-.914.79-1.4C41.943,1.377,33.186.317,24.938.023A50.188,50.188,0,0,0,12.675,1.291C8.532,2.179,3.911,3.036.175,5.085a.371.371,0,0,0,.2.683c3.8-.1,7.518-1.623,11.2-2.505A51.981,51.981,0,0,1,24.152,1.614Z" transform="translate(7.037 60.836)" fill="#adce32"/>
        <path id="Trazado_122864" data-name="Trazado 122864" d="M20.33,1.158c.663-.437.045-1.48-.636-1.06C13.592,3.851,6.873,6.391.171,8.838c-.253.092-.223.51.077.493A31.113,31.113,0,0,0,10.686,6.425,64.043,64.043,0,0,0,20.33,1.158Z" transform="translate(8.592 94.047)" fill="#adce32"/>
        <path id="Trazado_122865" data-name="Trazado 122865" d="M2.035,2.6c.582-.236,1.18-.471,1.749-.737,1.1-.514,2.188-1.034,3.311-1.5a.184.184,0,0,0-.1-.353C5.775.254,4.523.472,3.332.827a13.045,13.045,0,0,0-1.773.679A7.926,7.926,0,0,0,.095,2.549c-.244.195.03.582.3.5C.934,2.883,1.514,2.806,2.035,2.6Z" transform="translate(0 104.018)" fill="#adce32"/>
        <path id="Trazado_122866" data-name="Trazado 122866" d="M.111.715c1.531,1.833,3.9,2.9,5.98,3.978a14.523,14.523,0,0,1,5.672,4.492.619.619,0,0,0,1.062-.636,14.392,14.392,0,0,0-5.5-5.017C5.157,2.267,2.862,1.16.609.051A.421.421,0,0,0,.111.715Z" transform="translate(76.48 39.966)" fill="#adce32"/>
        <path id="Trazado_122867" data-name="Trazado 122867" d="M5.879,6.089a33.658,33.658,0,0,1,6.4-2.651,47.644,47.644,0,0,1,13.32-1.856A70.874,70.874,0,0,1,51.8,6.719c.278.109.471-.368.2-.492A68.131,68.131,0,0,0,24.878,0,44.923,44.923,0,0,0,11.14,1.891c-3.7,1.137-8.92,2.938-11.074,6.4a.507.507,0,0,0,.578.728C2.541,8.355,4.127,7.047,5.879,6.089Z" transform="translate(17.358 30.482)" fill="#adce32"/>
      </g>
    </g>
    <g id="Grupo_953395" data-name="Grupo 953395" transform="matrix(0.934, -0.358, 0.358, 0.934, 1155.704, 7698.243)">
      <path id="Trazado_122906" data-name="Trazado 122906" d="M68.692,4.517a195.335,195.335,0,0,0-25.468,8.434A251.084,251.084,0,0,0,18.6,24.56a39.652,39.652,0,0,0-9.369,6.7C6.593,33.91,4.1,37.171.913,39.182c-1.834,1.159-.687,4.269,1.519,3.6.281-.083.523-.214.792-.315,7.7,3.3,15.127,7.389,22.522,11.317,6.918,3.675,13.961,7.087,20.642,11.189C57.518,71.81,70.619,81.767,84.468,80.762c6.118-.445,11.729-3.626,16.487-7.319,5.5-4.264,9.655-11.051,16.815-12.583,12.119-2.592,24.184,3.7,36.282,3.719,7.566.01,19.472-.875,22-9.728,2.922-10.234-6.191-19.779-14.606-23.733A93.979,93.979,0,0,0,145.5,25.849c-6.433-1.709-12.041-3.5-17.461-7.564-5.28-3.959-9.915-8.7-15.328-12.5A32.544,32.544,0,0,0,93.123,0C84.932.108,76.566,2.457,68.692,4.517Z" transform="translate(1.264 0)" fill="#add031"/>
      <g id="Grupo_86435" data-name="Grupo 86435" transform="translate(0 33.935)">
        <path id="Trazado_122907" data-name="Trazado 122907" d="M173.774,16.145c-10.509-2.7-20.688-6.566-31.312-8.853a299.354,299.354,0,0,0-33.227-4.915C97.671,1.231,86.041,1.27,74.446.538a216.648,216.648,0,0,0-34.98.346C26.62,2.132,13.86,3.127,1.173,5.565c-1.526.292-1.6,2.93,0,3.157C6.156,9.431,11.258,7.373,16.2,6.8c5.954-.69,11.887-1.068,17.857-1.565,11.484-.956,22.608-1.9,34.152-1.292,23.03,1.219,46.39.974,69.214,4.688,12.208,1.985,23.842,6.478,35.925,9.054,1,.214,1.425-1.279.424-1.537Z" transform="translate(0 0)" fill="#36753c"/>
      </g>
      <g id="Grupo_86436" data-name="Grupo 86436" transform="translate(43.572 36.965)">
        <path id="Trazado_122908" data-name="Trazado 122908" d="M49.483,36.663A151.383,151.383,0,0,1,23.211,20.009a151.917,151.917,0,0,1-11.616-9.991C9.836,8.335,8.133,6.6,6.435,4.858,4.77,3.15,3.143,1.089.947.061.5-.148-.16.2.035.761.741,2.775,2.262,4.267,3.713,5.786c1.87,1.959,3.868,3.808,5.876,5.626,3.855,3.5,7.822,6.874,11.945,10.051A136.071,136.071,0,0,0,48.7,38c.893.4,1.688-.893.781-1.339Z" transform="translate(0 0)" fill="#36753c"/>
      </g>
      <g id="Grupo_86437" data-name="Grupo 86437" transform="translate(62.995 10.373)">
        <path id="Trazado_122909" data-name="Trazado 122909" d="M1.141,25.511c7.129-5.29,14.231-10.5,22.095-14.664A90.27,90.27,0,0,1,35.647,5.385c4.282-1.505,8.749-2.469,12.94-4.2A.6.6,0,0,0,48.428.015c-4.5-.167-8.905,1.128-13.135,2.581A95.082,95.082,0,0,0,22.535,8.073,86.015,86.015,0,0,0,.2,24.295c-.586.6.206,1.758.938,1.216Z" transform="translate(0 0)" fill="#36753c"/>
      </g>
      <g id="Grupo_86438" data-name="Grupo 86438" transform="translate(131.936 41.233)">
        <path id="Trazado_122910" data-name="Trazado 122910" d="M26.563,17.181a66.581,66.581,0,0,1-13.82-7.655C10.568,8.018,8.5,6.393,6.489,4.682,5.473,3.817,4.473,2.937,3.479,2.049A7.825,7.825,0,0,0,.757.03C.184-.144-.137.478.056.939.527,2.051,1.7,2.791,2.59,3.562Q4.11,4.871,5.661,6.143c2.092,1.709,4.222,3.391,6.4,4.985a48.876,48.876,0,0,0,14.143,7.335c.828.26,1.135-.982.354-1.281Z" transform="translate(0 0)" fill="#36753c"/>
      </g>
      <g id="Grupo_86439" data-name="Grupo 86439" transform="translate(107.395 31.655)">
        <path id="Trazado_122911" data-name="Trazado 122911" d="M40.375.359C33.25.257,26.134-.324,19.018.249A56.35,56.35,0,0,0,9.086,1.807a44.716,44.716,0,0,0-5.11,1.672c-1.3.518-2.9.985-3.839,2.05-.281.318-.117.943.375.909,1.464-.109,2.823-.951,4.212-1.414A44.806,44.806,0,0,1,9.61,3.708a84.966,84.966,0,0,1,10.4-1.532c6.785-.583,13.565-.8,20.368-.888a.465.465,0,0,0,0-.93Z" transform="translate(0 0)" fill="#36753c"/>
      </g>
    </g>
    <g id="Grupo_953396" data-name="Grupo 953396" transform="matrix(-0.866, 0.5, -0.5, -0.866, 450.729, 8221.754)">
      <path id="Trazado_122906-2" data-name="Trazado 122906" d="M46.886,3.083A133.326,133.326,0,0,0,29.5,8.84a171.378,171.378,0,0,0-16.809,7.924A27.065,27.065,0,0,0,6.3,21.336c-1.8,1.81-3.5,4.036-5.676,5.408A1.351,1.351,0,0,0,1.659,29.2c.192-.057.357-.146.541-.215,5.257,2.251,10.325,5.044,15.372,7.724,4.722,2.508,9.529,4.837,14.089,7.637,7.6,4.667,16.54,11.463,25.993,10.777,4.176-.3,8.005-2.475,11.253-5,3.751-2.91,6.59-7.543,11.477-8.589,8.272-1.769,16.507,2.524,24.764,2.539,5.164.007,13.29-.6,15.015-6.64,1.995-6.985-4.226-13.5-9.97-16.2a64.146,64.146,0,0,0-10.884-3.6c-4.391-1.166-8.219-2.388-11.918-5.163-3.6-2.7-6.768-5.941-10.462-8.532A22.213,22.213,0,0,0,63.562,0C57.97.074,52.26,1.677,46.886,3.083Z" transform="translate(0.862 0)" fill="#add031"/>
      <g id="Grupo_86435-2" data-name="Grupo 86435" transform="translate(0 23.162)">
        <path id="Trazado_122907-2" data-name="Trazado 122907" d="M118.61,11.02c-7.173-1.842-14.121-4.482-21.372-6.043A204.325,204.325,0,0,0,74.559,1.622C66.665.84,58.728.867,50.813.367A147.874,147.874,0,0,0,26.938.6C18.17,1.455,9.46,2.135.8,3.8-.241,4-.293,5.8.8,5.953c3.4.484,6.884-.921,10.258-1.314,4.064-.471,8.114-.729,12.188-1.068,7.838-.652,15.431-1.3,23.31-.882,15.719.832,31.664.665,47.243,3.2,8.332,1.355,16.274,4.421,24.521,6.18.681.146.972-.873.29-1.049Z" transform="translate(0 0)" fill="#36753c"/>
      </g>
      <g id="Grupo_86436-2" data-name="Grupo 86436" transform="translate(29.74 25.23)">
        <path id="Trazado_122908-2" data-name="Trazado 122908" d="M33.775,25.025A103.327,103.327,0,0,1,15.843,13.657a103.691,103.691,0,0,1-7.929-6.82c-1.2-1.148-2.363-2.332-3.522-3.522A14.141,14.141,0,0,0,.646.041C.342-.1-.109.139.024.52a9.99,9.99,0,0,0,2.51,3.429c1.276,1.337,2.64,2.6,4.011,3.84,2.631,2.388,5.339,4.692,8.153,6.861A92.876,92.876,0,0,0,33.242,25.938c.61.274,1.152-.61.533-.914Z" transform="translate(0 0)" fill="#36753c"/>
      </g>
      <g id="Grupo_86437-2" data-name="Grupo 86437" transform="translate(42.998 7.081)">
        <path id="Trazado_122909-2" data-name="Trazado 122909" d="M.779,17.413A119.232,119.232,0,0,1,15.86,7.4a61.614,61.614,0,0,1,8.471-3.728C27.254,2.648,30.3,1.99,33.163.812a.41.41,0,0,0-.108-.8,25.033,25.033,0,0,0-8.966,1.762A64.9,64.9,0,0,0,15.382,5.51,58.71,58.71,0,0,0,.139,16.583c-.4.412.141,1.2.64.83Z" transform="translate(0 0)" fill="#36753c"/>
      </g>
      <g id="Grupo_86438-2" data-name="Grupo 86438" transform="translate(90.053 28.144)">
        <path id="Trazado_122910-2" data-name="Trazado 122910" d="M18.131,11.727A45.445,45.445,0,0,1,8.7,6.5C7.213,5.473,5.8,4.364,4.429,3.2,3.736,2.605,3.053,2,2.374,1.4A5.341,5.341,0,0,0,.516.021C.125-.1-.093.326.038.641a5.667,5.667,0,0,0,1.73,1.79q1.037.893,2.1,1.762C5.292,5.359,6.746,6.508,8.236,7.6A33.361,33.361,0,0,0,17.889,12.6c.565.178.775-.67.242-.875Z" transform="translate(0 0)" fill="#36753c"/>
      </g>
      <g id="Grupo_86439-2" data-name="Grupo 86439" transform="translate(73.303 21.607)">
        <path id="Trazado_122911-2" data-name="Trazado 122911" d="M27.558.245C22.695.175,17.838-.221,12.981.17A38.462,38.462,0,0,0,6.2,1.233,30.521,30.521,0,0,0,2.714,2.375a6.684,6.684,0,0,0-2.62,1.4c-.192.217-.08.644.256.62a12.527,12.527,0,0,0,2.875-.965,30.582,30.582,0,0,1,3.335-.9,57.994,57.994,0,0,1,7.1-1.045c4.631-.4,9.259-.546,13.9-.606a.318.318,0,0,0,0-.635Z" transform="translate(0 0)" fill="#36753c"/>
      </g>
    </g>
    <path id="Trazado_698098" data-name="Trazado 698098" d="M0,0H1030V494H0Z" transform="translate(285 7716)" fill="#eff5d6"/>
    <g id="Grupo_953397" data-name="Grupo 953397" transform="translate(54.882 -10.523)">
      <circle id="Elipse_7768" data-name="Elipse 7768" cx="7.073" cy="7.073" r="7.073" transform="translate(421 8144.411) rotate(-30)" fill="#fff"/>
      <circle id="Elipse_7771" data-name="Elipse 7771" cx="4.901" cy="4.901" r="4.901" transform="translate(423.966 8145.206) rotate(-30)" fill="#ffd947"/>
      <path id="flecha-01" d="M34.844,441.247c-3.345,3.631-9.158-.408-6.894-4.793,25.006-48.135,65.676-110.771,130.658-168.248,13.788-12.176,56.966-49.175,144.792-93.781,70.734-35.918,182.464-82.89,333.762-108.405a4.234,4.234,0,0,0,3.508-4.671L635.55,17.823a4.234,4.234,0,0,1,6.853-3.794q62.535,50.083,125.049,100.165a4.247,4.247,0,0,1,.469,6.18q-50.939,55.437-101.879,110.894a4.24,4.24,0,0,1-7.343-2.509l-3.61-43.648a4.236,4.236,0,0,0-4.528-3.875,1223.045,1223.045,0,0,0-161.823,22.946C408.582,221.07,306.275,242.609,196.5,308.753,154.691,333.943,95.441,375.469,34.844,441.247Z" transform="translate(376.963 7737.957)" fill="#0b481e"/>
      <circle id="Elipse_7769" data-name="Elipse 7769" cx="13.049" cy="13.049" r="13.049" transform="translate(464.174 8083.049) rotate(-30)" fill="#f6f6f6"/>
      <circle id="Elipse_7770" data-name="Elipse 7770" cx="17.049" cy="17.049" r="17.049" transform="translate(539 8016.345) rotate(-30)" fill="#fff"/>
      <circle id="Elipse_7772" data-name="Elipse 7772" cx="9.049" cy="9.049" r="9.049" transform="translate(469.639 8084.513) rotate(-30)" fill="#ffd947"/>
      <circle id="Elipse_7773" data-name="Elipse 7773" cx="12.049" cy="12.049" r="12.049" transform="translate(545.83 8018.175) rotate(-30)" fill="#ffd947"/>
      <ellipse id="Elipse_7774" data-name="Elipse 7774" cx="21.836" cy="21.836" rx="21.836" ry="21.836" transform="translate(631 7955.836) rotate(-30)" fill="#fff"/>
      <ellipse id="Elipse_7775" data-name="Elipse 7775" cx="15.432" cy="15.432" rx="15.432" ry="15.432" transform="translate(639.748 7958.18) rotate(-30)" fill="#ffd947"/>
      <ellipse id="Elipse_7776" data-name="Elipse 7776" cx="24.679" cy="24.679" rx="24.679" ry="24.679" transform="translate(743 7907.679) rotate(-30)" fill="#fff"/>
      <ellipse id="Elipse_7777" data-name="Elipse 7777" cx="17.441" cy="17.441" rx="17.441" ry="17.441" transform="translate(752.887 7910.328) rotate(-30)" fill="#ffd947"/>
      <ellipse id="Elipse_7778" data-name="Elipse 7778" cx="30.248" cy="30.248" rx="30.248" ry="30.248" transform="translate(862.852 7868.929) rotate(-30)" fill="#fff"/>
      <ellipse id="Elipse_7779" data-name="Elipse 7779" cx="21.377" cy="21.377" rx="21.377" ry="21.377" transform="translate(874.97 7872.176) rotate(-30)" fill="#ffd947"/>
      <text id="_1._Obtener_la_atención" data-name="1. Obtener la 
atención" transform="translate(445 8168)" fill="#12263f" font-size="16" font-family="Roboto-Regular, Roboto"><tspan x="0" y="0">1. Obtener la </tspan><tspan x="0" y="24">atención</tspan></text>
      <text id="_2._Despertar_interés" data-name="2. Despertar
interés" transform="translate(515 8116.825)" fill="#12263f" font-size="16" font-family="Roboto-Regular, Roboto"><tspan x="0" y="0">2. Despertar</tspan><tspan x="0" y="24">interés</tspan></text>
      <text id="_3._Crear_deseo_de_información" data-name="3. Crear deseo
de información" transform="translate(579.17 8064.825)" fill="#12263f" font-size="16" font-family="Roboto-Regular, Roboto"><tspan x="0" y="0">3. Crear deseo</tspan><tspan x="0" y="24">de información</tspan></text>
      <text id="_4._Convencer_para_que_actuen" data-name="4. Convencer para 
que actuen" transform="translate(682 8017.186)" fill="#12263f" font-size="16" font-family="Roboto-Regular, Roboto"><tspan x="0" y="0">4. Convencer para </tspan><tspan x="0" y="24">que actuen</tspan></text>
      <text id="_5._Lograr_que_actúen" data-name="5. Lograr que
actúen" transform="translate(821 7977)" fill="#12263f" font-size="16" font-family="Roboto-Regular, Roboto"><tspan x="0" y="0">5. Lograr que</tspan><tspan x="0" y="24">actúen</tspan></text>
      <text id="_5._Lograr_que_actúen-2" data-name="5. Lograr que
actúen" transform="translate(932 7953)" fill="#12263f" font-size="16" font-family="Roboto-Regular, Roboto"><tspan x="0" y="0">5. Lograr que</tspan><tspan x="0" y="24">actúen</tspan></text>
    </g>
    <g id="formas_decoracion" data-name="formas decoracion" transform="translate(1125 7706.662) rotate(-25)">
      <path id="Trazado_123280" data-name="Trazado 123280" d="M357.394,329.9c-2.112,0-4.224.017-6.337,0a12.874,12.874,0,0,1-2.3-.156,3.734,3.734,0,0,1-3.1-4.692,23.671,23.671,0,0,1,1.125-3.566c3.809-9.765,7.964-19.391,12.708-28.722.693-1.368,1.489-2.7,2.268-4.017a13.585,13.585,0,0,1,1.177-1.645c2.095-2.458,4.657-2.562,6.977-.26a15.315,15.315,0,0,1,2.735,4.051,77.511,77.511,0,0,1,4.1,9.834c1.956,5.627,3.809,11.288,5.3,17.071a15.245,15.245,0,0,1,.554,3.411,5.46,5.46,0,0,1-3.809,5.817,26.4,26.4,0,0,1-5.886,1.35A132.9,132.9,0,0,1,357.394,329.9Zm1.108-4.709a117.753,117.753,0,0,0,15.789-1.731c3.9-.658,4.242-1.177,3.2-4.969-1.125-4.086-2.372-8.12-3.636-12.171a89.654,89.654,0,0,0-4.83-12.673,31.458,31.458,0,0,0-1.9-3.22.671.671,0,0,0-1.177.069c-1.021,1.731-2.095,3.463-3.013,5.263-4.294,8.518-8.1,17.244-11.669,26.091-.173.45-.363.883-.5,1.35-.45,1.506-.138,1.974,1.385,1.991C354.26,325.206,356.372,325.189,358.5,325.189Z" transform="translate(-345.548 -285.182)" fill="#ffa993"/>
    </g>
    <g id="formas_decoracion-2" data-name="formas decoracion" transform="translate(287 8121.25)">
      <path id="Trazado_123280-2" data-name="Trazado 123280" d="M357.394,329.9c-2.112,0-4.224.017-6.337,0a12.874,12.874,0,0,1-2.3-.156,3.734,3.734,0,0,1-3.1-4.692,23.671,23.671,0,0,1,1.125-3.566c3.809-9.765,7.964-19.391,12.708-28.722.693-1.368,1.489-2.7,2.268-4.017a13.585,13.585,0,0,1,1.177-1.645c2.095-2.458,4.657-2.562,6.977-.26a15.315,15.315,0,0,1,2.735,4.051,77.511,77.511,0,0,1,4.1,9.834c1.956,5.627,3.809,11.288,5.3,17.071a15.245,15.245,0,0,1,.554,3.411,5.46,5.46,0,0,1-3.809,5.817,26.4,26.4,0,0,1-5.886,1.35A132.9,132.9,0,0,1,357.394,329.9Zm1.108-4.709a117.753,117.753,0,0,0,15.789-1.731c3.9-.658,4.242-1.177,3.2-4.969-1.125-4.086-2.372-8.12-3.636-12.171a89.654,89.654,0,0,0-4.83-12.673,31.458,31.458,0,0,0-1.9-3.22.671.671,0,0,0-1.177.069c-1.021,1.731-2.095,3.463-3.013,5.263-4.294,8.518-8.1,17.244-11.669,26.091-.173.45-.363.883-.5,1.35-.45,1.506-.138,1.974,1.385,1.991C354.26,325.206,356.372,325.189,358.5,325.189Z" transform="translate(-345.548 -285.182)" fill="#ffa993"/>
    </g>
  </g>
</svg>
