<svg xmlns="http://www.w3.org/2000/svg" width="873" height="765.625" viewBox="0 0 873 765.625">
  <g id="Grupo_1013390" data-name="Grupo 1013390" transform="translate(6662 3915.625)">
    <path id="Trazado_698104" data-name="Trazado 698104" d="M10,0H863a10,10,0,0,1,10,10V740a10,10,0,0,1-10,10H10A10,10,0,0,1,0,740V10A10,10,0,0,1,10,0Z" transform="translate(-6662 -3900)" fill="#eff5d6"/>
    <path id="Trazado_698113" data-name="Trazado 698113" d="M18,0H297a18,18,0,0,1,18,18V28a18,18,0,0,1-18,18H18A18,18,0,0,1,0,28V18A18,18,0,0,1,18,0Z" transform="translate(-6318.126 -3468.114)" fill="#ffd947"/>
    <path id="Trazado_698111" data-name="Trazado 698111" d="M18,0H297a18,18,0,0,1,18,18V28a18,18,0,0,1-18,18H18A18,18,0,0,1,0,28V18A18,18,0,0,1,18,0Z" transform="translate(-6318.126 -3414.114)" fill="#ffd947"/>
    <path id="Trazado_698105" data-name="Trazado 698105" d="M18,0H297a18,18,0,0,1,18,18V28a18,18,0,0,1-18,18H18A18,18,0,0,1,0,28V18A18,18,0,0,1,18,0Z" transform="translate(-6320.328 -3360.114)" fill="#ffd947"/>
    <path id="Trazado_698106" data-name="Trazado 698106" d="M18,0H297a18,18,0,0,1,18,18V28a18,18,0,0,1-18,18H18A18,18,0,0,1,0,28V18A18,18,0,0,1,18,0Z" transform="translate(-6320.328 -3306.114)" fill="#ffd947"/>
    <path id="Trazado_698107" data-name="Trazado 698107" d="M18,0H297a18,18,0,0,1,18,18V28a18,18,0,0,1-18,18H18A18,18,0,0,1,0,28V18A18,18,0,0,1,18,0Z" transform="translate(-6320.328 -3252.114)" fill="#ffd947"/>
    <g id="Grupo_1012897" data-name="Grupo 1012897" transform="translate(-6192.228 -3688.689) rotate(-39)">
      <path id="Trazado_122906" data-name="Trazado 122906" d="M68.692,4.517a195.335,195.335,0,0,0-25.468,8.434A251.084,251.084,0,0,0,18.6,24.56a39.652,39.652,0,0,0-9.369,6.7C6.593,33.91,4.1,37.171.913,39.182c-1.834,1.159-.687,4.269,1.519,3.6.281-.083.523-.214.792-.315,7.7,3.3,15.127,7.389,22.522,11.317,6.918,3.675,13.961,7.087,20.642,11.189C57.518,71.81,70.619,81.767,84.468,80.762c6.118-.445,11.729-3.626,16.487-7.319,5.5-4.264,9.655-11.051,16.815-12.583,12.119-2.592,24.184,3.7,36.282,3.719,7.566.01,19.472-.875,22-9.728,2.922-10.234-6.191-19.779-14.606-23.733A93.979,93.979,0,0,0,145.5,25.849c-6.433-1.709-12.041-3.5-17.461-7.564-5.28-3.959-9.915-8.7-15.328-12.5A32.544,32.544,0,0,0,93.123,0C84.932.108,76.566,2.457,68.692,4.517Z" transform="translate(1.264 0)" fill="#add031"/>
      <g id="Grupo_86435" data-name="Grupo 86435" transform="translate(0 33.935)">
        <path id="Trazado_122907" data-name="Trazado 122907" d="M173.774,16.145c-10.509-2.7-20.688-6.566-31.312-8.853a299.354,299.354,0,0,0-33.227-4.915C97.671,1.231,86.041,1.27,74.446.538a216.648,216.648,0,0,0-34.98.346C26.62,2.132,13.86,3.127,1.173,5.565c-1.526.292-1.6,2.93,0,3.157C6.156,9.431,11.258,7.373,16.2,6.8c5.954-.69,11.887-1.068,17.857-1.565,11.484-.956,22.608-1.9,34.152-1.292,23.03,1.219,46.39.974,69.214,4.688,12.208,1.985,23.842,6.478,35.925,9.054,1,.214,1.425-1.279.424-1.537Z" transform="translate(0 0)" fill="#36753c"/>
      </g>
      <g id="Grupo_86436" data-name="Grupo 86436" transform="translate(43.572 36.965)">
        <path id="Trazado_122908" data-name="Trazado 122908" d="M49.483,36.663A151.383,151.383,0,0,1,23.211,20.009a151.917,151.917,0,0,1-11.616-9.991C9.836,8.335,8.133,6.6,6.435,4.858,4.77,3.15,3.143,1.089.947.061.5-.148-.16.2.035.761.741,2.775,2.262,4.267,3.713,5.786c1.87,1.959,3.868,3.808,5.876,5.626,3.855,3.5,7.822,6.874,11.945,10.051A136.071,136.071,0,0,0,48.7,38c.893.4,1.688-.893.781-1.339Z" transform="translate(0 0)" fill="#36753c"/>
      </g>
      <g id="Grupo_86437" data-name="Grupo 86437" transform="translate(62.995 10.373)">
        <path id="Trazado_122909" data-name="Trazado 122909" d="M1.141,25.511c7.129-5.29,14.231-10.5,22.095-14.664A90.27,90.27,0,0,1,35.647,5.385c4.282-1.505,8.749-2.469,12.94-4.2A.6.6,0,0,0,48.428.015c-4.5-.167-8.905,1.128-13.135,2.581A95.082,95.082,0,0,0,22.535,8.073,86.015,86.015,0,0,0,.2,24.295c-.586.6.206,1.758.938,1.216Z" transform="translate(0 0)" fill="#36753c"/>
      </g>
      <g id="Grupo_86438" data-name="Grupo 86438" transform="translate(131.936 41.233)">
        <path id="Trazado_122910" data-name="Trazado 122910" d="M26.563,17.181a66.581,66.581,0,0,1-13.82-7.655C10.568,8.018,8.5,6.393,6.489,4.682,5.473,3.817,4.473,2.937,3.479,2.049A7.825,7.825,0,0,0,.757.03C.184-.144-.137.478.056.939.527,2.051,1.7,2.791,2.59,3.562Q4.11,4.871,5.661,6.143c2.092,1.709,4.222,3.391,6.4,4.985a48.876,48.876,0,0,0,14.143,7.335c.828.26,1.135-.982.354-1.281Z" transform="translate(0 0)" fill="#36753c"/>
      </g>
      <g id="Grupo_86439" data-name="Grupo 86439" transform="translate(107.395 31.655)">
        <path id="Trazado_122911" data-name="Trazado 122911" d="M40.375.359C33.25.257,26.134-.324,19.018.249A56.35,56.35,0,0,0,9.086,1.807a44.716,44.716,0,0,0-5.11,1.672c-1.3.518-2.9.985-3.839,2.05-.281.318-.117.943.375.909,1.464-.109,2.823-.951,4.212-1.414A44.806,44.806,0,0,1,9.61,3.708a84.966,84.966,0,0,1,10.4-1.532c6.785-.583,13.565-.8,20.368-.888a.465.465,0,0,0,0-.93Z" transform="translate(0 0)" fill="#36753c"/>
      </g>
    </g>
    <g id="Grupo_1012898" data-name="Grupo 1012898" transform="matrix(-0.866, 0.5, -0.5, -0.866, -6467.878, -3464.461)">
      <path id="Trazado_122906-2" data-name="Trazado 122906" d="M46.886,3.083A133.326,133.326,0,0,0,29.5,8.84a171.378,171.378,0,0,0-16.809,7.924A27.065,27.065,0,0,0,6.3,21.336c-1.8,1.81-3.5,4.036-5.676,5.408A1.351,1.351,0,0,0,1.659,29.2c.192-.057.357-.146.541-.215,5.257,2.251,10.325,5.044,15.372,7.724,4.722,2.508,9.529,4.837,14.089,7.637,7.6,4.667,16.54,11.463,25.993,10.777,4.176-.3,8.005-2.475,11.253-5,3.751-2.91,6.59-7.543,11.477-8.589,8.272-1.769,16.507,2.524,24.764,2.539,5.164.007,13.29-.6,15.015-6.64,1.995-6.985-4.226-13.5-9.97-16.2a64.146,64.146,0,0,0-10.884-3.6c-4.391-1.166-8.219-2.388-11.918-5.163-3.6-2.7-6.768-5.941-10.462-8.532A22.213,22.213,0,0,0,63.562,0C57.97.074,52.26,1.677,46.886,3.083Z" transform="translate(0.862 0)" fill="#add031"/>
      <g id="Grupo_86435-2" data-name="Grupo 86435" transform="translate(0 23.162)">
        <path id="Trazado_122907-2" data-name="Trazado 122907" d="M118.61,11.02c-7.173-1.842-14.121-4.482-21.372-6.043A204.325,204.325,0,0,0,74.559,1.622C66.665.84,58.728.867,50.813.367A147.874,147.874,0,0,0,26.938.6C18.17,1.455,9.46,2.135.8,3.8-.241,4-.293,5.8.8,5.953c3.4.484,6.884-.921,10.258-1.314,4.064-.471,8.114-.729,12.188-1.068,7.838-.652,15.431-1.3,23.31-.882,15.719.832,31.664.665,47.243,3.2,8.332,1.355,16.274,4.421,24.521,6.18.681.146.972-.873.29-1.049Z" transform="translate(0 0)" fill="#36753c"/>
      </g>
      <g id="Grupo_86436-2" data-name="Grupo 86436" transform="translate(29.74 25.23)">
        <path id="Trazado_122908-2" data-name="Trazado 122908" d="M33.775,25.025A103.327,103.327,0,0,1,15.843,13.657a103.691,103.691,0,0,1-7.929-6.82c-1.2-1.148-2.363-2.332-3.522-3.522A14.141,14.141,0,0,0,.646.041C.342-.1-.109.139.024.52a9.99,9.99,0,0,0,2.51,3.429c1.276,1.337,2.64,2.6,4.011,3.84,2.631,2.388,5.339,4.692,8.153,6.861A92.876,92.876,0,0,0,33.242,25.938c.61.274,1.152-.61.533-.914Z" transform="translate(0 0)" fill="#36753c"/>
      </g>
      <g id="Grupo_86437-2" data-name="Grupo 86437" transform="translate(42.998 7.081)">
        <path id="Trazado_122909-2" data-name="Trazado 122909" d="M.779,17.413A119.232,119.232,0,0,1,15.86,7.4a61.614,61.614,0,0,1,8.471-3.728C27.254,2.648,30.3,1.99,33.163.812a.41.41,0,0,0-.108-.8,25.033,25.033,0,0,0-8.966,1.762A64.9,64.9,0,0,0,15.382,5.51,58.71,58.71,0,0,0,.139,16.583c-.4.412.141,1.2.64.83Z" transform="translate(0 0)" fill="#36753c"/>
      </g>
      <g id="Grupo_86438-2" data-name="Grupo 86438" transform="translate(90.053 28.144)">
        <path id="Trazado_122910-2" data-name="Trazado 122910" d="M18.131,11.727A45.445,45.445,0,0,1,8.7,6.5C7.213,5.473,5.8,4.364,4.429,3.2,3.736,2.605,3.053,2,2.374,1.4A5.341,5.341,0,0,0,.516.021C.125-.1-.093.326.038.641a5.667,5.667,0,0,0,1.73,1.79q1.037.893,2.1,1.762C5.292,5.359,6.746,6.508,8.236,7.6A33.361,33.361,0,0,0,17.889,12.6c.565.178.775-.67.242-.875Z" transform="translate(0 0)" fill="#36753c"/>
      </g>
      <g id="Grupo_86439-2" data-name="Grupo 86439" transform="translate(73.303 21.607)">
        <path id="Trazado_122911-2" data-name="Trazado 122911" d="M27.558.245C22.695.175,17.838-.221,12.981.17A38.462,38.462,0,0,0,6.2,1.233,30.521,30.521,0,0,0,2.714,2.375a6.684,6.684,0,0,0-2.62,1.4c-.192.217-.08.644.256.62a12.527,12.527,0,0,0,2.875-.965,30.582,30.582,0,0,1,3.335-.9,57.994,57.994,0,0,1,7.1-1.045c4.631-.4,9.259-.546,13.9-.606a.318.318,0,0,0,0-.635Z" transform="translate(0 0)" fill="#36753c"/>
      </g>
    </g>
    <g id="Grupo_1012899" data-name="Grupo 1012899" transform="translate(-7024.138 -11529.219)">
      <circle id="Elipse_7768" data-name="Elipse 7768" cx="7.647" cy="7.647" r="7.647" transform="translate(422.348 8176.352) rotate(-30)" fill="#fff"/>
      <circle id="Elipse_7771" data-name="Elipse 7771" cx="5.299" cy="5.299" r="5.299" transform="translate(425.554 8177.211) rotate(-30)" fill="#ffd947"/>
      <path id="flecha-01" d="M35.445,476.012c-3.617,3.925-9.9-.441-7.454-5.182C55.027,418.787,99,351.064,169.258,288.921c14.907-13.165,61.592-53.168,156.549-101.4C402.284,148.691,523.087,97.9,686.67,70.317a4.578,4.578,0,0,0,3.793-5.05l-5.535-47.06a4.577,4.577,0,0,1,7.409-4.1q67.612,54.149,135.2,108.3a4.592,4.592,0,0,1,.507,6.682q-55.076,59.938-110.151,119.9a4.584,4.584,0,0,1-7.939-2.712l-3.9-47.192a4.58,4.58,0,0,0-4.9-4.19A1322.354,1322.354,0,0,0,526.2,219.7c-86.665,18.259-197.28,41.546-315.965,113.062C165.024,360,100.962,404.894,35.445,476.012Z" transform="translate(376.963 7737.957)" fill="#0b481e"/>
      <circle id="Elipse_7769" data-name="Elipse 7769" cx="14.109" cy="14.109" r="14.109" transform="translate(469.028 8110.007) rotate(-30)" fill="#f6f6f6"/>
      <circle id="Elipse_7770" data-name="Elipse 7770" cx="18.433" cy="18.433" r="18.433" transform="translate(549.929 8037.887) rotate(-30)" fill="#fff"/>
      <circle id="Elipse_7772" data-name="Elipse 7772" cx="9.784" cy="9.784" r="9.784" transform="translate(474.936 8111.59) rotate(-30)" fill="#ffd947"/>
      <circle id="Elipse_7773" data-name="Elipse 7773" cx="13.027" cy="13.027" r="13.027" transform="translate(557.314 8039.865) rotate(-30)" fill="#ffd947"/>
      <ellipse id="Elipse_7774" data-name="Elipse 7774" cx="23.609" cy="23.609" rx="23.609" ry="23.609" transform="translate(649.399 7972.465) rotate(-30)" fill="#fff"/>
      <ellipse id="Elipse_7775" data-name="Elipse 7775" cx="16.685" cy="16.685" rx="16.685" ry="16.685" transform="translate(658.857 7974.999) rotate(-30)" fill="#ffd947"/>
      <ellipse id="Elipse_7776" data-name="Elipse 7776" cx="26.683" cy="26.683" rx="26.683" ry="26.683" transform="translate(770.494 7920.397) rotate(-30)" fill="#fff"/>
      <ellipse id="Elipse_7777" data-name="Elipse 7777" cx="18.857" cy="18.857" rx="18.857" ry="18.857" transform="translate(781.183 7923.262) rotate(-30)" fill="#ffd947"/>
      <ellipse id="Elipse_7778" data-name="Elipse 7778" cx="32.705" cy="32.704" rx="32.705" ry="32.704" transform="translate(900.077 7878.5) rotate(-30)" fill="#fff"/>
      <ellipse id="Elipse_7779" data-name="Elipse 7779" cx="23.113" cy="23.113" rx="23.113" ry="23.113" transform="translate(913.179 7882.011) rotate(-30)" fill="#ffd947"/>
    </g>
    <g id="formas_decoracion" data-name="formas decoracion" transform="matrix(0.731, -0.682, 0.682, 0.731, -6037.279, -3718.338)">
      <path id="Trazado_123280" data-name="Trazado 123280" d="M357.394,329.9c-2.112,0-4.224.017-6.337,0a12.874,12.874,0,0,1-2.3-.156,3.734,3.734,0,0,1-3.1-4.692,23.671,23.671,0,0,1,1.125-3.566c3.809-9.765,7.964-19.391,12.708-28.722.693-1.368,1.489-2.7,2.268-4.017a13.585,13.585,0,0,1,1.177-1.645c2.095-2.458,4.657-2.562,6.977-.26a15.315,15.315,0,0,1,2.735,4.051,77.511,77.511,0,0,1,4.1,9.834c1.956,5.627,3.809,11.288,5.3,17.071a15.245,15.245,0,0,1,.554,3.411,5.46,5.46,0,0,1-3.809,5.817,26.4,26.4,0,0,1-5.886,1.35A132.9,132.9,0,0,1,357.394,329.9Zm1.108-4.709a117.753,117.753,0,0,0,15.789-1.731c3.9-.658,4.242-1.177,3.2-4.969-1.125-4.086-2.372-8.12-3.636-12.171a89.654,89.654,0,0,0-4.83-12.673,31.458,31.458,0,0,0-1.9-3.22.671.671,0,0,0-1.177.069c-1.021,1.731-2.095,3.463-3.013,5.263-4.294,8.518-8.1,17.244-11.669,26.091-.173.45-.363.883-.5,1.35-.45,1.506-.138,1.974,1.385,1.991C354.26,325.206,356.372,325.189,358.5,325.189Z" transform="translate(-345.548 -285.182)" fill="#ffa993"/>
    </g>
    <g id="Grupo_1012896" data-name="Grupo 1012896" transform="translate(-6036.428 -3328.035) rotate(-5)">
      <path id="Trazado_122857" data-name="Trazado 122857" d="M40.255,143.423c5.1-3.242,8.509-8.507,11.6-13.562,1.614-2.642,3.09-5.379,4.768-7.98a20.636,20.636,0,0,1,3.518-4.293,22.958,22.958,0,0,0,1.991-1.734A3.485,3.485,0,0,1,64.489,117c1.019,1.21.615,2.944.24,4.312a26.073,26.073,0,0,1-4.167,8.845,34.426,34.426,0,0,1-7.389,6.907,33.572,33.572,0,0,1-3.987,2.539,15.612,15.612,0,0,0-3.741,2.1c-4.184,4.051,5.327,6.25,7.629,6.621,5.576.9,11.443.749,16.644-1.636,9.154-4.195,15.217-13.839,19.718-22.44,2.681-5.12,5.094-10.346,8.167-15.256a52.4,52.4,0,0,1,4.916-7.01c.526-.6,1.353-1.664,2.128-1.073.692.527.433,2.993.424,3.8-.135,13.492-7.462,25.878-16.609,35.321a37.659,37.659,0,0,1-6.55,5.445c-1.291.848-3.2,2.186-2.739,4.006,1.1,4.355,9.668,3.509,12.753,3.03,10.31-1.6,22.093-6.6,26.947-16.387,3.036-6.117,3.848-13.01,4.631-19.708.861-7.379,1.833-14.77,2.383-22.181.31-4.2.6-8.389,2.726-12.138.717-1.268,1.833-3.083,3.4-3.366,2.289-.411,3.6,2.426,4.244,4.188,2.113,5.818.818,12.327.056,18.273-1.728,13.457-4.859,26.521-11.081,38.655a1.882,1.882,0,0,0,.52,3.278c4.426,1.653,9.562-.623,13.686-2.208a45.051,45.051,0,0,0,13.751-8.13c8.173-7.154,11.764-17.813,12.474-28.405.84-12.5-3.04-25.215-4.492-37.554-.422-3.578-1.287-7.948-.445-11.532,1.411-6,8.064,2.839,9.188,5.107a66.7,66.7,0,0,1,5.834,18.267c1.141,6.725.953,13.419,1.152,20.2a.917.917,0,0,0,.2.527c.311,1.946,2.154,2.516,4.047.983,3.86-3.128,5-8.892,5.973-13.464,2.42-11.359,3.364-23.641-.07-34.878-3.257-10.663-9.965-20.388-17.929-28.09a85.564,85.564,0,0,0-13.457-10.811A71.758,71.758,0,0,0,139.6,6.1,141.515,141.515,0,0,0,121.244.9C116.606.04,111-.692,106.446,1.128c-3.195-.135-6.381-.212-9.537-.251C82.146.693,65.888,2.751,54.062,12.38c-4.017,3.272-8.631,8.13-9.987,13.256-.514,1.946-.285,4.186,1.559,5.355,2.567,1.627,6.209.469,8.972.109,8.267-1.079,16.868.454,24.919,2.34,7.241,1.7,14.67,4.28,20.307,9.314,2.85,2.546,5.728,6.038,6.792,9.785,1.6,5.623-4.293,6.811-8.495,5.563-4.52-1.343-8.716-3.811-13.161-5.419-4.709-1.7-9.526-3-14.342-4.362C55.475,44.042,38.41,43.583,24.839,52.8c-4.831,3.28-9.423,8.156-11.552,13.659-.961,2.482-1.325,5.4.334,7.668,2.025,2.771,5.591,2.7,8.565,1.717,4.473-1.473,8.637-3.76,13.162-5.175A93.984,93.984,0,0,1,49.9,67.081c4.614-.664,8.77-.047,13.29.831a57.26,57.26,0,0,1,10.715,2.653c1.147.465,8.222,4.95,5.907,5.792-1.918.7-5.494-.809-7.451-1.195-4.833-.949-9.673-2.175-14.609-2.435-5.008-.261-10.091.471-15.046,1.143-8.113,1.1-15.793,2.82-22.9,7.045A43.721,43.721,0,0,0,4.044,96.7c-1.3,2.257-2.713,5.008-1.478,7.558a1.826,1.826,0,0,0,2.075.812c3.317-1.313,6.914-1.5,10.291-2.6,4.216-1.373,8.256-2.893,12.68-3.531a16.6,16.6,0,0,1,13.312,3.726c.1,2.569-2.261,4.2-4.663,4.886-5.034,1.443-10.357,1.415-15.406,3a26.388,26.388,0,0,0-12.246,7.7,47.391,47.391,0,0,0-4.984,7.3C2.11,128.107-.341,131.783.04,134.89a1.5,1.5,0,0,0,.071.257.445.445,0,0,0,.067.45c2.006,2.548,5.458,3.861,8.41,4.968,3.645,1.364,7.406,2.55,11.147,3.612C26.489,146.1,34,147.4,40.255,143.423Zm68.664-107.7c-3.533-1.366-12.789-7.265-9.413-11.986,3.42-4.781,13.014-1.364,17.147.058,6.835,2.351,16.971,6.475,21.71,12.28,2.548,3.12.494,4.357-2.645,4.344a87.206,87.206,0,0,1-11.3-.76A68.084,68.084,0,0,1,108.919,35.727Z" transform="translate(0 0)" fill="#0b481e"/>
      <g id="Grupo_86396" data-name="Grupo 86396" transform="translate(11.201 24.212)" opacity="0.7">
        <path id="Trazado_122858" data-name="Trazado 122858" d="M7.887,88.451c3.49-1.91,6.952-3.871,10.4-5.852,9.347-5.362,18.71-10.672,27.955-16.2,8.483-5.077,16.841-10.421,24.973-16.044,10.128-7.006,20.168-14.41,29.713-22.217a66.412,66.412,0,0,1,2.355,12.331c.043.394.7.548.758.083a25.574,25.574,0,0,0-.163-7.376,41.4,41.4,0,0,0-1.576-6.147c.246-.2.5-.4.75-.606,9.577-7.959,19.217-16.005,27.874-24.977A.854.854,0,0,0,129.71.248C121.546,8.156,112.3,15.057,103.3,21.979,92.845,30.03,82.117,37.8,71.4,45.5,55.01,57.266,37.686,67.972,20.44,78.415c-6.5,3.931-13.359,7.167-19.9,10.959-1.133.655-.292,2.19.865,1.976C3.741,90.911,5.821,89.583,7.887,88.451Z" transform="translate(33.167 0)" fill="#adce32"/>
        <path id="Trazado_122859" data-name="Trazado 122859" d="M6.385.3A139.273,139.273,0,0,1,4.95,28.429c-.664,4.387-1.541,8.745-2.424,13.091C1.674,45.717.015,50.162,0,54.453a.455.455,0,0,0,.845.21c1.972-3.756,2.5-8.605,3.336-12.727.95-4.689,1.623-9.413,2.16-14.164A150.808,150.808,0,0,0,6.987.283C6.959-.1,6.364-.091,6.385.3Z" transform="translate(131.298 53.846)" fill="#adce32"/>
        <path id="Trazado_122860" data-name="Trazado 122860" d="M14.275,36.549A99.587,99.587,0,0,0,16.8,16.518c.041-5.533.112-10.969-1.507-16.324-.107-.355-.683-.173-.546.158,2.049,4.991.871,10.942.745,16.2a99.938,99.938,0,0,1-2.484,19.17C10.661,46.544,6.83,56.865.1,65.736a.42.42,0,0,0,.514.651c3.9-1.822,5.546-8.222,7.152-11.843,1.148-2.593,2.717-4.985,3.79-7.61A59.575,59.575,0,0,0,14.275,36.549Z" transform="translate(89.443 51.57)" fill="#adce32"/>
        <path id="Trazado_122861" data-name="Trazado 122861" d="M4.724,23.477c1.317-2.458,2.661-4.9,3.871-7.417,2.34-4.867,4.229-9.954,4.186-15.429a.67.67,0,0,0-1.338.032C11.5,6.354,9.393,11.677,6.8,16.647,5.55,19.03,4.2,21.362,2.9,23.715,1.831,25.646.036,28.049,0,30.312a.441.441,0,0,0,.747.293A10.871,10.871,0,0,0,2.7,27.348C3.351,26.046,4.036,24.76,4.724,23.477Z" transform="translate(62.335 73.83)" fill="#adce32"/>
        <path id="Trazado_122862" data-name="Trazado 122862" d="M4.7,10.69A30.428,30.428,0,0,0,8.174,7.75,52.9,52.9,0,0,0,13.721.718c.321-.452-.4-.974-.771-.578C10.976,2.26,8.857,4.213,6.711,6.153,5.666,7.1,4.6,8.028,3.467,8.87,2.367,9.692.793,10.392.092,11.6a.7.7,0,0,0,.615,1.023C2.142,12.692,3.589,11.5,4.7,10.69Z" transform="translate(46.607 107.806)" fill="#adce32"/>
        <path id="Trazado_122863" data-name="Trazado 122863" d="M24.152,1.614c8.109.077,17.084,1.377,24.384,5.06.918.465,1.706-.914.79-1.4C41.943,1.377,33.186.317,24.938.023A50.188,50.188,0,0,0,12.675,1.291C8.532,2.179,3.911,3.036.175,5.085a.371.371,0,0,0,.2.683c3.8-.1,7.518-1.623,11.2-2.505A51.981,51.981,0,0,1,24.152,1.614Z" transform="translate(7.037 60.836)" fill="#adce32"/>
        <path id="Trazado_122864" data-name="Trazado 122864" d="M20.33,1.158c.663-.437.045-1.48-.636-1.06C13.592,3.851,6.873,6.391.171,8.838c-.253.092-.223.51.077.493A31.113,31.113,0,0,0,10.686,6.425,64.043,64.043,0,0,0,20.33,1.158Z" transform="translate(8.592 94.047)" fill="#adce32"/>
        <path id="Trazado_122865" data-name="Trazado 122865" d="M2.035,2.6c.582-.236,1.18-.471,1.749-.737,1.1-.514,2.188-1.034,3.311-1.5a.184.184,0,0,0-.1-.353C5.775.254,4.523.472,3.332.827a13.045,13.045,0,0,0-1.773.679A7.926,7.926,0,0,0,.095,2.549c-.244.195.03.582.3.5C.934,2.883,1.514,2.806,2.035,2.6Z" transform="translate(0 104.018)" fill="#adce32"/>
        <path id="Trazado_122866" data-name="Trazado 122866" d="M.111.715c1.531,1.833,3.9,2.9,5.98,3.978a14.523,14.523,0,0,1,5.672,4.492.619.619,0,0,0,1.062-.636,14.392,14.392,0,0,0-5.5-5.017C5.157,2.267,2.862,1.16.609.051A.421.421,0,0,0,.111.715Z" transform="translate(76.48 39.966)" fill="#adce32"/>
        <path id="Trazado_122867" data-name="Trazado 122867" d="M5.879,6.089a33.658,33.658,0,0,1,6.4-2.651,47.644,47.644,0,0,1,13.32-1.856A70.874,70.874,0,0,1,51.8,6.719c.278.109.471-.368.2-.492A68.131,68.131,0,0,0,24.878,0,44.923,44.923,0,0,0,11.14,1.891c-3.7,1.137-8.92,2.938-11.074,6.4a.507.507,0,0,0,.578.728C2.541,8.355,4.127,7.047,5.879,6.089Z" transform="translate(17.358 30.482)" fill="#adce32"/>
      </g>
    </g>
    <g id="Grupo_1012900" data-name="Grupo 1012900" transform="matrix(-0.848, -0.53, 0.53, -0.848, -6501.47, -3685.63)">
      <path id="Trazado_122857-2" data-name="Trazado 122857" d="M40.255,143.423c5.1-3.242,8.509-8.507,11.6-13.562,1.614-2.642,3.09-5.379,4.768-7.98a20.636,20.636,0,0,1,3.518-4.293,22.958,22.958,0,0,0,1.991-1.734A3.485,3.485,0,0,1,64.489,117c1.019,1.21.615,2.944.24,4.312a26.073,26.073,0,0,1-4.167,8.845,34.426,34.426,0,0,1-7.389,6.907,33.572,33.572,0,0,1-3.987,2.539,15.612,15.612,0,0,0-3.741,2.1c-4.184,4.051,5.327,6.25,7.629,6.621,5.576.9,11.443.749,16.644-1.636,9.154-4.195,15.217-13.839,19.718-22.44,2.681-5.12,5.094-10.346,8.167-15.256a52.4,52.4,0,0,1,4.916-7.01c.526-.6,1.353-1.664,2.128-1.073.692.527.433,2.993.424,3.8-.135,13.492-7.462,25.878-16.609,35.321a37.659,37.659,0,0,1-6.55,5.445c-1.291.848-3.2,2.186-2.739,4.006,1.1,4.355,9.668,3.509,12.753,3.03,10.31-1.6,22.093-6.6,26.947-16.387,3.036-6.117,3.848-13.01,4.631-19.708.861-7.379,1.833-14.77,2.383-22.181.31-4.2.6-8.389,2.726-12.138.717-1.268,1.833-3.083,3.4-3.366,2.289-.411,3.6,2.426,4.244,4.188,2.113,5.818.818,12.327.056,18.273-1.728,13.457-4.859,26.521-11.081,38.655a1.882,1.882,0,0,0,.52,3.278c4.426,1.653,9.562-.623,13.686-2.208a45.051,45.051,0,0,0,13.751-8.13c8.173-7.154,11.764-17.813,12.474-28.405.84-12.5-3.04-25.215-4.492-37.554-.422-3.578-1.287-7.948-.445-11.532,1.411-6,8.064,2.839,9.188,5.107a66.7,66.7,0,0,1,5.834,18.267c1.141,6.725.953,13.419,1.152,20.2a.917.917,0,0,0,.2.527c.311,1.946,2.154,2.516,4.047.983,3.86-3.128,5-8.892,5.973-13.464,2.42-11.359,3.364-23.641-.07-34.878-3.257-10.663-9.965-20.388-17.929-28.09a85.564,85.564,0,0,0-13.457-10.811A71.758,71.758,0,0,0,139.6,6.1,141.515,141.515,0,0,0,121.244.9C116.606.04,111-.692,106.446,1.128c-3.195-.135-6.381-.212-9.537-.251C82.146.693,65.888,2.751,54.062,12.38c-4.017,3.272-8.631,8.13-9.987,13.256-.514,1.946-.285,4.186,1.559,5.355,2.567,1.627,6.209.469,8.972.109,8.267-1.079,16.868.454,24.919,2.34,7.241,1.7,14.67,4.28,20.307,9.314,2.85,2.546,5.728,6.038,6.792,9.785,1.6,5.623-4.293,6.811-8.495,5.563-4.52-1.343-8.716-3.811-13.161-5.419-4.709-1.7-9.526-3-14.342-4.362C55.475,44.042,38.41,43.583,24.839,52.8c-4.831,3.28-9.423,8.156-11.552,13.659-.961,2.482-1.325,5.4.334,7.668,2.025,2.771,5.591,2.7,8.565,1.717,4.473-1.473,8.637-3.76,13.162-5.175A93.984,93.984,0,0,1,49.9,67.081c4.614-.664,8.77-.047,13.29.831a57.26,57.26,0,0,1,10.715,2.653c1.147.465,8.222,4.95,5.907,5.792-1.918.7-5.494-.809-7.451-1.195-4.833-.949-9.673-2.175-14.609-2.435-5.008-.261-10.091.471-15.046,1.143-8.113,1.1-15.793,2.82-22.9,7.045A43.721,43.721,0,0,0,4.044,96.7c-1.3,2.257-2.713,5.008-1.478,7.558a1.826,1.826,0,0,0,2.075.812c3.317-1.313,6.914-1.5,10.291-2.6,4.216-1.373,8.256-2.893,12.68-3.531a16.6,16.6,0,0,1,13.312,3.726c.1,2.569-2.261,4.2-4.663,4.886-5.034,1.443-10.357,1.415-15.406,3a26.388,26.388,0,0,0-12.246,7.7,47.391,47.391,0,0,0-4.984,7.3C2.11,128.107-.341,131.783.04,134.89a1.5,1.5,0,0,0,.071.257.445.445,0,0,0,.067.45c2.006,2.548,5.458,3.861,8.41,4.968,3.645,1.364,7.406,2.55,11.147,3.612C26.489,146.1,34,147.4,40.255,143.423Zm68.664-107.7c-3.533-1.366-12.789-7.265-9.413-11.986,3.42-4.781,13.014-1.364,17.147.058,6.835,2.351,16.971,6.475,21.71,12.28,2.548,3.12.494,4.357-2.645,4.344a87.206,87.206,0,0,1-11.3-.76A68.084,68.084,0,0,1,108.919,35.727Z" transform="translate(0 0)" fill="#0b481e"/>
      <g id="Grupo_86396-2" data-name="Grupo 86396" transform="translate(11.201 24.212)" opacity="0.7">
        <path id="Trazado_122858-2" data-name="Trazado 122858" d="M7.887,88.451c3.49-1.91,6.952-3.871,10.4-5.852,9.347-5.362,18.71-10.672,27.955-16.2,8.483-5.077,16.841-10.421,24.973-16.044,10.128-7.006,20.168-14.41,29.713-22.217a66.412,66.412,0,0,1,2.355,12.331c.043.394.7.548.758.083a25.574,25.574,0,0,0-.163-7.376,41.4,41.4,0,0,0-1.576-6.147c.246-.2.5-.4.75-.606,9.577-7.959,19.217-16.005,27.874-24.977A.854.854,0,0,0,129.71.248C121.546,8.156,112.3,15.057,103.3,21.979,92.845,30.03,82.117,37.8,71.4,45.5,55.01,57.266,37.686,67.972,20.44,78.415c-6.5,3.931-13.359,7.167-19.9,10.959-1.133.655-.292,2.19.865,1.976C3.741,90.911,5.821,89.583,7.887,88.451Z" transform="translate(33.167 0)" fill="#adce32"/>
        <path id="Trazado_122859-2" data-name="Trazado 122859" d="M6.385.3A139.273,139.273,0,0,1,4.95,28.429c-.664,4.387-1.541,8.745-2.424,13.091C1.674,45.717.015,50.162,0,54.453a.455.455,0,0,0,.845.21c1.972-3.756,2.5-8.605,3.336-12.727.95-4.689,1.623-9.413,2.16-14.164A150.808,150.808,0,0,0,6.987.283C6.959-.1,6.364-.091,6.385.3Z" transform="translate(131.298 53.846)" fill="#adce32"/>
        <path id="Trazado_122860-2" data-name="Trazado 122860" d="M14.275,36.549A99.587,99.587,0,0,0,16.8,16.518c.041-5.533.112-10.969-1.507-16.324-.107-.355-.683-.173-.546.158,2.049,4.991.871,10.942.745,16.2a99.938,99.938,0,0,1-2.484,19.17C10.661,46.544,6.83,56.865.1,65.736a.42.42,0,0,0,.514.651c3.9-1.822,5.546-8.222,7.152-11.843,1.148-2.593,2.717-4.985,3.79-7.61A59.575,59.575,0,0,0,14.275,36.549Z" transform="translate(89.443 51.57)" fill="#adce32"/>
        <path id="Trazado_122861-2" data-name="Trazado 122861" d="M4.724,23.477c1.317-2.458,2.661-4.9,3.871-7.417,2.34-4.867,4.229-9.954,4.186-15.429a.67.67,0,0,0-1.338.032C11.5,6.354,9.393,11.677,6.8,16.647,5.55,19.03,4.2,21.362,2.9,23.715,1.831,25.646.036,28.049,0,30.312a.441.441,0,0,0,.747.293A10.871,10.871,0,0,0,2.7,27.348C3.351,26.046,4.036,24.76,4.724,23.477Z" transform="translate(62.335 73.83)" fill="#adce32"/>
        <path id="Trazado_122862-2" data-name="Trazado 122862" d="M4.7,10.69A30.428,30.428,0,0,0,8.174,7.75,52.9,52.9,0,0,0,13.721.718c.321-.452-.4-.974-.771-.578C10.976,2.26,8.857,4.213,6.711,6.153,5.666,7.1,4.6,8.028,3.467,8.87,2.367,9.692.793,10.392.092,11.6a.7.7,0,0,0,.615,1.023C2.142,12.692,3.589,11.5,4.7,10.69Z" transform="translate(46.607 107.806)" fill="#adce32"/>
        <path id="Trazado_122863-2" data-name="Trazado 122863" d="M24.152,1.614c8.109.077,17.084,1.377,24.384,5.06.918.465,1.706-.914.79-1.4C41.943,1.377,33.186.317,24.938.023A50.188,50.188,0,0,0,12.675,1.291C8.532,2.179,3.911,3.036.175,5.085a.371.371,0,0,0,.2.683c3.8-.1,7.518-1.623,11.2-2.505A51.981,51.981,0,0,1,24.152,1.614Z" transform="translate(7.037 60.836)" fill="#adce32"/>
        <path id="Trazado_122864-2" data-name="Trazado 122864" d="M20.33,1.158c.663-.437.045-1.48-.636-1.06C13.592,3.851,6.873,6.391.171,8.838c-.253.092-.223.51.077.493A31.113,31.113,0,0,0,10.686,6.425,64.043,64.043,0,0,0,20.33,1.158Z" transform="translate(8.592 94.047)" fill="#adce32"/>
        <path id="Trazado_122865-2" data-name="Trazado 122865" d="M2.035,2.6c.582-.236,1.18-.471,1.749-.737,1.1-.514,2.188-1.034,3.311-1.5a.184.184,0,0,0-.1-.353C5.775.254,4.523.472,3.332.827a13.045,13.045,0,0,0-1.773.679A7.926,7.926,0,0,0,.095,2.549c-.244.195.03.582.3.5C.934,2.883,1.514,2.806,2.035,2.6Z" transform="translate(0 104.018)" fill="#adce32"/>
        <path id="Trazado_122866-2" data-name="Trazado 122866" d="M.111.715c1.531,1.833,3.9,2.9,5.98,3.978a14.523,14.523,0,0,1,5.672,4.492.619.619,0,0,0,1.062-.636,14.392,14.392,0,0,0-5.5-5.017C5.157,2.267,2.862,1.16.609.051A.421.421,0,0,0,.111.715Z" transform="translate(76.48 39.966)" fill="#adce32"/>
        <path id="Trazado_122867-2" data-name="Trazado 122867" d="M5.879,6.089a33.658,33.658,0,0,1,6.4-2.651,47.644,47.644,0,0,1,13.32-1.856A70.874,70.874,0,0,1,51.8,6.719c.278.109.471-.368.2-.492A68.131,68.131,0,0,0,24.878,0,44.923,44.923,0,0,0,11.14,1.891c-3.7,1.137-8.92,2.938-11.074,6.4a.507.507,0,0,0,.578.728C2.541,8.355,4.127,7.047,5.879,6.089Z" transform="translate(17.358 30.482)" fill="#adce32"/>
      </g>
    </g>
    <path id="Trazado_698114" data-name="Trazado 698114" d="M5.7,17H4.242V7.367L1.328,8.438V7.125L5.469,5.57H5.7Zm4.414-.758a.905.905,0,0,1,.223-.625.848.848,0,0,1,.668-.25.874.874,0,0,1,.676.25.887.887,0,0,1,.23.625.839.839,0,0,1-.23.6.89.89,0,0,1-.676.242.8.8,0,0,1-.891-.844ZM27.227,11.68a7.037,7.037,0,0,1-.562,2.918,4.261,4.261,0,0,1-1.594,1.9,4.4,4.4,0,0,1-6.4-1.887,6.752,6.752,0,0,1-.59-2.832v-.82a6.953,6.953,0,0,1,.57-2.9,4.218,4.218,0,0,1,4-2.594,4.41,4.41,0,0,1,2.41.66,4.253,4.253,0,0,1,1.605,1.914,7.071,7.071,0,0,1,.563,2.918Zm-1.492-.734a5.1,5.1,0,0,0-.812-3.105,2.68,2.68,0,0,0-2.273-1.082A2.651,2.651,0,0,0,20.41,7.84a5,5,0,0,0-.84,3v.836a5.107,5.107,0,0,0,.824,3.082,2.888,2.888,0,0,0,4.52.063,5.079,5.079,0,0,0,.82-3.035Zm10.672,1.922a5.026,5.026,0,0,1-.891,3.113,2.846,2.846,0,0,1-2.391,1.176,2.947,2.947,0,0,1-2.477-1.133l-.07.977H29.25V5H30.7V9.477a2.93,2.93,0,0,1,2.414-1.086,2.863,2.863,0,0,1,2.418,1.164,5.177,5.177,0,0,1,.879,3.188ZM34.961,12.7a3.906,3.906,0,0,0-.57-2.281,1.888,1.888,0,0,0-1.641-.8A2.122,2.122,0,0,0,30.7,10.945V14.6a2.181,2.181,0,0,0,2.07,1.328,1.878,1.878,0,0,0,1.617-.8A4.153,4.153,0,0,0,34.961,12.7Zm5.227-6.2V8.547h1.578V9.664H40.188v5.249a1.173,1.173,0,0,0,.211.763.888.888,0,0,0,.719.254,3.5,3.5,0,0,0,.688-.094V17a4.215,4.215,0,0,1-1.109.155,1.8,1.8,0,0,1-1.461-.586,2.517,2.517,0,0,1-.492-1.664V9.664H37.2V8.547h1.539V6.5Zm6.773,10.656a3.693,3.693,0,0,1-2.8-1.129,4.19,4.19,0,0,1-1.078-3.02v-.266a5.073,5.073,0,0,1,.48-2.246A3.748,3.748,0,0,1,44.91,8.949a3.378,3.378,0,0,1,1.871-.559,3.166,3.166,0,0,1,2.563,1.086,4.7,4.7,0,0,1,.914,3.109v.6H44.531a3,3,0,0,0,.73,2.02,2.3,2.3,0,0,0,1.777.77,2.517,2.517,0,0,0,1.3-.312,3.259,3.259,0,0,0,.93-.828l.883.688A3.55,3.55,0,0,1,46.961,17.156Zm-.18-7.578a1.928,1.928,0,0,0-1.469.637A3.1,3.1,0,0,0,44.578,12h4.234v-.109a2.753,2.753,0,0,0-.594-1.707A1.815,1.815,0,0,0,46.781,9.578ZM53.3,8.547l.047,1.063a3.08,3.08,0,0,1,2.531-1.219q2.68,0,2.7,3.023V17H57.133V11.406a1.946,1.946,0,0,0-.418-1.352,1.675,1.675,0,0,0-1.277-.437,2.086,2.086,0,0,0-1.234.375,2.546,2.546,0,0,0-.828.984V17H51.93V8.547Zm10.969,8.609a3.693,3.693,0,0,1-2.8-1.129,4.19,4.19,0,0,1-1.078-3.02v-.266a5.073,5.073,0,0,1,.48-2.246,3.748,3.748,0,0,1,1.344-1.547,3.378,3.378,0,0,1,1.871-.559,3.166,3.166,0,0,1,2.563,1.086,4.7,4.7,0,0,1,.914,3.109v.6H61.836a3,3,0,0,0,.73,2.02,2.3,2.3,0,0,0,1.777.77,2.517,2.517,0,0,0,1.3-.312,3.259,3.259,0,0,0,.93-.828l.883.688A3.55,3.55,0,0,1,64.266,17.156Zm-.18-7.578a1.928,1.928,0,0,0-1.469.637A3.1,3.1,0,0,0,61.883,12h4.234v-.109a2.753,2.753,0,0,0-.594-1.707A1.815,1.815,0,0,0,64.086,9.578Zm9.234.266a4.331,4.331,0,0,0-.711-.055A1.9,1.9,0,0,0,70.68,11v6H69.234V8.547h1.406l.023.977A2.251,2.251,0,0,1,72.68,8.391a1.477,1.477,0,0,1,.641.109ZM80.18,17H78.734V5H80.18Zm7.531,0a3.036,3.036,0,0,1-.2-.891A3.225,3.225,0,0,1,85.1,17.156a2.984,2.984,0,0,1-2.051-.707,2.288,2.288,0,0,1-.8-1.793,2.39,2.39,0,0,1,1-2.051,4.733,4.733,0,0,1,2.824-.73h1.406v-.664A1.623,1.623,0,0,0,87.031,10,1.821,1.821,0,0,0,85.7,9.555a2.108,2.108,0,0,0-1.3.391,1.151,1.151,0,0,0-.523.945H82.422a2,2,0,0,1,.449-1.223,3.066,3.066,0,0,1,1.219-.934,4.1,4.1,0,0,1,1.691-.344,3.342,3.342,0,0,1,2.289.73,2.635,2.635,0,0,1,.859,2.012v3.891a4.757,4.757,0,0,0,.3,1.852V17Zm-2.4-1.1a2.54,2.54,0,0,0,1.289-.352,2.127,2.127,0,0,0,.883-.914V12.9H86.352q-2.656,0-2.656,1.555a1.316,1.316,0,0,0,.453,1.063A1.742,1.742,0,0,0,85.313,15.9ZM100.375,17a3.036,3.036,0,0,1-.2-.891,3.225,3.225,0,0,1-2.406,1.047,2.984,2.984,0,0,1-2.051-.707,2.288,2.288,0,0,1-.8-1.793,2.39,2.39,0,0,1,1-2.051,4.733,4.733,0,0,1,2.824-.73h1.406v-.664A1.623,1.623,0,0,0,99.7,10a1.821,1.821,0,0,0-1.336-.449,2.108,2.108,0,0,0-1.3.391,1.151,1.151,0,0,0-.523.945H95.086a2,2,0,0,1,.449-1.223,3.066,3.066,0,0,1,1.219-.934,4.1,4.1,0,0,1,1.691-.344,3.342,3.342,0,0,1,2.289.73,2.635,2.635,0,0,1,.859,2.012v3.891a4.757,4.757,0,0,0,.3,1.852V17Zm-2.4-1.1a2.54,2.54,0,0,0,1.289-.352,2.127,2.127,0,0,0,.883-.914V12.9H99.016q-2.656,0-2.656,1.555a1.316,1.316,0,0,0,.453,1.063A1.742,1.742,0,0,0,97.977,15.9Zm7.844-9.4V8.547H107.4V9.664H105.82v5.249a1.173,1.173,0,0,0,.211.763.888.888,0,0,0,.719.254,3.5,3.5,0,0,0,.688-.094V17a4.215,4.215,0,0,1-1.109.155,1.8,1.8,0,0,1-1.461-.586,2.517,2.517,0,0,1-.492-1.664V9.664h-1.539V8.547h1.539V6.5Zm6.773,10.656a3.693,3.693,0,0,1-2.8-1.129,4.19,4.19,0,0,1-1.078-3.02v-.266a5.073,5.073,0,0,1,.48-2.246,3.748,3.748,0,0,1,1.344-1.547,3.378,3.378,0,0,1,1.871-.559,3.166,3.166,0,0,1,2.563,1.086,4.7,4.7,0,0,1,.914,3.109v.6h-5.727a3,3,0,0,0,.73,2.02,2.3,2.3,0,0,0,1.777.77,2.517,2.517,0,0,0,1.3-.312,3.259,3.259,0,0,0,.93-.828l.883.688A3.55,3.55,0,0,1,112.594,17.156Zm-.18-7.578a1.928,1.928,0,0,0-1.469.637A3.1,3.1,0,0,0,110.211,12h4.234v-.109a2.753,2.753,0,0,0-.594-1.707A1.815,1.815,0,0,0,112.414,9.578Zm6.516-1.031.047,1.063a3.08,3.08,0,0,1,2.531-1.219q2.68,0,2.7,3.023V17h-1.445V11.406a1.946,1.946,0,0,0-.418-1.352,1.675,1.675,0,0,0-1.277-.437,2.086,2.086,0,0,0-1.234.375,2.546,2.546,0,0,0-.828.984V17h-1.445V8.547Zm10.852,7.43a2.082,2.082,0,0,0,1.352-.469,1.649,1.649,0,0,0,.641-1.172h1.367a2.621,2.621,0,0,1-.5,1.383,3.293,3.293,0,0,1-1.23,1.047,3.55,3.55,0,0,1-1.629.391A3.482,3.482,0,0,1,127.035,16a4.59,4.59,0,0,1-1.02-3.152v-.242a5.089,5.089,0,0,1,.453-2.2,3.451,3.451,0,0,1,1.3-1.492,3.7,3.7,0,0,1,2-.531,3.39,3.39,0,0,1,2.363.852,3.043,3.043,0,0,1,1,2.211h-1.367a1.992,1.992,0,0,0-.621-1.348,1.932,1.932,0,0,0-1.379-.527,2.023,2.023,0,0,0-1.707.793,3.724,3.724,0,0,0-.605,2.293v.273a3.65,3.65,0,0,0,.6,2.25A2.033,2.033,0,0,0,129.781,15.977ZM136.336,17h-1.445V8.547h1.445ZM134.773,6.3a.863.863,0,0,1,.215-.594.807.807,0,0,1,.637-.242.819.819,0,0,1,.641.242.854.854,0,0,1,.219.594.826.826,0,0,1-.219.586.834.834,0,0,1-.641.234.821.821,0,0,1-.637-.234A.834.834,0,0,1,134.773,6.3Zm3.492,6.391a4.993,4.993,0,0,1,.488-2.234,3.642,3.642,0,0,1,1.359-1.531,3.7,3.7,0,0,1,1.988-.539,3.565,3.565,0,0,1,2.793,1.2,4.6,4.6,0,0,1,1.066,3.18v.1a5.036,5.036,0,0,1-.473,2.215,3.589,3.589,0,0,1-1.352,1.527,3.743,3.743,0,0,1-2.02.547,3.556,3.556,0,0,1-2.785-1.2,4.575,4.575,0,0,1-1.066-3.164Zm1.453.172a3.616,3.616,0,0,0,.652,2.258,2.211,2.211,0,0,0,3.5-.012,3.954,3.954,0,0,0,.648-2.418,3.61,3.61,0,0,0-.66-2.254,2.1,2.1,0,0,0-1.754-.863,2.075,2.075,0,0,0-1.727.852A3.925,3.925,0,0,0,139.719,12.867ZM142.758,5h1.75l-2.094,2.3-1.164,0Zm6.383,3.547.047,1.063a3.08,3.08,0,0,1,2.531-1.219q2.68,0,2.7,3.023V17h-1.445V11.406a1.946,1.946,0,0,0-.418-1.352,1.675,1.675,0,0,0-1.277-.437,2.086,2.086,0,0,0-1.234.375,2.546,2.546,0,0,0-.828.984V17h-1.445V8.547Z" transform="translate(-6287.6 -3458)" fill="#12263f"/>
    <path id="Trazado_698112" data-name="Trazado 698112" d="M8.4,17H.945V15.961l3.938-4.375A9.355,9.355,0,0,0,6.09,9.973a2.693,2.693,0,0,0,.332-1.285,2.041,2.041,0,0,0-.539-1.461,1.885,1.885,0,0,0-1.437-.57A2.232,2.232,0,0,0,2.77,7.27a2.343,2.343,0,0,0-.6,1.707H.727A3.355,3.355,0,0,1,1.738,6.438a3.751,3.751,0,0,1,2.707-.969A3.6,3.6,0,0,1,6.953,6.3a2.838,2.838,0,0,1,.922,2.215q0,1.68-2.141,4l-3.047,3.3H8.4Zm1.711-.758a.905.905,0,0,1,.223-.625.848.848,0,0,1,.668-.25.874.874,0,0,1,.676.25.887.887,0,0,1,.23.625.839.839,0,0,1-.23.6.89.89,0,0,1-.676.242.8.8,0,0,1-.891-.844ZM18.477,17V5.625h3.211a5.169,5.169,0,0,1,2.625.656,4.438,4.438,0,0,1,1.762,1.867A6.078,6.078,0,0,1,26.7,10.93v.727a6.1,6.1,0,0,1-.621,2.82,4.369,4.369,0,0,1-1.773,1.859A5.5,5.5,0,0,1,21.625,17Zm1.5-10.148v8.922h1.578a3.434,3.434,0,0,0,2.7-1.079,4.458,4.458,0,0,0,.965-3.073v-.665a4.529,4.529,0,0,0-.91-3.014,3.239,3.239,0,0,0-2.582-1.091Zm12.273,10.3a3.693,3.693,0,0,1-2.8-1.129,4.19,4.19,0,0,1-1.078-3.02v-.266a5.073,5.073,0,0,1,.48-2.246A3.748,3.748,0,0,1,30.2,8.949a3.378,3.378,0,0,1,1.871-.559,3.166,3.166,0,0,1,2.563,1.086,4.7,4.7,0,0,1,.914,3.109v.6H29.82a3,3,0,0,0,.73,2.02,2.3,2.3,0,0,0,1.777.77,2.517,2.517,0,0,0,1.3-.312,3.259,3.259,0,0,0,.93-.828l.883.688A3.55,3.55,0,0,1,32.25,17.156Zm-.18-7.578a1.928,1.928,0,0,0-1.469.637A3.1,3.1,0,0,0,29.867,12H34.1v-.109a2.753,2.753,0,0,0-.594-1.707A1.815,1.815,0,0,0,32.07,9.578Zm10.07,5.18a1.064,1.064,0,0,0-.441-.91,4.249,4.249,0,0,0-1.539-.559,7.277,7.277,0,0,1-1.742-.562,2.479,2.479,0,0,1-.953-.781,1.869,1.869,0,0,1-.309-1.078,2.193,2.193,0,0,1,.879-1.758,3.432,3.432,0,0,1,2.246-.719,3.532,3.532,0,0,1,2.332.742,2.357,2.357,0,0,1,.895,1.9H42.055a1.3,1.3,0,0,0-.5-1.023,1.888,1.888,0,0,0-1.27-.43,1.976,1.976,0,0,0-1.234.344,1.082,1.082,0,0,0-.445.9.877.877,0,0,0,.414.789,5.1,5.1,0,0,0,1.5.508,7.8,7.8,0,0,1,1.754.578,2.558,2.558,0,0,1,1,.809,1.988,1.988,0,0,1,.324,1.152,2.163,2.163,0,0,1-.906,1.816,3.8,3.8,0,0,1-2.352.684,4.257,4.257,0,0,1-1.8-.359,2.922,2.922,0,0,1-1.223-1,2.42,2.42,0,0,1-.441-1.395h1.445a1.5,1.5,0,0,0,.582,1.152,2.258,2.258,0,0,0,1.434.426,2.331,2.331,0,0,0,1.316-.332A1.02,1.02,0,0,0,42.141,14.758Zm10.469-1.891a5.062,5.062,0,0,1-.883,3.109,2.829,2.829,0,0,1-2.391,1.18,3.1,3.1,0,0,1-2.422-.977v4.07H45.469V8.547h1.32l.07.938a2.977,2.977,0,0,1,2.453-1.094,2.882,2.882,0,0,1,2.41,1.148,5.117,5.117,0,0,1,.887,3.2ZM51.164,12.7a3.735,3.735,0,0,0-.609-2.258,1.963,1.963,0,0,0-1.672-.828,2.125,2.125,0,0,0-1.969,1.164V14.82A2.129,2.129,0,0,0,48.9,15.977a1.954,1.954,0,0,0,1.652-.824A4.077,4.077,0,0,0,51.164,12.7Zm6.789,4.453a3.693,3.693,0,0,1-2.8-1.129,4.19,4.19,0,0,1-1.078-3.02v-.266a5.073,5.073,0,0,1,.48-2.246A3.748,3.748,0,0,1,55.9,8.949a3.378,3.378,0,0,1,1.871-.559,3.166,3.166,0,0,1,2.563,1.086,4.7,4.7,0,0,1,.914,3.109v.6H55.523a3,3,0,0,0,.73,2.02,2.3,2.3,0,0,0,1.777.77,2.517,2.517,0,0,0,1.3-.312,3.259,3.259,0,0,0,.93-.828l.883.688A3.55,3.55,0,0,1,57.953,17.156Zm-.18-7.578a1.928,1.928,0,0,0-1.469.637A3.1,3.1,0,0,0,55.57,12H59.8v-.109a2.753,2.753,0,0,0-.594-1.707A1.815,1.815,0,0,0,57.773,9.578Zm9.234.266a4.331,4.331,0,0,0-.711-.055A1.9,1.9,0,0,0,64.367,11v6H62.922V8.547h1.406l.023.977a2.251,2.251,0,0,1,2.016-1.133,1.477,1.477,0,0,1,.641.109ZM70.688,6.5V8.547h1.578V9.664H70.688v5.249a1.173,1.173,0,0,0,.211.763.888.888,0,0,0,.719.254,3.5,3.5,0,0,0,.688-.094V17a4.215,4.215,0,0,1-1.109.155,1.8,1.8,0,0,1-1.461-.586,2.517,2.517,0,0,1-.492-1.664V9.664H67.7V8.547h1.539V6.5ZM79.172,17a3.036,3.036,0,0,1-.2-.891,3.225,3.225,0,0,1-2.406,1.047,2.984,2.984,0,0,1-2.051-.707,2.288,2.288,0,0,1-.8-1.793,2.39,2.39,0,0,1,1-2.051,4.733,4.733,0,0,1,2.824-.73h1.406v-.664A1.623,1.623,0,0,0,78.492,10a1.821,1.821,0,0,0-1.336-.449,2.108,2.108,0,0,0-1.3.391,1.151,1.151,0,0,0-.523.945H73.883a2,2,0,0,1,.449-1.223,3.066,3.066,0,0,1,1.219-.934,4.1,4.1,0,0,1,1.691-.344,3.342,3.342,0,0,1,2.289.73,2.635,2.635,0,0,1,.859,2.012v3.891a4.757,4.757,0,0,0,.3,1.852V17Zm-2.4-1.1a2.54,2.54,0,0,0,1.289-.352,2.127,2.127,0,0,0,.883-.914V12.9H77.813q-2.656,0-2.656,1.555a1.316,1.316,0,0,0,.453,1.063A1.742,1.742,0,0,0,76.773,15.9Zm9.969-6.055a4.331,4.331,0,0,0-.711-.055A1.9,1.9,0,0,0,84.1,11v6H82.656V8.547h1.406l.023.977A2.251,2.251,0,0,1,86.1,8.391a1.477,1.477,0,0,1,.641.109ZM93.6,17H92.156V8.547H93.6ZM92.039,6.3a.863.863,0,0,1,.215-.594.807.807,0,0,1,.637-.242.819.819,0,0,1,.641.242.854.854,0,0,1,.219.594.826.826,0,0,1-.219.586.834.834,0,0,1-.641.234.821.821,0,0,1-.637-.234A.834.834,0,0,1,92.039,6.3Zm5.242,2.242.047,1.063a3.08,3.08,0,0,1,2.531-1.219q2.68,0,2.7,3.023V17h-1.445V11.406a1.946,1.946,0,0,0-.418-1.352,1.675,1.675,0,0,0-1.277-.437,2.086,2.086,0,0,0-1.234.375,2.546,2.546,0,0,0-.828.984V17H95.914V8.547ZM106.7,6.5V8.547h1.578V9.664H106.7v5.249a1.173,1.173,0,0,0,.211.763.888.888,0,0,0,.719.254,3.5,3.5,0,0,0,.688-.094V17a4.215,4.215,0,0,1-1.109.155,1.8,1.8,0,0,1-1.461-.586,2.517,2.517,0,0,1-.492-1.664V9.664h-1.539V8.547h1.539V6.5Zm6.773,10.656a3.693,3.693,0,0,1-2.8-1.129,4.19,4.19,0,0,1-1.078-3.02v-.266a5.073,5.073,0,0,1,.48-2.246,3.748,3.748,0,0,1,1.344-1.547,3.378,3.378,0,0,1,1.871-.559,3.166,3.166,0,0,1,2.563,1.086,4.7,4.7,0,0,1,.914,3.109v.6h-5.727a3,3,0,0,0,.73,2.02,2.3,2.3,0,0,0,1.777.77,2.517,2.517,0,0,0,1.3-.312,3.259,3.259,0,0,0,.93-.828l.883.688A3.55,3.55,0,0,1,113.477,17.156Zm-.18-7.578a1.928,1.928,0,0,0-1.469.637A3.1,3.1,0,0,0,111.094,12h4.234v-.109a2.753,2.753,0,0,0-.594-1.707A1.815,1.815,0,0,0,113.3,9.578Zm9.234.266a4.331,4.331,0,0,0-.711-.055A1.9,1.9,0,0,0,119.891,11v6h-1.445V8.547h1.406l.023.977a2.251,2.251,0,0,1,2.016-1.133,1.477,1.477,0,0,1,.641.109Zm4.836,7.313a3.693,3.693,0,0,1-2.8-1.129,4.19,4.19,0,0,1-1.078-3.02v-.266a5.073,5.073,0,0,1,.48-2.246,3.748,3.748,0,0,1,1.344-1.547,3.378,3.378,0,0,1,1.871-.559,3.166,3.166,0,0,1,2.563,1.086,4.7,4.7,0,0,1,.914,3.109v.6h-5.727a3,3,0,0,0,.73,2.02,2.3,2.3,0,0,0,1.777.77,2.517,2.517,0,0,0,1.3-.312,3.258,3.258,0,0,0,.93-.828l.883.688A3.55,3.55,0,0,1,127.367,17.156Zm-.18-7.578a1.928,1.928,0,0,0-1.469.637A3.1,3.1,0,0,0,124.984,12h4.234v-.109a2.753,2.753,0,0,0-.594-1.707A1.815,1.815,0,0,0,127.188,9.578Zm.7-4.578h1.75l-2.094,2.3-1.164,0Zm9.367,9.758a1.064,1.064,0,0,0-.441-.91,4.249,4.249,0,0,0-1.539-.559,7.277,7.277,0,0,1-1.742-.562,2.479,2.479,0,0,1-.953-.781,1.869,1.869,0,0,1-.309-1.078,2.193,2.193,0,0,1,.879-1.758,3.432,3.432,0,0,1,2.246-.719,3.532,3.532,0,0,1,2.332.742,2.357,2.357,0,0,1,.895,1.9h-1.453a1.3,1.3,0,0,0-.5-1.023,1.888,1.888,0,0,0-1.27-.43,1.976,1.976,0,0,0-1.234.344,1.082,1.082,0,0,0-.445.9.877.877,0,0,0,.414.789,5.1,5.1,0,0,0,1.5.508,7.8,7.8,0,0,1,1.754.578,2.558,2.558,0,0,1,1,.809,1.988,1.988,0,0,1,.324,1.152,2.163,2.163,0,0,1-.906,1.816,3.8,3.8,0,0,1-2.352.684,4.257,4.257,0,0,1-1.8-.359,2.922,2.922,0,0,1-1.223-1,2.42,2.42,0,0,1-.441-1.395h1.445a1.5,1.5,0,0,0,.582,1.152,2.258,2.258,0,0,0,1.434.426,2.331,2.331,0,0,0,1.316-.332A1.02,1.02,0,0,0,137.258,14.758Z" transform="translate(-6287.6 -3403)" fill="#12263f"/>
    <path id="Trazado_698108" data-name="Trazado 698108" d="M3.047,10.609H4.133a2.387,2.387,0,0,0,1.609-.539,1.8,1.8,0,0,0,.586-1.414,1.764,1.764,0,0,0-1.992-2,2.072,2.072,0,0,0-1.5.535,1.873,1.873,0,0,0-.559,1.418H.836a2.9,2.9,0,0,1,.988-2.246,3.6,3.6,0,0,1,2.512-.895,3.558,3.558,0,0,1,2.523.852,3.076,3.076,0,0,1,.914,2.367,2.5,2.5,0,0,1-.48,1.438,2.9,2.9,0,0,1-1.309,1.039,2.8,2.8,0,0,1,1.449.984,2.734,2.734,0,0,1,.512,1.68,3.1,3.1,0,0,1-1,2.43,3.745,3.745,0,0,1-2.6.9,3.844,3.844,0,0,1-2.605-.867A2.877,2.877,0,0,1,.734,14H2.188a1.859,1.859,0,0,0,.586,1.438,2.229,2.229,0,0,0,1.57.539,2.187,2.187,0,0,0,1.6-.547,2.108,2.108,0,0,0,.555-1.57,1.912,1.912,0,0,0-.609-1.523,2.655,2.655,0,0,0-1.758-.547H3.047Zm7.063,5.633a.905.905,0,0,1,.223-.625.848.848,0,0,1,.668-.25.874.874,0,0,1,.676.25.887.887,0,0,1,.23.625.839.839,0,0,1-.23.6.89.89,0,0,1-.676.242.8.8,0,0,1-.891-.844Zm16.734-2.852a4.185,4.185,0,0,1-1.332,2.785,4.365,4.365,0,0,1-2.98.98,4.008,4.008,0,0,1-3.23-1.445,5.815,5.815,0,0,1-1.215-3.867V10.75a6.481,6.481,0,0,1,.566-2.789,4.231,4.231,0,0,1,1.605-1.848,4.47,4.47,0,0,1,2.406-.645A4.11,4.11,0,0,1,25.57,6.48a4.235,4.235,0,0,1,1.273,2.8H25.336a3.268,3.268,0,0,0-.848-1.975A2.565,2.565,0,0,0,22.664,6.7,2.684,2.684,0,0,0,20.41,7.759a4.882,4.882,0,0,0-.816,3.026v1.1a5.018,5.018,0,0,0,.773,2.948,2.5,2.5,0,0,0,2.164,1.095,2.886,2.886,0,0,0,1.918-.566,3.143,3.143,0,0,0,.887-1.973ZM32.75,9.844a4.331,4.331,0,0,0-.711-.055A1.9,1.9,0,0,0,30.109,11v6H28.664V8.547H30.07l.023.977a2.251,2.251,0,0,1,2.016-1.133,1.477,1.477,0,0,1,.641.109Zm4.836,7.313a3.693,3.693,0,0,1-2.8-1.129,4.19,4.19,0,0,1-1.078-3.02v-.266a5.073,5.073,0,0,1,.48-2.246,3.748,3.748,0,0,1,1.344-1.547,3.378,3.378,0,0,1,1.871-.559,3.166,3.166,0,0,1,2.563,1.086,4.7,4.7,0,0,1,.914,3.109v.6H35.156a3,3,0,0,0,.73,2.02,2.3,2.3,0,0,0,1.777.77,2.517,2.517,0,0,0,1.3-.312,3.259,3.259,0,0,0,.93-.828l.883.688A3.55,3.55,0,0,1,37.586,17.156Zm-.18-7.578a1.928,1.928,0,0,0-1.469.637A3.1,3.1,0,0,0,35.2,12h4.234v-.109a2.753,2.753,0,0,0-.594-1.707A1.815,1.815,0,0,0,37.406,9.578ZM47.773,17a3.036,3.036,0,0,1-.2-.891,3.225,3.225,0,0,1-2.406,1.047,2.984,2.984,0,0,1-2.051-.707,2.287,2.287,0,0,1-.8-1.793,2.39,2.39,0,0,1,1-2.051,4.733,4.733,0,0,1,2.824-.73h1.406v-.664A1.623,1.623,0,0,0,47.094,10a1.821,1.821,0,0,0-1.336-.449,2.107,2.107,0,0,0-1.3.391,1.151,1.151,0,0,0-.523.945H42.484a2,2,0,0,1,.449-1.223,3.066,3.066,0,0,1,1.219-.934,4.1,4.1,0,0,1,1.691-.344,3.342,3.342,0,0,1,2.289.73,2.635,2.635,0,0,1,.859,2.012v3.891a4.757,4.757,0,0,0,.3,1.852V17Zm-2.4-1.1a2.54,2.54,0,0,0,1.289-.352,2.127,2.127,0,0,0,.883-.914V12.9H46.414q-2.656,0-2.656,1.555a1.316,1.316,0,0,0,.453,1.063A1.742,1.742,0,0,0,45.375,15.9Zm9.969-6.055a4.331,4.331,0,0,0-.711-.055A1.9,1.9,0,0,0,52.7,11v6H51.258V8.547h1.406l.023.977A2.251,2.251,0,0,1,54.7,8.391a1.477,1.477,0,0,1,.641.109ZM60.281,12.7A4.952,4.952,0,0,1,61.2,9.574a3.137,3.137,0,0,1,4.766-.168V5h1.445V17H66.086l-.07-.906A2.943,2.943,0,0,1,63.6,17.156a2.887,2.887,0,0,1-2.395-1.2,5.008,5.008,0,0,1-.926-3.141Zm1.445.164a3.749,3.749,0,0,0,.594,2.25,1.92,1.92,0,0,0,1.641.813A2.108,2.108,0,0,0,65.969,14.7V10.813a2.125,2.125,0,0,0-1.992-1.2,1.929,1.929,0,0,0-1.656.82A4.128,4.128,0,0,0,61.727,12.867Zm11.438,4.289a3.693,3.693,0,0,1-2.8-1.129,4.19,4.19,0,0,1-1.078-3.02v-.266a5.073,5.073,0,0,1,.48-2.246,3.748,3.748,0,0,1,1.344-1.547,3.378,3.378,0,0,1,1.871-.559,3.166,3.166,0,0,1,2.563,1.086,4.7,4.7,0,0,1,.914,3.109v.6H70.734a3,3,0,0,0,.73,2.02,2.3,2.3,0,0,0,1.777.77,2.517,2.517,0,0,0,1.3-.312,3.259,3.259,0,0,0,.93-.828l.883.688A3.55,3.55,0,0,1,73.164,17.156Zm-.18-7.578a1.928,1.928,0,0,0-1.469.637A3.1,3.1,0,0,0,70.781,12h4.234v-.109a2.753,2.753,0,0,0-.594-1.707A1.815,1.815,0,0,0,72.984,9.578Zm10.07,5.18a1.064,1.064,0,0,0-.441-.91,4.249,4.249,0,0,0-1.539-.559,7.277,7.277,0,0,1-1.742-.562,2.479,2.479,0,0,1-.953-.781,1.869,1.869,0,0,1-.309-1.078,2.193,2.193,0,0,1,.879-1.758A3.432,3.432,0,0,1,81.2,8.391a3.532,3.532,0,0,1,2.332.742,2.357,2.357,0,0,1,.895,1.9H82.969a1.3,1.3,0,0,0-.5-1.023,1.888,1.888,0,0,0-1.27-.43,1.976,1.976,0,0,0-1.234.344,1.082,1.082,0,0,0-.445.9.877.877,0,0,0,.414.789,5.1,5.1,0,0,0,1.5.508,7.8,7.8,0,0,1,1.754.578,2.558,2.558,0,0,1,1,.809,1.988,1.988,0,0,1,.324,1.152,2.163,2.163,0,0,1-.906,1.816,3.8,3.8,0,0,1-2.352.684,4.257,4.257,0,0,1-1.8-.359,2.922,2.922,0,0,1-1.223-1,2.42,2.42,0,0,1-.441-1.395h1.445a1.5,1.5,0,0,0,.582,1.152,2.258,2.258,0,0,0,1.434.426,2.331,2.331,0,0,0,1.316-.332A1.02,1.02,0,0,0,83.055,14.758Zm6.836,2.4a3.693,3.693,0,0,1-2.8-1.129,4.19,4.19,0,0,1-1.078-3.02v-.266A5.073,5.073,0,0,1,86.5,10.5,3.748,3.748,0,0,1,87.84,8.949a3.378,3.378,0,0,1,1.871-.559,3.166,3.166,0,0,1,2.563,1.086,4.7,4.7,0,0,1,.914,3.109v.6H87.461a3,3,0,0,0,.73,2.02,2.3,2.3,0,0,0,1.777.77,2.517,2.517,0,0,0,1.3-.312,3.259,3.259,0,0,0,.93-.828l.883.688A3.55,3.55,0,0,1,89.891,17.156Zm-.18-7.578a1.928,1.928,0,0,0-1.469.637A3.1,3.1,0,0,0,87.508,12h4.234v-.109a2.753,2.753,0,0,0-.594-1.707A1.815,1.815,0,0,0,89.711,9.578ZM94.477,12.7a4.993,4.993,0,0,1,.488-2.234A3.643,3.643,0,0,1,96.324,8.93a3.7,3.7,0,0,1,1.988-.539,3.565,3.565,0,0,1,2.793,1.2,4.6,4.6,0,0,1,1.066,3.18v.1a5.036,5.036,0,0,1-.473,2.215,3.589,3.589,0,0,1-1.352,1.527,3.743,3.743,0,0,1-2.02.547,3.556,3.556,0,0,1-2.785-1.2A4.575,4.575,0,0,1,94.477,12.8Zm1.453.172a3.616,3.616,0,0,0,.652,2.258,2.211,2.211,0,0,0,3.5-.012,3.955,3.955,0,0,0,.648-2.418,3.61,3.61,0,0,0-.66-2.254,2.1,2.1,0,0,0-1.754-.863,2.075,2.075,0,0,0-1.727.852A3.925,3.925,0,0,0,95.93,12.867Zm11.664-.164a4.952,4.952,0,0,1,.922-3.129,3.137,3.137,0,0,1,4.766-.168V5h1.445V17H113.4l-.07-.906a2.943,2.943,0,0,1-2.414,1.063,2.887,2.887,0,0,1-2.395-1.2,5.008,5.008,0,0,1-.926-3.141Zm1.445.164a3.749,3.749,0,0,0,.594,2.25,1.92,1.92,0,0,0,1.641.813,2.108,2.108,0,0,0,2.008-1.234V10.813a2.125,2.125,0,0,0-1.992-1.2,1.929,1.929,0,0,0-1.656.82A4.128,4.128,0,0,0,109.039,12.867Zm11.438,4.289a3.693,3.693,0,0,1-2.8-1.129,4.19,4.19,0,0,1-1.078-3.02v-.266a5.073,5.073,0,0,1,.48-2.246,3.748,3.748,0,0,1,1.344-1.547,3.378,3.378,0,0,1,1.871-.559,3.166,3.166,0,0,1,2.563,1.086,4.7,4.7,0,0,1,.914,3.109v.6h-5.727a3,3,0,0,0,.73,2.02,2.3,2.3,0,0,0,1.777.77,2.517,2.517,0,0,0,1.3-.312,3.259,3.259,0,0,0,.93-.828l.883.688A3.55,3.55,0,0,1,120.477,17.156Zm-.18-7.578a1.928,1.928,0,0,0-1.469.637A3.1,3.1,0,0,0,118.094,12h4.234v-.109a2.753,2.753,0,0,0-.594-1.707A1.815,1.815,0,0,0,120.3,9.578ZM130.977,17h-1.445V8.547h1.445ZM129.414,6.3a.863.863,0,0,1,.215-.594.807.807,0,0,1,.637-.242.819.819,0,0,1,.641.242.854.854,0,0,1,.219.594.826.826,0,0,1-.219.586.834.834,0,0,1-.641.234.821.821,0,0,1-.637-.234A.834.834,0,0,1,129.414,6.3Zm5.242,2.242.047,1.063a3.08,3.08,0,0,1,2.531-1.219q2.68,0,2.7,3.023V17h-1.445V11.406a1.946,1.946,0,0,0-.418-1.352,1.675,1.675,0,0,0-1.277-.437,2.086,2.086,0,0,0-1.234.375,2.546,2.546,0,0,0-.828.984V17h-1.445V8.547ZM142.828,17V9.664h-1.336V8.547h1.336V7.68a2.878,2.878,0,0,1,.727-2.1,2.745,2.745,0,0,1,2.055-.742,3.816,3.816,0,0,1,.992.132l-.078,1.165a4.151,4.151,0,0,0-.781-.07,1.41,1.41,0,0,0-1.086.411,1.669,1.669,0,0,0-.383,1.18v.893h1.8V9.664h-1.8V17Zm4.461-4.3a4.993,4.993,0,0,1,.488-2.234,3.642,3.642,0,0,1,1.359-1.531,3.7,3.7,0,0,1,1.988-.539,3.565,3.565,0,0,1,2.793,1.2,4.6,4.6,0,0,1,1.066,3.18v.1a5.036,5.036,0,0,1-.473,2.215,3.589,3.589,0,0,1-1.352,1.527,3.743,3.743,0,0,1-2.02.547,3.556,3.556,0,0,1-2.785-1.2,4.575,4.575,0,0,1-1.066-3.164Zm1.453.172a3.616,3.616,0,0,0,.652,2.258,2.211,2.211,0,0,0,3.5-.012,3.954,3.954,0,0,0,.648-2.418,3.61,3.61,0,0,0-.66-2.254,2.1,2.1,0,0,0-1.754-.863,2.075,2.075,0,0,0-1.727.852A3.925,3.925,0,0,0,148.742,12.867Zm12.141-3.023a4.331,4.331,0,0,0-.711-.055A1.9,1.9,0,0,0,158.242,11v6H156.8V8.547H158.2l.023.977a2.251,2.251,0,0,1,2.016-1.133,1.477,1.477,0,0,1,.641.109Zm2.688-1.3.039.938a3.122,3.122,0,0,1,2.508-1.094,2.417,2.417,0,0,1,2.414,1.359,3.2,3.2,0,0,1,1.1-.984,3.242,3.242,0,0,1,1.6-.375q2.781,0,2.828,2.945V17h-1.445V11.422a1.941,1.941,0,0,0-.414-1.355,1.823,1.823,0,0,0-1.391-.449,1.917,1.917,0,0,0-1.336.48,1.949,1.949,0,0,0-.617,1.293V17H167.4V11.461a1.613,1.613,0,0,0-1.8-1.844,1.934,1.934,0,0,0-1.945,1.211V17H162.2V8.547ZM181.453,17a3.036,3.036,0,0,1-.2-.891,3.225,3.225,0,0,1-2.406,1.047,2.984,2.984,0,0,1-2.051-.707,2.287,2.287,0,0,1-.8-1.793,2.39,2.39,0,0,1,1-2.051,4.733,4.733,0,0,1,2.824-.73h1.406v-.664A1.623,1.623,0,0,0,180.773,10a1.821,1.821,0,0,0-1.336-.449,2.107,2.107,0,0,0-1.3.391,1.151,1.151,0,0,0-.523.945h-1.453a2,2,0,0,1,.449-1.223,3.066,3.066,0,0,1,1.219-.934,4.1,4.1,0,0,1,1.691-.344,3.342,3.342,0,0,1,2.289.73,2.635,2.635,0,0,1,.859,2.012v3.891a4.757,4.757,0,0,0,.3,1.852V17Zm-2.4-1.1a2.54,2.54,0,0,0,1.289-.352,2.127,2.127,0,0,0,.883-.914V12.9h-1.133q-2.656,0-2.656,1.555a1.316,1.316,0,0,0,.453,1.063A1.742,1.742,0,0,0,179.055,15.9Zm9.273.078a2.082,2.082,0,0,0,1.352-.469,1.649,1.649,0,0,0,.641-1.172h1.367a2.621,2.621,0,0,1-.5,1.383,3.293,3.293,0,0,1-1.23,1.047,3.55,3.55,0,0,1-1.629.391A3.482,3.482,0,0,1,185.582,16a4.59,4.59,0,0,1-1.02-3.152v-.242a5.089,5.089,0,0,1,.453-2.2,3.451,3.451,0,0,1,1.3-1.492,3.7,3.7,0,0,1,2-.531,3.39,3.39,0,0,1,2.363.852,3.043,3.043,0,0,1,1,2.211H190.32a1.992,1.992,0,0,0-.621-1.348,1.932,1.932,0,0,0-1.379-.527,2.023,2.023,0,0,0-1.707.793,3.724,3.724,0,0,0-.605,2.293v.273a3.65,3.65,0,0,0,.6,2.25A2.033,2.033,0,0,0,188.328,15.977ZM194.883,17h-1.445V8.547h1.445ZM193.32,6.3a.863.863,0,0,1,.215-.594.807.807,0,0,1,.637-.242.819.819,0,0,1,.641.242.854.854,0,0,1,.219.594.826.826,0,0,1-.219.586.834.834,0,0,1-.641.234.821.821,0,0,1-.637-.234A.834.834,0,0,1,193.32,6.3Zm3.492,6.391a4.993,4.993,0,0,1,.488-2.234A3.642,3.642,0,0,1,198.66,8.93a3.7,3.7,0,0,1,1.988-.539,3.565,3.565,0,0,1,2.793,1.2,4.6,4.6,0,0,1,1.066,3.18v.1a5.036,5.036,0,0,1-.473,2.215,3.589,3.589,0,0,1-1.352,1.527,3.743,3.743,0,0,1-2.02.547,3.556,3.556,0,0,1-2.785-1.2,4.575,4.575,0,0,1-1.066-3.164Zm1.453.172a3.616,3.616,0,0,0,.652,2.258,2.211,2.211,0,0,0,3.5-.012,3.954,3.954,0,0,0,.648-2.418,3.61,3.61,0,0,0-.66-2.254,2.1,2.1,0,0,0-1.754-.863,2.075,2.075,0,0,0-1.727.852A3.925,3.925,0,0,0,198.266,12.867ZM201.3,5h1.75l-2.094,2.3-1.164,0Zm6.383,3.547.047,1.063a3.08,3.08,0,0,1,2.531-1.219q2.68,0,2.7,3.023V17h-1.445V11.406a1.946,1.946,0,0,0-.418-1.352,1.675,1.675,0,0,0-1.277-.437,2.086,2.086,0,0,0-1.234.375,2.546,2.546,0,0,0-.828.984V17H206.32V8.547Z" transform="translate(-6287.6 -3351)" fill="#12263f"/>
    <path id="Trazado_698109" data-name="Trazado 698109" d="M7.047,13.18H8.625v1.18H7.047V17H5.594V14.359H.414v-.852L5.508,5.625H7.047Zm-4.992,0H5.594V7.6l-.172.313Zm8.055,3.063a.905.905,0,0,1,.223-.625.848.848,0,0,1,.668-.25.874.874,0,0,1,.676.25.887.887,0,0,1,.23.625.839.839,0,0,1-.23.6.89.89,0,0,1-.676.242.8.8,0,0,1-.891-.844Zm16.734-2.852a4.185,4.185,0,0,1-1.332,2.785,4.365,4.365,0,0,1-2.98.98,4.008,4.008,0,0,1-3.23-1.445,5.815,5.815,0,0,1-1.215-3.867V10.75a6.481,6.481,0,0,1,.566-2.789,4.231,4.231,0,0,1,1.605-1.848,4.47,4.47,0,0,1,2.406-.645A4.11,4.11,0,0,1,25.57,6.48a4.235,4.235,0,0,1,1.273,2.8H25.336a3.268,3.268,0,0,0-.848-1.975A2.565,2.565,0,0,0,22.664,6.7,2.684,2.684,0,0,0,20.41,7.759a4.882,4.882,0,0,0-.816,3.026v1.1a5.018,5.018,0,0,0,.773,2.948,2.5,2.5,0,0,0,2.164,1.095,2.886,2.886,0,0,0,1.918-.566,3.143,3.143,0,0,0,.887-1.973Zm1.438-.7a4.993,4.993,0,0,1,.488-2.234A3.643,3.643,0,0,1,30.129,8.93a3.7,3.7,0,0,1,1.988-.539,3.565,3.565,0,0,1,2.793,1.2,4.6,4.6,0,0,1,1.066,3.18v.1a5.036,5.036,0,0,1-.473,2.215,3.589,3.589,0,0,1-1.352,1.527,3.743,3.743,0,0,1-2.02.547,3.556,3.556,0,0,1-2.785-1.2A4.575,4.575,0,0,1,28.281,12.8Zm1.453.172a3.616,3.616,0,0,0,.652,2.258,2.211,2.211,0,0,0,3.5-.012,3.955,3.955,0,0,0,.648-2.418,3.61,3.61,0,0,0-.66-2.254,2.1,2.1,0,0,0-1.754-.863,2.075,2.075,0,0,0-1.727.852A3.925,3.925,0,0,0,29.734,12.867Zm9.422-4.32L39.2,9.609a3.08,3.08,0,0,1,2.531-1.219q2.68,0,2.7,3.023V17H42.992V11.406a1.946,1.946,0,0,0-.418-1.352A1.675,1.675,0,0,0,41.3,9.617a2.086,2.086,0,0,0-1.234.375,2.546,2.546,0,0,0-.828.984V17H37.789V8.547Zm10.25,6.492L51.5,8.547h1.477L49.945,17h-1.1L45.781,8.547h1.477Zm8.469,2.117a3.693,3.693,0,0,1-2.8-1.129A4.19,4.19,0,0,1,54,13.008v-.266a5.073,5.073,0,0,1,.48-2.246,3.748,3.748,0,0,1,1.344-1.547A3.378,3.378,0,0,1,57.7,8.391a3.166,3.166,0,0,1,2.563,1.086,4.7,4.7,0,0,1,.914,3.109v.6H55.445a3,3,0,0,0,.73,2.02,2.3,2.3,0,0,0,1.777.77,2.517,2.517,0,0,0,1.3-.312,3.259,3.259,0,0,0,.93-.828l.883.688A3.55,3.55,0,0,1,57.875,17.156ZM57.7,9.578a1.928,1.928,0,0,0-1.469.637A3.1,3.1,0,0,0,55.492,12h4.234v-.109a2.753,2.753,0,0,0-.594-1.707A1.815,1.815,0,0,0,57.7,9.578Zm6.516-1.031.047,1.063a3.08,3.08,0,0,1,2.531-1.219q2.68,0,2.7,3.023V17H68.047V11.406a1.946,1.946,0,0,0-.418-1.352,1.675,1.675,0,0,0-1.277-.437,2.086,2.086,0,0,0-1.234.375,2.546,2.546,0,0,0-.828.984V17H62.844V8.547Zm10.852,7.43a2.082,2.082,0,0,0,1.352-.469,1.649,1.649,0,0,0,.641-1.172h1.367a2.621,2.621,0,0,1-.5,1.383,3.293,3.293,0,0,1-1.23,1.047,3.55,3.55,0,0,1-1.629.391A3.482,3.482,0,0,1,72.316,16a4.59,4.59,0,0,1-1.02-3.152v-.242a5.089,5.089,0,0,1,.453-2.2,3.451,3.451,0,0,1,1.3-1.492,3.7,3.7,0,0,1,2-.531,3.39,3.39,0,0,1,2.363.852,3.043,3.043,0,0,1,1,2.211H77.055a1.992,1.992,0,0,0-.621-1.348,1.932,1.932,0,0,0-1.379-.527,2.023,2.023,0,0,0-1.707.793,3.724,3.724,0,0,0-.605,2.293v.273a3.65,3.65,0,0,0,.6,2.25A2.033,2.033,0,0,0,75.063,15.977Zm8.492,1.18a3.693,3.693,0,0,1-2.8-1.129,4.19,4.19,0,0,1-1.078-3.02v-.266a5.073,5.073,0,0,1,.48-2.246A3.748,3.748,0,0,1,81.5,8.949a3.378,3.378,0,0,1,1.871-.559,3.166,3.166,0,0,1,2.563,1.086,4.7,4.7,0,0,1,.914,3.109v.6H81.125a3,3,0,0,0,.73,2.02,2.3,2.3,0,0,0,1.777.77,2.517,2.517,0,0,0,1.3-.312,3.259,3.259,0,0,0,.93-.828l.883.688A3.55,3.55,0,0,1,83.555,17.156Zm-.18-7.578a1.928,1.928,0,0,0-1.469.637A3.1,3.1,0,0,0,81.172,12h4.234v-.109a2.753,2.753,0,0,0-.594-1.707A1.815,1.815,0,0,0,83.375,9.578Zm9.234.266a4.331,4.331,0,0,0-.711-.055A1.9,1.9,0,0,0,89.969,11v6H88.523V8.547H89.93l.023.977a2.251,2.251,0,0,1,2.016-1.133,1.477,1.477,0,0,1,.641.109Zm12.43,3.023a5.062,5.062,0,0,1-.883,3.109,2.829,2.829,0,0,1-2.391,1.18,3.1,3.1,0,0,1-2.422-.977v4.07H97.9V8.547h1.32l.07.938a2.977,2.977,0,0,1,2.453-1.094,2.882,2.882,0,0,1,2.41,1.148,5.117,5.117,0,0,1,.887,3.2Zm-1.445-.164a3.735,3.735,0,0,0-.609-2.258,1.963,1.963,0,0,0-1.672-.828,2.125,2.125,0,0,0-1.969,1.164V14.82a2.129,2.129,0,0,0,1.984,1.156,1.954,1.954,0,0,0,1.652-.824A4.077,4.077,0,0,0,103.594,12.7Zm8.5,4.3a3.036,3.036,0,0,1-.2-.891,3.225,3.225,0,0,1-2.406,1.047,2.984,2.984,0,0,1-2.051-.707,2.288,2.288,0,0,1-.8-1.793,2.39,2.39,0,0,1,1-2.051,4.733,4.733,0,0,1,2.824-.73h1.406v-.664A1.623,1.623,0,0,0,111.414,10a1.821,1.821,0,0,0-1.336-.449,2.108,2.108,0,0,0-1.3.391,1.151,1.151,0,0,0-.523.945H106.8a2,2,0,0,1,.449-1.223,3.066,3.066,0,0,1,1.219-.934,4.1,4.1,0,0,1,1.691-.344,3.342,3.342,0,0,1,2.289.73,2.635,2.635,0,0,1,.859,2.012v3.891a4.757,4.757,0,0,0,.3,1.852V17Zm-2.4-1.1a2.54,2.54,0,0,0,1.289-.352,2.127,2.127,0,0,0,.883-.914V12.9h-1.133q-2.656,0-2.656,1.555a1.316,1.316,0,0,0,.453,1.063A1.742,1.742,0,0,0,109.7,15.9Zm9.969-6.055a4.331,4.331,0,0,0-.711-.055A1.9,1.9,0,0,0,117.023,11v6h-1.445V8.547h1.406l.023.977a2.251,2.251,0,0,1,2.016-1.133,1.477,1.477,0,0,1,.641.109ZM125.9,17a3.036,3.036,0,0,1-.2-.891,3.225,3.225,0,0,1-2.406,1.047,2.984,2.984,0,0,1-2.051-.707,2.288,2.288,0,0,1-.8-1.793,2.39,2.39,0,0,1,1-2.051,4.733,4.733,0,0,1,2.824-.73h1.406v-.664A1.623,1.623,0,0,0,125.219,10a1.821,1.821,0,0,0-1.336-.449,2.108,2.108,0,0,0-1.3.391,1.151,1.151,0,0,0-.523.945h-1.453a2,2,0,0,1,.449-1.223,3.066,3.066,0,0,1,1.219-.934,4.1,4.1,0,0,1,1.691-.344,3.342,3.342,0,0,1,2.289.73,2.635,2.635,0,0,1,.859,2.012v3.891a4.757,4.757,0,0,0,.3,1.852V17Zm-2.4-1.1a2.54,2.54,0,0,0,1.289-.352,2.127,2.127,0,0,0,.883-.914V12.9h-1.133q-2.656,0-2.656,1.555a1.316,1.316,0,0,0,.453,1.063A1.742,1.742,0,0,0,123.5,15.9Zm9.492-3.2a4.961,4.961,0,0,1,.914-3.152,3.226,3.226,0,0,1,4.82-.152l.063-.852h1.328v11.7h-1.445V16.219a3.033,3.033,0,0,1-2.328.938,2.915,2.915,0,0,1-2.441-1.191,5.072,5.072,0,0,1-.91-3.16Zm1.445.164a3.761,3.761,0,0,0,.613,2.281,1.951,1.951,0,0,0,1.652.828,2.164,2.164,0,0,0,1.969-1.141V10.7a2.171,2.171,0,0,0-1.953-1.117,1.965,1.965,0,0,0-1.664.832A4.094,4.094,0,0,0,134.438,12.867Zm13.219,3.3a3.07,3.07,0,0,1-2.477.992,2.628,2.628,0,0,1-2.059-.785,3.4,3.4,0,0,1-.715-2.324v-5.5h1.445v5.461q0,1.922,1.563,1.922a2.163,2.163,0,0,0,2.2-1.234V8.547h1.445V17h-1.375Zm7.109.992a3.693,3.693,0,0,1-2.8-1.129,4.19,4.19,0,0,1-1.078-3.02v-.266a5.073,5.073,0,0,1,.48-2.246,3.748,3.748,0,0,1,1.344-1.547,3.378,3.378,0,0,1,1.871-.559,3.166,3.166,0,0,1,2.563,1.086,4.7,4.7,0,0,1,.914,3.109v.6h-5.727a3,3,0,0,0,.73,2.02,2.3,2.3,0,0,0,1.777.77,2.517,2.517,0,0,0,1.3-.312,3.258,3.258,0,0,0,.93-.828l.883.688A3.55,3.55,0,0,1,154.766,17.156Zm-.18-7.578a1.928,1.928,0,0,0-1.469.637A3.1,3.1,0,0,0,152.383,12h4.234v-.109a2.753,2.753,0,0,0-.594-1.707A1.815,1.815,0,0,0,154.586,9.578ZM168.914,17a3.036,3.036,0,0,1-.2-.891,3.225,3.225,0,0,1-2.406,1.047,2.984,2.984,0,0,1-2.051-.707,2.287,2.287,0,0,1-.8-1.793,2.39,2.39,0,0,1,1-2.051,4.733,4.733,0,0,1,2.824-.73h1.406v-.664A1.623,1.623,0,0,0,168.234,10a1.821,1.821,0,0,0-1.336-.449,2.107,2.107,0,0,0-1.3.391,1.151,1.151,0,0,0-.523.945h-1.453a2,2,0,0,1,.449-1.223,3.066,3.066,0,0,1,1.219-.934,4.1,4.1,0,0,1,1.691-.344,3.342,3.342,0,0,1,2.289.73,2.635,2.635,0,0,1,.859,2.012v3.891a4.757,4.757,0,0,0,.3,1.852V17Zm-2.4-1.1a2.54,2.54,0,0,0,1.289-.352,2.127,2.127,0,0,0,.883-.914V12.9h-1.133q-2.656,0-2.656,1.555a1.316,1.316,0,0,0,.453,1.063A1.742,1.742,0,0,0,166.516,15.9Zm9.273.078a2.082,2.082,0,0,0,1.352-.469,1.649,1.649,0,0,0,.641-1.172h1.367a2.621,2.621,0,0,1-.5,1.383,3.293,3.293,0,0,1-1.23,1.047,3.55,3.55,0,0,1-1.629.391A3.482,3.482,0,0,1,173.043,16a4.59,4.59,0,0,1-1.02-3.152v-.242a5.089,5.089,0,0,1,.453-2.2,3.451,3.451,0,0,1,1.3-1.492,3.7,3.7,0,0,1,2-.531,3.39,3.39,0,0,1,2.363.852,3.043,3.043,0,0,1,1,2.211h-1.367a1.992,1.992,0,0,0-.621-1.348,1.932,1.932,0,0,0-1.379-.527,2.023,2.023,0,0,0-1.707.793,3.724,3.724,0,0,0-.605,2.293v.273a3.65,3.65,0,0,0,.6,2.25A2.033,2.033,0,0,0,175.789,15.977ZM182.734,6.5V8.547h1.578V9.664h-1.578v5.249a1.173,1.173,0,0,0,.211.763.888.888,0,0,0,.719.254,3.5,3.5,0,0,0,.688-.094V17a4.215,4.215,0,0,1-1.109.155,1.8,1.8,0,0,1-1.461-.586,2.517,2.517,0,0,1-.492-1.664V9.664H179.75V8.547h1.539V6.5Zm8.484,9.664a3.07,3.07,0,0,1-2.477.992,2.628,2.628,0,0,1-2.059-.785,3.4,3.4,0,0,1-.715-2.324v-5.5h1.445v5.461q0,1.922,1.563,1.922a2.163,2.163,0,0,0,2.2-1.234V8.547h1.445V17H191.25Zm7.109.992a3.693,3.693,0,0,1-2.8-1.129,4.19,4.19,0,0,1-1.078-3.02v-.266a5.073,5.073,0,0,1,.48-2.246,3.748,3.748,0,0,1,1.344-1.547,3.378,3.378,0,0,1,1.871-.559,3.166,3.166,0,0,1,2.563,1.086,4.7,4.7,0,0,1,.914,3.109v.6H195.9a3,3,0,0,0,.73,2.02,2.3,2.3,0,0,0,1.777.77,2.517,2.517,0,0,0,1.3-.312,3.258,3.258,0,0,0,.93-.828l.883.688A3.55,3.55,0,0,1,198.328,17.156Zm-.18-7.578a1.928,1.928,0,0,0-1.469.637A3.1,3.1,0,0,0,195.945,12h4.234v-.109a2.753,2.753,0,0,0-.594-1.707A1.815,1.815,0,0,0,198.148,9.578Zm6.516-1.031.047,1.063a3.08,3.08,0,0,1,2.531-1.219q2.68,0,2.7,3.023V17H208.5V11.406a1.946,1.946,0,0,0-.418-1.352,1.675,1.675,0,0,0-1.277-.437,2.086,2.086,0,0,0-1.234.375,2.546,2.546,0,0,0-.828.984V17H203.3V8.547Z" transform="translate(-6287.6 -3294)" fill="#12263f"/>
    <path id="Trazado_698110" data-name="Trazado 698110" d="M1.609,11.3l.578-5.672H8.016V6.961h-4.6l-.344,3.1a3.671,3.671,0,0,1,1.9-.492A3.138,3.138,0,0,1,7.438,10.6a4.026,4.026,0,0,1,.914,2.777,3.886,3.886,0,0,1-.949,2.77A3.46,3.46,0,0,1,4.75,17.156a3.6,3.6,0,0,1-2.461-.836A3.337,3.337,0,0,1,1.2,14.008H2.57a2.3,2.3,0,0,0,.7,1.473,2.162,2.162,0,0,0,1.484.5,1.95,1.95,0,0,0,1.582-.687,2.874,2.874,0,0,0,.574-1.9,2.638,2.638,0,0,0-.621-1.832,2.113,2.113,0,0,0-1.652-.691,2.383,2.383,0,0,0-1.484.414l-.383.313Zm8.5,4.945a.905.905,0,0,1,.223-.625.848.848,0,0,1,.668-.25.874.874,0,0,1,.676.25.887.887,0,0,1,.23.625.839.839,0,0,1-.23.6.89.89,0,0,1-.676.242.8.8,0,0,1-.891-.844Zm16.734-2.852a4.185,4.185,0,0,1-1.332,2.785,4.365,4.365,0,0,1-2.98.98,4.008,4.008,0,0,1-3.23-1.445,5.815,5.815,0,0,1-1.215-3.867V10.75a6.481,6.481,0,0,1,.566-2.789,4.231,4.231,0,0,1,1.605-1.848,4.47,4.47,0,0,1,2.406-.645A4.11,4.11,0,0,1,25.57,6.48a4.235,4.235,0,0,1,1.273,2.8H25.336a3.268,3.268,0,0,0-.848-1.975A2.565,2.565,0,0,0,22.664,6.7,2.684,2.684,0,0,0,20.41,7.759a4.882,4.882,0,0,0-.816,3.026v1.1a5.018,5.018,0,0,0,.773,2.948,2.5,2.5,0,0,0,2.164,1.095,2.886,2.886,0,0,0,1.918-.566,3.143,3.143,0,0,0,.887-1.973Zm1.438-.7a4.993,4.993,0,0,1,.488-2.234A3.643,3.643,0,0,1,30.129,8.93a3.7,3.7,0,0,1,1.988-.539,3.565,3.565,0,0,1,2.793,1.2,4.6,4.6,0,0,1,1.066,3.18v.1a5.036,5.036,0,0,1-.473,2.215,3.589,3.589,0,0,1-1.352,1.527,3.743,3.743,0,0,1-2.02.547,3.556,3.556,0,0,1-2.785-1.2A4.575,4.575,0,0,1,28.281,12.8Zm1.453.172a3.616,3.616,0,0,0,.652,2.258,2.211,2.211,0,0,0,3.5-.012,3.955,3.955,0,0,0,.648-2.418,3.61,3.61,0,0,0-.66-2.254,2.1,2.1,0,0,0-1.754-.863,2.075,2.075,0,0,0-1.727.852A3.925,3.925,0,0,0,29.734,12.867Zm9.422-4.32L39.2,9.609a3.08,3.08,0,0,1,2.531-1.219q2.68,0,2.7,3.023V17H42.992V11.406a1.946,1.946,0,0,0-.418-1.352A1.675,1.675,0,0,0,41.3,9.617a2.086,2.086,0,0,0-1.234.375,2.546,2.546,0,0,0-.828.984V17H37.789V8.547Zm10.25,6.492L51.5,8.547h1.477L49.945,17h-1.1L45.781,8.547h1.477Zm8.469,2.117a3.693,3.693,0,0,1-2.8-1.129A4.19,4.19,0,0,1,54,13.008v-.266a5.073,5.073,0,0,1,.48-2.246,3.748,3.748,0,0,1,1.344-1.547A3.378,3.378,0,0,1,57.7,8.391a3.166,3.166,0,0,1,2.563,1.086,4.7,4.7,0,0,1,.914,3.109v.6H55.445a3,3,0,0,0,.73,2.02,2.3,2.3,0,0,0,1.777.77,2.517,2.517,0,0,0,1.3-.312,3.259,3.259,0,0,0,.93-.828l.883.688A3.55,3.55,0,0,1,57.875,17.156ZM57.7,9.578a1.928,1.928,0,0,0-1.469.637A3.1,3.1,0,0,0,55.492,12h4.234v-.109a2.753,2.753,0,0,0-.594-1.707A1.815,1.815,0,0,0,57.7,9.578Zm6.516-1.031.047,1.063a3.08,3.08,0,0,1,2.531-1.219q2.68,0,2.7,3.023V17H68.047V11.406a1.946,1.946,0,0,0-.418-1.352,1.675,1.675,0,0,0-1.277-.437,2.086,2.086,0,0,0-1.234.375,2.546,2.546,0,0,0-.828.984V17H62.844V8.547Zm10.852,7.43a2.082,2.082,0,0,0,1.352-.469,1.649,1.649,0,0,0,.641-1.172h1.367a2.621,2.621,0,0,1-.5,1.383,3.293,3.293,0,0,1-1.23,1.047,3.55,3.55,0,0,1-1.629.391A3.482,3.482,0,0,1,72.316,16a4.59,4.59,0,0,1-1.02-3.152v-.242a5.089,5.089,0,0,1,.453-2.2,3.451,3.451,0,0,1,1.3-1.492,3.7,3.7,0,0,1,2-.531,3.39,3.39,0,0,1,2.363.852,3.043,3.043,0,0,1,1,2.211H77.055a1.992,1.992,0,0,0-.621-1.348,1.932,1.932,0,0,0-1.379-.527,2.023,2.023,0,0,0-1.707.793,3.724,3.724,0,0,0-.605,2.293v.273a3.65,3.65,0,0,0,.6,2.25A2.033,2.033,0,0,0,75.063,15.977Zm8.492,1.18a3.693,3.693,0,0,1-2.8-1.129,4.19,4.19,0,0,1-1.078-3.02v-.266a5.073,5.073,0,0,1,.48-2.246A3.748,3.748,0,0,1,81.5,8.949a3.378,3.378,0,0,1,1.871-.559,3.166,3.166,0,0,1,2.563,1.086,4.7,4.7,0,0,1,.914,3.109v.6H81.125a3,3,0,0,0,.73,2.02,2.3,2.3,0,0,0,1.777.77,2.517,2.517,0,0,0,1.3-.312,3.259,3.259,0,0,0,.93-.828l.883.688A3.55,3.55,0,0,1,83.555,17.156Zm-.18-7.578a1.928,1.928,0,0,0-1.469.637A3.1,3.1,0,0,0,81.172,12h4.234v-.109a2.753,2.753,0,0,0-.594-1.707A1.815,1.815,0,0,0,83.375,9.578Zm9.234.266a4.331,4.331,0,0,0-.711-.055A1.9,1.9,0,0,0,89.969,11v6H88.523V8.547H89.93l.023.977a2.251,2.251,0,0,1,2.016-1.133,1.477,1.477,0,0,1,.641.109Zm12.43,3.023a5.062,5.062,0,0,1-.883,3.109,2.829,2.829,0,0,1-2.391,1.18,3.1,3.1,0,0,1-2.422-.977v4.07H97.9V8.547h1.32l.07.938a2.977,2.977,0,0,1,2.453-1.094,2.882,2.882,0,0,1,2.41,1.148,5.117,5.117,0,0,1,.887,3.2Zm-1.445-.164a3.735,3.735,0,0,0-.609-2.258,1.963,1.963,0,0,0-1.672-.828,2.125,2.125,0,0,0-1.969,1.164V14.82a2.129,2.129,0,0,0,1.984,1.156,1.954,1.954,0,0,0,1.652-.824A4.077,4.077,0,0,0,103.594,12.7Zm8.5,4.3a3.036,3.036,0,0,1-.2-.891,3.225,3.225,0,0,1-2.406,1.047,2.984,2.984,0,0,1-2.051-.707,2.288,2.288,0,0,1-.8-1.793,2.39,2.39,0,0,1,1-2.051,4.733,4.733,0,0,1,2.824-.73h1.406v-.664A1.623,1.623,0,0,0,111.414,10a1.821,1.821,0,0,0-1.336-.449,2.108,2.108,0,0,0-1.3.391,1.151,1.151,0,0,0-.523.945H106.8a2,2,0,0,1,.449-1.223,3.066,3.066,0,0,1,1.219-.934,4.1,4.1,0,0,1,1.691-.344,3.342,3.342,0,0,1,2.289.73,2.635,2.635,0,0,1,.859,2.012v3.891a4.757,4.757,0,0,0,.3,1.852V17Zm-2.4-1.1a2.54,2.54,0,0,0,1.289-.352,2.127,2.127,0,0,0,.883-.914V12.9h-1.133q-2.656,0-2.656,1.555a1.316,1.316,0,0,0,.453,1.063A1.742,1.742,0,0,0,109.7,15.9Zm9.969-6.055a4.331,4.331,0,0,0-.711-.055A1.9,1.9,0,0,0,117.023,11v6h-1.445V8.547h1.406l.023.977a2.251,2.251,0,0,1,2.016-1.133,1.477,1.477,0,0,1,.641.109ZM125.9,17a3.036,3.036,0,0,1-.2-.891,3.225,3.225,0,0,1-2.406,1.047,2.984,2.984,0,0,1-2.051-.707,2.288,2.288,0,0,1-.8-1.793,2.39,2.39,0,0,1,1-2.051,4.733,4.733,0,0,1,2.824-.73h1.406v-.664A1.623,1.623,0,0,0,125.219,10a1.821,1.821,0,0,0-1.336-.449,2.108,2.108,0,0,0-1.3.391,1.151,1.151,0,0,0-.523.945h-1.453a2,2,0,0,1,.449-1.223,3.066,3.066,0,0,1,1.219-.934,4.1,4.1,0,0,1,1.691-.344,3.342,3.342,0,0,1,2.289.73,2.635,2.635,0,0,1,.859,2.012v3.891a4.757,4.757,0,0,0,.3,1.852V17Zm-2.4-1.1a2.54,2.54,0,0,0,1.289-.352,2.127,2.127,0,0,0,.883-.914V12.9h-1.133q-2.656,0-2.656,1.555a1.316,1.316,0,0,0,.453,1.063A1.742,1.742,0,0,0,123.5,15.9Zm9.492-3.2a4.961,4.961,0,0,1,.914-3.152,3.226,3.226,0,0,1,4.82-.152l.063-.852h1.328v11.7h-1.445V16.219a3.033,3.033,0,0,1-2.328.938,2.915,2.915,0,0,1-2.441-1.191,5.072,5.072,0,0,1-.91-3.16Zm1.445.164a3.761,3.761,0,0,0,.613,2.281,1.951,1.951,0,0,0,1.652.828,2.164,2.164,0,0,0,1.969-1.141V10.7a2.171,2.171,0,0,0-1.953-1.117,1.965,1.965,0,0,0-1.664.832A4.094,4.094,0,0,0,134.438,12.867Zm13.219,3.3a3.07,3.07,0,0,1-2.477.992,2.628,2.628,0,0,1-2.059-.785,3.4,3.4,0,0,1-.715-2.324v-5.5h1.445v5.461q0,1.922,1.563,1.922a2.163,2.163,0,0,0,2.2-1.234V8.547h1.445V17h-1.375Zm7.109.992a3.693,3.693,0,0,1-2.8-1.129,4.19,4.19,0,0,1-1.078-3.02v-.266a5.073,5.073,0,0,1,.48-2.246,3.748,3.748,0,0,1,1.344-1.547,3.378,3.378,0,0,1,1.871-.559,3.166,3.166,0,0,1,2.563,1.086,4.7,4.7,0,0,1,.914,3.109v.6h-5.727a3,3,0,0,0,.73,2.02,2.3,2.3,0,0,0,1.777.77,2.517,2.517,0,0,0,1.3-.312,3.258,3.258,0,0,0,.93-.828l.883.688A3.55,3.55,0,0,1,154.766,17.156Zm-.18-7.578a1.928,1.928,0,0,0-1.469.637A3.1,3.1,0,0,0,152.383,12h4.234v-.109a2.753,2.753,0,0,0-.594-1.707A1.815,1.815,0,0,0,154.586,9.578ZM168.914,17a3.036,3.036,0,0,1-.2-.891,3.225,3.225,0,0,1-2.406,1.047,2.984,2.984,0,0,1-2.051-.707,2.287,2.287,0,0,1-.8-1.793,2.39,2.39,0,0,1,1-2.051,4.733,4.733,0,0,1,2.824-.73h1.406v-.664A1.623,1.623,0,0,0,168.234,10a1.821,1.821,0,0,0-1.336-.449,2.107,2.107,0,0,0-1.3.391,1.151,1.151,0,0,0-.523.945h-1.453a2,2,0,0,1,.449-1.223,3.066,3.066,0,0,1,1.219-.934,4.1,4.1,0,0,1,1.691-.344,3.342,3.342,0,0,1,2.289.73,2.635,2.635,0,0,1,.859,2.012v3.891a4.757,4.757,0,0,0,.3,1.852V17Zm-2.4-1.1a2.54,2.54,0,0,0,1.289-.352,2.127,2.127,0,0,0,.883-.914V12.9h-1.133q-2.656,0-2.656,1.555a1.316,1.316,0,0,0,.453,1.063A1.742,1.742,0,0,0,166.516,15.9Zm9.273.078a2.082,2.082,0,0,0,1.352-.469,1.649,1.649,0,0,0,.641-1.172h1.367a2.621,2.621,0,0,1-.5,1.383,3.293,3.293,0,0,1-1.23,1.047,3.55,3.55,0,0,1-1.629.391A3.482,3.482,0,0,1,173.043,16a4.59,4.59,0,0,1-1.02-3.152v-.242a5.089,5.089,0,0,1,.453-2.2,3.451,3.451,0,0,1,1.3-1.492,3.7,3.7,0,0,1,2-.531,3.39,3.39,0,0,1,2.363.852,3.043,3.043,0,0,1,1,2.211h-1.367a1.992,1.992,0,0,0-.621-1.348,1.932,1.932,0,0,0-1.379-.527,2.023,2.023,0,0,0-1.707.793,3.724,3.724,0,0,0-.605,2.293v.273a3.65,3.65,0,0,0,.6,2.25A2.033,2.033,0,0,0,175.789,15.977ZM182.734,6.5V8.547h1.578V9.664h-1.578v5.249a1.173,1.173,0,0,0,.211.763.888.888,0,0,0,.719.254,3.5,3.5,0,0,0,.688-.094V17a4.215,4.215,0,0,1-1.109.155,1.8,1.8,0,0,1-1.461-.586,2.517,2.517,0,0,1-.492-1.664V9.664H179.75V8.547h1.539V6.5Zm8.484,9.664a3.07,3.07,0,0,1-2.477.992,2.628,2.628,0,0,1-2.059-.785,3.4,3.4,0,0,1-.715-2.324v-5.5h1.445v5.461q0,1.922,1.563,1.922a2.163,2.163,0,0,0,2.2-1.234V8.547h1.445V17H191.25Zm7.109.992a3.693,3.693,0,0,1-2.8-1.129,4.19,4.19,0,0,1-1.078-3.02v-.266a5.073,5.073,0,0,1,.48-2.246,3.748,3.748,0,0,1,1.344-1.547,3.378,3.378,0,0,1,1.871-.559,3.166,3.166,0,0,1,2.563,1.086,4.7,4.7,0,0,1,.914,3.109v.6H195.9a3,3,0,0,0,.73,2.02,2.3,2.3,0,0,0,1.777.77,2.517,2.517,0,0,0,1.3-.312,3.258,3.258,0,0,0,.93-.828l.883.688A3.55,3.55,0,0,1,198.328,17.156Zm-.18-7.578a1.928,1.928,0,0,0-1.469.637A3.1,3.1,0,0,0,195.945,12h4.234v-.109a2.753,2.753,0,0,0-.594-1.707A1.815,1.815,0,0,0,198.148,9.578Zm6.516-1.031.047,1.063a3.08,3.08,0,0,1,2.531-1.219q2.68,0,2.7,3.023V17H208.5V11.406a1.946,1.946,0,0,0-.418-1.352,1.675,1.675,0,0,0-1.277-.437,2.086,2.086,0,0,0-1.234.375,2.546,2.546,0,0,0-.828.984V17H203.3V8.547Z" transform="translate(-6287.6 -3240)" fill="#12263f"/>
    <g id="formas_decoracion-2" data-name="formas decoracion" transform="translate(-6021.655 -3391.114)">
      <path id="Trazado_123280-2" data-name="Trazado 123280" d="M357.394,329.9c-2.112,0-4.224.017-6.337,0a12.874,12.874,0,0,1-2.3-.156,3.734,3.734,0,0,1-3.1-4.692,23.671,23.671,0,0,1,1.125-3.566c3.809-9.765,7.964-19.391,12.708-28.722.693-1.368,1.489-2.7,2.268-4.017a13.585,13.585,0,0,1,1.177-1.645c2.095-2.458,4.657-2.562,6.977-.26a15.315,15.315,0,0,1,2.735,4.051,77.511,77.511,0,0,1,4.1,9.834c1.956,5.627,3.809,11.288,5.3,17.071a15.245,15.245,0,0,1,.554,3.411,5.46,5.46,0,0,1-3.809,5.817,26.4,26.4,0,0,1-5.886,1.35A132.9,132.9,0,0,1,357.394,329.9Zm1.108-4.709a117.753,117.753,0,0,0,15.789-1.731c3.9-.658,4.242-1.177,3.2-4.969-1.125-4.086-2.372-8.12-3.636-12.171a89.654,89.654,0,0,0-4.83-12.673,31.458,31.458,0,0,0-1.9-3.22.671.671,0,0,0-1.177.069c-1.021,1.731-2.095,3.463-3.013,5.263-4.294,8.518-8.1,17.244-11.669,26.091-.173.45-.363.883-.5,1.35-.45,1.506-.138,1.974,1.385,1.991C354.26,325.206,356.372,325.189,358.5,325.189Z" transform="translate(-345.548 -285.182)" fill="#0b481e"/>
    </g>
    <path id="Trazado_698119" data-name="Trazado 698119" d="M6.258,17H4V8.3l-2.7.836V7.3L6.016,5.609h.242Z" transform="translate(-6540 -3425)" fill="#12263f"/>
    <path id="Trazado_698118" data-name="Trazado 698118" d="M8.57,17H.773V15.453l3.68-3.922a9.078,9.078,0,0,0,1.121-1.445,2.322,2.322,0,0,0,.363-1.172,1.738,1.738,0,0,0-.383-1.191,1.382,1.382,0,0,0-1.094-.434,1.49,1.49,0,0,0-1.207.527A2.089,2.089,0,0,0,2.813,9.2H.547a3.729,3.729,0,0,1,.5-1.9,3.5,3.5,0,0,1,1.4-1.348A4.262,4.262,0,0,1,4.5,5.469a4.036,4.036,0,0,1,2.73.844A2.985,2.985,0,0,1,8.2,8.7a3.825,3.825,0,0,1-.437,1.719,9.551,9.551,0,0,1-1.5,2.039L3.68,15.18H8.57Z" transform="translate(-6454 -3496)" fill="#12263f"/>
    <path id="Trazado_698117" data-name="Trazado 698117" d="M3.07,10.313h1.2a1.7,1.7,0,0,0,1.273-.43,1.574,1.574,0,0,0,.414-1.141,1.392,1.392,0,0,0-.41-1.07,1.59,1.59,0,0,0-1.129-.383,1.666,1.666,0,0,0-1.086.355A1.137,1.137,0,0,0,2.9,8.57H.641a2.777,2.777,0,0,1,.48-1.6A3.2,3.2,0,0,1,2.465,5.867a4.485,4.485,0,0,1,1.9-.4A4.253,4.253,0,0,1,7.2,6.332,2.945,2.945,0,0,1,8.219,8.711a2.394,2.394,0,0,1-.477,1.438,3.1,3.1,0,0,1-1.25,1.008,2.826,2.826,0,0,1,1.434,1.031A2.8,2.8,0,0,1,8.4,13.813a2.994,2.994,0,0,1-1.105,2.43,4.445,4.445,0,0,1-2.926.914,4.214,4.214,0,0,1-2.785-.9A2.934,2.934,0,0,1,.5,13.883H2.758a1.308,1.308,0,0,0,.48,1.047,1.771,1.771,0,0,0,1.184.406,1.779,1.779,0,0,0,1.262-.426,1.47,1.47,0,0,0,.457-1.129q0-1.7-1.875-1.7H3.07Z" transform="translate(-6347 -3560)" fill="#12263f"/>
    <path id="Trazado_698115" data-name="Trazado 698115" d="M7.453,12.719H8.742v1.82H7.453V17H5.2V14.539H.531l-.1-1.422L5.172,5.625H7.453Zm-4.773,0H5.2V8.7l-.148.258Z" transform="translate(-6222 -3610)" fill="#12263f"/>
    <path id="Trazado_698116" data-name="Trazado 698116" d="M1.109,11.406l.656-5.781H8.141V7.508H3.617L3.336,9.953a3.58,3.58,0,0,1,1.711-.43,3.279,3.279,0,0,1,2.547,1.008,4.026,4.026,0,0,1,.922,2.82,4.124,4.124,0,0,1-.465,1.973,3.281,3.281,0,0,1-1.332,1.352,4.158,4.158,0,0,1-2.047.48,4.416,4.416,0,0,1-1.914-.418,3.4,3.4,0,0,1-1.395-1.176A3.2,3.2,0,0,1,.82,13.836H3.055a1.669,1.669,0,0,0,.5,1.105,1.573,1.573,0,0,0,1.113.395,1.388,1.388,0,0,0,1.18-.551,2.551,2.551,0,0,0,.414-1.559,2.11,2.11,0,0,0-.477-1.484,1.749,1.749,0,0,0-1.352-.516,1.954,1.954,0,0,0-1.3.422l-.219.2Z" transform="translate(-6084 -3649)" fill="#12263f"/>
  </g>
</svg>
