<svg xmlns="http://www.w3.org/2000/svg" width="96.225" height="103.613" viewBox="0 0 96.225 103.613">
  <g id="Grupo_962460" data-name="Grupo 962460" transform="translate(19.573 103.613) rotate(-106)">
    <path id="Trazado_122881" data-name="Trazado 122881" d="M.027,0C1.7,5.244-.249,11.939.027,17.463c.306,6.071.7,12.37,1.526,18.392.8,5.811,2,12.1,5.71,16.83,4.582,5.848,7.725,2.93,8.161-3.374.315-4.533-.909-15.786,2.121-18.807,2.8,12.789,4.9,25.533,13.716,35.741,2.141,2.475,8.829,10.462,12.427,7.528,2.967-2.417.053-14.842-1.182-17.963C49.8,65.46,63.188,76.633,76.2,76.017c15.675-.742-11.168-22.891-15.678-25.966-5-3.41-10.164-6.714-15.221-9.707C54.019,39.048,66.626,44.886,74.7,39,87.55,29.631,63.81,22.86,57.185,21.859a123.038,123.038,0,0,0-16.2-1.537c6.452,0,13.986.828,20.006-1.873,9.514-4.267-1.432-8.62-6.481-10.639-11.337-4.533-24.375-3.7-36.429-3.67-4.42.011-12.672.517-16.548-1.881Z" transform="translate(3.567 4.723)" fill="#4f9638"/>
    <g id="Grupo_86411" data-name="Grupo 86411" transform="translate(0 0)">
      <path id="Trazado_122882" data-name="Trazado 122882" d="M.03.737c1.157,3.156,3.42,5.808,5.522,8.394,1.355,1.668,2.657,3.374,3.983,5.062a.449.449,0,0,0,.282.358C10.4,15.3,11,16.038,11.58,16.789a.382.382,0,0,0-.144.231c-.526,2.621-.062,5.553-.089,8.227-.029,2.708-.131,5.415-.189,8.123A72.428,72.428,0,0,0,12.271,49.6c.082.4.768.318.726-.1a136,136,0,0,1-.327-16.446c.056-2.708.138-5.417.153-8.125a32.98,32.98,0,0,0-.222-6.846c.173.226.357.444.529.671,4.7,6.182,9.72,12.086,14.724,18.023,9.074,10.766,18.009,22.27,30.363,29.457.72.42,1.313-.642.644-1.1-11.606-8.021-20.384-19.295-29.357-30-1.4-1.672-2.783-3.356-4.171-5.038,1.139.051,2.3-.016,3.39.018,1.959.062,3.912.164,5.868.284,4.211.258,8.411.615,12.59,1.2a143.456,143.456,0,0,1,23.76,5.166c.071.022.1-.085.031-.111-3.925-1.391-7.723-2.9-11.772-3.92q-6.177-1.558-12.48-2.545c-3.883-.611-7.794-1.108-11.713-1.411-2.092-.162-4.187-.262-6.284-.333a24.482,24.482,0,0,0-4.775-.024q-4.534-5.506-9.082-11c-.773-.929-1.571-1.839-2.365-2.754.817-.087,1.634-.229,2.435-.3q2.868-.248,5.748-.3a97.611,97.611,0,0,1,11.155.427c7.337.706,14.373,2.67,21.8,2.4a.127.127,0,0,0,0-.255c-7.492-.5-14.715-3.052-22.2-3.752a96.859,96.859,0,0,0-11.577-.4q-2.878.074-5.75.34a21.865,21.865,0,0,0-2.883.358c-1.251-1.433-2.5-2.868-3.716-4.333C5.2,6.054,3.234,3.02.992.177.637-.272-.163.214.03.737Z" transform="translate(0 0)" fill="#36753c"/>
      <path id="Trazado_122883" data-name="Trazado 122883" d="M2.252,7.364C1.714,5.021,1.646,2.329.662.138A.287.287,0,0,0,.144.2c-.479,2.315.345,4.96.867,7.217.579,2.5,1.291,4.962,2.083,7.4,1.637,5.056,3.691,9.96,5.622,14.909.169.435.871.26.713-.2C7.72,24.616,5.912,19.729,4.32,14.77,3.536,12.329,2.829,9.863,2.252,7.364Z" transform="translate(28.014 37.934)" fill="#36753c"/>
    </g>
  </g>
</svg>
