<svg xmlns="http://www.w3.org/2000/svg" width="152.894" height="84.96" viewBox="0 0 152.894 84.96">
  <g id="Grupo_1013394" data-name="Grupo 1013394" transform="translate(-972.106 -1297.014)">
    <g id="Grupo_1013377" data-name="Grupo 1013377" transform="translate(972.106 1334.102)">
      <g id="Grupo_1012951" data-name="Grupo 1012951" transform="translate(0.178 0.148)">
        <g id="Grupo_1012950" data-name="Grupo 1012950">
          <g id="Grupo_1012949" data-name="Grupo 1012949">
            <path id="Trazado_697902" data-name="Trazado 697902" d="M128.571,48.194a19.506,19.506,0,0,1,4.765-2.07l.982-4.716,7.969-.14,1.147,4.678a19.536,19.536,0,0,1,4.835,1.9l4.027-2.64,5.733,5.536-2.5,4.116a19.492,19.492,0,0,1,2.07,4.766l4.716.982.14,7.968-4.679,1.147a19.528,19.528,0,0,1-1.9,4.834l2.639,4.028-5.535,5.734-4.117-2.5a19.52,19.52,0,0,1-4.765,2.07l-.982,4.716-7.968.14L134,84.069a19.529,19.529,0,0,1-4.834-1.9l-4.027,2.64-5.734-5.536,2.5-4.117a19.525,19.525,0,0,1-2.071-4.765l-4.716-.982-.14-7.968,4.679-1.147a19.53,19.53,0,0,1,1.9-4.834l-2.639-4.027,5.535-5.733,4.116,2.5Zm4.248,10.615a8.549,8.549,0,1,0,12.089-.213A8.548,8.548,0,0,0,132.819,58.81Z" transform="translate(-114.978 -41.268)" fill="#e0e0e0"/>
          </g>
        </g>
      </g>
      <g id="Grupo_1012955" data-name="Grupo 1012955" transform="translate(15.47 14.925)">
        <g id="Grupo_1012954" data-name="Grupo 1012954">
          <g id="Grupo_1012953" data-name="Grupo 1012953">
            <g id="Grupo_1012952" data-name="Grupo 1012952">
              <path id="Trazado_697903" data-name="Trazado 697903" d="M134.352,60.292a6.472,6.472,0,0,1,1.591-1.4,8.509,8.509,0,0,1,5.578-1.319,8.617,8.617,0,0,1,3.791,1.347,8.753,8.753,0,0,1,3.066,3.454,8.761,8.761,0,0,1,.826,5.031,8.722,8.722,0,0,1-7.216,7.475,8.759,8.759,0,0,1-5.058-.649,8.754,8.754,0,0,1-3.56-2.943,8.623,8.623,0,0,1-1.479-3.741,8.509,8.509,0,0,1,1.122-5.62,6.439,6.439,0,0,1,1.339-1.639c.046.039-.516.561-1.175,1.735a8.528,8.528,0,0,0-.945,5.473,8.354,8.354,0,0,0,4.88,6.324,8.353,8.353,0,0,0,4.793.588,8.285,8.285,0,0,0,6.822-7.066,8.354,8.354,0,0,0-.755-4.77,8.352,8.352,0,0,0-6.491-4.655,8.525,8.525,0,0,0-5.437,1.137C134.894,59.756,134.392,60.336,134.352,60.292Z" transform="translate(-131.804 -57.527)" fill="#e0e0e0"/>
            </g>
          </g>
        </g>
      </g>
      <g id="Grupo_1012959" data-name="Grupo 1012959">
        <g id="Grupo_1012958" data-name="Grupo 1012958">
          <g id="Grupo_1012957" data-name="Grupo 1012957">
            <g id="Grupo_1012956" data-name="Grupo 1012956">
              <path id="Trazado_697904" data-name="Trazado 697904" d="M128.553,48.179a1.754,1.754,0,0,1-.265-.14l-.79-.456-3.1-1.833.1-.013-5.5,5.766.015-.155,2.656,4.016.048.073-.043.076a19.52,19.52,0,0,0-1.871,4.8l-.023.095-.1.024L115,61.595l.133-.173c.05,2.508.1,5.171.158,7.967l-.154-.185,4.717.972.12.025.034.118a19.44,19.44,0,0,0,2.057,4.711l.066.109-.066.11-2.49,4.121-.035-.271c1.8,1.737,3.747,3.609,5.74,5.528L125,84.6l4.024-2.644.118-.077.124.068a19.435,19.435,0,0,0,4.778,1.876l.139.034.035.14c.36,1.465.753,3.064,1.15,4.678l-.237-.183,7.968-.144-.234.194c.31-1.49.643-3.1.981-4.716l.03-.145.143-.04a19.322,19.322,0,0,0,4.7-2.042l0,0,.128-.076.125.076,4.117,2.5-.3.039,5.537-5.732-.028.3-2.637-4.028-.08-.122.071-.127a19.309,19.309,0,0,0,1.881-4.774l.035-.14.14-.034,4.679-1.143-.178.231q-.067-4.08-.132-7.968l.18.216-4.714-.987-.131-.027-.035-.127a19.374,19.374,0,0,0-2.04-4.716l-.066-.11.066-.109,2.5-4.113.033.253-5.722-5.548.234.022-4.033,2.629-.09.058-.093-.052a19.435,19.435,0,0,0-4.788-1.9l-.1-.024-.023-.095c-.411-1.7-.782-3.234-1.132-4.682l.144.111-7.969.1.105-.087c-.4,1.881-.735,3.425-1.012,4.71l-.01.047-.045.013a20.314,20.314,0,0,0-3.644,1.4l-.857.448a2.046,2.046,0,0,1-.287.145,2.389,2.389,0,0,1,.265-.181c.182-.112.458-.28.84-.484a18.885,18.885,0,0,1,3.638-1.481l-.055.059c.26-1.289.571-2.837.951-4.722l.017-.085.089,0,7.967-.175.115,0,.028.113c.359,1.445.74,2.976,1.162,4.674l-.118-.118a19.673,19.673,0,0,1,4.881,1.9l-.182.006,4.021-2.649.125-.082.108.1,5.745,5.524.117.113-.085.14-2.489,4.121v-.219a19.787,19.787,0,0,1,2.1,4.815l-.166-.155,4.717.975.176.036,0,.181q.072,3.887.148,7.968l0,.186-.181.045-4.678,1.151.174-.174a19.752,19.752,0,0,1-1.922,4.894l-.009-.249,2.641,4.026.106.162-.134.14-5.534,5.735-.135.141-.167-.1-4.117-2.5h.254l0,0a19.825,19.825,0,0,1-4.821,2.094l.173-.185c-.337,1.619-.673,3.226-.982,4.716l-.04.191-.195,0-7.969.136-.192,0-.045-.186c-.394-1.615-.785-3.214-1.144-4.68l.174.174a19.81,19.81,0,0,1-4.89-1.929l.241-.009-4.03,2.636-.153.1-.131-.126-5.727-5.542-.125-.122.091-.149,2.5-4.113v.219a19.779,19.779,0,0,1-2.085-4.82l.154.143-4.714-.991-.151-.032,0-.154c-.043-2.8-.084-5.459-.122-7.968l0-.14.135-.033,4.681-1.134-.117.118a19.715,19.715,0,0,1,1.932-4.866l.005.149L118.8,51.485l-.055-.084.069-.071,5.568-5.7.045-.045.053.033,3.033,1.888.78.5A2.317,2.317,0,0,1,128.553,48.179Z" transform="translate(-114.782 -41.105)" fill="#e0e0e0"/>
            </g>
          </g>
        </g>
      </g>
    </g>
    <g id="Grupo_1013378" data-name="Grupo 1013378" transform="translate(1040 1297.014)">
      <g id="Grupo_1012951-2" data-name="Grupo 1012951" transform="translate(0.316 0.263)">
        <g id="Grupo_1012950-2" data-name="Grupo 1012950">
          <g id="Grupo_1012949-2" data-name="Grupo 1012949">
            <path id="Trazado_697902-2" data-name="Trazado 697902" d="M139.1,53.56a34.619,34.619,0,0,1,8.457-3.674l1.742-8.37,14.142-.248,2.036,8.3a34.671,34.671,0,0,1,8.581,3.376l7.147-4.686,10.175,9.825-4.429,7.305a34.593,34.593,0,0,1,3.674,8.458L199,75.59l.248,14.141-8.3,2.036a34.657,34.657,0,0,1-3.376,8.579l4.684,7.149-9.823,10.176-7.307-4.431a34.644,34.644,0,0,1-8.457,3.674l-1.742,8.37-14.141.248-2.036-8.3a34.659,34.659,0,0,1-8.579-3.376l-7.147,4.686-10.176-9.825,4.431-7.307a34.65,34.65,0,0,1-3.676-8.457l-8.37-1.742-.248-14.141,8.3-2.036a34.66,34.66,0,0,1,3.376-8.579l-4.684-7.147L131.8,49.131,139.1,53.56ZM146.64,72.4a15.173,15.173,0,1,0,21.454-.377A15.171,15.171,0,0,0,146.64,72.4Z" transform="translate(-114.978 -41.268)" fill="#e0e0e0"/>
          </g>
        </g>
      </g>
      <g id="Grupo_1012955-2" data-name="Grupo 1012955" transform="translate(27.455 26.487)">
        <g id="Grupo_1012954-2" data-name="Grupo 1012954">
          <g id="Grupo_1012953-2" data-name="Grupo 1012953">
            <g id="Grupo_1012952-2" data-name="Grupo 1012952">
              <path id="Trazado_697903-2" data-name="Trazado 697903" d="M136.327,62.434a11.486,11.486,0,0,1,2.824-2.479,15.1,15.1,0,0,1,9.9-2.34A15.292,15.292,0,0,1,155.778,60a15.534,15.534,0,0,1,5.441,6.129,15.548,15.548,0,0,1,1.466,8.929A15.48,15.48,0,0,1,149.878,88.33a15.545,15.545,0,0,1-8.976-1.152,15.536,15.536,0,0,1-6.318-5.223,15.3,15.3,0,0,1-2.624-6.639,15.1,15.1,0,0,1,1.992-9.975,11.428,11.428,0,0,1,2.376-2.908c.082.069-.916,1-2.086,3.079a15.136,15.136,0,0,0-1.677,9.713,14.825,14.825,0,0,0,8.662,11.223,14.825,14.825,0,0,0,8.507,1.044,14.7,14.7,0,0,0,12.107-12.541,14.825,14.825,0,0,0-1.34-8.465,14.822,14.822,0,0,0-11.52-8.262,15.13,15.13,0,0,0-9.649,2.018C137.288,61.484,136.4,62.513,136.327,62.434Z" transform="translate(-131.804 -57.527)" fill="#e0e0e0"/>
            </g>
          </g>
        </g>
      </g>
      <g id="Grupo_1012959-2" data-name="Grupo 1012959">
        <g id="Grupo_1012958-2" data-name="Grupo 1012958">
          <g id="Grupo_1012957-2" data-name="Grupo 1012957">
            <g id="Grupo_1012956-2" data-name="Grupo 1012956">
              <path id="Trazado_697904-2" data-name="Trazado 697904" d="M139.222,53.66a3.113,3.113,0,0,1-.471-.248l-1.4-.81-5.507-3.253.171-.023-9.765,10.233.026-.274,4.713,7.128.085.129-.076.135a34.643,34.643,0,0,0-3.321,8.523l-.04.168-.169.042-8.3,2.06.236-.306c.089,4.452.182,9.178.281,14.139l-.273-.329,8.371,1.726.213.044.06.21a34.5,34.5,0,0,0,3.65,8.362l.118.194-.118.2-4.42,7.313-.061-.481c3.2,3.082,6.65,6.405,10.187,9.812l-.5-.047,7.142-4.692.21-.137.219.121a34.492,34.492,0,0,0,8.479,3.329l.247.06.061.248c.639,2.6,1.337,5.437,2.04,8.3l-.421-.324c4.478-.081,9.276-.166,14.141-.255l-.415.344c.55-2.644,1.142-5.5,1.74-8.37l.053-.258.253-.071a34.291,34.291,0,0,0,8.344-3.624l.008,0,.227-.135.223.135,7.307,4.431-.537.069q4.982-5.156,9.826-10.173l-.05.535q-2.364-3.61-4.681-7.149l-.142-.216.126-.226a34.27,34.27,0,0,0,3.339-8.473l.061-.248.248-.06,8.3-2.029-.316.41q-.119-7.241-.234-14.141l.319.384-8.366-1.752-.232-.048-.063-.226a34.383,34.383,0,0,0-3.621-8.37l-.118-.2.118-.194c1.523-2.5,3-4.929,4.442-7.3l.058.448L181.1,48.6l.415.039-7.158,4.666-.16.1-.165-.092a34.492,34.492,0,0,0-8.5-3.371l-.169-.042-.04-.168c-.729-3.019-1.387-5.739-2.008-8.31l.255.2-14.142.186.187-.155c-.718,3.339-1.3,6.078-1.8,8.358l-.018.084-.081.023a36.053,36.053,0,0,0-6.466,2.487l-1.521.8a3.63,3.63,0,0,1-.51.258,4.241,4.241,0,0,1,.471-.321c.323-.2.813-.5,1.49-.86a33.517,33.517,0,0,1,6.457-2.629l-.1.1c.461-2.287,1.013-5.034,1.687-8.381l.031-.152.158,0,14.139-.31.2,0,.05.2c.637,2.565,1.313,5.281,2.063,8.3l-.21-.21a34.914,34.914,0,0,1,8.663,3.381l-.323.011,7.136-4.7.221-.145.192.185,10.2,9.8.208.2-.15.248c-1.434,2.374-2.9,4.805-4.418,7.313V65.3a35.118,35.118,0,0,1,3.728,8.545l-.3-.276q4.111.852,8.371,1.731l.313.065.007.321q.128,6.9.263,14.141l.006.331-.321.079q-4.094,1.009-8.3,2.042l.308-.308a35.055,35.055,0,0,1-3.411,8.686l-.016-.442,4.687,7.145.189.287-.239.248q-4.841,5.015-9.821,10.178l-.24.25-.3-.181-7.307-4.429h.45l-.008,0a35.184,35.184,0,0,1-8.555,3.716l.306-.329c-.6,2.873-1.194,5.726-1.744,8.37l-.071.339-.345.006-14.142.242-.34.006-.081-.331c-.7-2.866-1.394-5.7-2.031-8.305l.308.308a35.158,35.158,0,0,1-8.679-3.423l.427-.016-7.152,4.678-.271.177-.232-.224-10.163-9.836-.223-.216.161-.265,4.441-7.3v.389a35.1,35.1,0,0,1-3.7-8.554l.273.253-8.366-1.758-.268-.056,0-.273c-.076-4.961-.148-9.689-.216-14.141l0-.248.24-.058,8.308-2.013-.208.21a34.989,34.989,0,0,1,3.429-8.636l.01.265-4.655-7.166-.1-.148.123-.126,9.883-10.118.079-.081.094.058,5.382,3.35,1.384.879A4.112,4.112,0,0,1,139.222,53.66Z" transform="translate(-114.782 -41.105)" fill="#e0e0e0"/>
            </g>
          </g>
        </g>
      </g>
    </g>
  </g>
</svg>
