<svg xmlns="http://www.w3.org/2000/svg" width="67.506" height="66.399" viewBox="0 0 67.506 66.399">
  <path id="Trazado_122727" data-name="Trazado 122727" d="M25.53,147.56a40.328,40.328,0,0,1,.85-8.24,18.817,18.817,0,0,1,4.33-9.4c1.27-1.39,2.13-3.14,3.37-4.56,8.74-9.96,19.64-13.64,32.62-10.87a22.268,22.268,0,0,1,11.25,6.38,30.215,30.215,0,0,1,8.64,15.89,25.734,25.734,0,0,1-5.44,21.36c-7.4,9.39-16.95,14.96-29.06,15.71a32.272,32.272,0,0,1-14.53-2.47,17.478,17.478,0,0,1-9.6-9.68A35.166,35.166,0,0,1,25.53,147.56Zm7.08.36a26.244,26.244,0,0,0,1.63,10.6,10.948,10.948,0,0,0,6.94,6.79,25.546,25.546,0,0,0,9.42,1.67c11.48-.43,20.45-5.6,26.58-15.18,6.45-10.07,1.84-24.71-9.03-29.78a17.226,17.226,0,0,0-2.87-1.03,26.065,26.065,0,0,0-27.9,10.78A26.656,26.656,0,0,0,32.61,147.92Z" transform="matrix(0.995, -0.105, 0.105, 0.995, -37.259, -103.873)" fill="#ffc107"/>
</svg>
