<svg xmlns="http://www.w3.org/2000/svg" width="305" height="263.075" viewBox="0 0 305 263.075">
  <g id="_9462036" data-name="9462036" transform="translate(0 -40.8)">
    <g id="Background_complete" transform="translate(0 40.8)">
      <g id="Grupo_955297" data-name="Grupo 955297" transform="translate(160.906 51.826)">
        <g id="Grupo_955296" data-name="Grupo 955296">
          <g id="Grupo_955294" data-name="Grupo 955294">
            <path id="Trazado_693766" data-name="Trazado 693766" d="M269.6,125.76h12.535a5.818,5.818,0,0,1,5.819,5.819v7.027a5.818,5.818,0,0,1-5.819,5.819h-2.849l.207,2.891-4.124-2.891H269.6a5.818,5.818,0,0,1-5.819-5.819v-7.027A5.815,5.815,0,0,1,269.6,125.76Z" transform="translate(-263.78 -125.76)" fill="#e6e6e6"/>
          </g>
          <g id="Grupo_955295" data-name="Grupo 955295" transform="translate(6.124 7.857)">
            <path id="Trazado_693767" data-name="Trazado 693767" d="M276.821,140.141a1.5,1.5,0,1,1-1.5-1.5A1.5,1.5,0,0,1,276.821,140.141Z" transform="translate(-273.82 -138.64)" fill="#fff"/>
            <path id="Trazado_693768" data-name="Trazado 693768" d="M285.191,140.141a1.5,1.5,0,1,1-1.5-1.5A1.5,1.5,0,0,1,285.191,140.141Z" transform="translate(-277.084 -138.64)" fill="#fff"/>
            <path id="Trazado_693769" data-name="Trazado 693769" d="M293.781,140.141a1.5,1.5,0,1,1-1.5-1.5A1.5,1.5,0,0,1,293.781,140.141Z" transform="translate(-280.434 -138.64)" fill="#fff"/>
          </g>
        </g>
      </g>
      <g id="Grupo_955306" data-name="Grupo 955306" transform="translate(0 8.784)">
        <g id="Grupo_955305" data-name="Grupo 955305">
          <g id="Grupo_955302" data-name="Grupo 955302" transform="translate(29.823)">
            <g id="Grupo_955299" data-name="Grupo 955299" transform="translate(127.136)">
              <g id="Grupo_955298" data-name="Grupo 955298">
                <path id="Trazado_693770" data-name="Trazado 693770" d="M371.142,222.95H260.885a3.58,3.58,0,0,1-3.575-3.575V58.775a3.58,3.58,0,0,1,3.575-3.575H371.142a3.58,3.58,0,0,1,3.575,3.575V219.369A3.581,3.581,0,0,1,371.142,222.95ZM260.885,55.353a3.429,3.429,0,0,0-3.422,3.422V219.369a3.429,3.429,0,0,0,3.422,3.422H371.142a3.429,3.429,0,0,0,3.422-3.422V58.775a3.429,3.429,0,0,0-3.422-3.422Z" transform="translate(-257.31 -55.2)" fill="#e0e0e0"/>
              </g>
            </g>
            <g id="Grupo_955301" data-name="Grupo 955301">
              <g id="Grupo_955300" data-name="Grupo 955300">
                <path id="Trazado_693771" data-name="Trazado 693771" d="M162.716,222.95H52.465a3.58,3.58,0,0,1-3.575-3.575V58.775A3.58,3.58,0,0,1,52.465,55.2H162.722a3.58,3.58,0,0,1,3.575,3.575V219.369A3.586,3.586,0,0,1,162.716,222.95ZM52.465,55.353a3.429,3.429,0,0,0-3.422,3.422V219.369a3.429,3.429,0,0,0,3.422,3.422H162.722a3.429,3.429,0,0,0,3.422-3.422V58.775a3.429,3.429,0,0,0-3.422-3.422Z" transform="translate(-48.89 -55.2)" fill="#e0e0e0"/>
              </g>
            </g>
          </g>
          <g id="Grupo_955304" data-name="Grupo 955304" transform="translate(0 205.003)">
            <g id="Grupo_955303" data-name="Grupo 955303">
              <rect id="Rectángulo_341883" data-name="Rectángulo 341883" width="305" height="0.153" fill="#e0e0e0"/>
            </g>
          </g>
        </g>
        <rect id="Rectángulo_341884" data-name="Rectángulo 341884" width="9.797" height="0.153" transform="translate(31.519 213.701)" fill="#e0e0e0"/>
        <rect id="Rectángulo_341885" data-name="Rectángulo 341885" width="32.653" height="0.153" transform="translate(103.914 212.048)" fill="#e0e0e0"/>
        <rect id="Rectángulo_341886" data-name="Rectángulo 341886" width="22.112" height="0.153" transform="translate(41.925 219.368)" fill="#e0e0e0"/>
        <rect id="Rectángulo_341887" data-name="Rectángulo 341887" width="26.346" height="0.153" transform="translate(230.794 211.969)" fill="#e0e0e0"/>
        <rect id="Rectángulo_341888" data-name="Rectángulo 341888" width="3.861" height="0.153" transform="translate(262.575 211.969)" fill="#e0e0e0"/>
        <rect id="Rectángulo_341889" data-name="Rectángulo 341889" width="32.873" height="0.153" transform="translate(192.888 215.769)" fill="#e0e0e0"/>
      </g>
      <g id="Grupo_955322" data-name="Grupo 955322" transform="translate(234.27 136.987)">
        <g id="Grupo_955313" data-name="Grupo 955313" transform="translate(5.185 7.602)">
          <g id="Grupo_955307" data-name="Grupo 955307" transform="translate(1.671 14.215)">
            <path id="Trazado_693772" data-name="Trazado 693772" d="M412.559,340.031c-.012-.311-1.055-31.122-6.063-35.99-4.874-4.74-10.468-.177-10.705.018l-.5-.6c.061-.055,6.374-5.209,11.755.018,5.234,5.093,6.259,35.252,6.3,36.533Z" transform="translate(-395.29 -301.133)" fill="#e0e0e0"/>
          </g>
          <g id="Grupo_955308" data-name="Grupo 955308" transform="translate(18.965 6.832)">
            <path id="Trazado_693773" data-name="Trazado 693773" d="M424.049,341.362c-.037-.366-3.422-36.984,9.949-52.332l.592.512c-13.152,15.091-9.8,51.38-9.76,51.746Z" transform="translate(-423.64 -289.03)" fill="#e0e0e0"/>
          </g>
          <g id="Grupo_955309" data-name="Grupo 955309" transform="translate(10.907 4.002)">
            <path id="Trazado_693774" data-name="Trazado 693774" d="M418.4,335.679l-.781-.055c.03-.415,2.617-41.633-7.192-50.654l.531-.579C421.044,293.674,418.512,333.971,418.4,335.679Z" transform="translate(-410.43 -284.39)" fill="#e0e0e0"/>
          </g>
          <g id="Grupo_955310" data-name="Grupo 955310" transform="translate(19.367 22.213)">
            <path id="Trazado_693775" data-name="Trazado 693775" d="M425.087,347.3l-.787-.006c.012-1.135.323-27.84,7.912-32.184a5.35,5.35,0,0,1,4.91-.476c4.587,1.9,6.862,10.059,6.954,10.407l-.756.207c-.024-.079-2.269-8.137-6.5-9.888a4.634,4.634,0,0,0-4.215.433C425.4,319.915,425.093,347.029,425.087,347.3Z" transform="translate(-424.3 -314.244)" fill="#e0e0e0"/>
          </g>
          <g id="Grupo_955311" data-name="Grupo 955311" transform="translate(0 23.467)">
            <path id="Trazado_693776" data-name="Trazado 693776" d="M409.752,348.124l-.781-.043c.012-.214,1.147-21.1-4.5-28.463-1.366-1.781-2.849-2.635-4.416-2.525-3.7.256-6.789,5.667-6.826,5.716l-.683-.384c.134-.238,3.337-5.826,7.448-6.112,1.842-.128,3.556.823,5.094,2.83C410.911,326.732,409.8,347.252,409.752,348.124Z" transform="translate(-392.55 -316.301)" fill="#e0e0e0"/>
          </g>
          <g id="Grupo_955312" data-name="Grupo 955312" transform="translate(17.304)">
            <path id="Trazado_693777" data-name="Trazado 693777" d="M422.053,335.963c-.152-2.025-3.684-49.727,2.531-58.133l.628.464c-6.045,8.174-2.416,57.114-2.379,57.608Z" transform="translate(-420.917 -277.83)" fill="#e0e0e0"/>
          </g>
        </g>
        <g id="Grupo_955314" data-name="Grupo 955314" transform="translate(36.241 32.011)">
          <path id="Trazado_693778" data-name="Trazado 693778" d="M446.285,320.868s-3.727,1.372-2.617,4.618,12.9,8.589,12.9,8.589,4.935-4.526.4-11.889S446.382,318.55,446.285,320.868Z" transform="translate(-443.461 -317.845)" fill="#ebebeb"/>
        </g>
        <g id="Grupo_955315" data-name="Grupo 955315" transform="translate(13.315 27.365)">
          <path id="Trazado_693779" data-name="Trazado 693779" d="M415.419,311.724s3.971-.165,4.2,3.257-8.6,12.889-8.6,12.889-6.3-2.275-4.947-10.815S414.431,309.62,415.419,311.724Z" transform="translate(-405.877 -310.23)" fill="#ebebeb"/>
        </g>
        <g id="Grupo_955316" data-name="Grupo 955316" transform="translate(5.691 7.825)">
          <path id="Trazado_693780" data-name="Trazado 693780" d="M407.184,282.847s2.647-.287,2.434-1.9-10.291-5.764-16.238.946c0,0,3.806,6.539,9.309,6.625S407.184,282.847,407.184,282.847Z" transform="translate(-393.38 -278.196)" fill="#ebebeb"/>
        </g>
        <g id="Grupo_955317" data-name="Grupo 955317" transform="translate(21.308 0)">
          <path id="Trazado_693781" data-name="Trazado 693781" d="M422.1,273.934s-2.4,1.159-3.068-.323,5.685-10.333,14.28-7.784c0,0,.226,7.564-4.4,10.547S422.1,273.934,422.1,273.934Z" transform="translate(-418.98 -265.368)" fill="#ebebeb"/>
        </g>
        <g id="Grupo_955318" data-name="Grupo 955318" transform="translate(0 31.278)">
          <path id="Trazado_693782" data-name="Trazado 693782" d="M395.945,319.094s1.824-1.476-.146-2.2-11.645-.518-11.749,9.065c0,0,11.267,1.873,12.664-1.775S395.945,319.094,395.945,319.094Z" transform="translate(-384.05 -316.644)" fill="#ebebeb"/>
        </g>
        <g id="Grupo_955319" data-name="Grupo 955319" transform="translate(33.63 9.788)">
          <path id="Trazado_693783" data-name="Trazado 693783" d="M440.418,283.864s-1.824-1.476.146-2.2,11.645-.518,11.749,9.065c0,0-11.267,1.873-12.664-1.775S440.418,283.864,440.418,283.864Z" transform="translate(-439.18 -281.414)" fill="#ebebeb"/>
        </g>
        <g id="Grupo_955320" data-name="Grupo 955320" transform="translate(25.54 18.705)">
          <path id="Trazado_693784" data-name="Trazado 693784" d="M429.293,297.288s-.159-1.793,1.287-1.092,6.49,6.143,1.263,11.309c0,0-7.039-5.209-5.771-7.924S429.293,297.288,429.293,297.288Z" transform="translate(-425.919 -296.033)" fill="#ebebeb"/>
        </g>
        <g id="Grupo_955321" data-name="Grupo 955321" transform="translate(2.404 20.889)">
          <path id="Trazado_693785" data-name="Trazado 693785" d="M395.847,301.233s1.092-1.434-.506-1.61-8.766,1.738-7.1,8.894c0,0,8.729-.659,9.107-3.629S395.847,301.233,395.847,301.233Z" transform="translate(-387.991 -299.612)" fill="#ebebeb"/>
        </g>
        <path id="Trazado_693786" data-name="Trazado 693786" d="M423.372,377.276H405.755L401.07,355.67h26.541Z" transform="translate(-390.688 -300.586)" fill="#f0f0f0"/>
        <rect id="Rectángulo_341890" data-name="Rectángulo 341890" width="29.664" height="6.216" transform="translate(8.784 54.773)" fill="#e6e6e6"/>
      </g>
      <g id="Grupo_955326" data-name="Grupo 955326" transform="translate(221.46)">
        <g id="Grupo_955323" data-name="Grupo 955323">
          <rect id="Rectángulo_341891" data-name="Rectángulo 341891" width="38.912" height="73.353" transform="translate(8.705)" fill="#e6e6e6"/>
          <rect id="Rectángulo_341892" data-name="Rectángulo 341892" width="45.707" height="73.353" fill="#f0f0f0"/>
          <rect id="Rectángulo_341893" data-name="Rectángulo 341893" width="31.793" height="60.323" transform="translate(6.948 6.515)" fill="#fff"/>
        </g>
        <g id="Grupo_955325" data-name="Grupo 955325" transform="translate(16.556 20.159)">
          <g id="Grupo_955324" data-name="Grupo 955324">
            <path id="Trazado_693787" data-name="Trazado 693787" d="M395.021,74.166a23.1,23.1,0,0,0-3.721,6.789,16.645,16.645,0,0,0-.97,7.808,6.746,6.746,0,0,0,3.88,5.295c2.336.945,4.77-.055,6.606-1.555,1.665-1.36,3.867-3.782,3.178-6.137-.7-2.4-3.562-2.855-5.594-2.031-4.746,1.934-6.966,7.4-7.3,12.163-.348,4.972.482,13.115,6.618,14.219,1.153.207,1.647-1.556.488-1.763-4.313-.775-5.112-5.984-5.295-9.583-.207-4.111.579-8.534,3.605-11.547,1.141-1.135,3.111-2.654,4.813-1.885,2.19.988.03,3.508-.976,4.52-1.25,1.257-3.032,2.471-4.9,2.092-1.885-.384-3-2.233-3.318-4a14.32,14.32,0,0,1,.842-6.856,20.531,20.531,0,0,1,3.331-6.228c.714-.927-.567-2.227-1.293-1.3Z" transform="translate(-390.191 -73.847)" fill="#f0f0f0"/>
          </g>
        </g>
      </g>
      <g id="Grupo_955328" data-name="Grupo 955328" transform="translate(181.365 2.001)">
        <g id="Grupo_955327" data-name="Grupo 955327">
          <rect id="Rectángulo_341894" data-name="Rectángulo 341894" width="23.607" height="44.5" transform="translate(5.276)" fill="#e6e6e6"/>
          <rect id="Rectángulo_341895" data-name="Rectángulo 341895" width="27.731" height="44.5" fill="#f0f0f0"/>
          <rect id="Rectángulo_341896" data-name="Rectángulo 341896" width="19.288" height="36.594" transform="translate(4.215 3.953)" fill="#fff"/>
        </g>
        <rect id="Rectángulo_341897" data-name="Rectángulo 341897" width="8.003" height="13.286" transform="translate(10.382 13.231)" fill="#f0f0f0"/>
      </g>
    </g>
    <g id="Shadow" transform="translate(23.064 292.053)">
      <g id="Grupo_955330" data-name="Grupo 955330">
        <g id="Grupo_955329" data-name="Grupo 955329">
          <path id="Trazado_693788" data-name="Trazado 693788" d="M304.88,458.6c0,3.263-59.786,5.911-133.535,5.911S37.81,461.864,37.81,458.6,97.6,452.69,171.345,452.69,304.88,455.337,304.88,458.6Z" transform="translate(-37.81 -452.69)" fill="#f5f5f5"/>
        </g>
      </g>
    </g>
    <g id="Window" transform="translate(42.627 43.069)">
      <g id="Grupo_955349" data-name="Grupo 955349">
        <rect id="Rectángulo_341898" data-name="Rectángulo 341898" width="85.479" height="225.688" transform="translate(0 0.006)" fill="#407bff"/>
        <path id="Trazado_693967" data-name="Trazado 693967" d="M0,0H85.479V225.688H0Z" transform="translate(0 0.006)" fill="#f3f9ff" opacity="0.8"/>
        <g id="Grupo_955332" data-name="Grupo 955332" transform="translate(27.121 0.018)">
          <g id="Grupo_955331" data-name="Grupo 955331">
            <path id="Trazado_693789" data-name="Trazado 693789" d="M114.34,44.77V270.061a.229.229,0,0,0,.458,0V44.77a.229.229,0,0,0-.458,0Z" transform="translate(-114.34 -44.55)" fill="#407bff"/>
          </g>
        </g>
        <g id="Grupo_955334" data-name="Grupo 955334" transform="translate(57.724 0.146)">
          <g id="Grupo_955333" data-name="Grupo 955333">
            <path id="Trazado_693790" data-name="Trazado 693790" d="M164.51,44.98V270.9a.229.229,0,0,0,.457,0V44.98a.229.229,0,0,0-.457,0Z" transform="translate(-164.51 -44.76)" fill="#407bff"/>
          </g>
        </g>
        <g id="Grupo_955336" data-name="Grupo 955336" transform="translate(0.183 28.688)">
          <g id="Grupo_955335" data-name="Grupo 955335">
            <path id="Trazado_693791" data-name="Trazado 693791" d="M70.4,92.008h84.345a.229.229,0,0,0,0-.458H70.4a.229.229,0,0,0,0,.458Z" transform="translate(-70.18 -91.55)" fill="#407bff"/>
          </g>
        </g>
        <g id="Grupo_955338" data-name="Grupo 955338" transform="translate(0.183 56.821)">
          <g id="Grupo_955337" data-name="Grupo 955337">
            <path id="Trazado_693792" data-name="Trazado 693792" d="M70.4,138.128h84.345a.229.229,0,0,0,0-.458H70.4a.229.229,0,0,0,0,.458Z" transform="translate(-70.18 -137.67)" fill="#407bff"/>
          </g>
        </g>
        <g id="Grupo_955340" data-name="Grupo 955340" transform="translate(0.183 84.949)">
          <g id="Grupo_955339" data-name="Grupo 955339">
            <path id="Trazado_693793" data-name="Trazado 693793" d="M70.4,184.238h84.345a.229.229,0,0,0,0-.458H70.4a.229.229,0,0,0,0,.458Z" transform="translate(-70.18 -183.78)" fill="#407bff"/>
          </g>
        </g>
        <g id="Grupo_955342" data-name="Grupo 955342" transform="translate(0.183 113.082)">
          <g id="Grupo_955341" data-name="Grupo 955341">
            <path id="Trazado_693794" data-name="Trazado 693794" d="M70.4,230.357h84.345a.229.229,0,0,0,0-.458H70.4a.229.229,0,0,0,0,.458Z" transform="translate(-70.18 -229.9)" fill="#407bff"/>
          </g>
        </g>
        <g id="Grupo_955344" data-name="Grupo 955344" transform="translate(0.183 141.215)">
          <g id="Grupo_955343" data-name="Grupo 955343">
            <path id="Trazado_693795" data-name="Trazado 693795" d="M70.4,276.477h84.345a.229.229,0,0,0,0-.458H70.4a.229.229,0,0,0,0,.458Z" transform="translate(-70.18 -276.02)" fill="#407bff"/>
          </g>
        </g>
        <g id="Grupo_955346" data-name="Grupo 955346" transform="translate(0.183 169.348)">
          <g id="Grupo_955345" data-name="Grupo 955345">
            <path id="Trazado_693796" data-name="Trazado 693796" d="M70.4,322.6h84.345a.229.229,0,0,0,0-.458H70.4a.229.229,0,0,0,0,.458Z" transform="translate(-70.18 -322.14)" fill="#407bff"/>
          </g>
        </g>
        <g id="Grupo_955348" data-name="Grupo 955348" transform="translate(0.183 197.481)">
          <g id="Grupo_955347" data-name="Grupo 955347">
            <path id="Trazado_693797" data-name="Trazado 693797" d="M70.4,368.717h84.345a.229.229,0,0,0,0-.457H70.4a.229.229,0,0,0,0,.457Z" transform="translate(-70.18 -368.26)" fill="#407bff"/>
          </g>
        </g>
        <path id="Trazado_693798" data-name="Trazado 693798" d="M74.034,270.214,72.43,47.759s82.929.384,82.929-.03V44.52H69.88V270.208h4.154Z" transform="translate(-69.88 -44.52)" opacity="0.2"/>
        <path id="Trazado_693799" data-name="Trazado 693799" d="M155.359,44.53s-31.757,40.3-36.5,40.541-6.24-11.547-15.463-3.739-33.52,41.687-33.52,41.687v18.209s33.367-51.4,38.8-49.136,5.972,14.549,13.682,7.582,33-34.105,33-34.105V44.53Z" transform="translate(-69.88 -44.524)" fill="#fff" opacity="0.3"/>
        <path id="Trazado_693800" data-name="Trazado 693800" d="M69.88,267.341s29.433-42.108,34.837-36.088,6.8,35.508,18.867,28.17,31.6-25.467,31.6-25.467v19.807s-26.218,22.393-37.631,17.141-12-25-15.9-22.119S69.88,294.937,69.88,294.937v-27.6Z" transform="translate(-69.88 -117.116)" fill="#fff" opacity="0.3"/>
      </g>
    </g>
    <g id="Character_2" transform="translate(184.005 105.165)">
      <g id="Grupo_955372" data-name="Grupo 955372">
        <g id="Grupo_955354" data-name="Grupo 955354" transform="translate(95.558 159.798)">
          <path id="Trazado_693805" data-name="Trazado 693805" d="M465.078,432.1a8.209,8.209,0,0,1,1.3-2.775h0s.628-4.057-3.4-11.919l2.464-3.05a3.246,3.246,0,0,1,3.605-.964,1.393,1.393,0,0,1,.494.268,20.4,20.4,0,0,1,1.976,2,78.934,78.934,0,0,1,5.728,7.68l-.537.433-3.751-4.7c-1.281-1.6-1.135,1.275-.2,3.306s1.562,4.49-1.983,7.235C466.64,432.779,464.743,433.877,465.078,432.1Z" transform="translate(-460.125 -410.197)" fill="#263238"/>
          <path id="Trazado_693806" data-name="Trazado 693806" d="M458.3,412.763a26.544,26.544,0,0,1,4.813,7.839,18.125,18.125,0,0,1,1.44,6.8s3.05-1.507,2.879-4.191-3.129-10.053-.165-11.73a8.033,8.033,0,0,0-1.763-.677c-.232-.073-1-2.672-1.574-2.519C462.2,408.749,458.3,412.763,458.3,412.763Z" transform="translate(-458.3 -408.279)" fill="#ffa964"/>
        </g>
        <g id="Grupo_955355" data-name="Grupo 955355" transform="translate(43.385 175.596)">
          <path id="Trazado_693807" data-name="Trazado 693807" d="M373.172,453.3a8.177,8.177,0,0,1,2.751-1.36h0s3.026-2.776,4.789-11.431l3.831-.842a3.231,3.231,0,0,1,3.416,1.494,1.349,1.349,0,0,1,.22.519,21.6,21.6,0,0,1,.3,2.794,79.668,79.668,0,0,1-.317,9.577h-.689v-6.015c0-2.05-1.684.287-2.214,2.458s-1.58,4.484-6.063,4.416C373.965,454.808,371.8,454.479,373.172,453.3Z" transform="translate(-372.77 -436.293)" fill="#263238"/>
          <path id="Trazado_693808" data-name="Trazado 693808" d="M382.188,434.484a26.556,26.556,0,0,1-1.135,9.132,18.141,18.141,0,0,1-3.123,6.216s3.324.726,4.862-1.476,3.831-9.8,7.192-9.272a7.66,7.66,0,0,0-.958-1.629c-.134-.2.891-2.715.342-2.952C387.739,433.783,382.188,434.484,382.188,434.484Z" transform="translate(-374.782 -434.178)" fill="#ffa964"/>
        </g>
        <g id="Grupo_955361" data-name="Grupo 955361" transform="translate(8.53 20.512)">
          <g id="Grupo_955356" data-name="Grupo 955356" transform="translate(0 14.519)">
            <path id="Trazado_693809" data-name="Trazado 693809" d="M334.757,264.121l-4.63-.3s-3.245-23.473-3.556-24.412c-.427-1.708-3.026-14.792-4.05-18.135l.494-.073c-.549-1.72-.085-3.575,1.714-4.16s4.264.372,4.825,2.08c1.159,3.465,3.361,16.641,3.7,18.221a.331.331,0,0,1,0,.11C334.3,244.32,334.757,264.121,334.757,264.121Z" transform="translate(-318.318 -208.863)" fill="#ffa964"/>
            <path id="Trazado_693810" data-name="Trazado 693810" d="M332.07,294.151c0,2.135-2.812,3.239-4.843,3.385H316.515l-.622-.1c-.189-.037-.3-.171-.25-.3a.266.266,0,0,1,.1-.116l1.928-1.068c2.129-1.183,5.026-1.574,7.637-2.08Z" transform="translate(-315.631 -238.892)" fill="#ffa964"/>
            <path id="Trazado_693811" data-name="Trazado 693811" d="M324.6,204.711a5.077,5.077,0,0,0-1.653.909c-4.9,4.99-.616,17.891-.616,17.891l9.241-.86s.915-10.992-.128-14.426C330.333,204.626,328.2,202.344,324.6,204.711Z" transform="translate(-317.567 -203.743)" fill="#94b02c"/>
            <path id="Trazado_693812" data-name="Trazado 693812" d="M335.669,229.084,330.85,223.6l4.728,6.8Z" transform="translate(-321.566 -211.487)" opacity="0.2"/>
          </g>
          <path id="Trazado_693813" data-name="Trazado 693813" d="M327.283,206.012c2.623,4.569,8.235,10.693,23.21,20.112l18.465-14.311c-6.2-7.46-9.418-11.718-16.995-27.828a8,8,0,0,0-4.471-3.9,5.615,5.615,0,0,0-4.105.622c-1.372.805-2.861,1.732-4.313,2.757a81.861,81.861,0,0,0-9.418,7.29c-2.068,1.921-4.13,4.117-5.606,5.728a4.847,4.847,0,0,0,.122.848A26.19,26.19,0,0,0,327.283,206.012Z" transform="translate(-318.914 -179.942)" fill="#adce32"/>
          <g id="Grupo_955358" data-name="Grupo 955358" transform="translate(37.382 9.323)">
            <g id="Grupo_955357" data-name="Grupo 955357">
              <path id="Trazado_693814" data-name="Trazado 693814" d="M376.935,195.576a70.941,70.941,0,0,0,5.978,11.224c.165.244.561.012.4-.232a70.936,70.936,0,0,1-5.978-11.224c-.122-.268-.518-.037-.4.232Z" transform="translate(-376.912 -195.225)" fill="#407bff"/>
            </g>
          </g>
          <g id="Grupo_955360" data-name="Grupo 955360" transform="translate(43.78 21.294)">
            <g id="Grupo_955359" data-name="Grupo 955359">
              <path id="Trazado_693815" data-name="Trazado 693815" d="M387.431,215.192c.128.2.262.4.39.6a.227.227,0,0,0,.134.1.255.255,0,0,0,.177-.024.23.23,0,0,0,.079-.311c-.128-.2-.262-.4-.39-.6a.227.227,0,0,0-.134-.1.254.254,0,0,0-.177.024.242.242,0,0,0-.079.311Z" transform="translate(-387.401 -214.85)" fill="#407bff"/>
            </g>
          </g>
        </g>
        <path id="Trazado_693816" data-name="Trazado 693816" d="M364.29,244.756,383.548,230" transform="translate(-326.078 -178.953)" fill="#407bff"/>
        <g id="Grupo_955362" data-name="Grupo 955362" transform="translate(38.212 48.186)">
          <path id="Trazado_693817" data-name="Trazado 693817" d="M367.4,252.242s5.575,70.223,5.624,70.614l3.489,41.1h9.058a49.435,49.435,0,0,1,.531-5.484c4.13-27.328,1.36-42.6,1.36-42.6s2.172-46.317,3.447-50.288C391.038,265.161,386.7,234.93,367.4,252.242Z" transform="translate(-365.503 -233.728)" fill="#263238"/>
          <path id="Trazado_693818" data-name="Trazado 693818" d="M364.29,242.927l2.007,1.22c3.733,4.984,10.809,10.291,14.506,14.841l1.287,2.873s28.371-17.22,13.731-26.84c-.677-.445-14.585-9.711-14.585-9.711Z" transform="translate(-364.29 -225.31)" fill="#263238"/>
          <path id="Trazado_693819" data-name="Trazado 693819" d="M413.915,267.486c.11,9.107-1.25,25.467,0,34.483,0,0,8.509,14.292,12.2,19.892l12.279,20.276-7.155,4.667L408.218,324.4c-5.185-5.191-7.07-8.747-8.723-13.31-4.05-11.145-4.837-24.7-6.618-35.581-.824-5.045-4.441-21.441-3.184-26.358,1.69-6.655,3.575-17.55,11.34-12.615C408.657,240.012,413.915,243.385,413.915,267.486Z" transform="translate(-374.094 -229.202)" fill="#263238"/>
          <path id="Trazado_693820" data-name="Trazado 693820" d="M391.234,308.6l-6.618-42.529-7.546-2.483,5.893,5.417Z" transform="translate(-369.274 -240.239)" opacity="0.2"/>
        </g>
        <g id="Grupo_955364" data-name="Grupo 955364" transform="translate(1.851 20.71)">
          <path id="Trazado_693821" data-name="Trazado 693821" d="M340.41,212s12.542,6.021,16.531,3.794,3.257-9.76,3.184-11.218c-.067-1.433-.262-3-.262-3l.945-.116-1.97-11.456s-3.19,20.862-3.855,20.862S340.41,212,340.41,212Z" transform="translate(-318.615 -184.066)" opacity="0.2"/>
          <path id="Trazado_693822" data-name="Trazado 693822" d="M352.077,195c1,4.264.787,12.267.653,15.451a6.165,6.165,0,0,1-1.641,4.026c-1.244,1.305-2.58,1.97-6.741.824-3.556-.982-19.288-5.1-19.288-5.1l1-4s8.137,1.025,18.715,2.214c-.128-5.148.073-12.151.506-13.835C346.014,191.841,350.808,189.6,352.077,195Z" transform="translate(-312.629 -184.727)" fill="#ffa964"/>
          <path id="Trazado_693823" data-name="Trazado 693823" d="M355.505,181.055c-2.245,1.659-2.525,16.171-2.525,16.171h11.01s.458-10.114-.512-12.56C361.965,180.714,358.019,179.195,355.505,181.055Z" transform="translate(-323.518 -180.266)" fill="#94b02c"/>
          <g id="Grupo_955363" data-name="Grupo 955363" transform="translate(0 18.686)">
            <path id="Trazado_693824" data-name="Trazado 693824" d="M323.131,213.918l-3.953-1.952a3.87,3.87,0,0,0-1.4-.378l-2.4-.171a1.753,1.753,0,0,0-1.861,1.635v.018l-.122,2.135a1.753,1.753,0,0,0,1.372,1.775l2.452.531s4.233,1.7,5.5-.415Z" transform="translate(-308.077 -211.1)" fill="#ffa964"/>
            <path id="Trazado_693825" data-name="Trazado 693825" d="M311.031,213.578c-.073-.427-1.488-.677-2.349-.805s-3.184-.22-3.672-.622-.409-1.263.079-1.251,2.037-.012,3.257.1,3.575.122,4.087.25S311.031,213.578,311.031,213.578Z" transform="translate(-304.681 -210.9)" fill="#ffa964"/>
          </g>
        </g>
        <g id="Grupo_955365" data-name="Grupo 955365">
          <path id="Trazado_693826" data-name="Trazado 693826" d="M319.632,152.207c3.514-.323,16.9,8.595,14.451,15.6s-19.148,12.664-23.82,8.754a9.473,9.473,0,0,1-3.2-9.333s-8.851-9.729-3.916-14.945a12.636,12.636,0,0,1,11.633-3.507S316.118,152.53,319.632,152.207Z" transform="translate(-301.647 -147.172)" fill="#727997"/>
          <path id="Trazado_693827" data-name="Trazado 693827" d="M334.641,175.81l-3.05,2.464v.006l-2.5,3.215c.024.049.043.1.067.159l3.178,4.514c.86,1.391-.061,3.318-.86,4.13-.323.72,1.6,4.691,6.051,6.612,1.44.622,1.958-1.891,2.538-3.41,2.166-6.673,1.5-9.138,1.5-9.138C339.1,183.74,336.2,179.08,334.641,175.81Z" transform="translate(-312.35 -157.819)" fill="#ffa686"/>
          <path id="Trazado_693828" data-name="Trazado 693828" d="M333.419,187.726s3.953-4.923,2.037-7.326l-3.166,5.722Z" transform="translate(-313.598 -159.609)" opacity="0.2"/>
          <path id="Trazado_693829" data-name="Trazado 693829" d="M326.056,157.581c1.635,6.259,2.458,8.863.506,13.121-2.94,6.4-10.675,7.29-14.109,1.7-3.044-5.045-5.228-14.4-.262-19.014S324.415,151.316,326.056,157.581Z" transform="translate(-304.612 -148.154)" fill="#ffa686"/>
          <path id="Trazado_693830" data-name="Trazado 693830" d="M323.774,165.115a.294.294,0,0,1-.238.018,2.3,2.3,0,0,0-2.19.232.281.281,0,0,1-.421-.067.352.352,0,0,1,.079-.464,2.86,2.86,0,0,1,2.763-.323.324.324,0,0,1,.165.421A.338.338,0,0,1,323.774,165.115Z" transform="translate(-309.144 -153.327)" fill="#263238"/>
          <path id="Trazado_693831" data-name="Trazado 693831" d="M309.918,169.217a.241.241,0,0,1-.189-.079.358.358,0,0,1,0-.451,2.671,2.671,0,0,1,2.373-1.135.3.3,0,0,1,.214.36.309.309,0,0,1-.323.275,2.15,2.15,0,0,0-1.873.921A.293.293,0,0,1,309.918,169.217Z" transform="translate(-304.768 -154.593)" fill="#263238"/>
          <path id="Trazado_693832" data-name="Trazado 693832" d="M317.3,172.45a22.58,22.58,0,0,1-.6,4.5.493.493,0,0,0,.488.628,3.149,3.149,0,0,0,1.616-.616Z" transform="translate(-307.509 -156.508)" fill="#d18d75"/>
          <path id="Trazado_693833" data-name="Trazado 693833" d="M322.529,168.731c.006-.012.012-.018.018-.031l-1.647.244a1.9,1.9,0,0,0,1.013.287,1.883,1.883,0,0,0,.024,1.171c.232.72.775,1.153,1.2.97s.586-.909.354-1.629A1.308,1.308,0,0,0,322.529,168.731Z" transform="translate(-309.156 -155.046)" fill="#263238"/>
          <path id="Trazado_693834" data-name="Trazado 693834" d="M312.82,172.586a.006.006,0,0,1,.006-.006l-1.7.25a1.808,1.808,0,0,0,1.135.274,1.841,1.841,0,0,0,.018,1.159c.232.72.775,1.147,1.22.958s.61-.921.378-1.635C313.674,172.952,313.228,172.543,312.82,172.586Z" transform="translate(-305.345 -156.559)" fill="#263238"/>
          <path id="Trazado_693835" data-name="Trazado 693835" d="M321.63,180.441a14.81,14.81,0,0,1,1.69,1.385c.1-.079.207-.159.3-.244,1.372-1.1,1.653-2.074,1.549-2.812a2.224,2.224,0,0,0-.415-.988,2.059,2.059,0,0,0-.415-.451,8.447,8.447,0,0,1-2.257,2.727C321.813,180.307,321.63,180.441,321.63,180.441Z" transform="translate(-309.44 -158.411)" fill="#263238"/>
          <path id="Trazado_693836" data-name="Trazado 693836" d="M322.38,180.067l.506.4c1.287-1.043,2.062-1.952,2.159-2.672a2.059,2.059,0,0,0-.415-.451A8.331,8.331,0,0,1,322.38,180.067Z" transform="translate(-309.733 -158.415)" fill="#fff"/>
          <path id="Trazado_693837" data-name="Trazado 693837" d="M324.893,182.512c1.372-1.1,1.653-2.074,1.549-2.812a5.817,5.817,0,0,0-1.287,1.531A2.15,2.15,0,0,0,324.893,182.512Z" transform="translate(-310.708 -159.336)" fill="#ff4b4b"/>
          <path id="Trazado_693838" data-name="Trazado 693838" d="M327.352,167.346c3.117-6.332-3.678-20.746-13.152-16.342s-4.49,15.317-4.49,15.317c-4.349-11.437,9.1-13.188,9.1-13.188,1.153,3.7,4.819,7.918,4.819,7.918A11.177,11.177,0,0,1,327.352,167.346Z" transform="translate(-304.28 -147.823)" fill="#727997"/>
          <path id="Trazado_693839" data-name="Trazado 693839" d="M321.876,146.5c7.8-1.232,8.552,4.075,8.552,4.075s8.888,4,10.907,9.424-4.258,11.212-4.258,11.212c6-6.015.988-14.048-8.528-12.352-7.875,1.4-10.791-6.381-10.791-6.381S317.514,147.2,321.876,146.5Z" transform="translate(-307.929 -146.316)" fill="#727997"/>
          <path id="Trazado_693840" data-name="Trazado 693840" d="M322.381,160.6c-5.234-3.209-4.124-6.777-4.124-6.777" transform="translate(-308.086 -149.242)" fill="none" stroke="#263238" stroke-linecap="round" stroke-linejoin="round" stroke-width="0.5"/>
          <path id="Trazado_693841" data-name="Trazado 693841" d="M315.087,189.957c-8.5-2.306-5.081-11.627-5.081-11.627" transform="translate(-304.642 -158.801)" fill="none" stroke="#263238" stroke-linecap="round" stroke-linejoin="round" stroke-width="0.5"/>
          <path id="Trazado_693842" data-name="Trazado 693842" d="M338,165.045a5.329,5.329,0,0,1-2.05,3.465c-1.44,1.037-3.239-1.22-3.306-3.05a3.507,3.507,0,0,1,2.806-3.532C337.1,161.629,338.273,163.294,338,165.045Z" transform="translate(-313.737 -152.391)" fill="#ffa686"/>
          <path id="Trazado_693843" data-name="Trazado 693843" d="M335.656,166.823a2.471,2.471,0,0,1,.165-1.806,2.44,2.44,0,0,1,1.372-1.177" transform="translate(-314.872 -153.15)" fill="none" stroke="#000" stroke-linecap="round" stroke-linejoin="round" stroke-miterlimit="10" stroke-width="0.5" opacity="0.2"/>
        </g>
        <g id="Grupo_955367" data-name="Grupo 955367" transform="translate(11.413 4.2)" opacity="0.3">
          <g id="Grupo_955366" data-name="Grupo 955366">
            <path id="Trazado_693844" data-name="Trazado 693844" d="M320.511,154.378a12.139,12.139,0,0,0,10.175-.75c.256-.146.024-.537-.232-.4a11.692,11.692,0,0,1-9.821.708c-.275-.11-.4.335-.122.439Z" transform="translate(-320.356 -153.201)"/>
          </g>
        </g>
        <g id="Grupo_955369" data-name="Grupo 955369" transform="translate(13.024 4.805)" opacity="0.3">
          <g id="Grupo_955368" data-name="Grupo 955368">
            <path id="Trazado_693845" data-name="Trazado 693845" d="M323.286,159.84a13.846,13.846,0,0,0,9.034-5.319c.177-.232-.22-.464-.4-.232a13.415,13.415,0,0,1-8.76,5.112c-.293.037-.165.476.122.439Z" transform="translate(-322.998 -154.193)"/>
          </g>
        </g>
        <g id="Grupo_955371" data-name="Grupo 955371" transform="translate(20.009 7.944)" opacity="0.3">
          <g id="Grupo_955370" data-name="Grupo 955370">
            <path id="Trazado_693846" data-name="Trazado 693846" d="M334.669,159.846a9,9,0,0,1,9.528,11.986c-.1.281.348.4.439.122a9.455,9.455,0,0,0-9.973-12.566c-.287.03-.287.488.006.458Z" transform="translate(-334.449 -159.339)"/>
          </g>
        </g>
        <path id="Trazado_693847" data-name="Trazado 693847" d="M332.1,195.223c.128-.122,1.257-4.185,1.257-4.185l4.99,1.44,1.995-6.948,3.745,1.08-.75,17.019-8.235-.482Z" transform="translate(-313.524 -161.609)" fill="#adce32"/>
      </g>
    </g>
    <g id="Character_1" transform="translate(37.387 116.515)">
      <g id="Grupo_955462" data-name="Grupo 955462">
        <g id="Grupo_955431" data-name="Grupo 955431" transform="translate(49.442)">
          <g id="Grupo_955376" data-name="Grupo 955376" transform="translate(39.563 34.567)">
            <path id="Trazado_693848" data-name="Trazado 693848" d="M276.119,274.14S274,316.675,264.84,324h9.8s8.735-14.494,9.388-49.861Z" transform="translate(-229.68 -242.085)" fill="#263238"/>
            <path id="Trazado_693849" data-name="Trazado 693849" d="M276.119,274.14S274,316.675,264.84,324h9.8s8.735-14.494,9.388-49.861Z" transform="translate(-229.68 -242.085)" fill="#fff" opacity="0.6"/>
            <path id="Trazado_693850" data-name="Trazado 693850" d="M214.785,350.1h45.329a2.739,2.739,0,0,1,2.739,2.739v4.307H212.04v-4.307A2.74,2.74,0,0,1,214.785,350.1Z" transform="translate(-209.088 -271.709)" fill="#727997"/>
            <path id="Trazado_693852" data-name="Trazado 693852" d="M260.744,420.854l-19.587-1.708V388.31H234.27v30.823l-19.66,1.714a3.383,3.383,0,0,0-3.05,3.367v2.611h52.234v-2.611A3.377,3.377,0,0,0,260.744,420.854Z" transform="translate(-208.9 -286.611)" fill="#263238"/>
            <path id="Trazado_693853" data-name="Trazado 693853" d="M260.744,420.854l-19.587-1.708V388.31H234.27v30.823l-19.66,1.714a3.383,3.383,0,0,0-3.05,3.367v2.611h52.234v-2.611A3.377,3.377,0,0,0,260.744,420.854Z" transform="translate(-208.9 -286.611)" fill="#fff" opacity="0.5"/>
            <path id="Trazado_693854" data-name="Trazado 693854" d="M216.2,453.892a4.5,4.5,0,1,1-4.5-4.5A4.5,4.5,0,0,1,216.2,453.892Z" transform="translate(-207.2 -310.432)" fill="#263238"/>
            <path id="Trazado_693855" data-name="Trazado 693855" d="M286.8,453.892a4.5,4.5,0,1,0,4.5-4.5A4.5,4.5,0,0,0,286.8,453.892Z" transform="translate(-238.244 -310.432)" fill="#263238"/>
            <path id="Trazado_693856" data-name="Trazado 693856" d="M254.091,379.463h-4.727A2.262,2.262,0,0,1,247.1,377.2V357.57h9.26V377.2A2.271,2.271,0,0,1,254.091,379.463Z" transform="translate(-222.761 -274.622)" fill="#263238"/>
            <path id="Trazado_693857" data-name="Trazado 693857" d="M254.091,379.463h-4.727A2.262,2.262,0,0,1,247.1,377.2V357.57h9.26V377.2A2.271,2.271,0,0,1,254.091,379.463Z" transform="translate(-222.761 -274.622)" fill="#fff" opacity="0.6"/>
            <g id="Grupo_955373" data-name="Grupo 955373" transform="translate(1.019 81.911)">
              <path id="Trazado_693858" data-name="Trazado 693858" d="M209.974,355.87h52.472a1.1,1.1,0,0,1,1.1,1.1v1.318a1.1,1.1,0,0,1-1.1,1.1H209.974a1.1,1.1,0,0,1-1.1-1.1v-1.318A1.1,1.1,0,0,1,209.974,355.87Z" transform="translate(-208.87 -355.87)" fill="#263238"/>
              <path id="Trazado_693859" data-name="Trazado 693859" d="M209.974,355.87h52.472a1.1,1.1,0,0,1,1.1,1.1v1.318a1.1,1.1,0,0,1-1.1,1.1H209.974a1.1,1.1,0,0,1-1.1-1.1v-1.318A1.1,1.1,0,0,1,209.974,355.87Z" transform="translate(-208.87 -355.87)" fill="#fff" opacity="0.6"/>
            </g>
            <path id="Trazado_693860" data-name="Trazado 693860" d="M278.1,305.285H261.962c-4.728,0-8.144-4.246-7.625-9.486l7.338-41c.518-5.24,4.764-9.485,9.492-9.485H287.3c4.728,0,8.143,4.246,7.625,9.485l-7.338,41C287.075,301.04,282.824,305.285,278.1,305.285Z" transform="translate(-225.563 -230.841)" fill="#727997"/>
            <path id="Trazado_693862" data-name="Trazado 693862" d="M300.555,245.3h-3.081c4.728,0,8.143,4.246,7.625,9.485l-7.338,41c-.518,5.24-4.764,9.486-9.492,9.486h3.08c4.728,0,8.979-4.246,9.492-9.486l7.338-41C308.7,249.552,305.283,245.3,300.555,245.3Z" transform="translate(-238.817 -230.837)" opacity="0.3"/>
            <g id="Grupo_955375" data-name="Grupo 955375" transform="translate(39.412)">
              <path id="Trazado_693865" data-name="Trazado 693865" d="M292.349,236.431H277.123a5.313,5.313,0,0,1-5.313-5.313V226.9a5.313,5.313,0,0,1,5.313-5.313h15.226a5.313,5.313,0,0,1,5.313,5.313v4.215A5.313,5.313,0,0,1,292.349,236.431Z" transform="translate(-271.81 -221.59)" fill="#727997"/>
            </g>
          </g>
          <g id="Grupo_955403" data-name="Grupo 955403" transform="translate(0 89.052)">
            <g id="Grupo_955389" data-name="Grupo 955389" transform="translate(0 68.277)">
              <g id="Grupo_955379" data-name="Grupo 955379" transform="translate(11.747)">
                <g id="Grupo_955378" data-name="Grupo 955378">
                  <g id="Grupo_955377" data-name="Grupo 955377">
                    <path id="Trazado_693867" data-name="Trazado 693867" d="M170.652,423.718l-2.257,14.4-5.2-.7-1.6-14.573Z" transform="translate(-161.6 -422.84)" fill="#fd8173"/>
                  </g>
                </g>
              </g>
              <path id="Trazado_693868" data-name="Trazado 693868" d="M152.967,440.185c-.079-.885-.018-1.623,1.013-1.671l1.464-.073a2.627,2.627,0,0,1,1.391.622c3.355,2.141,4.734-.622,6.033-.622,1.671,0,.6,4.9.677,5.161l1.83,5.691c.159.476-.165,1.5-.72,1.635a1.263,1.263,0,0,1-.305.037H144.976c-3.081,0-3.117-3.459-1.848-3.709a22.3,22.3,0,0,0,9.839-4.044A22.246,22.246,0,0,0,152.967,440.185Z" transform="translate(-142.342 -428.924)" fill="#263238"/>
              <path id="Trazado_693869" data-name="Trazado 693869" d="M152.967,440.185c-.079-.885-.018-1.623,1.013-1.671l1.464-.073a2.627,2.627,0,0,1,1.391.622c3.355,2.141,4.734-.622,6.033-.622,1.671,0,.6,4.9.677,5.161l1.83,5.691c.159.476-.165,1.5-.72,1.635a1.263,1.263,0,0,1-.305.037H144.976c-3.081,0-3.117-3.459-1.848-3.709a22.3,22.3,0,0,0,9.839-4.044A22.246,22.246,0,0,0,152.967,440.185Z" transform="translate(-142.342 -428.924)" fill="#fff" opacity="0.2"/>
              <path id="Trazado_693870" data-name="Trazado 693870" d="M145.081,457.985h19.374a1.265,1.265,0,0,0,.305-.037c.378-.091.64-.592.726-1.055l-.006-.433H142.61A2.426,2.426,0,0,0,145.081,457.985Z" transform="translate(-142.446 -435.952)" fill="#fff" opacity="0.4"/>
              <g id="Grupo_955381" data-name="Grupo 955381" transform="translate(7.551 15.97)">
                <g id="Grupo_955380" data-name="Grupo 955380">
                  <path id="Trazado_693871" data-name="Trazado 693871" d="M154.787,449.411a5.55,5.55,0,0,1,.653.659c.055.061.067.085.116.146s.091.128.134.189a4.258,4.258,0,0,1,.238.4.227.227,0,1,0,.39-.232,5.243,5.243,0,0,0-1.208-1.482.229.229,0,0,0-.323.323Z" transform="translate(-154.721 -449.021)" fill="#407bff"/>
                </g>
              </g>
              <g id="Grupo_955383" data-name="Grupo 955383" transform="translate(9.332 14.982)">
                <g id="Grupo_955382" data-name="Grupo 955382">
                  <path id="Trazado_693872" data-name="Trazado 693872" d="M157.707,447.791a5.759,5.759,0,0,1,.6.616c.024.024.043.055.067.079s.018.024.031.037.031.043.012.018c.043.055.085.11.122.165a3.762,3.762,0,0,1,.238.366.227.227,0,1,0,.39-.232,5.748,5.748,0,0,0-1.141-1.372.229.229,0,0,0-.323.323Z" transform="translate(-157.641 -447.401)" fill="#407bff"/>
                </g>
              </g>
              <g id="Grupo_955385" data-name="Grupo 955385" transform="translate(10.595 14.118)">
                <g id="Grupo_955384" data-name="Grupo 955384">
                  <path id="Trazado_693873" data-name="Trazado 693873" d="M159.826,446.408a2.962,2.962,0,0,1,.3.177c.024.018.049.037.067.049s-.037-.03-.006,0c.012.012.024.018.037.031.043.037.085.073.128.116a1.093,1.093,0,0,1,.116.122.239.239,0,0,1,.049.061.162.162,0,0,0,.031.037.084.084,0,0,1-.018-.024c.006.006.012.018.018.024a1.96,1.96,0,0,1,.177.281.227.227,0,0,0,.39-.232,2.436,2.436,0,0,0-1.068-1.037.232.232,0,0,0-.311.079.242.242,0,0,0,.091.317Z" transform="translate(-159.711 -445.984)" fill="#407bff"/>
                </g>
              </g>
              <g id="Grupo_955387" data-name="Grupo 955387" transform="translate(10.595 12.316)">
                <g id="Grupo_955386" data-name="Grupo 955386">
                  <path id="Trazado_693874" data-name="Trazado 693874" d="M159.942,443.481a4.1,4.1,0,0,1,1.452.281.231.231,0,0,0,.281-.159.236.236,0,0,0-.159-.281,4.614,4.614,0,0,0-1.574-.293.236.236,0,0,0-.232.232.238.238,0,0,0,.232.22Z" transform="translate(-159.71 -443.03)" fill="#407bff"/>
                </g>
              </g>
              <g id="Grupo_955388" data-name="Grupo 955388" transform="translate(16.274 9.705)" opacity="0.3">
                <path id="Trazado_693875" data-name="Trazado 693875" d="M169.026,442.02a1.483,1.483,0,0,0,.72,1.305,2.247,2.247,0,0,0,1.013.134c1.031-.024,2.056-.055,3.087-.079l.012-.024c.165-1.342.6-4.612-.677-4.605-1,0-2.056,1.873-4.154,1.33C169.038,440.769,169.008,441.672,169.026,442.02Z" transform="translate(-169.02 -438.75)"/>
              </g>
            </g>
            <g id="freepik--character-2--inject-2" transform="translate(9.762 0.824)">
              <path id="Trazado_693876" data-name="Trazado 693876" d="M203.031,312.26s-22.552,3.111-35.508,8.711a12.9,12.9,0,0,0-7.741,10.248c-2.873,23.394-.549,51.819-.549,51.819l10.834,1.47s5.771-26.639,5.636-45.451c11.822-3.337,42.535-1.165,46.153-10.962a32.207,32.207,0,0,0,1.36-15.823Z" transform="translate(-158.345 -312.26)" fill="#12263f"/>
              <path id="Trazado_693877" data-name="Trazado 693877" d="M207.259,319.91s-16.671,15.561-15.915,20.874a47.777,47.777,0,0,0-7,1.257,55.468,55.468,0,0,1-.122,5.874C177.193,337.429,177.857,327.352,207.259,319.91Z" transform="translate(-166.996 -315.243)" opacity="0.3"/>
              <g id="Grupo_955402" data-name="Grupo 955402" transform="translate(30.115 66.459)">
                <g id="Grupo_955392" data-name="Grupo 955392" transform="translate(5.726)">
                  <g id="Grupo_955391" data-name="Grupo 955391">
                    <g id="Grupo_955390" data-name="Grupo 955390">
                      <path id="Trazado_693878" data-name="Trazado 693878" d="M225.951,421.21l2.477,14.365-5.148.994L217.1,423.278Z" transform="translate(-217.1 -421.21)" fill="#fd8173"/>
                    </g>
                  </g>
                </g>
                <path id="Trazado_693879" data-name="Trazado 693879" d="M216.117,439.374c-.287-.842-.4-1.568.592-1.867l1.4-.421a2.637,2.637,0,0,1,1.5.275c3.764,1.293,4.453-1.72,5.716-2.025,1.623-.4,1.732,4.624,1.873,4.856l3.117,5.1c.268.427.2,1.5-.311,1.763a1.243,1.243,0,0,1-.287.1c-2.885.7-4.252,1.031-7.845,1.9l-10.986,2.66c-3,.726-3.843-2.629-2.666-3.166a22.327,22.327,0,0,0,8.613-6.246A24.019,24.019,0,0,0,216.117,439.374Z" transform="translate(-207.713 -426.71)" fill="#263238"/>
                <path id="Trazado_693880" data-name="Trazado 693880" d="M216.117,439.374c-.287-.842-.4-1.568.592-1.867l1.4-.421a2.637,2.637,0,0,1,1.5.275c3.764,1.293,4.453-1.72,5.716-2.025,1.623-.4,1.732,4.624,1.873,4.856l3.117,5.1c.268.427.2,1.5-.311,1.763a1.243,1.243,0,0,1-.287.1c-2.885.7-4.252,1.031-7.845,1.9l-10.986,2.66c-3,.726-3.843-2.629-2.666-3.166a22.327,22.327,0,0,0,8.613-6.246A24.019,24.019,0,0,0,216.117,439.374Z" transform="translate(-207.713 -426.71)" fill="#fff" opacity="0.2"/>
                <path id="Trazado_693881" data-name="Trazado 693881" d="M211.153,458.207l10.986-2.66c3.593-.872,4.959-1.2,7.845-1.9a1.609,1.609,0,0,0,.287-.1,1.286,1.286,0,0,0,.458-1.2l-.11-.421-22.228,5.38A2.437,2.437,0,0,0,211.153,458.207Z" transform="translate(-207.977 -433.191)" fill="#fff" opacity="0.4"/>
                <g id="Grupo_955394" data-name="Grupo 955394" transform="translate(6.576 17.906)">
                  <g id="Grupo_955393" data-name="Grupo 955393">
                    <path id="Trazado_693882" data-name="Trazado 693882" d="M218.6,450.988a4.6,4.6,0,0,1,1.427,1.08.229.229,0,0,0,.323-.323,5.191,5.191,0,0,0-1.519-1.153.232.232,0,0,0-.311.079.238.238,0,0,0,.079.317Z" transform="translate(-218.494 -450.564)" fill="#407bff"/>
                  </g>
                </g>
                <g id="Grupo_955396" data-name="Grupo 955396" transform="translate(8.072 16.527)">
                  <g id="Grupo_955395" data-name="Grupo 955395">
                    <path id="Trazado_693883" data-name="Trazado 693883" d="M221.059,448.722a5.657,5.657,0,0,1,.732.458c.012.012.024.018.037.031s.037.024.024.018c.006.006.049.037.073.055.055.043.11.091.165.14a3.6,3.6,0,0,1,.311.3.229.229,0,1,0,.323-.323,5.738,5.738,0,0,0-1.434-1.068.232.232,0,0,0-.311.079.222.222,0,0,0,.079.311Z" transform="translate(-220.947 -448.304)" fill="#407bff"/>
                  </g>
                </g>
                <g id="Grupo_955398" data-name="Grupo 955398" transform="translate(9.104 15.391)">
                  <g id="Grupo_955397" data-name="Grupo 955397">
                    <path id="Trazado_693884" data-name="Trazado 693884" d="M222.8,446.886a2.064,2.064,0,0,1,.329.1.087.087,0,0,0,.037.012c-.031-.012-.012-.006.006.006s.049.024.079.037l.153.079a1,1,0,0,1,.134.085l.067.049c.049.037-.018-.018.006.006.012.006.018.018.031.024a2.236,2.236,0,0,1,.244.238.229.229,0,1,0,.323-.323,2.464,2.464,0,0,0-1.281-.756.233.233,0,0,0-.281.159.227.227,0,0,0,.153.281Z" transform="translate(-222.637 -446.441)" fill="#407bff"/>
                  </g>
                </g>
                <g id="Grupo_955400" data-name="Grupo 955400" transform="translate(8.677 13.513)">
                  <g id="Grupo_955399" data-name="Grupo 955399">
                    <path id="Trazado_693885" data-name="Trazado 693885" d="M222.226,443.928a4.138,4.138,0,0,1,1.476-.067c.122.018.232-.116.232-.232a.24.24,0,0,0-.232-.232,4.55,4.55,0,0,0-1.6.085.231.231,0,0,0,.122.445Z" transform="translate(-221.938 -443.363)" fill="#407bff"/>
                  </g>
                </g>
                <g id="Grupo_955401" data-name="Grupo 955401" transform="translate(13.839 8.808)" opacity="0.3">
                  <path id="Trazado_693886" data-name="Trazado 693886" d="M230.87,439.834a1.476,1.476,0,0,0,1,1.1,2.142,2.142,0,0,0,1.013-.11l2.977-.805.006-.03c-.159-1.342-.5-4.618-1.738-4.319-.976.238-1.556,2.306-3.727,2.269C230.583,438.626,230.766,439.511,230.87,439.834Z" transform="translate(-230.4 -435.649)"/>
                </g>
              </g>
              <path id="Trazado_693887" data-name="Trazado 693887" d="M229.458,312.33s-42.291,7.314-40.754,19.953c2.208,18.233,17.763,55.486,17.763,55.486l12.761-4.575s-8.18-33.147-10.98-46.445c10.864,0,33.3,1.171,36.917-8.619a28.865,28.865,0,0,0,1.031-15.543Z" transform="translate(-170.169 -312.287)" fill="#12263f"/>
            </g>
            <path id="Trazado_693888" data-name="Trazado 693888" d="M229.88,312.258s7.271,9.315,18.916,10.779,13.853-1.415,13.853-1.415.055-4.538.232-4.307-31.811-6.4-31.811-6.4Z" transform="translate(-176.482 -310.91)" opacity="0.3"/>
          </g>
          <g id="Grupo_955423" data-name="Grupo 955423" transform="translate(15.231 35.288)">
            <g id="Grupo_955408" data-name="Grupo 955408" transform="translate(0 15.755)">
              <path id="Trazado_693889" data-name="Trazado 693889" d="M219.839,249.094c-.171.433-5.13,25.285-9.742,26.822s-22.155.531-22.155.531L187.1,271.6l18.038-4.032,6.515-18.971Z" transform="translate(-175.028 -248.6)" fill="#ffa686"/>
              <g id="Grupo_955405" data-name="Grupo 955405" transform="translate(0 22.675)">
                <g id="Grupo_955404" data-name="Grupo 955404">
                  <path id="Trazado_693890" data-name="Trazado 693890" d="M179.382,286.094l-5.026-.317a2.3,2.3,0,0,0-1.543.47l-5.5,4.209a1.281,1.281,0,0,0,1.391.421l-.927,1.171a1.287,1.287,0,0,0,1.671.018,24.369,24.369,0,0,1,2.891-1.61l-2.355,2.617s.055.86,1.25.378a14.979,14.979,0,0,0,3.221-2.538s5.087,1.08,6.222.451,1.775-3.709,1.775-3.709Z" transform="translate(-167.31 -285.772)" fill="#ffa686"/>
                </g>
              </g>
              <g id="Grupo_955407" data-name="Grupo 955407" transform="translate(3.253 23.904)">
                <g id="Grupo_955406" data-name="Grupo 955406">
                  <path id="Trazado_693891" data-name="Trazado 693891" d="M183.316,289.411c.049.659-.555,1.116-1.122,1.281a6.553,6.553,0,0,1-2.776-.024,8.169,8.169,0,0,1-1.616-.415,7.928,7.928,0,0,0-3.2-.146c-.4.018-1.556.189-1.488-.439.055-.47.586-.567.976-.659a49.141,49.141,0,0,1,5.423-.763c.287-.037.293-.494,0-.457l-2.031.256a29.32,29.32,0,0,0-3.642.555c-.451.116-.994.3-1.147.793a.813.813,0,0,0,.354,1.037,5.572,5.572,0,0,0,2.519.085,4.579,4.579,0,0,1,1.8.073,9.271,9.271,0,0,0,4.721.6c.83-.177,1.751-.817,1.678-1.775-.018-.3-.476-.3-.451-.006Z" transform="translate(-172.642 -287.787)" fill="#d7504d"/>
                </g>
              </g>
            </g>
            <path id="Trazado_693892" data-name="Trazado 693892" d="M235.165,225.52s-6.539.317-8.412,5.484c-1.653,4.569-6.5,18-6.5,18l10.675,3.129Z" transform="translate(-187.957 -223.844)" fill="#ffd947"/>
            <g id="Grupo_955409" data-name="Grupo 955409" transform="translate(35.996)">
              <path id="Trazado_693893" data-name="Trazado 693893" d="M237.66,224.235c2.989-.214,8.461-2.891,20.63-.427l4.849,44.353s.6,15.854,0,17.293c-12.779,5.228-28.737-2.379-36.82-7.6.085.207,2.227-5.5,2.227-5.5,1.488-13.743,3.8-34.776,6.057-47.141C234.665,224.912,237.361,224.253,237.66,224.235Z" transform="translate(-226.32 -222.772)" fill="#ffd947"/>
            </g>
            <g id="Grupo_955418" data-name="Grupo 955418" transform="translate(20.334 0.981)">
              <path id="Trazado_693894" data-name="Trazado 693894" d="M262.7,248.8c-.171.433-7.479,23.961-12.09,25.5s-28.963,2.586-28.963,2.586l-1.4-5.063,25.016-5.417,8.418-19.069Z" transform="translate(-208.287 -233.334)" fill="#ffa686"/>
              <path id="Trazado_693895" data-name="Trazado 693895" d="M271.7,224.38s6.783,1.08,7.765,5.978c.653,3.251-1.873,22.71-1.873,22.71-.909.049-16.025-2.08-16.025-2.08Z" transform="translate(-224.405 -224.38)" fill="#ffd947"/>
              <g id="Grupo_955411" data-name="Grupo 955411" transform="translate(0.241 37.963)">
                <g id="Grupo_955410" data-name="Grupo 955410">
                  <path id="Trazado_693896" data-name="Trazado 693896" d="M214.741,286.776l-7.033-.159a3.318,3.318,0,0,0-1.952.592l-4.715,3.922s.451,1.238,1.4.927l-.445.653s.3.885,1.726.268a6.51,6.51,0,0,0,2.123-1.714l-1.934,1.952s.177,1.159,1.488.622a16.277,16.277,0,0,0,2.916-1.751s5.588,1.183,6.832.494,1.946-4.075,1.946-4.075Z" transform="translate(-201.04 -286.614)" fill="#ffa686"/>
                </g>
              </g>
              <g id="Grupo_955413" data-name="Grupo 955413" transform="translate(4.579 40.723)">
                <g id="Grupo_955412" data-name="Grupo 955412">
                  <path id="Trazado_693897" data-name="Trazado 693897" d="M208.541,293.385a16.831,16.831,0,0,1,1.318-1.238,2.312,2.312,0,0,1,.763-.506,3.931,3.931,0,0,1,1.037-.012q.412.027.823.073c.293.037.287-.421,0-.457a7.463,7.463,0,0,0-1.879-.067,1.954,1.954,0,0,0-.854.464c-.335.262-.653.555-.964.848-.2.183-.384.372-.573.567-.2.213.128.543.329.329Z" transform="translate(-208.151 -291.139)" fill="#d7504d"/>
                </g>
              </g>
              <g id="Grupo_955415" data-name="Grupo 955415" transform="translate(1.115 39.381)">
                <g id="Grupo_955414" data-name="Grupo 955414">
                  <path id="Trazado_693898" data-name="Trazado 693898" d="M202.7,293.039h0c.061.037.128.073.2.116.085.171-.091.274.043.177a1.3,1.3,0,0,0,.177-.189c.189-.189.378-.378.573-.561.543-.525,1.1-1.037,1.659-1.537a18.481,18.481,0,0,1,1.6-1.324,1.613,1.613,0,0,1,.451-.262,3.788,3.788,0,0,1,1.019-.061c.72-.006,1.44.024,2.159.067.293.018.293-.439,0-.458-.689-.043-1.379-.067-2.068-.067a2.832,2.832,0,0,0-1.684.317,26.865,26.865,0,0,0-3.507,3.05c-.183.177-.994.756-.824,1.086a.239.239,0,0,0,.2.116h.006c.293-.024.293-.482,0-.47Z" transform="translate(-202.472 -288.939)" fill="#d7504d"/>
                </g>
              </g>
              <g id="Grupo_955417" data-name="Grupo 955417" transform="translate(0 32.836)">
                <g id="Grupo_955416" data-name="Grupo 955416">
                  <path id="Trazado_693899" data-name="Trazado 693899" d="M201.044,288.018c1.019-.854,2.044-1.708,3.062-2.556.482-.4.958-.824,1.458-1.208a3.475,3.475,0,0,1,2.33-.677l5.1.11a7.058,7.058,0,0,0,1.684-.049q8.436-1.83,16.867-3.654,3.065-.668,6.131-1.33c.287-.061.165-.506-.122-.439q-7.622,1.647-15.244,3.3-3.733.805-7.46,1.616a4.424,4.424,0,0,1-1.372.1c-1.714-.037-3.422-.073-5.136-.116a4.579,4.579,0,0,0-2.452.372,9.826,9.826,0,0,0-1.562,1.183c-1.208,1-2.4,2-3.605,3.007-.226.2.1.525.323.335Z" transform="translate(-200.644 -278.209)" fill="#d7504d"/>
                </g>
              </g>
            </g>
            <g id="Grupo_955420" data-name="Grupo 955420" transform="translate(40.51 10.863)" opacity="0.3">
              <g id="Grupo_955419" data-name="Grupo 955419">
                <path id="Trazado_693900" data-name="Trazado 693900" d="M234.177,257.1c.012-5.447.744-10.864.756-16.305a.229.229,0,0,0-.457,0c-.012,5.447-.744,10.858-.756,16.305a.229.229,0,0,0,.458,0Z" transform="translate(-233.72 -240.58)"/>
              </g>
            </g>
            <path id="Trazado_693901" data-name="Trazado 693901" d="M265.06,269.422,275,272.045l.9-2.05-10.462-1.415Z" transform="translate(-205.433 -240.637)" opacity="0.3"/>
            <g id="Grupo_955422" data-name="Grupo 955422" transform="translate(58.808 5.934)" opacity="0.3">
              <g id="Grupo_955421" data-name="Grupo 955421">
                <path id="Trazado_693902" data-name="Trazado 693902" d="M264.17,253.362q3.431-10.294,6.869-20.581c.091-.281-.348-.4-.439-.122q-3.431,10.294-6.869,20.581c-.1.281.348.4.439.122Z" transform="translate(-263.717 -232.499)"/>
              </g>
            </g>
          </g>
          <g id="Grupo_955430" data-name="Grupo 955430" transform="translate(58.465)">
            <path id="Trazado_693903" data-name="Trazado 693903" d="M245.016,193.644c2.068-.171,3.568-2.556,3.343-5.325s-2.086-4.886-4.16-4.715-3.568,2.556-3.343,5.325S242.948,193.815,245.016,193.644Z" transform="translate(-239.218 -172.205)" fill="#263238"/>
            <g id="Grupo_955428" data-name="Grupo 955428" transform="translate(1.652 7.98)">
              <path id="Trazado_693904" data-name="Trazado 693904" d="M245.247,189.08c-3.721.884-3.062-4.166-1.769-6.423C245.68,178.747,248.968,188.2,245.247,189.08Z" transform="translate(-241.505 -179.451)" fill="#263238"/>
              <g id="Grupo_955424" data-name="Grupo 955424" transform="translate(6.408 12.96)">
                <path id="Trazado_693905" data-name="Trazado 693905" d="M255.554,218.782c2.172-.384,4.6-1.555,7.2-4.374a18.363,18.363,0,0,1-1.61-2.391,24.492,24.492,0,0,1-2.544-7.948q-.393-2.4-.549-4.819l-3.154,4.538-3.5,4.965a17.348,17.348,0,0,1,1.159,2.483c.86,2.409,0,3.172-.793,3.367A3.611,3.611,0,0,0,255.554,218.782Z" transform="translate(-251.4 -199.25)" fill="#ffa686"/>
                <path id="Trazado_693906" data-name="Trazado 693906" d="M260.465,214.74s-1.726,5-6.838,3.642l-.317-1.11Z" transform="translate(-252.145 -205.291)" opacity="0.2"/>
              </g>
              <path id="Trazado_693907" data-name="Trazado 693907" d="M259.326,184.346a8.791,8.791,0,0,0-10.895-5.99c-6.429,1.879-8.174,11.187-7.344,17.007.927,6.478,8.467,10.181,13.731,5.795,3.508-2.916,3.758-6.649,4.74-12.938A8.753,8.753,0,0,0,259.326,184.346Z" transform="translate(-240.894 -178.005)" fill="#ffa686"/>
              <g id="Grupo_955425" data-name="Grupo 955425" transform="translate(1.25 5.667)">
                <path id="Trazado_693908" data-name="Trazado 693908" d="M256.411,196.052c-.1.72-.634,1.214-1.11,1.116s-.726-.756-.586-1.47.647-1.214,1.11-1.116S256.551,195.333,256.411,196.052Z" transform="translate(-247.52 -190.132)" fill="#263238"/>
                <path id="Trazado_693909" data-name="Trazado 693909" d="M245.932,193.952c-.1.72-.647,1.214-1.11,1.116s-.726-.756-.586-1.47.647-1.214,1.11-1.116S246.072,193.275,245.932,193.952Z" transform="translate(-243.433 -189.313)" fill="#263238"/>
                <path id="Trazado_693910" data-name="Trazado 693910" d="M243.045,188.091a.346.346,0,0,0,.342.061,2.689,2.689,0,0,1,2.391.2.331.331,0,0,0,.4-.531h0a3.288,3.288,0,0,0-3.007-.293.337.337,0,0,0-.207.421v.006A.455.455,0,0,0,243.045,188.091Z" transform="translate(-242.944 -187.295)" fill="#263238"/>
                <path id="Trazado_693911" data-name="Trazado 693911" d="M257.384,191a.355.355,0,0,0,.2-.024.325.325,0,0,0,.061-.464.006.006,0,0,0-.006-.006,3.286,3.286,0,0,0-2.727-1.324.329.329,0,0,0-.3.36h0a.338.338,0,0,0,.36.3h0a2.681,2.681,0,0,1,2.147,1.08A.33.33,0,0,0,257.384,191Z" transform="translate(-247.493 -188.029)" fill="#263238"/>
              </g>
              <path id="Trazado_693912" data-name="Trazado 693912" d="M246.891,194.87a20.16,20.16,0,0,1-3.611,4.2,3.275,3.275,0,0,0,2.562,1.037Z" transform="translate(-241.825 -184.582)" fill="#cb8d77"/>
              <g id="Grupo_955427" data-name="Grupo 955427" transform="translate(4.682 16.886)">
                <g id="Grupo_955426" data-name="Grupo 955426">
                  <path id="Trazado_693913" data-name="Trazado 693913" d="M251.632,205.743a3.766,3.766,0,0,1-2.83.824.236.236,0,0,0-.232.232.24.24,0,0,0,.232.232,4.221,4.221,0,0,0,3.154-.958c.226-.2-.1-.519-.323-.329Z" transform="translate(-248.57 -205.686)" fill="#263238"/>
                </g>
              </g>
            </g>
            <path id="Trazado_693914" data-name="Trazado 693914" d="M263.144,182.019c6.4-2.641,1.861-9.553-2.269-10.285.58-5.362-8.717-9.26-8.076-4-7.2-6.259-12.206-.451-10.449,1.775-3.538-.525-5.441,3.849-3.19,6.612s6.167,2.056,9.2.1c.323,1.763,3.483,3.209,6.381,2.409a5.255,5.255,0,0,0-1.427,4.026c.177,2.2,1.574,5.325,4.056,3.379.079-.061.183.024.256.012C257.617,186.058,263.8,188.986,263.144,182.019Z" transform="translate(-238.186 -164.923)" fill="#12263f"/>
            <g id="Grupo_955429" data-name="Grupo 955429" transform="translate(16.694 19.279)">
              <path id="Trazado_693915" data-name="Trazado 693915" d="M272.346,200.909a6.606,6.606,0,0,1-3.727,3.41c-2.184.775-3.434-1.141-2.971-3.288.433-1.9,2.074-4.666,4.337-4.5A2.954,2.954,0,0,1,272.346,200.909Z" transform="translate(-265.553 -196.528)" fill="#ffa686"/>
              <path id="Trazado_693916" data-name="Trazado 693916" d="M268.18,202.609a4.081,4.081,0,0,1,1.891-2.873,1.266,1.266,0,0,1,1.409-.116" transform="translate(-266.577 -197.667)" fill="none" stroke="#000" stroke-linecap="round" stroke-linejoin="round" stroke-miterlimit="10" stroke-width="0.75" opacity="0.3"/>
            </g>
          </g>
          <rect id="Rectángulo_341900" data-name="Rectángulo 341900" width="9.26" height="1.757" transform="translate(63.902 120.003)" opacity="0.3"/>
        </g>
        <g id="Grupo_955436" data-name="Grupo 955436" transform="translate(0 81.848)">
          <g id="Grupo_955432" data-name="Grupo 955432" transform="translate(41.919 1.055)">
            <rect id="Rectángulo_341901" data-name="Rectángulo 341901" width="3.568" height="98.436" fill="#263238"/>
            <rect id="Rectángulo_341902" data-name="Rectángulo 341902" width="3.568" height="98.436" fill="#fff" opacity="0.3"/>
            <path id="Trazado_693917" data-name="Trazado 693917" d="M130.01,302.613v6.332l3.569-1.592V302.07Z" transform="translate(-130.01 -301.314)" opacity="0.2"/>
          </g>
          <g id="Grupo_955433" data-name="Grupo 955433" transform="translate(13.188 1.055)">
            <rect id="Rectángulo_341903" data-name="Rectángulo 341903" width="3.568" height="98.436" fill="#263238"/>
            <rect id="Rectángulo_341904" data-name="Rectángulo 341904" width="3.568" height="98.436" fill="#fff" opacity="0.3"/>
            <path id="Trazado_693918" data-name="Trazado 693918" d="M82.91,303.307v6.338l3.568-1.592V302.77Z" transform="translate(-82.91 -301.587)" opacity="0.2"/>
          </g>
          <g id="Grupo_955434" data-name="Grupo 955434" transform="translate(155.794 1.055)">
            <rect id="Rectángulo_341905" data-name="Rectángulo 341905" width="3.568" height="100.101" fill="#263238"/>
            <rect id="Rectángulo_341906" data-name="Rectángulo 341906" width="3.568" height="100.101" fill="#fff" opacity="0.3"/>
            <path id="Trazado_693919" data-name="Trazado 693919" d="M316.69,304.917v6.338l3.562-1.592V304.38Z" transform="translate(-316.69 -302.215)" opacity="0.2"/>
          </g>
          <g id="Grupo_955435" data-name="Grupo 955435" transform="translate(192.882 1.055)">
            <rect id="Rectángulo_341907" data-name="Rectángulo 341907" width="3.568" height="100.101" fill="#263238"/>
            <rect id="Rectángulo_341908" data-name="Rectángulo 341908" width="3.568" height="100.101" fill="#fff" opacity="0.3"/>
            <path id="Trazado_693920" data-name="Trazado 693920" d="M377.49,304.917v6.338l3.569-1.592V304.38Z" transform="translate(-377.49 -302.215)" opacity="0.2"/>
          </g>
          <rect id="Rectángulo_341909" data-name="Rectángulo 341909" width="210.859" height="3.629" fill="#b97964"/>
          <rect id="Rectángulo_341910" data-name="Rectángulo 341910" width="43.273" height="3.629" transform="translate(167.585)" opacity="0.3"/>
        </g>
        <g id="Grupo_955437" data-name="Grupo 955437" transform="translate(16.317 26.314)">
          <path id="Trazado_693921" data-name="Trazado 693921" d="M146.966,248.314a2.834,2.834,0,0,1-2.6,3.312H94.176a3.44,3.44,0,0,1-3.142-3.312l-2.983-36.936a3.693,3.693,0,0,1,.067-1.08,2.653,2.653,0,0,1,2.538-2.239h50.185a3.442,3.442,0,0,1,3.141,3.318Z" transform="translate(-88.039 -208.06)" fill="#263238"/>
          <path id="Trazado_693922" data-name="Trazado 693922" d="M146.966,248.314a2.834,2.834,0,0,1-2.6,3.312H94.176a3.44,3.44,0,0,1-3.142-3.312l-2.983-36.936a3.693,3.693,0,0,1,.067-1.08,2.653,2.653,0,0,1,2.538-2.239h50.185a3.442,3.442,0,0,1,3.141,3.318Z" transform="translate(-88.039 -208.06)" fill="#afafaf" opacity="0.7"/>
          <path id="Trazado_693923" data-name="Trazado 693923" d="M144.184,253.067H94.176a3.44,3.44,0,0,1-3.142-3.312L88.052,212.82a3.693,3.693,0,0,1,.067-1.08h50.008a3.451,3.451,0,0,1,3.141,3.318l2.983,36.935A3.65,3.65,0,0,1,144.184,253.067Z" transform="translate(-88.039 -209.495)" fill="#263238"/>
          <path id="Trazado_693924" data-name="Trazado 693924" d="M144.184,253.067H94.176a3.44,3.44,0,0,1-3.142-3.312L88.052,212.82a3.693,3.693,0,0,1,.067-1.08h50.008a3.451,3.451,0,0,1,3.141,3.318l2.983,36.935A3.65,3.65,0,0,1,144.184,253.067Z" transform="translate(-88.039 -209.495)" fill="#afafaf" opacity="0.5"/>
          <path id="Trazado_693925" data-name="Trazado 693925" d="M119.39,265.37l10.083.043-1.952,18.172,9.913.152v2.141l-26.694.067v-2.111l6.435-.128Z" transform="translate(-96.892 -230.411)" fill="#263238"/>
          <path id="Trazado_693926" data-name="Trazado 693926" d="M140.861,265.44c-.031.268,2.233,8.57,2.233,8.57H139.94Z" transform="translate(-108.28 -230.438)" opacity="0.3"/>
          <path id="Trazado_693927" data-name="Trazado 693927" d="M122.208,273.983l1.043-8.613-2.611,8.613Z" transform="translate(-100.753 -230.411)" opacity="0.3"/>
          <path id="Trazado_693928" data-name="Trazado 693928" d="M119.39,265.37l10.083.043-1.952,18.172,9.913.152v2.141l-26.694.067v-2.111l6.435-.128Z" transform="translate(-96.892 -230.411)" fill="#e8e8e8" opacity="0.6"/>
        </g>
        <g id="Grupo_955438" data-name="Grupo 955438" transform="translate(63.616 80.072)">
          <rect id="Rectángulo_341911" data-name="Rectángulo 341911" width="35.051" height="1.775" transform="translate(35.051 1.775) rotate(180)" fill="#263238"/>
          <rect id="Rectángulo_341912" data-name="Rectángulo 341912" width="35.051" height="1.775" transform="translate(35.051 1.775) rotate(180)" fill="#fff" opacity="0.5"/>
          <rect id="Rectángulo_341913" data-name="Rectángulo 341913" width="12.072" height="1.775" transform="translate(35.05 1.775) rotate(180)" opacity="0.3"/>
        </g>
        <g id="Grupo_955461" data-name="Grupo 955461" transform="translate(138.659 71.014)">
          <g id="Grupo_955446" data-name="Grupo 955446" transform="translate(1.867 6.253)">
            <g id="Grupo_955443" data-name="Grupo 955443">
              <path id="Trazado_693929" data-name="Trazado 693929" d="M327.479,296.293H291.66v-4.7h35.819A5.272,5.272,0,0,1,327.479,296.293Z" transform="translate(-291.66 -291.59)" fill="#407bff"/>
              <path id="Trazado_693930" data-name="Trazado 693930" d="M310.887,296.158H291.66v-3.9h19.227A6.733,6.733,0,0,1,310.887,296.158Z" transform="translate(-291.66 -291.851)" fill="#fff" opacity="0.8"/>
              <path id="Trazado_693931" data-name="Trazado 693931" d="M324.7,291.59a9.8,9.8,0,0,1,0,4.7h15.665a5.272,5.272,0,0,0,0-4.7Z" transform="translate(-304.546 -291.59)" opacity="0.2"/>
              <g id="Grupo_955440" data-name="Grupo 955440" transform="translate(0.198 3.111)" opacity="0.3">
                <g id="Grupo_955439" data-name="Grupo 955439">
                  <path id="Trazado_693932" data-name="Trazado 693932" d="M292.031,296.781h19.16a.046.046,0,0,0,0-.092h-19.16a.046.046,0,0,0,0,.092Z" transform="translate(-291.985 -296.69)"/>
                </g>
              </g>
              <g id="Grupo_955442" data-name="Grupo 955442" transform="translate(0.105 1.867)" opacity="0.3">
                <g id="Grupo_955441" data-name="Grupo 955441">
                  <path id="Trazado_693933" data-name="Trazado 693933" d="M291.874,294.742h19.258a.046.046,0,0,0,0-.092H291.874a.046.046,0,0,0,0,.092Z" transform="translate(-291.833 -294.65)"/>
                </g>
              </g>
            </g>
            <g id="Grupo_955445" data-name="Grupo 955445" transform="translate(23.278 1.879)">
              <g id="Grupo_955444" data-name="Grupo 955444">
                <path id="Trazado_693934" data-name="Trazado 693934" d="M340.519,295.518h-9.052c-.378,0-.769-.03-1.147,0-.317.024-.293.14-.323-.128-.018-.146.049-.36,0-.494-.055-.159-.018-.049-.067-.043a4.645,4.645,0,0,1,.824,0h9.51a1.2,1.2,0,0,1,.256,0c-.091-.024-.073-.14-.085-.03a2.645,2.645,0,0,0,0,.311v.476a.092.092,0,0,0,.183,0v-.848a.094.094,0,0,0-.091-.091H329.911a.094.094,0,0,0-.091.091v.848a.094.094,0,0,0,.091.091h10.614C340.635,295.7,340.635,295.518,340.519,295.518Z" transform="translate(-329.82 -294.67)" fill="#263238"/>
              </g>
            </g>
          </g>
          <g id="Grupo_955454" data-name="Grupo 955454" transform="translate(6.289)">
            <g id="Grupo_955451" data-name="Grupo 955451">
              <path id="Trazado_693935" data-name="Trazado 693935" d="M327.4,285.079H298.91V281.34H327.4A4.2,4.2,0,0,1,327.4,285.079Z" transform="translate(-298.91 -281.34)" fill="#407bff"/>
              <path id="Trazado_693936" data-name="Trazado 693936" d="M314.213,284.955H298.92v-3.1h15.293A5.383,5.383,0,0,1,314.213,284.955Z" transform="translate(-298.914 -281.539)" fill="#fff" opacity="0.8"/>
              <path id="Trazado_693937" data-name="Trazado 693937" d="M325.19,281.34a7.824,7.824,0,0,1,0,3.739h12.462a4.2,4.2,0,0,0,0-3.739Z" transform="translate(-309.159 -281.34)" opacity="0.2"/>
              <g id="Grupo_955448" data-name="Grupo 955448" transform="translate(0.154 2.458)" opacity="0.3">
                <g id="Grupo_955447" data-name="Grupo 955447">
                  <path id="Trazado_693938" data-name="Trazado 693938" d="M299.2,285.461h15.244a.046.046,0,0,0,0-.092H299.2a.046.046,0,0,0,0,.092Z" transform="translate(-299.163 -285.37)"/>
                </g>
              </g>
              <g id="Grupo_955450" data-name="Grupo 955450" transform="translate(0.076 1.47)" opacity="0.3">
                <g id="Grupo_955449" data-name="Grupo 955449">
                  <path id="Trazado_693939" data-name="Trazado 693939" d="M299.081,283.841H314.4a.046.046,0,1,0,0-.091H299.081a.046.046,0,1,0,0,.091Z" transform="translate(-299.035 -283.75)"/>
                </g>
              </g>
            </g>
            <g id="Grupo_955453" data-name="Grupo 955453" transform="translate(18.495 1.47)">
              <g id="Grupo_955452" data-name="Grupo 955452">
                <path id="Trazado_693940" data-name="Trazado 693940" d="M337.764,284.427h-8.442l.091.091v-.677l-.091.091h8.442l-.091-.091v.677a.092.092,0,0,0,.183,0v-.677a.094.094,0,0,0-.091-.091h-8.442a.094.094,0,0,0-.091.091v.677a.094.094,0,0,0,.091.091h8.442A.092.092,0,0,0,337.764,284.427Z" transform="translate(-329.23 -283.75)" fill="#263238"/>
              </g>
            </g>
          </g>
          <g id="Grupo_955460" data-name="Grupo 955460" transform="translate(0 3.69)">
            <g id="Grupo_955459" data-name="Grupo 955459">
              <path id="Trazado_693941" data-name="Trazado 693941" d="M327.567,290.123H288.6V287.39h38.967A1.963,1.963,0,0,1,327.567,290.123Z" transform="translate(-288.6 -287.39)" fill="#263238"/>
              <path id="Trazado_693942" data-name="Trazado 693942" d="M307.827,290.029H288.6V287.76h19.227A2.377,2.377,0,0,1,307.827,290.029Z" transform="translate(-288.6 -287.534)" fill="#fff" opacity="0.8"/>
              <g id="Grupo_955456" data-name="Grupo 955456" transform="translate(0.198 1.787)" opacity="0.3">
                <g id="Grupo_955455" data-name="Grupo 955455">
                  <path id="Trazado_693943" data-name="Trazado 693943" d="M288.971,290.411h19.16a.046.046,0,1,0,0-.091h-19.16a.046.046,0,1,0,0,.091Z" transform="translate(-288.925 -290.32)"/>
                </g>
              </g>
              <g id="Grupo_955458" data-name="Grupo 955458" transform="translate(0.105 1.061)" opacity="0.3">
                <g id="Grupo_955457" data-name="Grupo 955457">
                  <path id="Trazado_693944" data-name="Trazado 693944" d="M288.814,289.221h19.258a.046.046,0,1,0,0-.091H288.814a.046.046,0,0,0,0,.091Z" transform="translate(-288.773 -289.13)"/>
                </g>
              </g>
            </g>
          </g>
        </g>
      </g>
    </g>
    <g id="Plant" transform="translate(21.046 211.221)">
      <g id="Grupo_955476" data-name="Grupo 955476" transform="translate(0 0)">
        <g id="Grupo_955475" data-name="Grupo 955475">
          <g id="Grupo_955474" data-name="Grupo 955474">
            <g id="Grupo_955465" data-name="Grupo 955465" transform="translate(4.245 18.127)">
              <path id="Trazado_693945" data-name="Trazado 693945" d="M42.576,350.252c.25-.39,3.459-1.226,6.222,2.617l-.3,2.977,1.385-1.793a1.982,1.982,0,0,1,.433,2.05c-.329,1.464-.543,2.788-.543,2.788s1.226-3.52,1.58-3.245a77.05,77.05,0,0,1,4.74,6.625c.671,1.208,2.19,7.436,1.074,8.3a7.091,7.091,0,0,1-6.387.543c-2.782-.994-5.459-6.039-5.459-6.039l3.434-2.623-4.319,1.592C44.431,364.038,39.246,355.467,42.576,350.252Z" transform="translate(-41.461 -349.895)" fill="#0b481e"/>
              <path id="Trazado_693946" data-name="Trazado 693946" d="M42.576,350.48c5.63,9.26,12.877,16,14.591,20.307a7.091,7.091,0,0,1-6.387.543c-2.782-.994-5.459-6.039-5.459-6.039l3.434-2.623-4.319,1.592C44.431,364.266,39.246,355.7,42.576,350.48Z" transform="translate(-41.461 -350.123)" fill="#fff" opacity="0.1"/>
              <g id="Grupo_955464" data-name="Grupo 955464" transform="translate(4.244 5.294)">
                <g id="Grupo_955463" data-name="Grupo 955463">
                  <path id="Trazado_693947" data-name="Trazado 693947" d="M48.426,358.858c.092.4.6.848.848,1.159.677.86,1.373,1.714,2.062,2.562q2.114,2.589,4.24,5.167c4.581,5.551,6.692,12.34,7.784,19.355.762,4.923,1.1,9.9,1.543,14.86.024.293.482.293.458,0-.75-8.363-1.1-17.037-4.014-25a31.307,31.307,0,0,0-5.075-9.083c-1.183-1.446-2.379-2.885-3.562-4.331-.872-1.068-1.738-2.129-2.6-3.2-.3-.372-.6-.744-.885-1.116-.091-.122-.354-.464-.36-.482-.067-.293-.506-.171-.439.116Z" transform="translate(-48.419 -358.574)" fill="#263238"/>
                </g>
              </g>
            </g>
            <path id="Trazado_693948" data-name="Trazado 693948" d="M104.244,386.337c-.1-.378-2.483-1.867-5.691.537l-.512,2.477-.665-1.8s-.763.281-.866,1.543-.268,2.385-.268,2.385-.1-3.154-.457-3.02a67.289,67.289,0,0,0-5.508,4.148c-.848.805-4.233,4.581-2.965,6.429a5.941,5.941,0,0,0,5.02,2.056c2.495-.1,5.941-3.489,5.941-3.489l-2.111-2.989L99.242,397C99.254,397,105.61,391.394,104.244,386.337Z" transform="translate(-54.987 -345.667)" fill="#0b481e"/>
            <path id="Trazado_693950" data-name="Trazado 693950" d="M102.281,367.752s.573-3.9-6.32-2.41V369.7l-1.61-3.9s-4.02.122-5.283,1.555v4.532l-2.409-3.447s-4.709,4.166-4.483,7.729a13.565,13.565,0,0,0,2.092,6.234C83.8,380.061,98.56,366.6,102.281,367.752Z" transform="translate(-53.091 -337.66)" fill="#0b481e"/>
            <path id="Trazado_693951" data-name="Trazado 693951" d="M34.853,388.152s-.573-3.9,6.32-2.409v4.368l1.61-3.9s4.02.122,5.283,1.556v4.532l2.41-3.447s4.709,4.166,4.477,7.729a13.565,13.565,0,0,1-2.092,6.234C48.108,394.435,40.824,389.359,34.853,388.152Z" transform="translate(-34.634 -345.616)" fill="#0b481e"/>
            <path id="Trazado_693953" data-name="Trazado 693953" d="M82.667,320.18c.586-.049,3.9,2.525,2.184,8.272l-3.215,2H84.51s0,1.214-1.72,2.019-3.215,1.61-3.215,1.61,4.477-1.495,4.477-.921a97.618,97.618,0,0,1-2.989,9.876c-.689,1.61-5.777,7.948-7.5,7.485a8.983,8.983,0,0,1-5.484-6c-1.147-3.562,1.836-10.15,1.836-10.15L75.2,335.8l-4.941-3.1S74.853,320.869,82.667,320.18Z" transform="translate(-47.496 -320.179)" fill="#0b481e"/>
            <g id="Grupo_955467" data-name="Grupo 955467" transform="translate(22.044 6.786)">
              <g id="Grupo_955466" data-name="Grupo 955466">
                <path id="Trazado_693955" data-name="Trazado 693955" d="M71.1,391.636a183.172,183.172,0,0,1,6.283-47.22q1.748-6.487,3.971-12.834c.1-.281-.342-.4-.439-.122a183.7,183.7,0,0,0-9.748,46.6q-.512,6.771-.525,13.573a.229.229,0,0,0,.457,0Z" transform="translate(-70.64 -331.303)" fill="#263238"/>
              </g>
            </g>
            <g id="Grupo_955469" data-name="Grupo 955469" transform="translate(25.878 29.866)">
              <g id="Grupo_955468" data-name="Grupo 955468">
                <path id="Trazado_693956" data-name="Trazado 693956" d="M100.236,369.14c-1.995.03-3.971,1.177-5.612,2.2a41.5,41.5,0,0,0-6.85,5.441,34.685,34.685,0,0,0-5.545,6.686,38.166,38.166,0,0,0-4.02,9.973,34.887,34.887,0,0,0-1.049,13.286c.037.287.494.293.457,0A38.028,38.028,0,0,1,82.1,384.61a29.727,29.727,0,0,1,5.093-6.6,43.632,43.632,0,0,1,6.57-5.557c1.836-1.25,4.16-2.818,6.472-2.849a.232.232,0,0,0,0-.464Z" transform="translate(-76.925 -369.14)" fill="#263238"/>
              </g>
            </g>
            <g id="Grupo_955471" data-name="Grupo 955471" transform="translate(0 42.312)">
              <g id="Grupo_955470" data-name="Grupo 955470">
                <path id="Trazado_693957" data-name="Trazado 693957" d="M55.314,418.3c-.47-5.118-.72-10.76-3.367-15.3a32.079,32.079,0,0,0-4.459-5.716,32.11,32.11,0,0,0-5.374-4.624,19.76,19.76,0,0,0-7.326-3.111c-.287-.055-.409.384-.122.439,4.6.86,8.564,3.636,11.81,6.905a35.1,35.1,0,0,1,4.544,5.466,19.134,19.134,0,0,1,2.66,6.783,82.517,82.517,0,0,1,1.183,9.162c.018.287.476.293.451,0Z" transform="translate(-34.502 -389.542)" fill="#263238"/>
              </g>
            </g>
            <g id="Grupo_955473" data-name="Grupo 955473" transform="translate(20.752 43.758)">
              <g id="Grupo_955472" data-name="Grupo 955472">
                <path id="Trazado_693959" data-name="Trazado 693959" d="M92.817,392.021a7.535,7.535,0,0,1-1.281.885c-.848.573-1.7,1.135-2.556,1.7-1.452.952-2.91,1.9-4.361,2.849-5.2,3.41-8.638,8.656-11.3,14.158-1.757,3.642-3.233,7.411-4.782,11.151-.11.275.329.39.439.122,2.7-6.5,5.148-13.322,9.455-18.971a26.128,26.128,0,0,1,6.381-6.045c1.421-.933,2.849-1.854,4.27-2.788.958-.628,1.921-1.263,2.873-1.9.36-.244,1.025-.537,1.257-.921.152-.25-.244-.482-.4-.232Z" transform="translate(-68.521 -391.914)" fill="#263238"/>
              </g>
            </g>
          </g>
          <path id="Trazado_693960" data-name="Trazado 693960" d="M56.646,430.44l8.9.3,8.9-.3s3.2,14.494,1.391,18.233c-1.513,3.117-6.094,3.709-9.394,3.819v.024c-.275,0-.573,0-.9-.006s-.616.006-.9.006v-.024c-3.294-.11-7.875-.7-9.394-3.819C53.443,444.94,56.646,430.44,56.646,430.44Z" transform="translate(-42.379 -363.181)" fill="#12263f"/>
          <path id="Trazado_693961" data-name="Trazado 693961" d="M58.15,429.765c0,.384,3.977.7,8.882.7s8.882-.311,8.882-.7-3.977-.7-8.882-.7S58.15,429.381,58.15,429.765Z" transform="translate(-43.725 -362.646)" fill="#263238"/>
          <path id="Trazado_693962" data-name="Trazado 693962" d="M80.935,433.01s1.7,11.078.988,14.219c-1.031,4.551-8.894,5.289-9.229,4.715s2.849-3.715,2.794-7.076-.9-11.358-.9-11.358Z" transform="translate(-49.387 -364.183)" fill="#fff" opacity="0.3"/>
        </g>
      </g>
    </g>
  </g>
</svg>
