<svg xmlns="http://www.w3.org/2000/svg" width="125.727" height="139.475" viewBox="0 0 125.727 139.475">
  <g id="Grupo_1012905" data-name="Grupo 1012905" transform="translate(88.154) rotate(71)">
    <path id="Trazado_122857" data-name="Trazado 122857" d="M24.543,87.442c3.112-1.976,5.188-5.187,7.07-8.269.984-1.611,1.884-3.279,2.907-4.865a12.581,12.581,0,0,1,2.145-2.617,14,14,0,0,0,1.214-1.057,2.125,2.125,0,0,1,1.438.7,2.866,2.866,0,0,1,.146,2.629,15.9,15.9,0,0,1-2.54,5.393,20.989,20.989,0,0,1-4.505,4.211,20.468,20.468,0,0,1-2.431,1.548A9.518,9.518,0,0,0,27.707,86.4c-2.551,2.47,3.248,3.811,4.651,4.036a17.573,17.573,0,0,0,10.147-1C48.087,86.878,51.783,81,54.528,75.755c1.634-3.121,3.106-6.308,4.979-9.3a31.948,31.948,0,0,1,3-4.274c.321-.363.825-1.014,1.3-.654.422.321.264,1.825.259,2.32-.082,8.226-4.549,15.778-10.126,21.535A22.96,22.96,0,0,1,49.94,88.7c-.787.517-1.95,1.333-1.67,2.442.674,2.655,5.894,2.14,7.775,1.847,6.286-.975,13.47-4.026,16.429-9.991,1.851-3.73,2.346-7.932,2.823-12.015.525-4.5,1.118-9,1.453-13.523.189-2.56.368-5.115,1.662-7.4.437-.773,1.118-1.88,2.074-2.052,1.4-.251,2.2,1.479,2.587,2.553,1.289,3.547.5,7.515.034,11.141-1.053,8.2-2.962,16.169-6.756,23.567a1.147,1.147,0,0,0,.317,2c2.7,1.008,5.83-.38,8.344-1.346A27.467,27.467,0,0,0,93.4,80.965C98.381,76.6,100.571,70.1,101,63.646c.512-7.619-1.854-15.373-2.739-22.9-.257-2.181-.785-4.846-.271-7.031.86-3.66,4.916,1.731,5.6,3.113a40.667,40.667,0,0,1,3.557,11.137c.7,4.1.581,8.181.7,12.314a.559.559,0,0,0,.12.321c.189,1.187,1.313,1.534,2.467.6,2.354-1.907,3.048-5.422,3.642-8.209,1.475-6.925,2.051-14.413-.043-21.264A41.224,41.224,0,0,0,103.111,14.6a52.167,52.167,0,0,0-8.2-6.591,43.749,43.749,0,0,0-9.8-4.295A86.279,86.279,0,0,0,73.92.548c-2.828-.523-6.247-.97-9.022.14C62.95.605,61.008.558,59.084.535c-9-.112-18.913,1.142-26.123,7.013C30.511,9.542,27.7,12.5,26.872,15.63a2.832,2.832,0,0,0,.95,3.265c1.565.992,3.786.286,5.47.067,5.04-.658,10.284.277,15.193,1.427C52.9,21.425,57.428,23,60.866,26.067a13.644,13.644,0,0,1,4.141,5.966c.972,3.428-2.617,4.153-5.179,3.392-2.756-.819-5.314-2.324-8.024-3.3-2.871-1.038-5.808-1.83-8.744-2.659-9.237-2.61-19.642-2.889-27.916,2.728A18.989,18.989,0,0,0,8.1,40.517a4.856,4.856,0,0,0,.2,4.675c1.235,1.689,3.408,1.644,5.222,1.047,2.727-.9,5.266-2.292,8.024-3.155A57.3,57.3,0,0,1,30.425,40.9a23.509,23.509,0,0,1,8.1.507,34.91,34.91,0,0,1,6.532,1.617c.7.283,5.013,3.018,3.6,3.531-1.17.426-3.35-.493-4.543-.728a64.033,64.033,0,0,0-8.907-1.484,49.6,49.6,0,0,0-9.173.7c-4.946.671-9.629,1.719-13.963,4.295a26.656,26.656,0,0,0-9.611,9.624c-.79,1.376-1.654,3.053-.9,4.608a1.113,1.113,0,0,0,1.265.495c2.022-.8,4.215-.914,6.274-1.585a46.22,46.22,0,0,1,7.731-2.153,10.123,10.123,0,0,1,8.116,2.271c.06,1.567-1.379,2.56-2.843,2.979-3.069.88-6.315.863-9.393,1.826a16.088,16.088,0,0,0-7.466,4.694,28.893,28.893,0,0,0-3.039,4.449c-.923,1.563-2.418,3.8-2.185,5.7a.914.914,0,0,0,.043.157.271.271,0,0,0,.041.274c1.223,1.553,3.327,2.354,5.128,3.029,2.222.832,4.515,1.555,6.8,2.2C16.15,89.073,20.727,89.865,24.543,87.442Zm41.863-65.66c-2.154-.833-7.8-4.429-5.739-7.308,2.085-2.915,7.935-.832,10.454.035C75.288,15.943,81.468,18.457,84.357,22c1.554,1.9.3,2.657-1.612,2.649a53.168,53.168,0,0,1-6.889-.463A41.51,41.51,0,0,1,66.406,21.782Z" transform="translate(0 0)" fill="#0b481e"/>
    <g id="Grupo_86396" data-name="Grupo 86396" transform="translate(6.829 14.762)" opacity="0.7">
      <path id="Trazado_122858" data-name="Trazado 122858" d="M4.808,53.927c2.128-1.164,4.239-2.36,6.343-3.568,5.7-3.269,11.407-6.506,17.044-9.88,5.172-3.1,10.267-6.354,15.226-9.782,6.175-4.271,12.3-8.786,18.115-13.545a40.49,40.49,0,0,1,1.436,7.518c.026.24.428.334.462.051a15.592,15.592,0,0,0-.1-4.5,25.241,25.241,0,0,0-.961-3.748c.15-.124.307-.244.457-.369A208.176,208.176,0,0,0,79.826.879a.52.52,0,0,0-.744-.727A184.63,184.63,0,0,1,62.983,13.4c-6.377,4.908-12.918,9.646-19.454,14.34-9.991,7.173-20.553,13.7-31.067,20.067C8.5,50.2,4.318,52.177.327,54.489c-.691.4-.178,1.335.527,1.2A13.847,13.847,0,0,0,4.808,53.927Z" transform="translate(20.221 0)" fill="#adce32"/>
      <path id="Trazado_122859" data-name="Trazado 122859" d="M3.893.182a84.912,84.912,0,0,1-.875,17.151c-.4,2.675-.94,5.331-1.478,7.981C1.021,27.873.009,30.583,0,33.2a.278.278,0,0,0,.515.128c1.2-2.29,1.524-5.247,2.034-7.76.579-2.859.989-5.739,1.317-8.635A91.945,91.945,0,0,0,4.26.173C4.243-.062,3.88-.056,3.893.182Z" transform="translate(80.05 32.829)" fill="#adce32"/>
      <path id="Trazado_122860" data-name="Trazado 122860" d="M8.7,22.283a60.716,60.716,0,0,0,1.539-12.212c.025-3.373.068-6.688-.919-9.953C9.258-.1,8.907.012,8.99.215c1.249,3.043.531,6.671.454,9.874A60.93,60.93,0,0,1,7.93,21.777C6.5,28.377,4.164,34.669.064,40.078a.256.256,0,0,0,.313.4c2.375-1.111,3.381-5.013,4.36-7.22.7-1.581,1.657-3.039,2.311-4.64A36.322,36.322,0,0,0,8.7,22.283Z" transform="translate(54.532 31.441)" fill="#adce32"/>
      <path id="Trazado_122861" data-name="Trazado 122861" d="M2.88,14.313c.8-1.5,1.623-2.988,2.36-4.522A21.4,21.4,0,0,0,7.792.384.408.408,0,0,0,6.976.4a20.785,20.785,0,0,1-2.833,9.745c-.76,1.453-1.581,2.875-2.376,4.309C1.116,15.636.022,17.1,0,18.48a.269.269,0,0,0,.456.179,6.628,6.628,0,0,0,1.192-1.986C2.043,15.88,2.461,15.1,2.88,14.313Z" transform="translate(38.004 45.012)" fill="#adce32"/>
      <path id="Trazado_122862" data-name="Trazado 122862" d="M2.863,6.517a18.552,18.552,0,0,0,2.12-1.792A32.254,32.254,0,0,0,8.366.438c.2-.275-.246-.594-.47-.352-1.2,1.292-2.5,2.483-3.8,3.666-.637.576-1.29,1.144-1.978,1.657-.671.5-1.631.928-2.058,1.666A.424.424,0,0,0,.431,7.7,4.4,4.4,0,0,0,2.863,6.517Z" transform="translate(28.416 65.727)" fill="#adce32"/>
      <path id="Trazado_122863" data-name="Trazado 122863" d="M14.725.984c4.944.047,10.416.839,14.866,3.085.56.283,1.04-.557.482-.852C25.572.839,20.233.193,15.2.014A30.6,30.6,0,0,0,7.728.787,28.37,28.37,0,0,0,.107,3.1a.226.226,0,0,0,.121.416c2.317-.063,4.583-.99,6.829-1.527A31.692,31.692,0,0,1,14.725.984Z" transform="translate(4.29 37.09)" fill="#adce32"/>
      <path id="Trazado_122864" data-name="Trazado 122864" d="M12.395.706c.4-.266.027-.9-.388-.646A64.866,64.866,0,0,1,.1,5.388c-.154.056-.136.311.047.3A18.969,18.969,0,0,0,6.515,3.917,39.046,39.046,0,0,0,12.395.706Z" transform="translate(5.238 57.338)" fill="#adce32"/>
      <path id="Trazado_122865" data-name="Trazado 122865" d="M1.241,1.583c.355-.144.719-.287,1.066-.449C2.977.82,3.641.5,4.325.219A.112.112,0,0,0,4.262,0C3.521.155,2.757.288,2.031.5A7.953,7.953,0,0,0,.951.918a4.832,4.832,0,0,0-.893.636c-.149.119.018.355.183.305C.569,1.758.923,1.711,1.241,1.583Z" transform="translate(0 63.418)" fill="#adce32"/>
      <path id="Trazado_122866" data-name="Trazado 122866" d="M.067.436A11.352,11.352,0,0,0,3.714,2.861,8.854,8.854,0,0,1,7.172,5.6a.378.378,0,0,0,.648-.388A8.775,8.775,0,0,0,4.467,2.154C3.144,1.382,1.745.707.371.031A.256.256,0,0,0,.067.436Z" transform="translate(46.629 24.366)" fill="#adce32"/>
      <path id="Trazado_122867" data-name="Trazado 122867" d="M3.584,3.713A20.52,20.52,0,0,1,7.484,2.1,29.047,29.047,0,0,1,15.6.965,43.211,43.211,0,0,1,31.58,4.1c.17.067.287-.225.12-.3A41.538,41.538,0,0,0,15.167,0a27.389,27.389,0,0,0-8.376,1.15C4.533,1.846,1.353,2.944.04,5.053A.309.309,0,0,0,.392,5.5,22.259,22.259,0,0,0,3.584,3.713Z" transform="translate(10.583 18.584)" fill="#adce32"/>
    </g>
  </g>
</svg>
