<svg xmlns="http://www.w3.org/2000/svg" width="131.679" height="144.581" viewBox="0 0 131.679 144.581">
  <g id="Grupo_1012907" data-name="Grupo 1012907" transform="matrix(-0.629, 0.777, -0.777, -0.629, 133.037, 35.442)">
    <g id="Grupo_86407" data-name="Grupo 86407" transform="translate(0 0.263)">
      <path id="Trazado_122878" data-name="Trazado 122878" d="M87.886,36.492q9.966-4.74,19.692-9.955A202.1,202.1,0,0,0,125.3,15.506c3.5-2.354,7.069-4.551,10.5-7,1.451-1.033,2.886-2.093,4.292-3.183.5-.388,1.6-.975,1.733-1.686a.979.979,0,0,0-.3-.915.8.8,0,0,0-.074-.194l-.164-.213a1.06,1.06,0,0,0-.46-.27l.208.088c-.185-.079-.367-.185-.559-.247-.113-.037-.231-.06-.346-.092a5.866,5.866,0,0,1-.668-.231l-.157-.069c-.021-1-.975-1.978-2.007-1.231-20.071,14.494-44.337,20.9-68.125,26.3a178.175,178.175,0,0,1-20.524,3.5c-6.7.723-13.39.3-20.119.7-7.339.437-15.132.185-22.032,3.144C.987,36.275-2.271,42.163,1.874,47.486,5.9,52.661,13.991,54.2,20.159,54.5c10.9.527,22.357-1.846,32.788-4.764A219.3,219.3,0,0,0,87.886,36.492Z" transform="translate(0 1.485)" fill="#add031"/>
    </g>
    <g id="Grupo_86409" data-name="Grupo 86409" transform="translate(4.137 3.881)">
      <path id="Trazado_122880" data-name="Trazado 122880" d="M.34,41.33c3.428,1.76,7.273,1.712,11.038,1.719,4.826.007,9.624.446,14.457.377,10.084-.143,20.011-2.1,29.8-4.385A246.172,246.172,0,0,0,111.486,18.8c8.927-4.523,18.664-9.823,24.857-17.869.485-.628-.5-1.211-1.021-.788-7.1,5.736-14.078,11.16-22.291,15.24-8.448,4.2-16.938,8.233-25.756,11.616-8.677,3.331-17.53,5.916-26.486,8.37-9.458,2.592-19.017,5.191-28.8,6.219a86.389,86.389,0,0,1-16.25.014c-4.833-.4-10.22.746-14.727-1.425-.767-.37-1.444.758-.672,1.153Z" transform="translate(0 0)" fill="#4f9638"/>
    </g>
  </g>
</svg>
