<svg xmlns="http://www.w3.org/2000/svg" width="46.89" height="47.76" viewBox="0 0 46.89 47.76">
  <path id="Trazado_697891" data-name="Trazado 697891" d="M0,25.106a29.81,29.81,0,0,1,.628-6.091,13.909,13.909,0,0,1,3.2-6.948C4.771,11.039,5.407,9.745,6.324,8.7,12.784,1.333,20.841-1.387,30.436.661a16.46,16.46,0,0,1,8.316,4.716,22.335,22.335,0,0,1,6.387,11.746,19.022,19.022,0,0,1-4.021,15.789c-5.47,6.941-12.529,11.058-21.481,11.613A23.855,23.855,0,0,1,8.9,42.7a12.919,12.919,0,0,1-7.1-7.155A25.994,25.994,0,0,1,0,25.106Zm5.233.266a19.4,19.4,0,0,0,1.2,7.835,8.093,8.093,0,0,0,5.13,5.019,18.883,18.883,0,0,0,6.963,1.234A23.25,23.25,0,0,0,38.182,28.24C42.95,20.8,39.543,9.974,31.508,6.227a12.733,12.733,0,0,0-2.121-.761A19.267,19.267,0,0,0,8.763,13.434,19.7,19.7,0,0,0,5.237,25.372Z" transform="matrix(0.052, -0.999, 0.999, 0.052, 0, 45.427)" fill="#ffc107"/>
</svg>
