<svg xmlns="http://www.w3.org/2000/svg" width="119.923" height="107.601" viewBox="0 0 119.923 107.601">
  <g id="Grupo_957305" data-name="Grupo 957305" transform="matrix(0.951, -0.309, 0.309, 0.951, 0, 30.864)">
    <path id="Trazado_122857" data-name="Trazado 122857" d="M21.24,75.674c2.693-1.71,4.49-4.489,6.119-7.156.852-1.394,1.63-2.838,2.516-4.211a10.888,10.888,0,0,1,1.856-2.265,12.114,12.114,0,0,0,1.051-.915,1.839,1.839,0,0,1,1.245.606,2.481,2.481,0,0,1,.127,2.275,13.757,13.757,0,0,1-2.2,4.667,18.164,18.164,0,0,1-3.9,3.645,17.715,17.715,0,0,1-2.1,1.34,8.237,8.237,0,0,0-1.974,1.109c-2.208,2.137,2.811,3.3,4.025,3.493a15.208,15.208,0,0,0,8.782-.863c4.83-2.213,8.029-7.3,10.4-11.84,1.414-2.7,2.688-5.459,4.309-8.05a27.649,27.649,0,0,1,2.594-3.7c.278-.314.714-.878,1.123-.566.365.278.228,1.579.224,2.008-.071,7.119-3.937,13.654-8.764,18.637a19.87,19.87,0,0,1-3.456,2.873c-.681.447-1.688,1.154-1.445,2.114.583,2.3,5.1,1.852,6.729,1.6,5.44-.844,11.657-3.484,14.218-8.646,1.6-3.228,2.03-6.864,2.444-10.4.454-3.893.967-7.793,1.257-11.7a14.774,14.774,0,0,1,1.438-6.4c.379-.669.967-1.627,1.8-1.776,1.208-.217,1.9,1.28,2.239,2.21,1.115,3.07.432,6.5.029,9.641a61.171,61.171,0,0,1-5.847,20.4.993.993,0,0,0,.275,1.73c2.335.872,5.045-.329,7.221-1.165a23.77,23.77,0,0,0,7.255-4.29c4.312-3.775,6.207-9.4,6.582-14.987.443-6.593-1.6-13.3-2.37-19.815-.223-1.888-.679-4.194-.235-6.085.744-3.168,4.255,1.5,4.848,2.694a35.194,35.194,0,0,1,3.078,9.638,76.384,76.384,0,0,1,.608,10.657.484.484,0,0,0,.1.278c.164,1.027,1.137,1.327,2.135.519,2.037-1.651,2.638-4.692,3.152-7.1,1.277-5.993,1.775-12.474-.037-18.4a35.676,35.676,0,0,0-9.46-14.821,45.146,45.146,0,0,0-7.1-5.7,37.861,37.861,0,0,0-8.479-3.717A74.667,74.667,0,0,0,63.972.474c-2.447-.453-5.406-.839-7.808.121C54.479.524,52.8.483,51.132.463c-7.79-.1-16.368.989-22.608,6.069-2.119,1.726-4.554,4.29-5.269,6.994a2.451,2.451,0,0,0,.823,2.826c1.355.859,3.276.247,4.734.058,4.362-.569,8.9.24,13.148,1.235,3.821.9,7.74,2.258,10.715,4.914a11.807,11.807,0,0,1,3.584,5.163c.842,2.967-2.265,3.594-4.482,2.935-2.385-.708-4.6-2.011-6.944-2.859-2.484-.9-5.026-1.584-7.567-2.3-7.994-2.258-17-2.5-24.159,2.361a16.433,16.433,0,0,0-6.1,7.207,4.2,4.2,0,0,0,.176,4.046c1.069,1.462,2.95,1.422,4.519.906,2.36-.777,4.557-1.984,6.945-2.731a49.589,49.589,0,0,1,7.68-1.891,20.345,20.345,0,0,1,7.012.438A30.212,30.212,0,0,1,39,37.232c.605.245,4.338,2.612,3.117,3.056-1.012.368-2.9-.427-3.932-.63a55.416,55.416,0,0,0-7.708-1.285,42.927,42.927,0,0,0-7.939.6,31.1,31.1,0,0,0-12.084,3.717,23.069,23.069,0,0,0-8.317,8.329C1.45,52.213.7,53.664,1.354,55.01a.963.963,0,0,0,1.095.428c1.75-.693,3.648-.791,5.43-1.372a40,40,0,0,1,6.69-1.863,8.76,8.76,0,0,1,7.024,1.966c.052,1.356-1.193,2.215-2.46,2.578-2.656.761-5.465.747-8.129,1.581a13.923,13.923,0,0,0-6.461,4.063,25,25,0,0,0-2.63,3.85c-.8,1.352-2.092,3.292-1.891,4.931a.792.792,0,0,0,.037.136.235.235,0,0,0,.035.237c1.059,1.344,2.88,2.037,4.438,2.621,1.923.72,3.908,1.346,5.882,1.906C13.977,77.086,17.938,77.771,21.24,75.674ZM57.469,18.851c-1.864-.721-6.748-3.833-4.967-6.324,1.8-2.523,6.867-.72,9.047.031C65.156,13.8,70.5,15.973,73,19.036c1.345,1.646.261,2.3-1.4,2.292a46.013,46.013,0,0,1-5.962-.4A35.923,35.923,0,0,1,57.469,18.851Z" transform="translate(0 0)" fill="#0b481e"/>
    <g id="Grupo_86396" data-name="Grupo 86396" transform="translate(5.91 12.775)" opacity="0.7">
      <path id="Trazado_122858" data-name="Trazado 122858" d="M4.161,46.669C6,45.662,7.83,44.627,9.651,43.582c4.932-2.829,9.872-5.631,14.75-8.55,4.476-2.679,8.886-5.5,13.177-8.465,5.344-3.7,10.641-7.6,15.678-11.722A35.04,35.04,0,0,1,54.5,21.35c.023.208.371.289.4.044a13.493,13.493,0,0,0-.086-3.892,21.844,21.844,0,0,0-.832-3.244c.13-.107.266-.211.4-.32A180.16,180.16,0,0,0,69.083.76a.45.45,0,0,0-.644-.629A159.784,159.784,0,0,1,54.507,11.6c-5.519,4.248-11.179,8.348-16.836,12.41-8.646,6.208-17.787,11.857-26.886,17.367-3.428,2.074-7.049,3.781-10.5,5.782-.6.346-.154,1.156.456,1.043A11.984,11.984,0,0,0,4.161,46.669Z" transform="translate(17.5 0)" fill="#adce32"/>
      <path id="Trazado_122859" data-name="Trazado 122859" d="M3.369.157A73.485,73.485,0,0,1,2.612,15c-.35,2.315-.813,4.614-1.279,6.907C.883,24.122.008,26.467,0,28.731a.24.24,0,0,0,.446.111c1.041-1.982,1.319-4.541,1.76-6.715.5-2.474.856-4.966,1.14-7.473a79.571,79.571,0,0,0,.34-14.5C3.672-.054,3.358-.048,3.369.157Z" transform="translate(69.277 28.411)" fill="#adce32"/>
      <path id="Trazado_122860" data-name="Trazado 122860" d="M7.532,19.284A52.545,52.545,0,0,0,8.864,8.715,28.483,28.483,0,0,0,8.068.1c-.057-.188-.36-.091-.288.084,1.081,2.633.46,5.773.393,8.546A52.73,52.73,0,0,1,6.863,18.846,39.631,39.631,0,0,1,.055,34.684a.222.222,0,0,0,.271.343c2.055-.961,2.926-4.338,3.773-6.249.606-1.368,1.434-2.63,2-4.015A31.433,31.433,0,0,0,7.532,19.284Z" transform="translate(47.193 27.21)" fill="#adce32"/>
      <path id="Trazado_122861" data-name="Trazado 122861" d="M2.492,12.387c.695-1.3,1.4-2.586,2.043-3.913A18.521,18.521,0,0,0,6.744.333.353.353,0,0,0,6.037.35,17.987,17.987,0,0,1,3.586,8.783c-.657,1.257-1.368,2.488-2.056,3.729C.966,13.532.019,14.8,0,15.993a.233.233,0,0,0,.394.155A5.736,5.736,0,0,0,1.426,14.43C1.768,13.743,2.13,13.064,2.492,12.387Z" transform="translate(32.89 38.955)" fill="#adce32"/>
      <path id="Trazado_122862" data-name="Trazado 122862" d="M2.478,5.64A16.055,16.055,0,0,0,4.313,4.089,27.913,27.913,0,0,0,7.24.379c.169-.238-.212-.514-.407-.305C5.791,1.193,4.673,2.223,3.541,3.246c-.552.5-1.116.99-1.712,1.434S.418,5.483.049,6.122a.367.367,0,0,0,.324.54A3.806,3.806,0,0,0,2.478,5.64Z" transform="translate(24.591 56.882)" fill="#adce32"/>
      <path id="Trazado_122863" data-name="Trazado 122863" d="M12.743.852a29.886,29.886,0,0,1,12.866,2.67c.485.245.9-.482.417-.738C22.131.726,17.51.167,13.158.012a26.481,26.481,0,0,0-6.47.669,24.552,24.552,0,0,0-6.6,2,.2.2,0,0,0,.105.36c2.005-.054,3.967-.856,5.91-1.322A27.427,27.427,0,0,1,12.743.852Z" transform="translate(3.713 32.099)" fill="#adce32"/>
      <path id="Trazado_122864" data-name="Trazado 122864" d="M10.727.611c.35-.23.024-.781-.336-.559A56.137,56.137,0,0,1,.09,4.663c-.133.049-.118.269.041.26A16.416,16.416,0,0,0,5.638,3.39,33.791,33.791,0,0,0,10.727.611Z" transform="translate(4.533 49.622)" fill="#adce32"/>
      <path id="Trazado_122865" data-name="Trazado 122865" d="M1.074,1.37c.307-.124.623-.249.923-.389C2.576.71,3.151.435,3.743.189A.1.1,0,0,0,3.689,0c-.642.131-1.3.246-1.931.434A6.883,6.883,0,0,0,.823.795a4.182,4.182,0,0,0-.773.55c-.129.1.016.307.158.264C.493,1.521.8,1.48,1.074,1.37Z" transform="translate(0 54.883)" fill="#adce32"/>
      <path id="Trazado_122866" data-name="Trazado 122866" d="M.058.377a9.825,9.825,0,0,0,3.155,2.1,7.663,7.663,0,0,1,2.993,2.37.327.327,0,0,0,.56-.336,7.594,7.594,0,0,0-2.9-2.647C2.721,1.2,1.51.612.321.027A.222.222,0,0,0,.058.377Z" transform="translate(40.353 21.087)" fill="#adce32"/>
      <path id="Trazado_122867" data-name="Trazado 122867" d="M3.1,3.213a17.759,17.759,0,0,1,3.375-1.4A25.138,25.138,0,0,1,13.5.835,37.4,37.4,0,0,1,27.33,3.545c.147.058.248-.194.1-.26A35.948,35.948,0,0,0,13.126,0,23.7,23.7,0,0,0,5.878,1C3.923,1.6,1.171,2.548.035,4.373a.268.268,0,0,0,.305.384A19.264,19.264,0,0,0,3.1,3.213Z" transform="translate(9.159 16.083)" fill="#adce32"/>
    </g>
  </g>
</svg>
