<svg xmlns="http://www.w3.org/2000/svg" width="200.994" height="211.465" viewBox="0 0 200.994 211.465">
  <g id="Grupo_93248" data-name="Grupo 93248" transform="matrix(0.695, -0.719, 0.719, 0.695, -4.401, 108.11)">
    <path id="Trazado_122958" data-name="Trazado 122958" d="M.049,140.4c2.978-9.682-.491-22.044,0-32.243.543-11.21,1.24-22.84,2.71-33.959C4.177,63.466,6.308,51.863,12.9,43.122c8.136-10.8,13.718-5.41,14.493,6.23.559,8.369-1.615,29.146,3.767,34.725,4.965-23.612,8.7-47.143,24.358-65.99,3.8-4.571,15.679-19.317,22.068-13.9,5.268,4.463.094,27.4-2.1,33.166C88.436,19.536,112.213-1.093,135.321.045c27.837,1.37-19.832,42.264-27.843,47.943-8.883,6.3-18.05,12.4-27.03,17.923,15.482,2.391,37.87-8.389,52.2,2.472,22.827,17.305-19.332,29.808-31.1,31.655-9.218,1.451-20.6,2.821-28.77,2.838,11.457,0,24.836-1.528,35.528,3.459,16.9,7.879-2.542,15.915-11.509,19.643-20.133,8.369-43.287,6.834-64.692,6.777-7.849-.02-22.5-.954-29.387,3.472Z" transform="translate(6.335 0)" fill="#4f9638"/>
    <g id="Grupo_86470" data-name="Grupo 86470" transform="translate(0 28.173)">
      <path id="Trazado_122959" data-name="Trazado 122959" d="M.052,116.493c2.055-5.6,6.073-10.314,9.806-14.907,2.407-2.962,4.719-5.992,7.074-8.989a.8.8,0,0,1,.5-.636c1.04-1.324,2.1-2.639,3.13-3.973a.678.678,0,0,1-.255-.41c-.933-4.655-.11-9.861-.158-14.61-.052-4.81-.233-9.616-.336-14.426-.21-9.7.023-19.3,1.977-28.828.145-.714,1.363-.565,1.289.174-.975,9.693-.785,19.484-.581,29.206.1,4.81.245,9.619.271,14.429.023,3.866.429,8.266-.394,12.158.307-.4.633-.788.94-1.192C31.668,73.51,40.577,63.025,49.463,52.482,65.578,33.363,81.444,12.933,103.383.171c1.279-.746,2.332,1.14,1.144,1.961C83.915,16.376,68.327,36.4,52.393,55.412c-2.488,2.968-4.943,5.959-7.407,8.947,2.023-.09,4.09.029,6.021-.032,3.479-.11,6.948-.291,10.42-.5,7.478-.459,14.936-1.092,22.359-2.138,14.07-1.983,28.664-4.806,42.194-9.173.126-.039.175.152.055.2-6.971,2.471-13.715,5.145-20.9,6.961q-10.97,2.767-22.162,4.519c-6.9,1.085-13.841,1.967-20.8,2.507-3.715.287-7.436.465-11.16.591-2.72.09-5.727.5-8.479.042Q34.476,77.105,26.4,86.87c-1.373,1.651-2.791,3.266-4.2,4.89,1.45.155,2.9.407,4.325.533q5.092.441,10.207.53a173.345,173.345,0,0,0,19.81-.759c13.03-1.253,25.524-4.742,38.722-4.26a.226.226,0,0,1,0,.452c-13.3.895-26.131,5.42-39.43,6.664a172,172,0,0,1-20.559.707q-5.112-.131-10.211-.6a38.825,38.825,0,0,1-5.119-.636c-2.222,2.545-4.441,5.094-6.6,7.694-4.112,4.971-7.6,10.359-11.586,15.407C1.131,118.285-.29,117.423.052,116.493Z" transform="translate(0 2.809)" fill="#36753c"/>
      <path id="Trazado_122960" data-name="Trazado 122960" d="M4,40.168C3.043,44.328,2.924,49.109,1.176,53a.509.509,0,0,1-.921-.119c-.85-4.112.614-8.808,1.54-12.817,1.028-4.435,2.294-8.812,3.7-13.143C8.4,17.942,12.048,9.233,15.479.444c.3-.772,1.547-.462,1.266.349C13.709,9.53,10.5,18.21,7.672,27.015,6.28,31.35,5.023,35.73,4,40.168Z" transform="translate(49.75 0)" fill="#36753c"/>
    </g>
  </g>
</svg>
