<svg xmlns="http://www.w3.org/2000/svg" width="52.757" height="51.728" viewBox="0 0 52.757 51.728">
  <g id="formas_decoracion" data-name="formas decoracion" transform="translate(-291.962 -30.867) rotate(-51)">
    <path id="Trazado_123280" data-name="Trazado 123280" d="M356.308,325.8c-1.919,0-3.837.016-5.756,0a11.7,11.7,0,0,1-2.092-.142,3.392,3.392,0,0,1-2.815-4.262,21.5,21.5,0,0,1,1.022-3.24c3.46-8.87,7.234-17.614,11.543-26.091.629-1.242,1.352-2.453,2.06-3.649a12.335,12.335,0,0,1,1.069-1.494c1.9-2.233,4.23-2.328,6.338-.236a13.912,13.912,0,0,1,2.485,3.68,70.417,70.417,0,0,1,3.727,8.933c1.777,5.111,3.46,10.254,4.812,15.507a13.849,13.849,0,0,1,.5,3.1,4.96,4.96,0,0,1-3.46,5.284,23.986,23.986,0,0,1-5.347,1.227A120.728,120.728,0,0,1,356.308,325.8Zm1.007-4.278a106.966,106.966,0,0,0,14.343-1.573c3.539-.6,3.853-1.069,2.909-4.514-1.022-3.711-2.155-7.376-3.3-11.056a81.434,81.434,0,0,0-4.388-11.512,28.586,28.586,0,0,0-1.73-2.925.61.61,0,0,0-1.069.063c-.928,1.573-1.9,3.145-2.736,4.781-3.9,7.738-7.36,15.664-10.6,23.7-.157.409-.33.8-.456,1.227-.409,1.368-.126,1.793,1.258,1.809C353.462,321.539,355.381,321.523,357.315,321.523Z" transform="translate(-206.129 -22.397)" fill="#ffa686"/>
  </g>
</svg>
