<svg xmlns="http://www.w3.org/2000/svg" width="264" height="264" viewBox="0 0 264 264">
  <g id="Grupo_1013407" data-name="Grupo 1013407" transform="translate(1875.233 6823)">
    <circle id="Elipse_7868" data-name="Elipse 7868" cx="132" cy="132" r="132" transform="translate(-1875.233 -6823)" fill="#fff"/>
    <circle id="Elipse_7855" data-name="Elipse 7855" cx="77" cy="77" r="77" transform="translate(-1821.233 -6777)" fill="#fff"/>
    <g id="_1311622_700" data-name="1311622_700" transform="translate(-1868.634 -6974.511)">
      <line id="Línea_181" data-name="Línea 181" x1="13.531" y1="54.577" transform="translate(80.26 254.717)" fill="none" stroke="#5d637f" stroke-linecap="round" stroke-miterlimit="10" stroke-width="9.646"/>
      <path id="Trazado_695955" data-name="Trazado 695955" d="M100.695,439.713l16.32-64.861v56.276" transform="translate(-36.459 -120.867)" fill="none" stroke="#5d637f" stroke-linecap="round" stroke-miterlimit="10" stroke-width="9.646"/>
      <line id="Línea_182" data-name="Línea 182" x2="171.483" transform="translate(47.401 354.171)" fill="none" stroke="#a3add1" stroke-linecap="round" stroke-miterlimit="10" stroke-width="7"/>
      <line id="Línea_183" data-name="Línea 183" x2="43.969" transform="translate(111.228 359.641)" fill="none" stroke="#a3add1" stroke-linecap="round" stroke-miterlimit="10" stroke-width="7"/>
      <g id="Grupo_957823" data-name="Grupo 957823" transform="translate(55.928 225.007)">
        <g id="Grupo_957800" data-name="Grupo 957800" transform="translate(9.635 10.433)">
          <g id="Grupo_957781" data-name="Grupo 957781">
            <path id="Trazado_695956" data-name="Trazado 695956" d="M105.132,316.146c.093,1.059,2.46,46.27,2.46,46.27l37.282-1.814Z" transform="translate(-105.057 -316.146)" fill="#07113d" opacity="0.6"/>
            <path id="Trazado_695957" data-name="Trazado 695957" d="M144.635,360.6H108.782l-3.889-44.455h35.853Z" transform="translate(-104.893 -316.146)" fill="#eaecee"/>
            <path id="Trazado_695958" data-name="Trazado 695958" d="M109.252,319.774a.682.682,0,0,1-.69.756.842.842,0,0,1-.822-.756.682.682,0,0,1,.69-.756A.841.841,0,0,1,109.252,319.774Z" transform="translate(-106.838 -318.111)" fill="#061d48"/>
            <path id="Trazado_695959" data-name="Trazado 695959" d="M212.217,319.774a.682.682,0,0,1-.69.756.842.842,0,0,1-.822-.756.682.682,0,0,1,.69-.756A.841.841,0,0,1,212.217,319.774Z" transform="translate(-177.277 -318.111)" fill="#061d48"/>
            <g id="Grupo_957780" data-name="Grupo 957780" transform="translate(11.075 16.639)">
              <g id="Grupo_957779" data-name="Grupo 957779">
                <path id="Trazado_695960" data-name="Trazado 695960" d="M140.589,376.466l-.638-7.294h2.5l4.861,7.294Z" transform="translate(-139.951 -369.06)" fill="#eaa64f"/>
                <path id="Trazado_695961" data-name="Trazado 695961" d="M154.508,368.868l4.381,7.294,3.463.1-.551-7.39Z" transform="translate(-149.91 -368.852)" fill="#061d48"/>
                <path id="Trazado_695962" data-name="Trazado 695962" d="M190.855,372.521a3.339,3.339,0,0,1-3.379,3.7,4.123,4.123,0,0,1-4.027-3.7,3.339,3.339,0,0,1,3.379-3.7A4.122,4.122,0,0,1,190.855,372.521Z" transform="translate(-169.698 -368.818)" fill="#d93838"/>
              </g>
              <path id="Trazado_695963" data-name="Trazado 695963" d="M162.787,398H143.855l-.092-1.047H162.7Z" transform="translate(-142.559 -388.068)" fill="#061d48"/>
            </g>
          </g>
          <g id="Grupo_957799" data-name="Grupo 957799" transform="translate(98.985)">
            <g id="Grupo_957798" data-name="Grupo 957798">
              <line id="Línea_184" data-name="Línea 184" x1="12.84" y1="51.788" transform="translate(24.538 19.277)" fill="none" stroke="#5d637f" stroke-linecap="round" stroke-miterlimit="10" stroke-width="9.646"/>
              <line id="Línea_185" data-name="Línea 185" x1="11.667" y1="47.059" transform="translate(37.378 71.065)" fill="none" stroke="#9a92ae" stroke-linecap="round" stroke-miterlimit="10" stroke-width="9.646"/>
              <line id="Línea_186" data-name="Línea 186" y2="40.301" transform="translate(24.834 77.032)" fill="none" stroke="#9a92ae" stroke-linecap="round" stroke-miterlimit="10" stroke-width="9.646"/>
              <path id="Trazado_696004" data-name="Trazado 696004" d="M454.156,428.456l13.488-53.6v58.487" transform="translate(-442.81 -356.307)" fill="none" stroke="#5d637f" stroke-linecap="round" stroke-miterlimit="10" stroke-width="9.646"/>
              <line id="Línea_187" data-name="Línea 187" y1="45.092" x2="11.346" transform="translate(0 72.149)" fill="none" stroke="#9a92ae" stroke-linecap="round" stroke-miterlimit="10" stroke-width="9.646"/>
              <path id="Trazado_696005" data-name="Trazado 696005" d="M472.148,316.146c0,1.059,1.588,46.043,1.588,46.043l-40.6-1.588Z" transform="translate(-428.43 -316.146)" fill="#07113d" opacity="0.6"/>
              <rect id="Rectángulo_342277" data-name="Rectángulo 342277" width="39.012" height="44.455" transform="translate(4.706)" fill="#eaecee"/>
              <path id="Trazado_696006" data-name="Trazado 696006" d="M550.008,319.774a.756.756,0,1,1-.756-.756A.756.756,0,0,1,550.008,319.774Z" transform="translate(-507.348 -318.111)" fill="#061d48"/>
              <rect id="Rectángulo_342278" data-name="Rectángulo 342278" width="29.41" height="4.234" transform="translate(9.167 8.921)" fill="#9995a7"/>
              <g id="Grupo_957794" data-name="Grupo 957794" transform="translate(10.102 9.66)">
                <g id="Grupo_957793" data-name="Grupo 957793">
                  <path id="Trazado_696007" data-name="Trazado 696007" d="M450.217,348.635v-1.822h.623l1.055,1.822Z" transform="translate(-450.217 -346.785)" fill="#eaa64f"/>
                  <path id="Trazado_696008" data-name="Trazado 696008" d="M453.86,346.737l.935,1.822.863.024.024-1.846Z" transform="translate(-452.709 -346.733)" fill="#061d48"/>
                  <circle id="Elipse_7867" data-name="Elipse 7867" cx="0.925" cy="0.925" r="0.925" transform="translate(3.357)" fill="#d93838"/>
                </g>
                <rect id="Rectángulo_342279" data-name="Rectángulo 342279" width="4.729" height="0.262" transform="translate(0.109 2.22)" fill="#061d48"/>
              </g>
              <rect id="Rectángulo_342280" data-name="Rectángulo 342280" width="10.131" height="5.746" transform="translate(9.091 14.062)" fill="#061d48"/>
              <rect id="Rectángulo_342281" data-name="Rectángulo 342281" width="10.131" height="5.746" transform="translate(20.885 21.32)" fill="#9995a7"/>
              <rect id="Rectángulo_342282" data-name="Rectángulo 342282" width="6.334" height="5.746" transform="translate(32.453 14.062)" fill="#9995a7"/>
              <rect id="Rectángulo_342283" data-name="Rectángulo 342283" width="6.334" height="5.746" transform="translate(32.453 21.434)" fill="#d93838"/>
              <g id="Grupo_957795" data-name="Grupo 957795" transform="translate(20.961 14.265)">
                <rect id="Rectángulo_342284" data-name="Rectángulo 342284" width="10.131" height="0.412" transform="translate(0 5.132)" fill="#061d48"/>
                <rect id="Rectángulo_342285" data-name="Rectángulo 342285" width="10.131" height="0.412" transform="translate(0 4.399)" fill="#061d48"/>
                <rect id="Rectángulo_342286" data-name="Rectángulo 342286" width="10.131" height="0.412" transform="translate(0 3.666)" fill="#061d48"/>
                <rect id="Rectángulo_342287" data-name="Rectángulo 342287" width="10.131" height="0.412" transform="translate(0 2.932)" fill="#061d48"/>
                <rect id="Rectángulo_342288" data-name="Rectángulo 342288" width="10.131" height="0.412" transform="translate(0 2.199)" fill="#061d48"/>
                <rect id="Rectángulo_342289" data-name="Rectángulo 342289" width="10.131" height="0.412" transform="translate(0 1.466)" fill="#061d48"/>
                <rect id="Rectángulo_342290" data-name="Rectángulo 342290" width="10.131" height="0.412" transform="translate(0 0.733)" fill="#061d48"/>
                <rect id="Rectángulo_342291" data-name="Rectángulo 342291" width="10.131" height="0.412" fill="#061d48"/>
              </g>
              <rect id="Rectángulo_342292" data-name="Rectángulo 342292" width="10.131" height="5.746" transform="translate(9.091 28.465)" fill="#d93838"/>
              <rect id="Rectángulo_342293" data-name="Rectángulo 342293" width="6.334" height="5.746" transform="translate(32.453 28.465)" fill="#9995a7"/>
              <g id="Grupo_957796" data-name="Grupo 957796" transform="translate(20.961 28.667)">
                <rect id="Rectángulo_342294" data-name="Rectángulo 342294" width="10.131" height="0.412" transform="translate(0 5.132)" fill="#061d48"/>
                <rect id="Rectángulo_342295" data-name="Rectángulo 342295" width="10.131" height="0.412" transform="translate(0 4.399)" fill="#061d48"/>
                <rect id="Rectángulo_342296" data-name="Rectángulo 342296" width="10.131" height="0.412" transform="translate(0 3.666)" fill="#061d48"/>
                <rect id="Rectángulo_342297" data-name="Rectángulo 342297" width="10.131" height="0.412" transform="translate(0 2.932)" fill="#061d48"/>
                <rect id="Rectángulo_342298" data-name="Rectángulo 342298" width="10.131" height="0.412" transform="translate(0 2.199)" fill="#061d48"/>
                <rect id="Rectángulo_342299" data-name="Rectángulo 342299" width="10.131" height="0.412" transform="translate(0 1.466)" fill="#061d48"/>
                <rect id="Rectángulo_342300" data-name="Rectángulo 342300" width="10.131" height="0.412" transform="translate(0 0.733)" fill="#061d48"/>
                <rect id="Rectángulo_342301" data-name="Rectángulo 342301" width="10.131" height="0.412" transform="translate(0)" fill="#061d48"/>
              </g>
              <g id="Grupo_957797" data-name="Grupo 957797" transform="translate(9.053 21.296)">
                <rect id="Rectángulo_342302" data-name="Rectángulo 342302" width="10.131" height="0.412" transform="translate(0 5.132)" fill="#061d48"/>
                <rect id="Rectángulo_342303" data-name="Rectángulo 342303" width="10.131" height="0.412" transform="translate(0 4.399)" fill="#061d48"/>
                <rect id="Rectángulo_342304" data-name="Rectángulo 342304" width="10.131" height="0.412" transform="translate(0 3.666)" fill="#061d48"/>
                <rect id="Rectángulo_342305" data-name="Rectángulo 342305" width="10.131" height="0.412" transform="translate(0 2.932)" fill="#061d48"/>
                <rect id="Rectángulo_342306" data-name="Rectángulo 342306" width="10.131" height="0.412" transform="translate(0 2.199)" fill="#061d48"/>
                <rect id="Rectángulo_342307" data-name="Rectángulo 342307" width="10.131" height="0.412" transform="translate(0 1.466)" fill="#061d48"/>
                <rect id="Rectángulo_342308" data-name="Rectángulo 342308" width="10.131" height="0.412" transform="translate(0 0.733)" fill="#061d48"/>
                <rect id="Rectángulo_342309" data-name="Rectángulo 342309" width="10.131" height="0.412" fill="#061d48"/>
              </g>
            </g>
            <path id="Trazado_696009" data-name="Trazado 696009" d="M437.042,319.774a.756.756,0,1,1-.756-.756A.756.756,0,0,1,437.042,319.774Z" transform="translate(-430.068 -318.111)" fill="#061d48"/>
          </g>
        </g>
        <g id="Grupo_957822" data-name="Grupo 957822" transform="translate(0)">
          <g id="Grupo_957803" data-name="Grupo 957803">
            <path id="Trazado_696010" data-name="Trazado 696010" d="M124.017,349.551H83.3a3.59,3.59,0,0,1-3.507-3.225l-5.384-59.983a2.908,2.908,0,0,1,2.943-3.225h40.719a3.59,3.59,0,0,1,3.507,3.225l5.385,59.983A2.908,2.908,0,0,1,124.017,349.551Z" transform="translate(-74.393 -283.118)" fill="#562b2b"/>
            <path id="Trazado_696011" data-name="Trazado 696011" d="M132.633,349.551H91.913a3.59,3.59,0,0,1-3.507-3.225l-5.384-59.983a2.908,2.908,0,0,1,2.943-3.225h40.719a3.59,3.59,0,0,1,3.507,3.225l5.385,59.983A2.908,2.908,0,0,1,132.633,349.551Z" transform="translate(-80.288 -283.118)" fill="#894343"/>
            <path id="Trazado_696012" data-name="Trazado 696012" d="M105.132,316.146c.093,1.059,2.46,46.27,2.46,46.27l37.282-1.814Z" transform="translate(-95.422 -305.713)" fill="#562b2b"/>
            <path id="Trazado_696013" data-name="Trazado 696013" d="M144.635,360.6H108.782l-3.889-44.455h35.853Z" transform="translate(-95.258 -305.713)" fill="#fff"/>
            <path id="Trazado_696014" data-name="Trazado 696014" d="M109.252,319.774a.682.682,0,0,1-.69.756.842.842,0,0,1-.822-.756.682.682,0,0,1,.69-.756A.841.841,0,0,1,109.252,319.774Z" transform="translate(-97.204 -307.677)" fill="#061d48"/>
            <path id="Trazado_696015" data-name="Trazado 696015" d="M212.217,319.774a.682.682,0,0,1-.69.756.842.842,0,0,1-.822-.756.682.682,0,0,1,.69-.756A.841.841,0,0,1,212.217,319.774Z" transform="translate(-167.643 -307.677)" fill="#061d48"/>
            <g id="Grupo_957802" data-name="Grupo 957802" transform="translate(20.709 27.072)">
              <g id="Grupo_957801" data-name="Grupo 957801">
                <path id="Trazado_696016" data-name="Trazado 696016" d="M140.589,376.466l-.638-7.294h2.5l4.861,7.294Z" transform="translate(-139.951 -369.06)" fill="#ffc536"/>
                <path id="Trazado_696017" data-name="Trazado 696017" d="M154.508,368.868l4.381,7.294,3.463.1-.551-7.39Z" transform="translate(-149.91 -368.852)" fill="#3b67b7"/>
                <path id="Trazado_696018" data-name="Trazado 696018" d="M190.855,372.521a3.339,3.339,0,0,1-3.379,3.7,4.123,4.123,0,0,1-4.027-3.7,3.339,3.339,0,0,1,3.379-3.7A4.122,4.122,0,0,1,190.855,372.521Z" transform="translate(-169.698 -368.818)" fill="#d93838"/>
              </g>
              <path id="Trazado_696019" data-name="Trazado 696019" d="M161.638,400.63H142.706l-.092-1.047h18.932Z" transform="translate(-141.773 -389.865)" fill="#3b67b7"/>
            </g>
          </g>
          <g id="Grupo_957821" data-name="Grupo 957821" transform="translate(106.739 0)">
            <g id="Grupo_957820" data-name="Grupo 957820">
              <path id="Trazado_696061" data-name="Trazado 696061" d="M461.6,349.905h-46.09a3.225,3.225,0,0,1-3.225-3.225V286.344a3.225,3.225,0,0,1,3.225-3.225H461.6a3.225,3.225,0,0,1,3.225,3.225V346.68A3.225,3.225,0,0,1,461.6,349.905Z" transform="translate(-412.288 -283.119)" fill="#894343"/>
              <path id="Trazado_696062" data-name="Trazado 696062" d="M472.148,316.146c0,1.059,1.588,46.043,1.588,46.043l-40.6-1.588Z" transform="translate(-426.55 -305.713)" fill="#562b2b"/>
              <rect id="Rectángulo_342310" data-name="Rectángulo 342310" width="39.012" height="44.455" transform="translate(6.586 10.433)" fill="#fff"/>
              <path id="Trazado_696063" data-name="Trazado 696063" d="M550.008,319.774a.756.756,0,1,1-.756-.756A.756.756,0,0,1,550.008,319.774Z" transform="translate(-505.469 -307.678)" fill="#061d48"/>
              <rect id="Rectángulo_342311" data-name="Rectángulo 342311" width="29.41" height="4.234" transform="translate(11.047 18.091)" fill="#4d87db"/>
              <g id="Grupo_957816" data-name="Grupo 957816" transform="translate(11.929 19.04)">
                <g id="Grupo_957815" data-name="Grupo 957815">
                  <path id="Trazado_696064" data-name="Trazado 696064" d="M450.051,345.3v-1.822h.623l1.055,1.822Z" transform="translate(-450.051 -343.451)" fill="#ffc05a"/>
                  <path id="Trazado_696065" data-name="Trazado 696065" d="M453.694,343.4l.935,1.822.863.024.024-1.846Z" transform="translate(-452.543 -343.399)" fill="#fff"/>
                  <path id="Trazado_696066" data-name="Trazado 696066" d="M462.526,344.316a.925.925,0,1,1-.925-.925A.925.925,0,0,1,462.526,344.316Z" transform="translate(-457.32 -343.391)" fill="#fc4c4c"/>
                </g>
                <rect id="Rectángulo_342312" data-name="Rectángulo 342312" width="4.729" height="0.262" transform="translate(0.109 2.22)" fill="#fff"/>
              </g>
              <rect id="Rectángulo_342313" data-name="Rectángulo 342313" width="10.131" height="5.746" transform="translate(10.971 24.495)" fill="#061d48"/>
              <rect id="Rectángulo_342314" data-name="Rectángulo 342314" width="10.131" height="5.746" transform="translate(22.765 31.754)" fill="#9995a7"/>
              <rect id="Rectángulo_342315" data-name="Rectángulo 342315" width="6.334" height="5.746" transform="translate(34.332 24.495)" fill="#9995a7"/>
              <rect id="Rectángulo_342316" data-name="Rectángulo 342316" width="6.334" height="5.746" transform="translate(34.332 31.867)" fill="#d93838"/>
              <g id="Grupo_957817" data-name="Grupo 957817" transform="translate(22.841 24.698)">
                <rect id="Rectángulo_342317" data-name="Rectángulo 342317" width="10.131" height="0.412" transform="translate(0 4.399)" fill="#061d48"/>
                <rect id="Rectángulo_342318" data-name="Rectángulo 342318" width="10.131" height="0.412" transform="translate(0 2.932)" fill="#061d48"/>
                <rect id="Rectángulo_342319" data-name="Rectángulo 342319" width="10.131" height="0.412" transform="translate(0 1.466)" fill="#061d48"/>
                <rect id="Rectángulo_342320" data-name="Rectángulo 342320" width="10.131" height="0.412" fill="#061d48"/>
              </g>
              <rect id="Rectángulo_342321" data-name="Rectángulo 342321" width="10.131" height="5.746" transform="translate(10.971 38.898)" fill="#d93838"/>
              <rect id="Rectángulo_342322" data-name="Rectángulo 342322" width="6.334" height="5.746" transform="translate(34.332 38.898)" fill="#9995a7"/>
              <g id="Grupo_957818" data-name="Grupo 957818" transform="translate(22.84 39.1)">
                <rect id="Rectángulo_342323" data-name="Rectángulo 342323" width="10.131" height="0.412" transform="translate(0 4.399)" fill="#061d48"/>
                <rect id="Rectángulo_342324" data-name="Rectángulo 342324" width="10.131" height="0.412" transform="translate(0 2.932)" fill="#061d48"/>
                <rect id="Rectángulo_342325" data-name="Rectángulo 342325" width="10.131" height="0.412" transform="translate(0 1.466)" fill="#061d48"/>
                <rect id="Rectángulo_342326" data-name="Rectángulo 342326" width="10.131" height="0.412" transform="translate(0)" fill="#061d48"/>
              </g>
              <g id="Grupo_957819" data-name="Grupo 957819" transform="translate(10.933 31.729)">
                <rect id="Rectángulo_342327" data-name="Rectángulo 342327" width="10.131" height="0.412" transform="translate(0 4.399)" fill="#061d48"/>
                <rect id="Rectángulo_342328" data-name="Rectángulo 342328" width="10.131" height="0.412" transform="translate(0 2.932)" fill="#061d48"/>
                <rect id="Rectángulo_342329" data-name="Rectángulo 342329" width="10.131" height="0.412" transform="translate(0 1.466)" fill="#061d48"/>
                <rect id="Rectángulo_342330" data-name="Rectángulo 342330" width="10.131" height="0.412" fill="#061d48"/>
              </g>
            </g>
            <path id="Trazado_696067" data-name="Trazado 696067" d="M437.042,319.774a.756.756,0,1,1-.756-.756A.756.756,0,0,1,437.042,319.774Z" transform="translate(-428.188 -307.678)" fill="#061d48"/>
          </g>
        </g>
      </g>
      <line id="Línea_188" data-name="Línea 188" x1="10.976" y1="44.27" transform="translate(93.791 309.294)" fill="none" stroke="#9a92ae" stroke-linecap="round" stroke-miterlimit="10" stroke-width="9.646"/>
      <line id="Línea_189" data-name="Línea 189" y2="42.512" transform="translate(80.556 310.261)" fill="none" stroke="#9a92ae" stroke-linecap="round" stroke-miterlimit="10" stroke-width="9.646"/>
      <line id="Línea_190" data-name="Línea 190" y1="33.835" x2="8.514" transform="translate(55.723 318.846)" fill="none" stroke="#9a92ae" stroke-linecap="round" stroke-miterlimit="10" stroke-width="9.646"/>
      <g id="Grupo_957857" data-name="Grupo 957857" transform="translate(113.911 198.173)">
        <g id="Grupo_957840" data-name="Grupo 957840" transform="translate(0.063)">
          <g id="Grupo_957825" data-name="Grupo 957825" transform="translate(18.798 42.258)">
            <path id="Trazado_696068" data-name="Trazado 696068" d="M445.9,332.553l-3.382,3.515a.98.98,0,0,0-.036,1.388l.069.065a1,1,0,0,0,1.4-.1l3.382-3.515a.981.981,0,0,0,.037-1.388l-.069-.065A1,1,0,0,0,445.9,332.553Z" transform="translate(-402.864 -332.128)" fill="#f4a891"/>
            <path id="Trazado_696069" data-name="Trazado 696069" d="M444.795,346.1s2.968-1.324,3.834-1.684c1.676-.7,2.367-1.45,2.093-2.556l-1.177-2.026c-.824-1.012-1.265-1.449-2.368-1.16l-3.632.951a2.112,2.112,0,0,0-1.508,2.536l.547,2.208C442.858,345.473,443.691,346.387,444.795,346.1Z" transform="translate(-402.703 -336.486)" fill="#f4a891"/>
            <path id="Trazado_696070" data-name="Trazado 696070" d="M459.292,335.5l3.838-1.9c.629-.288,1-.859.815-1.269h0c-.181-.409-.843-.508-1.472-.22l-3.838,1.9c-.629.288-1,.859-.815,1.269h0C458,335.69,458.663,335.789,459.292,335.5Z" transform="translate(-413.51 -331.944)" fill="#f4a891"/>
            <path id="Trazado_696071" data-name="Trazado 696071" d="M464.545,339.815l3.837-1.9c.629-.288,1-.86.815-1.269h0c-.181-.409-.843-.508-1.471-.22l-3.838,1.9c-.629.288-1,.86-.815,1.269h0C463.254,340,463.916,340.1,464.545,339.815Z" transform="translate(-417.104 -334.896)" fill="#f4a891"/>
            <path id="Trazado_696072" data-name="Trazado 696072" d="M463.838,347.065l3.837-1.9c.629-.288,1-.86.815-1.269h0c-.181-.409-.843-.508-1.472-.22l-3.838,1.9c-.629.288-1,.86-.815,1.269h0C462.547,347.255,463.209,347.354,463.838,347.065Z" transform="translate(-416.62 -339.856)" fill="#f4a891"/>
            <g id="Grupo_957824" data-name="Grupo 957824" transform="translate(0 0.988)">
              <path id="Trazado_696073" data-name="Trazado 696073" d="M343.963,348.184a23.245,23.245,0,0,0,5.027-.634,21.406,21.406,0,0,0,2.6-.8l9.253-3.5a2.545,2.545,0,0,0,1.258-1,2.821,2.821,0,0,0-.037-2.957c-.907-1.586-2.338-1.173-3.918-.574l-8.9,2.823a20.484,20.484,0,0,1-5.621.845,31.12,31.12,0,0,1-14.151-3.249l-7.072-3.625a3.307,3.307,0,0,0-4.455.969,3.109,3.109,0,0,0,1.682,4.115l7.073,3.627A35.417,35.417,0,0,0,343.963,348.184Z" transform="translate(-317.653 -335.07)" fill="#f4a891"/>
            </g>
            <path id="Trazado_696074" data-name="Trazado 696074" d="M396.125,358.007l.331,5.791a23.03,23.03,0,0,0,5.014-.461l-1.993-5.51Z" transform="translate(-371.336 -349.651)" fill="#f4a891"/>
          </g>
          <path id="Trazado_696075" data-name="Trazado 696075" d="M260.835,205.707a6.813,6.813,0,1,0,6.054-7.495A6.812,6.812,0,0,0,260.835,205.707Z" transform="translate(-259.959 -198.173)" fill="#b95241"/>
          <path id="Trazado_696076" data-name="Trazado 696076" d="M274.671,233.765a17.374,17.374,0,0,0,.045-2.465c-.018-4.231-.037-12.477,1.163-13.106,3.3-1.724,16.694,7.688,17.518,3.99a12.717,12.717,0,0,0,.308-2.679c0-.191,0-.382-.009-.57a12.733,12.733,0,0,0-2.617-7.308l0,0a12.763,12.763,0,0,0-10.608-5.007c-.2.006-.387.019-.582.032a13.22,13.22,0,0,0-11.387,8.306,13.936,13.936,0,0,0-.952,4.85C267.331,230.419,273.42,231.872,274.671,233.765Z" transform="translate(-264.573 -203.943)" fill="#db734c"/>
          <path id="Trazado_696077" data-name="Trazado 696077" d="M274.671,251.841a17.374,17.374,0,0,0,.045-2.465l-.1-.34a14.288,14.288,0,0,1-5.462-8.223,21.777,21.777,0,0,1-.659-7.784,13.936,13.936,0,0,0-.952,4.85C267.331,248.495,273.42,249.948,274.671,251.841Z" transform="translate(-264.573 -222.019)" fill="#b95241"/>
          <path id="Trazado_696078" data-name="Trazado 696078" d="M295.552,299.093h0a3.537,3.537,0,0,1-3.88-3.134l-1.634-15.37a3.537,3.537,0,0,1,3.134-3.88h0a3.537,3.537,0,0,1,3.88,3.134l1.634,15.37A3.537,3.537,0,0,1,295.552,299.093Z" transform="translate(-279.949 -251.887)" fill="#f4a891"/>
          <g id="Grupo_957826" data-name="Grupo 957826" transform="translate(6.525 6.443)">
            <path id="Trazado_696079" data-name="Trazado 696079" d="M285.84,235.764c.01.12.025.235.043.355,0,.037.01.076.017.112a10.673,10.673,0,0,0,1.486,4.068c.036.061.075.118.113.179a10.342,10.342,0,0,0,5.054,4.085c.005,0,.008,0,.008,0a9.548,9.548,0,0,0,2.52.563c.32.026.639.041.962.042.109,0,.215-.005.326-.012a.619.619,0,0,0,.067,0,9.068,9.068,0,0,0,1.382-.179,3.563,3.563,0,0,0,.386-.081,10.211,10.211,0,0,0,7.66-9.216,10.747,10.747,0,0,0,.016-1.46l-.045-.749-.285-4.991a12.957,12.957,0,0,0-.286-2.177,8.028,8.028,0,0,0-.512-1.575,10.3,10.3,0,0,0-2.362-3.459,9.976,9.976,0,0,0-7.311-2.69,9.825,9.825,0,0,0-5.524,2.065c-.224.175-.443.359-.653.553a10.346,10.346,0,0,0-2.484,3.483.024.024,0,0,0,0,.01,9.6,9.6,0,0,0-.406,1.082c-.02.067-.041.128-.058.2a11.408,11.408,0,0,0-.335,1.377c-.019.1-.037.21-.053.316a8.6,8.6,0,0,0-.1,1.757l0,.106.023.4.025.444.031.567v.035l.005.1.015.259v.005l.16,2.7.048.893.021.337.008.074c0,.025,0,.047.005.071A3.223,3.223,0,0,0,285.84,235.764Z" transform="translate(-283.351 -218.568)" fill="#ffc7b0"/>
            <path id="Trazado_696080" data-name="Trazado 696080" d="M280.566,263.013a2.093,2.093,0,0,0,.27.023.579.579,0,0,0,.136,0l.284-.015.35-.017-.071-1.342-.017-.3-.135-2.436-.37.02-.268.016a.961.961,0,0,0-.167.018h0a1.974,1.974,0,0,0-.239.043h0a1.932,1.932,0,0,0-1.009.583,1.98,1.98,0,0,0-.524,1.442A2.124,2.124,0,0,0,280.566,263.013Z" transform="translate(-278.799 -246.177)" fill="#ffc4bc"/>
          </g>
          <path id="Trazado_696081" data-name="Trazado 696081" d="M329.231,272.324s-.041.764-1.107.842c-.938.068-1.1-.576-1.1-.576Z" transform="translate(-305.264 -248.9)" fill="#f4a891"/>
          <path id="Trazado_696082" data-name="Trazado 696082" d="M284.644,224.636s17.82-4.365,19.493-.747c0,0,.308-3.891-5.341-7.258s-14.55.886-15.119,2.647a6.918,6.918,0,0,0-.336,3.059Z" transform="translate(-275.349 -209.938)" fill="#db734c"/>
          <g id="Grupo_957827" data-name="Grupo 957827" transform="translate(15.779 16.708)">
            <path id="Trazado_696083" data-name="Trazado 696083" d="M312.232,254.5a4.448,4.448,0,0,0-4.14.787" transform="translate(-308.093 -253.272)" fill="none" stroke="#b95241" stroke-linecap="round" stroke-miterlimit="10" stroke-width="1.171"/>
            <path id="Trazado_696084" data-name="Trazado 696084" d="M337.207,251.3a4.632,4.632,0,0,0-4.164.639" transform="translate(-325.161 -251.063)" fill="none" stroke="#b95241" stroke-linecap="round" stroke-miterlimit="10" stroke-width="1.171"/>
          </g>
          <path id="Trazado_696085" data-name="Trazado 696085" d="M315.583,262.251h0a.471.471,0,0,1-.517-.417l-.092-.864a.471.471,0,0,1,.418-.517h0a.471.471,0,0,1,.517.417l.092.864A.472.472,0,0,1,315.583,262.251Z" transform="translate(-297.02 -240.777)" fill="#07113d"/>
          <path id="Trazado_696086" data-name="Trazado 696086" d="M338.454,259.818h0a.471.471,0,0,1-.517-.418l-.092-.864a.471.471,0,0,1,.418-.517h0a.471.471,0,0,1,.516.417l.092.864A.471.471,0,0,1,338.454,259.818Z" transform="translate(-312.666 -239.113)" fill="#07113d"/>
          <path id="Trazado_696087" data-name="Trazado 696087" d="M328.136,279.469l-4.151.607a2.326,2.326,0,0,0,4.151-.607Z" transform="translate(-303.186 -253.788)" fill="#d93838"/>
          <path id="Trazado_696088" data-name="Trazado 696088" d="M280.566,254.19a2.091,2.091,0,0,0,.27.023.579.579,0,0,0,.137,0l.284-.015a3.288,3.288,0,0,0,.033.351c.01.12.025.235.043.355,0,.037.01.076.017.112a10.673,10.673,0,0,0,1.486,4.068c.036.061.075.118.113.179A10.342,10.342,0,0,0,288,263.349c.005,0,.008,0,.008,0a9.549,9.549,0,0,0,2.52.563c.32.026.639.041.962.042.109,0,.215-.005.326-.012-.512.012-3.5-.35-5.866-3.757-2.563-3.7-3.506-11.014-3.506-11.014a17.95,17.95,0,0,0-.148-3.146c-.059.006-.586.184-1.284.427a8.6,8.6,0,0,0-.1,1.757l0,.106.023.4.025.444.031.567v.035l.005.1.015.259-.268.016a.96.96,0,0,0-.167.018h0a1.973,1.973,0,0,0-.239.043h0a1.932,1.932,0,0,0-1.009.583,1.98,1.98,0,0,0-.524,1.442A2.124,2.124,0,0,0,280.566,254.19Z" transform="translate(-272.275 -230.911)" fill="#f4a891"/>
          <path id="Trazado_696089" data-name="Trazado 696089" d="M341.383,232.384a2.589,2.589,0,1,0,2.3-2.848A2.589,2.589,0,0,0,341.383,232.384Z" transform="translate(-315.078 -219.618)" fill="#db734c"/>
          <path id="Trazado_696090" data-name="Trazado 696090" d="M327,231.82a2.589,2.589,0,1,0,2.3-2.848A2.589,2.589,0,0,0,327,231.82Z" transform="translate(-305.236 -219.232)" fill="#db734c"/>
          <path id="Trazado_696091" data-name="Trazado 696091" d="M311.4,232.76a2.589,2.589,0,1,0,2.3-2.848A2.589,2.589,0,0,0,311.4,232.76Z" transform="translate(-294.563 -219.875)" fill="#db734c"/>
          <path id="Trazado_696092" data-name="Trazado 696092" d="M295.245,235.915a2.589,2.589,0,1,0,2.3-2.848A2.589,2.589,0,0,0,295.245,235.915Z" transform="translate(-283.515 -222.034)" fill="#db734c"/>
          <path id="Trazado_696093" data-name="Trazado 696093" d="M283.54,232.743l-2.007,9.054a.577.577,0,0,1-1.1.1l-2.853-6.864S279.714,227.859,283.54,232.743Z" transform="translate(-271.442 -220.657)" fill="#db734c"/>
          <g id="Grupo_957835" data-name="Grupo 957835" transform="translate(4.285 85.023)">
            <path id="Trazado_696094" data-name="Trazado 696094" d="M289.709,476.4l-9.215.7c-4.071.309-7.583-1.557-7.807-4.308l.055-5.055,23.433-.41.3,3.657C296.7,473.731,293.78,476.086,289.709,476.4Z" transform="translate(-272.378 -467.323)" fill="#07113d"/>
            <g id="Grupo_957831" data-name="Grupo 957831" transform="translate(13.906 2.79)">
              <g id="Grupo_957829" data-name="Grupo 957829" transform="translate(2.433 60.813)">
                <path id="Trazado_696095" data-name="Trazado 696095" d="M325.079,685.9h.6a.647.647,0,0,0,.647-.647v-9.026l-2.7.566.816,8.522A.646.646,0,0,0,325.079,685.9Z" transform="translate(-323.561 -673.839)" fill="#07113d"/>
                <g id="Grupo_957828" data-name="Grupo 957828">
                  <path id="Trazado_696096" data-name="Trazado 696096" d="M331.514,672.078l3.223,5.722a3.126,3.126,0,0,0,2.545,1.5h0a1.624,1.624,0,0,1,1.556,1.531v0a1.623,1.623,0,0,1-1.636,1.724l-2.61,0a5.361,5.361,0,0,1-3.652-1.445l-7.059-6.59a2.227,2.227,0,0,1-.435-1.561h0A2.2,2.2,0,0,1,325.967,671Z" transform="translate(-323.434 -670.242)" fill="#07113d"/>
                  <path id="Trazado_696097" data-name="Trazado 696097" d="M332.032,669.77l3.223,5.722a3.127,3.127,0,0,0,2.545,1.5h0a1.624,1.624,0,0,1,1.556,1.531v0a1.624,1.624,0,0,1-1.636,1.724l-1.87,0a7.246,7.246,0,0,1-4.935-1.952l-6.516-6.083a2.227,2.227,0,0,1-.435-1.56h0a2.2,2.2,0,0,1,2.522-1.967Z" transform="translate(-323.788 -668.663)" fill="#b95241"/>
                  <line id="Línea_191" data-name="Línea 191" x1="1.455" y2="0.886" transform="translate(9.272 5.368)" fill="none" stroke="#07113d" stroke-linecap="round" stroke-miterlimit="10" stroke-width="1.271"/>
                  <line id="Línea_192" data-name="Línea 192" x1="1.455" y2="0.886" transform="translate(8.679 4.223)" fill="none" stroke="#07113d" stroke-linecap="round" stroke-miterlimit="10" stroke-width="1.271"/>
                  <line id="Línea_193" data-name="Línea 193" x1="1.455" y2="0.887" transform="translate(8.093 3.128)" fill="none" stroke="#07113d" stroke-linecap="round" stroke-miterlimit="10" stroke-width="1.271"/>
                </g>
              </g>
              <g id="Grupo_957830" data-name="Grupo 957830">
                <path id="Trazado_696098" data-name="Trazado 696098" d="M326.153,537.984l-7.059.153,2.234-25.01a10,10,0,0,0,.049-2.65l-5.646-33.161,10.07-1.162,4.739,31.763a20.951,20.951,0,0,1-.1,5.54Z" transform="translate(-315.731 -476.154)" fill="#07113d"/>
              </g>
              <rect id="Rectángulo_342331" data-name="Rectángulo 342331" width="8.366" height="1.765" transform="translate(11.141 62.092) rotate(180)" fill="#9995a7"/>
            </g>
            <g id="Grupo_957834" data-name="Grupo 957834" transform="translate(0 2.596)">
              <g id="Grupo_957833" data-name="Grupo 957833" transform="translate(0 61.529)">
                <path id="Trazado_696099" data-name="Trazado 696099" d="M273.353,687.558h.6a.647.647,0,0,0,.647-.647v-9.026l-2.7.566.815,8.522A.647.647,0,0,0,273.353,687.558Z" transform="translate(-271.836 -675.495)" fill="#07113d"/>
                <g id="Grupo_957832" data-name="Grupo 957832">
                  <path id="Trazado_696100" data-name="Trazado 696100" d="M279.789,673.734l3.223,5.722a3.126,3.126,0,0,0,2.545,1.5h0a1.624,1.624,0,0,1,1.556,1.531v0a1.623,1.623,0,0,1-1.636,1.724l-2.61,0a5.362,5.362,0,0,1-3.652-1.445l-7.059-6.59a2.227,2.227,0,0,1-.435-1.561h0a2.2,2.2,0,0,1,2.522-1.966Z" transform="translate(-271.71 -671.897)" fill="#07113d"/>
                  <path id="Trazado_696101" data-name="Trazado 696101" d="M280.305,671.425l3.223,5.722a3.127,3.127,0,0,0,2.545,1.5h0a1.623,1.623,0,0,1,1.556,1.531v0a1.624,1.624,0,0,1-1.636,1.724l-1.87,0a7.246,7.246,0,0,1-4.935-1.952l-6.516-6.083a2.227,2.227,0,0,1-.435-1.561h0a2.2,2.2,0,0,1,2.522-1.966Z" transform="translate(-272.062 -670.318)" fill="#b95241"/>
                  <line id="Línea_194" data-name="Línea 194" x1="1.455" y2="0.886" transform="translate(9.272 5.368)" fill="none" stroke="#07113d" stroke-linecap="round" stroke-miterlimit="10" stroke-width="1.271"/>
                  <line id="Línea_195" data-name="Línea 195" x1="1.455" y2="0.886" transform="translate(8.679 4.223)" fill="none" stroke="#07113d" stroke-linecap="round" stroke-miterlimit="10" stroke-width="1.271"/>
                  <line id="Línea_196" data-name="Línea 196" x1="1.455" y2="0.886" transform="translate(8.092 3.128)" fill="none" stroke="#07113d" stroke-linecap="round" stroke-miterlimit="10" stroke-width="1.271"/>
                </g>
              </g>
              <path id="Trazado_696102" data-name="Trazado 696102" d="M280.608,538.022l-7.037.044-.436-61.922,11.713-.6Z" transform="translate(-272.685 -475.541)" fill="#07113d"/>
              <rect id="Rectángulo_342332" data-name="Rectángulo 342332" width="7.908" height="1.83" transform="translate(8.315 62.677) rotate(180)" fill="#9995a7"/>
            </g>
          </g>
          <rect id="Rectángulo_342333" data-name="Rectángulo 342333" width="22.44" height="2.343" transform="translate(26.863 86.437) rotate(180)" fill="#2c3765"/>
          <path id="Trazado_696103" data-name="Trazado 696103" d="M267.3,361.624l1.573,26.413,6.864.37s.247-14.179.37-18.495-5.178-16.769-5.178-16.769A72.862,72.862,0,0,0,267.3,361.624Z" transform="translate(-264.405 -304.189)" fill="#591239" opacity="0.37"/>
          <g id="Grupo_957839" data-name="Grupo 957839" transform="translate(0 43.418)">
            <g id="Grupo_957837" data-name="Grupo 957837" transform="translate(13.483 34.859)">
              <path id="Trazado_696104" data-name="Trazado 696104" d="M316.759,457.146l-4.6-1.636a.98.98,0,0,0-1.28.538l-.031.089a1,1,0,0,0,.669,1.232l4.6,1.636a.98.98,0,0,0,1.28-.538l.031-.089A1,1,0,0,0,316.759,457.146Z" transform="translate(-307.653 -452.451)" fill="#ffc7b0"/>
              <g id="Grupo_957836" data-name="Grupo 957836" transform="translate(1.711)">
                <path id="Trazado_696105" data-name="Trazado 696105" d="M306.62,463.7a2.51,2.51,0,0,0,.744.772l8.078,5.448a2.546,2.546,0,0,0,3.536-.688l9.336-13.84a2.545,2.545,0,0,0-.688-3.536l-.09-.062-7.988-5.385a2.548,2.548,0,0,0-3.536.685l-3.583,5.311-3.574,5.3-2.179,3.231A2.555,2.555,0,0,0,306.62,463.7Z" transform="translate(-306.242 -445.969)" fill="#c2c2c7"/>
                <path id="Trazado_696106" data-name="Trazado 696106" d="M346.634,471.258a1.034,1.034,0,1,0,1.542-.444A1.147,1.147,0,0,0,346.634,471.258Z" transform="translate(-333.694 -462.861)" fill="#fff"/>
              </g>
              <path id="Trazado_696107" data-name="Trazado 696107" d="M314.515,471.629l3.405,2.948c.56.517,1.283.629,1.6.252a.7.7,0,0,0,.156-.464,1.684,1.684,0,0,0-.591-1.164l-2.366-2.048.208-.305,3.334,2.892c.56.51,1.283.625,1.6.246a.7.7,0,0,0,.156-.464,1.685,1.685,0,0,0-.591-1.161l-3.483-3.02.028-.047c.047-.1.094-.2.137-.292l2.749,2.382c.564.517,1.289.629,1.609.249a.706.706,0,0,0,.153-.464,1.692,1.692,0,0,0-.591-1.161l-3.564-3.088a.34.34,0,0,0-.053-.044,2.473,2.473,0,0,0-.327-.548Z" transform="translate(-310.191 -459.897)" fill="#2c3765" opacity="0.6"/>
              <path id="Trazado_696108" data-name="Trazado 696108" d="M301.17,460.152s2.428,2.16,3.113,2.8c1.325,1.241,2.3,1.561,3.191.856l1.362-1.907c.584-1.167.8-1.749.083-2.636l-2.361-2.919a2.113,2.113,0,0,0-2.932-.331l-1.788,1.407C300.943,458.13,300.453,459.265,301.17,460.152Z" transform="translate(-300.826 -452.539)" fill="#ffc7b0"/>
              <path id="Trazado_696109" data-name="Trazado 696109" d="M323,469.3l3.313,2.715c.522.454,1.193.554,1.492.221h0c.3-.333.116-.977-.405-1.432l-3.313-2.715c-.522-.454-1.193-.554-1.492-.221h0C322.3,468.2,322.483,468.847,323,469.3Z" transform="translate(-315.623 -460.816)" fill="#ffc7b0"/>
              <path id="Trazado_696110" data-name="Trazado 696110" d="M321.233,475.863l3.313,2.715c.522.454,1.193.554,1.492.221h0c.3-.333.116-.977-.405-1.432l-3.313-2.715c-.522-.454-1.193-.554-1.492-.221h0C320.529,474.764,320.711,475.409,321.233,475.863Z" transform="translate(-314.411 -465.305)" fill="#ffc7b0"/>
              <path id="Trazado_696111" data-name="Trazado 696111" d="M314.335,478.2l3.313,2.715c.522.454,1.193.554,1.492.221h0c.3-.333.116-.977-.405-1.432l-3.313-2.715c-.522-.455-1.193-.554-1.492-.221h0C313.631,477.1,313.813,477.749,314.335,478.2Z" transform="translate(-309.692 -466.906)" fill="#ffc7b0"/>
            </g>
            <g id="Grupo_957838" data-name="Grupo 957838" transform="translate(0.682 1.444)">
              <path id="Trazado_696112" data-name="Trazado 696112" d="M262.862,368.682a23.242,23.242,0,0,0,2.647,4.32,21.328,21.328,0,0,0,1.8,2.043l7,6.993a2.547,2.547,0,0,0,1.425.736,2.822,2.822,0,0,0,2.68-1.25c1.072-1.48.106-2.614-1.089-3.807l-6.234-6.946A20.47,20.47,0,0,1,268,366a22.13,22.13,0,0,1-1.409-13.918l1.655-7.772a3.306,3.306,0,0,0-2.1-4.048,3.109,3.109,0,0,0-3.535,2.7l-1.657,7.774A28.352,28.352,0,0,0,262.862,368.682Z" transform="translate(-260.302 -340.19)" fill="#ffc7b0"/>
            </g>
            <path id="Trazado_696113" data-name="Trazado 696113" d="M271.862,418.513,266.72,421.2a23.031,23.031,0,0,0,2.484,4.38l4.2-4.084Z" transform="translate(-264.011 -392.327)" fill="#f4a891"/>
            <path id="Trazado_696114" data-name="Trazado 696114" d="M265.349,357.228c-.034-.234-.868-1.5.237-6.471s2.446-10.18,1.5-12.626-3.788-3.867-5.682-.631-3.472,15.231-3.235,19.176,2.92,9.785,2.92,9.785l6.313-3.946A15.742,15.742,0,0,1,265.349,357.228Z" transform="translate(-258.144 -335.618)" fill="#d93838"/>
          </g>
        </g>
        <g id="Grupo_957856" data-name="Grupo 957856" transform="translate(0 2.664)">
          <g id="Grupo_957842" data-name="Grupo 957842" transform="translate(17.452 37.76)">
            <path id="Trazado_696115" data-name="Trazado 696115" d="M445.9,332.553l-3.382,3.515a.98.98,0,0,0-.036,1.388l.069.065a1,1,0,0,0,1.4-.1l3.382-3.515a.981.981,0,0,0,.037-1.388l-.069-.065A1,1,0,0,0,445.9,332.553Z" transform="translate(-401.455 -330.294)" fill="#f59f80"/>
            <path id="Trazado_696116" data-name="Trazado 696116" d="M444.795,346.1s2.968-1.324,3.834-1.684c1.676-.7,2.367-1.45,2.093-2.556l-1.177-2.026c-.824-1.012-1.265-1.449-2.368-1.16l-3.632.951a2.112,2.112,0,0,0-1.508,2.536l.547,2.208C442.858,345.473,443.691,346.387,444.795,346.1Z" transform="translate(-401.294 -334.653)" fill="#f59f80"/>
            <path id="Trazado_696117" data-name="Trazado 696117" d="M459.292,335.5l3.838-1.9c.629-.288,1-.859.815-1.269h0c-.181-.409-.843-.508-1.472-.22l-3.838,1.9c-.629.288-1,.859-.815,1.269h0C458,335.69,458.663,335.789,459.292,335.5Z" transform="translate(-412.101 -330.11)" fill="#f59f80"/>
            <path id="Trazado_696118" data-name="Trazado 696118" d="M464.545,339.815l3.837-1.9c.629-.288,1-.86.815-1.269h0c-.181-.409-.843-.508-1.471-.22l-3.838,1.9c-.629.288-1,.86-.815,1.269h0C463.254,340,463.916,340.1,464.545,339.815Z" transform="translate(-415.695 -333.062)" fill="#f59f80"/>
            <path id="Trazado_696119" data-name="Trazado 696119" d="M463.838,347.065l3.837-1.9c.629-.288,1-.86.815-1.269h0c-.181-.409-.843-.508-1.472-.22l-3.838,1.9c-.629.288-1,.86-.815,1.269h0C462.547,347.255,463.209,347.354,463.838,347.065Z" transform="translate(-415.211 -338.022)" fill="#f59f80"/>
            <g id="Grupo_957841" data-name="Grupo 957841" transform="translate(1.409 2.821)">
              <path id="Trazado_696120" data-name="Trazado 696120" d="M343.963,348.184a23.245,23.245,0,0,0,5.027-.634,21.406,21.406,0,0,0,2.6-.8l9.253-3.5a2.545,2.545,0,0,0,1.258-1,2.821,2.821,0,0,0-.037-2.957c-.907-1.586-2.338-1.173-3.918-.574l-8.9,2.823a20.484,20.484,0,0,1-5.621.845,31.12,31.12,0,0,1-14.151-3.249l-7.072-3.625a3.307,3.307,0,0,0-4.455.969,3.109,3.109,0,0,0,1.682,4.115l7.073,3.627A35.417,35.417,0,0,0,343.963,348.184Z" transform="translate(-317.653 -335.07)" fill="#f59f80"/>
            </g>
            <path id="Trazado_696121" data-name="Trazado 696121" d="M396.125,358.007l.331,5.791a23.03,23.03,0,0,0,5.014-.461l-1.993-5.51Z" transform="translate(-369.927 -347.817)" fill="#f59f80"/>
            <path id="Trazado_696122" data-name="Trazado 696122" d="M334.479,334.97c-.235-.028-1.533.156-6.185-1.916a77.918,77.918,0,0,1-11.753-6.4c-3.617-2.466-4.438,4.561-1.809,7.233s13.47,7.069,17.34,7.87a67.964,67.964,0,0,0,9.542.96l-1-7.377S337.173,335.289,334.479,334.97Z" transform="translate(-313.191 -326.139)" fill="#f59f80"/>
            <path id="Trazado_696123" data-name="Trazado 696123" d="M393.311,354.579l.525,3.742,2.262.935-2.178,1.181.253,1.933,3.487-.244-1.182-7.547Z" transform="translate(-368.002 -345.595)" fill="#f59f80"/>
          </g>
          <path id="Trazado_696124" data-name="Trazado 696124" d="M274.671,233.765a17.374,17.374,0,0,0,.045-2.465c-.018-4.231-.037-12.477,1.163-13.106,3.3-1.724,16.694,7.688,17.518,3.99a12.717,12.717,0,0,0,.308-2.679c0-.191,0-.382-.009-.57a12.733,12.733,0,0,0-2.617-7.308l0,0a12.763,12.763,0,0,0-10.608-5.007c-.2.006-.387.019-.582.032a13.22,13.22,0,0,0-11.387,8.306,13.936,13.936,0,0,0-.952,4.85C267.331,230.419,273.42,231.872,274.671,233.765Z" transform="translate(-264.51 -206.607)" fill="#db734c"/>
          <path id="Trazado_696125" data-name="Trazado 696125" d="M273.782,252.112a22.373,22.373,0,0,1-.252-2.736l-.1-.34a14.288,14.288,0,0,1-5.462-8.223,21.777,21.777,0,0,1-.659-7.784,12.862,12.862,0,0,0-1.5,5.628C265.6,249.272,272.532,250.219,273.782,252.112Z" transform="translate(-263.325 -224.683)" fill="#b95241"/>
          <path id="Trazado_696126" data-name="Trazado 696126" d="M295.321,299.094h0a3.537,3.537,0,0,1-3.879-3.134L289.7,278.721c-.205-1.928,1.313-1.8,3.241-2.01h0a3.537,3.537,0,0,1,3.88,3.134l1.634,15.37A3.537,3.537,0,0,1,295.321,299.094Z" transform="translate(-279.656 -254.552)" fill="#f4a891"/>
          <g id="Grupo_957843" data-name="Grupo 957843" transform="translate(6.587 3.778)">
            <path id="Trazado_696127" data-name="Trazado 696127" d="M285.84,235.764c.01.12.025.235.043.355,0,.037.01.076.017.112a10.673,10.673,0,0,0,1.486,4.068c.036.061.075.118.113.179a10.342,10.342,0,0,0,5.054,4.085c.005,0,.008,0,.008,0a9.548,9.548,0,0,0,2.52.563c.32.026.639.041.962.042.109,0,.215-.005.326-.012a.619.619,0,0,0,.067,0,9.068,9.068,0,0,0,1.382-.179,3.563,3.563,0,0,0,.386-.081,10.211,10.211,0,0,0,7.66-9.216,10.747,10.747,0,0,0,.016-1.46l-.045-.749-.285-4.991a12.957,12.957,0,0,0-.286-2.177,8.028,8.028,0,0,0-.512-1.575,10.3,10.3,0,0,0-2.362-3.459,9.976,9.976,0,0,0-7.311-2.69,9.825,9.825,0,0,0-5.524,2.065c-.224.175-.443.359-.653.553a10.346,10.346,0,0,0-2.484,3.483.024.024,0,0,0,0,.01,9.6,9.6,0,0,0-.406,1.082c-.02.067-.041.128-.058.2a11.408,11.408,0,0,0-.335,1.377c-.019.1-.037.21-.053.316a8.6,8.6,0,0,0-.1,1.757l0,.106.023.4.025.444.031.567v.035l.005.1.015.259v.005l.16,2.7.048.893.021.337.008.074c0,.025,0,.047.005.071A3.223,3.223,0,0,0,285.84,235.764Z" transform="translate(-283.351 -218.568)" fill="#ffc7b0"/>
            <path id="Trazado_696128" data-name="Trazado 696128" d="M280.566,263.013a2.093,2.093,0,0,0,.27.023.579.579,0,0,0,.136,0l.284-.015.35-.017-.071-1.342-.017-.3-.135-2.436-.37.02-.268.016a.961.961,0,0,0-.167.018h0a1.974,1.974,0,0,0-.239.043h0a1.932,1.932,0,0,0-1.009.583,1.98,1.98,0,0,0-.524,1.442A2.124,2.124,0,0,0,280.566,263.013Z" transform="translate(-278.799 -246.177)" fill="#ffc4bc"/>
          </g>
          <path id="Trazado_696129" data-name="Trazado 696129" d="M329.231,272.324s-.041.764-1.107.842c-.938.068-1.1-.576-1.1-.576Z" transform="translate(-305.202 -251.564)" fill="#f4a891"/>
          <path id="Trazado_696130" data-name="Trazado 696130" d="M284.644,224.636s17.82-4.365,19.493-.747c0,0,.308-3.891-5.341-7.258s-14.55.886-15.119,2.647a6.918,6.918,0,0,0-.336,3.059Z" transform="translate(-275.286 -212.602)" fill="#db734c"/>
          <g id="Grupo_957844" data-name="Grupo 957844" transform="translate(15.841 14.043)">
            <path id="Trazado_696131" data-name="Trazado 696131" d="M312.232,254.5a4.448,4.448,0,0,0-4.14.787" transform="translate(-308.093 -253.272)" fill="none" stroke="#b95241" stroke-linecap="round" stroke-miterlimit="10" stroke-width="1.171"/>
            <path id="Trazado_696132" data-name="Trazado 696132" d="M337.207,251.3a4.632,4.632,0,0,0-4.164.639" transform="translate(-325.161 -251.063)" fill="none" stroke="#b95241" stroke-linecap="round" stroke-miterlimit="10" stroke-width="1.171"/>
          </g>
          <path id="Trazado_696133" data-name="Trazado 696133" d="M315.583,262.251h0a.471.471,0,0,1-.517-.417l-.092-.864a.471.471,0,0,1,.418-.517h0a.471.471,0,0,1,.517.417l.092.864A.472.472,0,0,1,315.583,262.251Z" transform="translate(-296.958 -243.441)" fill="#07113d"/>
          <path id="Trazado_696134" data-name="Trazado 696134" d="M338.454,259.818h0a.471.471,0,0,1-.517-.418l-.092-.864a.471.471,0,0,1,.418-.517h0a.471.471,0,0,1,.516.417l.092.864A.471.471,0,0,1,338.454,259.818Z" transform="translate(-312.604 -241.777)" fill="#07113d"/>
          <path id="Trazado_696135" data-name="Trazado 696135" d="M266.585,330.947l.224,3.766,1.62,27.227.064,1.083h.03l6.54-.281,15.612-.668L289.3,345.713l1.216-15.02a4.312,4.312,0,0,0,.017-.691c-.525-8.227-3.576-14.415-9.4-16.2l.565,10.33c-.7,0-5.936-10.268-6.6-10.155a6.969,6.969,0,0,0-2.767,1.134C268.642,317.641,266.78,323.742,266.585,330.947Z" transform="translate(-263.856 -279.942)" fill="#ffa686"/>
          <path id="Trazado_696136" data-name="Trazado 696136" d="M328.136,279.469l-4.151.607a2.326,2.326,0,0,0,4.151-.607Z" transform="translate(-303.124 -256.452)" fill="#d93838"/>
          <path id="Trazado_696137" data-name="Trazado 696137" d="M280.566,254.19a2.091,2.091,0,0,0,.27.023.579.579,0,0,0,.137,0l.284-.015a3.288,3.288,0,0,0,.033.351c.01.12.025.235.043.355,0,.037.01.076.017.112a10.673,10.673,0,0,0,1.486,4.068c.036.061.075.118.113.179A10.342,10.342,0,0,0,288,263.349c.005,0,.008,0,.008,0a9.549,9.549,0,0,0,2.52.563c.32.026.639.041.962.042.109,0,.215-.005.326-.012-.512.012-3.5-.35-5.866-3.757-2.563-3.7-3.506-11.014-3.506-11.014a17.95,17.95,0,0,0-.148-3.146c-.059.006-.586.184-1.284.427a8.6,8.6,0,0,0-.1,1.757l0,.106.023.4.025.444.031.567v.035l.005.1.015.259-.268.016a.96.96,0,0,0-.167.018h0a1.973,1.973,0,0,0-.239.043h0a1.932,1.932,0,0,0-1.009.583,1.98,1.98,0,0,0-.524,1.442A2.124,2.124,0,0,0,280.566,254.19Z" transform="translate(-272.212 -233.576)" fill="#f4a891"/>
          <path id="Trazado_696138" data-name="Trazado 696138" d="M341.383,232.384a2.589,2.589,0,1,0,2.3-2.848A2.589,2.589,0,0,0,341.383,232.384Z" transform="translate(-315.016 -222.282)" fill="#db734c"/>
          <path id="Trazado_696139" data-name="Trazado 696139" d="M327,231.82a2.589,2.589,0,1,0,2.3-2.848A2.589,2.589,0,0,0,327,231.82Z" transform="translate(-305.173 -221.896)" fill="#db734c"/>
          <path id="Trazado_696140" data-name="Trazado 696140" d="M311.4,232.76a2.589,2.589,0,1,0,2.3-2.848A2.589,2.589,0,0,0,311.4,232.76Z" transform="translate(-294.501 -222.539)" fill="#db734c"/>
          <path id="Trazado_696141" data-name="Trazado 696141" d="M295.245,235.915a2.589,2.589,0,1,0,2.3-2.848A2.589,2.589,0,0,0,295.245,235.915Z" transform="translate(-283.452 -224.699)" fill="#db734c"/>
          <path id="Trazado_696142" data-name="Trazado 696142" d="M283.54,232.743l-2.007,9.054a.577.577,0,0,1-1.1.1l-2.853-6.864S279.714,227.859,283.54,232.743Z" transform="translate(-271.38 -223.322)" fill="#db734c"/>
          <path id="Trazado_696143" data-name="Trazado 696143" d="M290.612,308.5l-.124-2.589h4.357l2.137,6.9.493-6.823,1.644-.082.493,18.495Z" transform="translate(-280.208 -274.544)" fill="#fff"/>
          <g id="Grupo_957851" data-name="Grupo 957851" transform="translate(4.348 82.359)">
            <path id="Trazado_696144" data-name="Trazado 696144" d="M289.709,476.4l-9.215.7c-4.071.309-7.583-1.557-7.807-4.308l.055-5.055,23.433-.41.3,3.657C296.7,473.731,293.78,476.086,289.709,476.4Z" transform="translate(-272.378 -467.323)" fill="#07113d"/>
            <g id="Grupo_957847" data-name="Grupo 957847" transform="translate(16.339 63.117)">
              <g id="Grupo_957846" data-name="Grupo 957846" transform="translate(0 0.486)">
                <path id="Trazado_696145" data-name="Trazado 696145" d="M325.079,685.9h.6a.647.647,0,0,0,.647-.647v-9.026l-2.7.566.816,8.522A.646.646,0,0,0,325.079,685.9Z" transform="translate(-323.561 -673.839)" fill="#07113d"/>
                <g id="Grupo_957845" data-name="Grupo 957845">
                  <path id="Trazado_696146" data-name="Trazado 696146" d="M331.514,672.078l3.223,5.722a3.126,3.126,0,0,0,2.545,1.5h0a1.624,1.624,0,0,1,1.556,1.531v0a1.623,1.623,0,0,1-1.636,1.724l-2.61,0a5.361,5.361,0,0,1-3.652-1.445l-7.059-6.59a2.227,2.227,0,0,1-.435-1.561h0A2.2,2.2,0,0,1,325.967,671Z" transform="translate(-323.434 -670.242)" fill="#07113d"/>
                  <path id="Trazado_696147" data-name="Trazado 696147" d="M332.032,669.77l3.223,5.722a3.127,3.127,0,0,0,2.545,1.5h0a1.624,1.624,0,0,1,1.556,1.531v0a1.624,1.624,0,0,1-1.636,1.724l-1.87,0a7.246,7.246,0,0,1-4.935-1.952l-6.516-6.083a2.227,2.227,0,0,1-.435-1.56h0a2.2,2.2,0,0,1,2.522-1.967Z" transform="translate(-323.788 -668.663)" fill="#b95241"/>
                  <line id="Línea_197" data-name="Línea 197" x1="1.455" y2="0.886" transform="translate(9.272 5.368)" fill="none" stroke="#07113d" stroke-linecap="round" stroke-miterlimit="10" stroke-width="1.271"/>
                  <line id="Línea_198" data-name="Línea 198" x1="1.455" y2="0.886" transform="translate(8.679 4.223)" fill="none" stroke="#07113d" stroke-linecap="round" stroke-miterlimit="10" stroke-width="1.271"/>
                  <line id="Línea_199" data-name="Línea 199" x1="1.455" y2="0.887" transform="translate(8.093 3.128)" fill="none" stroke="#07113d" stroke-linecap="round" stroke-miterlimit="10" stroke-width="1.271"/>
                </g>
              </g>
              <rect id="Rectángulo_342334" data-name="Rectángulo 342334" width="8.366" height="1.765" transform="translate(8.708 1.765) rotate(180)" fill="#d15b4b"/>
            </g>
            <g id="Grupo_957850" data-name="Grupo 957850" transform="translate(0 63.444)">
              <g id="Grupo_957849" data-name="Grupo 957849" transform="translate(0 0.682)">
                <path id="Trazado_696148" data-name="Trazado 696148" d="M273.353,687.558h.6a.647.647,0,0,0,.647-.647v-9.026l-2.7.566.815,8.522A.647.647,0,0,0,273.353,687.558Z" transform="translate(-271.836 -675.495)" fill="#07113d"/>
                <g id="Grupo_957848" data-name="Grupo 957848">
                  <path id="Trazado_696149" data-name="Trazado 696149" d="M279.789,673.734l3.223,5.722a3.126,3.126,0,0,0,2.545,1.5h0a1.624,1.624,0,0,1,1.556,1.531v0a1.623,1.623,0,0,1-1.636,1.724l-2.61,0a5.362,5.362,0,0,1-3.652-1.445l-7.059-6.59a2.227,2.227,0,0,1-.435-1.561h0a2.2,2.2,0,0,1,2.522-1.966Z" transform="translate(-271.71 -671.897)" fill="#07113d"/>
                  <path id="Trazado_696150" data-name="Trazado 696150" d="M280.305,671.425l3.223,5.722a3.127,3.127,0,0,0,2.545,1.5h0a1.623,1.623,0,0,1,1.556,1.531v0a1.624,1.624,0,0,1-1.636,1.724l-1.87,0a7.246,7.246,0,0,1-4.935-1.952l-6.516-6.083a2.227,2.227,0,0,1-.435-1.561h0a2.2,2.2,0,0,1,2.522-1.966Z" transform="translate(-272.062 -670.318)" fill="#b95241"/>
                  <line id="Línea_200" data-name="Línea 200" x1="1.455" y2="0.886" transform="translate(9.272 5.368)" fill="none" stroke="#07113d" stroke-linecap="round" stroke-miterlimit="10" stroke-width="1.271"/>
                  <line id="Línea_201" data-name="Línea 201" x1="1.455" y2="0.886" transform="translate(8.679 4.223)" fill="none" stroke="#07113d" stroke-linecap="round" stroke-miterlimit="10" stroke-width="1.271"/>
                  <line id="Línea_202" data-name="Línea 202" x1="1.455" y2="0.886" transform="translate(8.092 3.128)" fill="none" stroke="#07113d" stroke-linecap="round" stroke-miterlimit="10" stroke-width="1.271"/>
                </g>
              </g>
              <rect id="Rectángulo_342335" data-name="Rectángulo 342335" width="7.908" height="1.83" transform="translate(8.315 1.83) rotate(180)" fill="#d15b4b"/>
            </g>
          </g>
          <rect id="Rectángulo_342336" data-name="Rectángulo 342336" width="22.44" height="2.343" transform="translate(26.925 83.773) rotate(180)" fill="#2c3765"/>
          <path id="Trazado_696151" data-name="Trazado 696151" d="M267.3,361.624l1.573,26.413,6.864.37s.247-14.179.37-18.495-5.178-16.769-5.178-16.769A72.862,72.862,0,0,0,267.3,361.624Z" transform="translate(-264.342 -306.853)" fill="#591239" opacity="0.37"/>
          <g id="Grupo_957855" data-name="Grupo 957855" transform="translate(0 36.818)">
            <g id="Grupo_957853" data-name="Grupo 957853" transform="translate(13.546 38.796)">
              <path id="Trazado_696152" data-name="Trazado 696152" d="M316.759,457.146l-4.6-1.636a.98.98,0,0,0-1.28.538l-.031.089a1,1,0,0,0,.669,1.232l4.6,1.636a.98.98,0,0,0,1.28-.538l.031-.089A1,1,0,0,0,316.759,457.146Z" transform="translate(-307.653 -452.451)" fill="#ffc7b0"/>
              <g id="Grupo_957852" data-name="Grupo 957852" transform="translate(1.711)">
                <path id="Trazado_696153" data-name="Trazado 696153" d="M306.62,463.7a2.51,2.51,0,0,0,.744.772l8.078,5.448a2.546,2.546,0,0,0,3.536-.688l9.336-13.84a2.545,2.545,0,0,0-.688-3.536l-.09-.062-7.988-5.385a2.548,2.548,0,0,0-3.536.685l-3.583,5.311-3.574,5.3-2.179,3.231A2.555,2.555,0,0,0,306.62,463.7Z" transform="translate(-306.242 -445.969)" fill="#c2c2c7"/>
                <path id="Trazado_696154" data-name="Trazado 696154" d="M346.634,471.258a1.034,1.034,0,1,0,1.542-.444A1.147,1.147,0,0,0,346.634,471.258Z" transform="translate(-333.694 -462.861)" fill="#fff"/>
              </g>
              <path id="Trazado_696155" data-name="Trazado 696155" d="M314.515,471.629l3.405,2.948c.56.517,1.283.629,1.6.252a.7.7,0,0,0,.156-.464,1.684,1.684,0,0,0-.591-1.164l-2.366-2.048.208-.305,3.334,2.892c.56.51,1.283.625,1.6.246a.7.7,0,0,0,.156-.464,1.685,1.685,0,0,0-.591-1.161l-3.483-3.02.028-.047c.047-.1.094-.2.137-.292l2.749,2.382c.564.517,1.289.629,1.609.249a.706.706,0,0,0,.153-.464,1.692,1.692,0,0,0-.591-1.161l-3.564-3.088a.34.34,0,0,0-.053-.044,2.473,2.473,0,0,0-.327-.548Z" transform="translate(-310.191 -459.897)" fill="#2c3765" opacity="0.6"/>
              <path id="Trazado_696156" data-name="Trazado 696156" d="M301.17,460.152s2.428,2.16,3.113,2.8c1.325,1.241,2.3,1.561,3.191.856l1.362-1.907c.584-1.167.8-1.749.083-2.636l-2.361-2.919a2.113,2.113,0,0,0-2.932-.331l-1.788,1.407C300.943,458.13,300.453,459.265,301.17,460.152Z" transform="translate(-300.826 -452.539)" fill="#ffc7b0"/>
              <path id="Trazado_696157" data-name="Trazado 696157" d="M323,469.3l3.313,2.715c.522.454,1.193.554,1.492.221h0c.3-.333.116-.977-.405-1.432l-3.313-2.715c-.522-.454-1.193-.554-1.492-.221h0C322.3,468.2,322.483,468.847,323,469.3Z" transform="translate(-315.623 -460.816)" fill="#ffc7b0"/>
              <path id="Trazado_696158" data-name="Trazado 696158" d="M321.233,475.863l3.313,2.715c.522.454,1.193.554,1.492.221h0c.3-.333.116-.977-.405-1.432l-3.313-2.715c-.522-.454-1.193-.554-1.492-.221h0C320.529,474.764,320.711,475.409,321.233,475.863Z" transform="translate(-314.411 -465.305)" fill="#ffc7b0"/>
              <path id="Trazado_696159" data-name="Trazado 696159" d="M314.335,478.2l3.313,2.715c.522.454,1.193.554,1.492.221h0c.3-.333.116-.977-.405-1.432l-3.313-2.715c-.522-.455-1.193-.554-1.492-.221h0C313.631,477.1,313.813,477.749,314.335,478.2Z" transform="translate(-309.692 -466.906)" fill="#ffc7b0"/>
            </g>
            <g id="Grupo_957854" data-name="Grupo 957854" transform="translate(0.744 5.381)">
              <path id="Trazado_696160" data-name="Trazado 696160" d="M262.862,368.682a23.242,23.242,0,0,0,2.647,4.32,21.328,21.328,0,0,0,1.8,2.043l7,6.993a2.547,2.547,0,0,0,1.425.736,2.822,2.822,0,0,0,2.68-1.25c1.072-1.48.106-2.614-1.089-3.807l-6.234-6.946A20.47,20.47,0,0,1,268,366a22.13,22.13,0,0,1-1.409-13.918l1.655-7.772a3.306,3.306,0,0,0-2.1-4.048,3.109,3.109,0,0,0-3.535,2.7l-1.657,7.774A28.352,28.352,0,0,0,262.862,368.682Z" transform="translate(-260.302 -340.19)" fill="#ffc7b0"/>
            </g>
            <path id="Trazado_696161" data-name="Trazado 696161" d="M271.862,418.513,266.72,421.2a23.031,23.031,0,0,0,2.484,4.38l4.2-4.084Z" transform="translate(-263.948 -388.391)" fill="#f4a891"/>
            <path id="Trazado_696162" data-name="Trazado 696162" d="M265.213,348.7c-.034-.234-.868-1.5.237-6.471s2.446-10.18,1.5-12.626-.6-8.65-2.841-5.645c-6.52,8.745-6.314,20.244-6.077,24.19s2.92,9.786,2.92,9.786l6.313-3.946A15.759,15.759,0,0,1,265.213,348.7Z" transform="translate(-257.946 -323.157)" fill="#f59f80"/>
            <path id="Trazado_696163" data-name="Trazado 696163" d="M270.436,414.771l-2.92,1.894.079,2.446-1.973-1.5-1.657,1.026,1.657,3.078,6.392-4.182Z" transform="translate(-262.064 -385.831)" fill="#fff"/>
          </g>
        </g>
      </g>
    </g>
  </g>
</svg>
