<svg xmlns="http://www.w3.org/2000/svg" width="295.5" height="180.757" viewBox="0 0 295.5 180.757">
  <g id="_12812894_5056140" data-name="12812894_5056140" transform="translate(0 -41.225)">
    <g id="BACKGROUND" transform="translate(0 221.982)">
      <path id="Trazado_697406" data-name="Trazado 697406" d="M295.5,500h0Z" transform="translate(0 -500)" fill="#ffadaa"/>
    </g>
    <g id="OBJECTS" transform="translate(16.797 41.225)">
      <path id="Trazado_696330" data-name="Trazado 696330" d="M299.6,202.367c-22.806,0-8.5-28.286-4.39-38.346,1.673-4.1,2.256-8.5-.25-12.469-10.946-17.346-42.1-2.563-49.87-19.375-15.27-33.043-12.435-60.593-48.049-60.593-49.725,0-61.309,58.1-67.318,67.2-2.713,4.107-6.021,8.125-10.822,10.8-8.692,4.849-20.369,4.4-30.4,7.22-14.015,3.937-24.175,14.5-27,25.987s2.275,27.51,10.173,37.431l235.052.766C308.332,213.351,311.588,202.367,299.6,202.367Z" transform="translate(-53.587 -59.623)" fill="#b0c0d2"/>
      <ellipse id="Elipse_7877" data-name="Elipse 7877" cx="130.953" cy="6.702" rx="130.953" ry="6.702" transform="translate(0 153.901)" fill="#727997"/>
      <g id="Grupo_958772" data-name="Grupo 958772" transform="translate(161.201)">
        <path id="Trazado_697407" data-name="Trazado 697407" d="M20.252,0C31.437,0,40.5,6.458,40.5,14.424S31.437,28.847,20.252,28.847,0,22.389,0,14.424,9.067,0,20.252,0Z" fill="#ffa686"/>
        <g id="Grupo_958771" data-name="Grupo 958771" transform="translate(12.144 6.633)">
          <g id="Grupo_958770" data-name="Grupo 958770">
            <path id="Trazado_696331" data-name="Trazado 696331" d="M508.011,60.835l-2.65-2.774,2.683.089,2.684.089-.033,2.685-.033,2.685Z" transform="translate(-496.39 -58.061)" fill="#1e1609"/>
            <path id="Trazado_696332" data-name="Trazado 696332" d="M493.8,61.438s-5.3,6.9-11.2,4.428c0,0,4.761,5.538,13.013-2.208Z" transform="translate(-482.593 -60.107)" fill="#1e1609"/>
          </g>
          <rect id="Rectángulo_342354" data-name="Rectángulo 342354" width="2.582" height="3.098" transform="translate(2.12 10.068)" fill="#019ae6"/>
          <rect id="Rectángulo_342355" data-name="Rectángulo 342355" width="2.582" height="4.684" transform="translate(7.142 8.481)" fill="#019ae6"/>
          <rect id="Rectángulo_342356" data-name="Rectángulo 342356" width="2.582" height="6.271" transform="translate(12.164 6.894)" fill="#019ae6"/>
        </g>
        <path id="Trazado_696333" data-name="Trazado 696333" d="M509.969,106.226s2.83,8.648,14.745,7.138c0,0-4.993-.971-8.178-8.5Z" transform="translate(-487.039 -79.79)" fill="#ffa686"/>
      </g>
      <g id="Grupo_958774" data-name="Grupo 958774" transform="translate(94.036 32.803)">
        <line id="Línea_203" data-name="Línea 203" x2="12.141" y2="90.544" transform="translate(81.322 38.021)" fill="none" stroke="#1e1609" stroke-linecap="round" stroke-linejoin="round" stroke-miterlimit="10" stroke-width="2"/>
        <line id="Línea_204" data-name="Línea 204" x1="18.592" y2="97.088" transform="translate(62.24 31.477)" fill="none" stroke="#1e1609" stroke-linecap="round" stroke-linejoin="round" stroke-miterlimit="10" stroke-width="2"/>
        <line id="Línea_205" data-name="Línea 205" x1="18.592" y2="97.088" transform="translate(0.424 31.477)" fill="none" stroke="#1e1609" stroke-linecap="round" stroke-linejoin="round" stroke-miterlimit="10" stroke-width="2"/>
        <line id="Línea_206" data-name="Línea 206" x2="27.154" transform="translate(61.841 95.245)" fill="none" stroke="#1e1609" stroke-linecap="round" stroke-linejoin="round" stroke-miterlimit="10" stroke-width="2"/>
        <path id="Trazado_696334" data-name="Trazado 696334" d="M352.063,232.027H281.3L301.9,124.482h70.761Z" transform="translate(-281.302 -124.482)" fill="#fff"/>
        <path id="Trazado_696335" data-name="Trazado 696335" d="M299.829,327.574l5.668-5.244a3.1,3.1,0,0,1,3.721-.667l2.526,1.647c1.351.881,3.388.321,4.688-1.29l6.043-7.493c.93-1.154,2.464-1.236,2.994-.161l5.522,11.208,9.528-8.949a1.511,1.511,0,0,1,2.366-.007l4.4,7.073,5.755-8.475c.943-1.389,2.759-1.381,3.065.013l2.706,12.344H299.829Z" transform="translate(-292.529 -239.093)" fill="#019ae6"/>
        <path id="Trazado_696336" data-name="Trazado 696336" d="M299.829,322.482l.955-4.236,4.365,1.465a4.963,4.963,0,0,0,5.018-1.678l3.165-3.422c1.749-1.89,4.308-2.25,5.711-.8l1.85,1.909c1.057,1.091,3.034.684,4.208-.865l7.521-9.925c1.475-1.947,4.061-1.842,4.507.182l1.961,8.9c.416,1.887,2.575,2.363,4.316.952l1.9-1.536c1.8-1.457,4.043-1.422,5.136.08l2.87,3.945a1.743,1.743,0,0,0,2.45.189l1.327-.891a1.345,1.345,0,0,1,1.948.2l3.552,5.533Z" transform="translate(-292.529 -232.985)" fill="#ffa686"/>
        <path id="Trazado_696337" data-name="Trazado 696337" d="M309.894,294.59l16.9-11.5,6.572,7.041,9.622-4.973,8.449,7.965L370.165,279.8" transform="translate(-298.629 -218.607)" fill="none" stroke="#1e1609" stroke-linecap="round" stroke-linejoin="round" stroke-miterlimit="10" stroke-width="2"/>
        <path id="Trazado_696338" data-name="Trazado 696338" d="M457.829,280.1l-.985-1.34,1.452-.035,1.452-.034-.467,1.375-.467,1.375Z" transform="translate(-387.68 -217.931)" fill="#1e1609"/>
        <g id="Grupo_958773" data-name="Grupo 958773" transform="translate(33.018 10.677)">
          <path id="Trazado_696339" data-name="Trazado 696339" d="M382.255,185.885a17.164,17.164,0,1,1,17.151-17.152A17.149,17.149,0,0,1,382.255,185.885Z" transform="translate(-365.103 -151.582)" fill="#12263f"/>
          <path id="Trazado_696340" data-name="Trazado 696340" d="M408.635,168.734V151.582a17.168,17.168,0,0,1,15.095,8.993Z" transform="translate(-391.483 -151.582)" fill="#ffa686"/>
          <path id="Trazado_696341" data-name="Trazado 696341" d="M425.786,182.565H408.634l15.095-8.159A17.1,17.1,0,0,1,425.786,182.565Z" transform="translate(-391.483 -165.413)" fill="#1e1609"/>
        </g>
        <rect id="Rectángulo_342357" data-name="Rectángulo 342357" width="3.694" height="3.694" transform="translate(22.05 51.242)" fill="#519fd6"/>
        <rect id="Rectángulo_342358" data-name="Rectángulo 342358" width="3.694" height="3.694" transform="translate(39.865 51.242)" fill="#f54555"/>
        <rect id="Rectángulo_342359" data-name="Rectángulo 342359" width="3.694" height="3.694" transform="translate(57.681 51.242)" fill="#1e1609"/>
        <rect id="Rectángulo_342360" data-name="Rectángulo 342360" width="4.477" height="0.81" transform="translate(28.173 51.937)" fill="#1e1609"/>
        <rect id="Rectángulo_342361" data-name="Rectángulo 342361" width="7.146" height="0.81" transform="translate(28.173 53.431)" fill="#1e1609"/>
        <rect id="Rectángulo_342362" data-name="Rectángulo 342362" width="4.477" height="0.81" transform="translate(46.304 51.937)" fill="#1e1609"/>
        <rect id="Rectángulo_342363" data-name="Rectángulo 342363" width="7.146" height="0.81" transform="translate(46.304 53.431)" fill="#1e1609"/>
        <rect id="Rectángulo_342364" data-name="Rectángulo 342364" width="4.477" height="0.81" transform="translate(64.434 51.937)" fill="#1e1609"/>
        <rect id="Rectángulo_342365" data-name="Rectángulo 342365" width="7.146" height="0.81" transform="translate(64.434 53.431)" fill="#1e1609"/>
      </g>
      <g id="Grupo_958793" data-name="Grupo 958793" transform="translate(171.796 17.457)">
        <path id="Trazado_696342" data-name="Trazado 696342" d="M586.526,423.85s-.1,2.415-.225,5.206c0,0,6.485.982,8.407.61l-.045-6.109Z" transform="translate(-543.891 -290.375)" fill="#ffa686"/>
        <path id="Trazado_696343" data-name="Trazado 696343" d="M521.749,420.086s-.3,2.856-3.108,7.476l9.953-.483,1.073-6.105Z" transform="translate(-502.89 -288.272)" fill="#ffa686"/>
        <path id="Trazado_696344" data-name="Trazado 696344" d="M490.071,142.483c-1.269.238.355,2.195.355,2.195l1.736,0S490.379,142.426,490.071,142.483Z" transform="translate(-485.283 -120.044)" fill="#ffa686"/>
        <path id="Trazado_696345" data-name="Trazado 696345" d="M559.757,167.249l.279,15.907-27.342-.317.194-15.59-8.021-.091s4.432-16.133,5.929-16.423,12.2-1.718,12.2-1.718l8.032.156s11.234.241,12.04,1.561S568.3,165.49,568.3,165.49Z" transform="translate(-506.662 -124.004)" fill="#0b481e"/>
        <path id="Trazado_696346" data-name="Trazado 696346" d="M532.888,169.892l-8.021-.091s4.432-16.133,5.929-16.423a6.1,6.1,0,0,1,2.451,4.219C533.472,160.313,532.888,169.892,532.888,169.892Z" transform="translate(-506.662 -126.646)" fill="#fff"/>
        <g id="Grupo_958775" data-name="Grupo 958775" transform="translate(18.847 40.641)">
          <path id="Trazado_696347" data-name="Trazado 696347" d="M526.5,188.924a11.64,11.64,0,0,1,1.887-.22c.627-.029,1.253-.031,1.877,0s1.247.087,1.869.173a11.468,11.468,0,0,1,1.859.393,11.51,11.51,0,0,1-1.887.221c-.627.028-1.253.031-1.877,0s-1.247-.087-1.869-.174A11.683,11.683,0,0,1,526.5,188.924Z" transform="translate(-526.497 -188.682)" fill="#1e1609"/>
        </g>
        <path id="Trazado_696348" data-name="Trazado 696348" d="M560.908,106.351c1.81.247,6.122-.863,7.495-2.132a3.336,3.336,0,0,0,.952-1.35c.448-1.34-.387-2.856-.01-4.22.269-.973,1.138-1.9.766-2.838-.2-.506-.723-.809-.922-1.316-.283-.721.182-1.518.194-2.3a2.139,2.139,0,0,0-2.156-2,3.264,3.264,0,0,0-1.122-2.461,2.282,2.282,0,0,0-1.187-.262c-1.442,0-2.9.545-4.3.2-1.554-.378-2.761-1.781-4.328-2.091a3.625,3.625,0,0,0-4.056,2.991,2.562,2.562,0,0,1-.338,1.221c-.531.669-1.632.269-2.316.759a1.587,1.587,0,0,0-.483,1.612,4.325,4.325,0,0,0,.818,1.561.9.9,0,0,1,.209.441c.027.352-.324.58-.584.8a2.859,2.859,0,0,0-.325,3.488,5.58,5.58,0,0,0,2.9,2.18,13.119,13.119,0,0,0,3.436.835c.664.069,1.366.006,2.028.1a9.424,9.424,0,0,1,4.568,1.5C562.919,103.658,561.094,105.366,560.908,106.351Z" transform="translate(-521.151 -85.532)" fill="#1e1609"/>
        <path id="Trazado_696349" data-name="Trazado 696349" d="M579.237,119.326l-.4,11.744-3.406,5.888-3.807-6.126V119.326Z" transform="translate(-534.997 -106.011)" fill="#ffa686"/>
        <path id="Trazado_696350" data-name="Trazado 696350" d="M571.623,137.4v-3.528h4.844S576.341,137.4,571.623,137.4Z" transform="translate(-534.997 -114.829)" fill="#1e1609"/>
        <path id="Trazado_696351" data-name="Trazado 696351" d="M558.782,109.249a10.953,10.953,0,0,0,.073,1.26,9.491,9.491,0,0,0,.775,2.867,4.8,4.8,0,0,0,4.4,3.117c3.535,0,7.555-1.013,7.555-7.244a6.431,6.431,0,0,0-6.4-6.458C561.649,102.791,558.782,104.811,558.782,109.249Z" transform="translate(-527.215 -95.991)" fill="#ffa686"/>
        <path id="Trazado_696352" data-name="Trazado 696352" d="M561.121,101.506a9.614,9.614,0,0,0,4.381-.8c.363-.151.825-.3,1.12-.04.517.464-.188,1.556.418,1.9.389.22.879-.186,1.307-.054.469.145.325.535.23,1.005s-.217,1.757.1,2.127c.837.963,2.54.926,2.879.4,1.4-2.186.786-6.78-.666-8.973-1.408-2.126-4.242-2.972-6.8-2.773a8.417,8.417,0,0,0-6.247,3.22C556.133,99.992,558.6,101.316,561.121,101.506Z" transform="translate(-526.304 -90.821)" fill="#1e1609"/>
        <path id="Trazado_696353" data-name="Trazado 696353" d="M587.465,121.219a2.1,2.1,0,1,0,2.1-2.1A2.1,2.1,0,0,0,587.465,121.219Z" transform="translate(-544.597 -105.888)" fill="#ffa686"/>
        <path id="Trazado_696354" data-name="Trazado 696354" d="M573.021,118.512a.4.4,0,1,0,.4-.4A.4.4,0,0,0,573.021,118.512Z" transform="translate(-535.844 -105.278)" fill="#1e1609"/>
        <path id="Trazado_696355" data-name="Trazado 696355" d="M562.194,118.512a.4.4,0,1,0,.4-.4A.4.4,0,0,0,562.194,118.512Z" transform="translate(-529.283 -105.278)" fill="#1e1609"/>
        <path id="Trazado_696356" data-name="Trazado 696356" d="M573.021,124.707a1.561,1.561,0,1,0,1.561-1.561A1.56,1.56,0,0,0,573.021,124.707Z" transform="translate(-535.844 -108.326)" fill="#e05e61"/>
        <path id="Trazado_696357" data-name="Trazado 696357" d="M558.966,122.38a9.491,9.491,0,0,0,.775,2.867,1.559,1.559,0,0,0-.775-2.867Z" transform="translate(-527.326 -107.862)" fill="#e05e61"/>
        <path id="Trazado_696358" data-name="Trazado 696358" d="M572.377,131.5a1.958,1.958,0,0,1-1.073.1" transform="translate(-534.803 -113.388)" fill="none" stroke="#332737" stroke-linecap="round" stroke-linejoin="round" stroke-miterlimit="10" stroke-width="1"/>
        <g id="Grupo_958776" data-name="Grupo 958776" transform="translate(44.373 14.247)">
          <path id="Trazado_696359" data-name="Trazado 696359" d="M591.692,121.7a1.6,1.6,0,0,1,1.085.247,1.107,1.107,0,0,1,.449,1.1.98.98,0,0,1-.288.573,1.072,1.072,0,0,1-.551.273,1.935,1.935,0,0,1-1.1-.116,3.62,3.62,0,0,0,1.018-.18.737.737,0,0,0,.535-.611.873.873,0,0,0-.253-.8A2.431,2.431,0,0,0,591.692,121.7Z" transform="translate(-591.285 -121.691)" fill="#1e1609"/>
        </g>
        <g id="Grupo_958777" data-name="Grupo 958777" transform="translate(33.516 13.637)">
          <path id="Trazado_696360" data-name="Trazado 696360" d="M565.246,123.3a1.692,1.692,0,0,1-.91-.226,1.178,1.178,0,0,1-.579-.815,1.236,1.236,0,0,1-.026-.257.432.432,0,0,1,.011-.148.378.378,0,0,1,.067-.171.486.486,0,0,1,.3-.205.982.982,0,0,1,.286-.02,2.707,2.707,0,0,1,.929.294l-.249.134a13.64,13.64,0,0,1,.436-1.736,13.629,13.629,0,0,1-.087,1.788.169.169,0,0,1-.186.151.18.18,0,0,1-.042-.009l-.022-.008a3.019,3.019,0,0,0-.807-.22c-.128-.014-.233.014-.236.043a.711.711,0,0,0-.02.311,1.018,1.018,0,0,0,.11.367,1.272,1.272,0,0,0,.256.31A2.346,2.346,0,0,0,565.246,123.3Z" transform="translate(-563.729 -120.145)" fill="#1e1609"/>
        </g>
        <path id="Trazado_696361" data-name="Trazado 696361" d="M512.1,171.951l-7.116-.082-9.972-15.094-4.447,1.258s6.267,23.751,12.988,23.751C508.6,181.784,512.1,171.951,512.1,171.951Z" transform="translate(-485.878 -128.705)" fill="#ffa686"/>
        <path id="Trazado_696362" data-name="Trazado 696362" d="M593.968,191.279l-7.676,1.582.234,3.076-15.847-1.312-2.026,3.96s20.736,6.816,26.184,3.234C596.449,200.759,593.968,191.279,593.968,191.279Z" transform="translate(-533.197 -149.615)" fill="#ffa686"/>
        <path id="Trazado_696363" data-name="Trazado 696363" d="M486.47,142.974c-.646-.556-5.033-.941-5.033-.941s-1.849-2.983-2.239-2.939c-1.275.144.1,4.342.333,4.933.131.327,2.513,1.269,3.823,3.291l4.447-1.258S487.308,143.695,486.47,142.974Z" transform="translate(-478.663 -117.991)" fill="#ffa686"/>
        <path id="Trazado_696364" data-name="Trazado 696364" d="M486.649,142.951s-1.158-3.467-1.886-3.18c-.753.3.045,3.21.045,3.21Z" transform="translate(-482.164 -118.391)" fill="#ffa686"/>
        <g id="Grupo_958778" data-name="Grupo 958778" transform="translate(2.385 23.445)">
          <path id="Trazado_696365" data-name="Trazado 696365" d="M484.726,145.038a1.313,1.313,0,0,0,.433.387c.1.058.1.027.188.034l.274-.009a9.614,9.614,0,0,1,1.214.006,5.865,5.865,0,0,1,1.228.222,3.711,3.711,0,0,1,1.148.551,9.708,9.708,0,0,1-1.241.061c-.4,0-.8-.017-1.2-.049a7.955,7.955,0,0,1-1.221-.178,2.376,2.376,0,0,1-.328-.105.718.718,0,0,1-.336-.259A.962.962,0,0,1,484.726,145.038Z" transform="translate(-484.717 -145.038)" fill="#1e1609"/>
        </g>
        <path id="Trazado_696366" data-name="Trazado 696366" d="M560.432,193.314s-1.251-2.026-1.568-2.475-2.843-1.311-3.328-.94-.1,1.177,1.4,1.494a1.43,1.43,0,0,1-1.5.611c-.89-.294-2.371-2.234-2.794-2.756s-1.362.63-.6,1.458c0,0-.528,1.119.2,1.768a.723.723,0,0,0-.011,1.16s-.38.6,1.147,1.48a45.187,45.187,0,0,0,5.041,2.161Z" transform="translate(-522.949 -148.304)" fill="#ffa686"/>
        <g id="Grupo_958779" data-name="Grupo 958779" transform="translate(19.11 43.164)">
          <path id="Trazado_696367" data-name="Trazado 696367" d="M527.165,195.085a2.841,2.841,0,0,1,.816.377,4.222,4.222,0,0,1,.659.535,4.138,4.138,0,0,1,.539.656,2.8,2.8,0,0,1,.38.815,2.819,2.819,0,0,1-.818-.377,4.133,4.133,0,0,1-.658-.536,4.23,4.23,0,0,1-.538-.656A2.855,2.855,0,0,1,527.165,195.085Z" transform="translate(-527.165 -195.085)" fill="#1e1609"/>
        </g>
        <g id="Grupo_958780" data-name="Grupo 958780" transform="translate(53.33 46.213)">
          <path id="Trazado_696368" data-name="Trazado 696368" d="M614.017,202.933a4.128,4.128,0,0,1,1.2-.105,6.06,6.06,0,0,1,1.164.168,5.518,5.518,0,0,1,1.114.4,3.261,3.261,0,0,1,.984.711,9.792,9.792,0,0,1-1.173-.121c-.375-.061-.746-.132-1.113-.224a11.173,11.173,0,0,1-1.095-.327A6.05,6.05,0,0,1,614.017,202.933Z" transform="translate(-614.017 -202.823)" fill="#1e1609"/>
        </g>
        <path id="Trazado_696369" data-name="Trazado 696369" d="M530.709,234.86s-7.122,63.673-9.119,72.689l10.773,1.208L544.377,252.9l1.011,56.693,11.071-.4s2.879-48.581,3.382-56.271c1.048-16.044-1.79-17.745-1.79-17.745Z" transform="translate(-504.677 -176.025)" fill="#727997"/>
        <path id="Trazado_696370" data-name="Trazado 696370" d="M497.521,438.477s-.045-2.835,1.857-3.526,4.208-.652,5.1-1.578,2.444-2.9,2.444-2.9,3.882.165,3.217,2.9c0,0,4.995-.072,5.661,0s1,3.992-.111,5.1C515.684,438.477,499.535,438.474,497.521,438.477Z" transform="translate(-490.091 -294.566)" fill="#1e1609"/>
        <path id="Trazado_696371" data-name="Trazado 696371" d="M576.115,438.239s.549-3.123,2.612-4,2.355-4,2.355-4,5.027-.348,6.327,0,.641,2.646,1.126,3.384a5.915,5.915,0,0,1,1.233,4.621Z" transform="translate(-537.719 -294.328)" fill="#1e1609"/>
        <g id="Grupo_958781" data-name="Grupo 958781" transform="translate(41.559 137.905)">
          <path id="Trazado_696372" data-name="Trazado 696372" d="M584.142,437.234a5.539,5.539,0,0,1,2.116-1.258,7.833,7.833,0,0,1,2.455-.431,8.416,8.416,0,0,1,2.461.349,8.632,8.632,0,0,1,1.157.429,10.372,10.372,0,0,1,1.068.607c-.411-.06-.8-.165-1.188-.239l-.586-.1-.289-.057-.293-.036c-.2-.022-.389-.047-.58-.079s-.388-.028-.581-.043a5,5,0,0,0-.579-.03c-.193,0-.386-.015-.579-.011A12.8,12.8,0,0,0,584.142,437.234Z" transform="translate(-584.142 -435.545)" fill="#fff"/>
        </g>
        <g id="Grupo_958782" data-name="Grupo 958782" transform="translate(11.381 138.807)">
          <path id="Trazado_696373" data-name="Trazado 696373" d="M516.211,437.835a9.331,9.331,0,0,1-2,1.626,9.7,9.7,0,0,1-2.377,1.073,7.235,7.235,0,0,1-1.309.242,5.693,5.693,0,0,1-1.337-.06,2.758,2.758,0,0,1-1.284-.5.96.96,0,0,1-.354-.642.919.919,0,0,1,.21-.635.938.938,0,0,0,0,.592.7.7,0,0,0,.36.367,2.878,2.878,0,0,0,1.126.209,7.57,7.57,0,0,0,2.369-.328,17.685,17.685,0,0,0,2.306-.857C514.685,438.58,515.438,438.211,516.211,437.835Z" transform="translate(-507.548 -437.835)" fill="#fff"/>
        </g>
        <g id="Grupo_958783" data-name="Grupo 958783" transform="translate(18.497 139.438)">
          <path id="Trazado_696374" data-name="Trazado 696374" d="M525.609,439.828a12.272,12.272,0,0,1,1.93-.306c.643-.058,1.287-.088,1.93-.088s1.287.029,1.93.086a12.134,12.134,0,0,1,1.93.307,12.142,12.142,0,0,1-1.93.307c-.643.057-1.287.089-1.93.086s-1.287-.03-1.93-.087A12.273,12.273,0,0,1,525.609,439.828Z" transform="translate(-525.609 -439.435)" fill="#1e1609"/>
        </g>
        <path id="Trazado_696375" data-name="Trazado 696375" d="M526.53,420.086l7.586,2.778.332-1.89Z" transform="translate(-507.67 -288.272)" fill="#1e1609"/>
        <path id="Trazado_696376" data-name="Trazado 696376" d="M586.873,423.85l8.147,1.118-.01-1.411Z" transform="translate(-544.238 -290.375)" fill="#1e1609"/>
        <g id="Grupo_958784" data-name="Grupo 958784" transform="translate(40.575 128.191)">
          <path id="Trazado_696377" data-name="Trazado 696377" d="M581.644,411.842a26.918,26.918,0,0,1,2.857-.519c.955-.134,1.914-.222,2.873-.3s1.921-.119,2.886-.128a26.5,26.5,0,0,1,2.9.093,26.6,26.6,0,0,1-2.857.521c-.955.134-1.914.222-2.873.3s-1.921.118-2.886.126A26.884,26.884,0,0,1,581.644,411.842Z" transform="translate(-581.644 -410.89)" fill="#1e1609"/>
        </g>
        <g id="Grupo_958785" data-name="Grupo 958785" transform="translate(17.785 126.497)">
          <path id="Trazado_696378" data-name="Trazado 696378" d="M523.8,406.614a24.617,24.617,0,0,1,2.773.041c.92.053,1.833.151,2.746.258s1.82.254,2.724.431a24.289,24.289,0,0,1,2.7.65,24.363,24.363,0,0,1-2.773-.04c-.92-.053-1.833-.151-2.746-.26s-1.82-.255-2.724-.432A24.538,24.538,0,0,1,523.8,406.614Z" transform="translate(-523.801 -406.591)" fill="#1e1609"/>
        </g>
        <path id="Trazado_696379" data-name="Trazado 696379" d="M572.875,275.534l-4.246-3.323s-.366,7.9,2.7,10.144Z" transform="translate(-533.174 -198.66)" fill="#1e1609"/>
        <g id="Grupo_958786" data-name="Grupo 958786" transform="translate(25.72 60.968)">
          <path id="Trazado_696380" data-name="Trazado 696380" d="M543.943,240.823q3.58-.264,7.161-.377c2.387-.087,4.775-.127,7.163-.158s4.776-.024,7.165.015,4.778.107,7.167.236q-3.58.265-7.161.378c-2.387.086-4.775.127-7.163.157s-4.776.023-7.165-.017S546.333,240.952,543.943,240.823Z" transform="translate(-543.943 -240.274)" fill="#1e1609"/>
        </g>
        <g id="Grupo_958787" data-name="Grupo 958787" transform="translate(29.417 58.834)">
          <path id="Trazado_696381" data-name="Trazado 696381" d="M553.951,234.856a4.139,4.139,0,0,1,.206,1.074,6.51,6.51,0,0,1-.016,1.053,6.331,6.331,0,0,1-.185,1.037,4.059,4.059,0,0,1-.409,1.015,4.061,4.061,0,0,1-.207-1.075,6.388,6.388,0,0,1,.017-1.053,6.473,6.473,0,0,1,.186-1.037A4.125,4.125,0,0,1,553.951,234.856Z" transform="translate(-553.325 -234.856)" fill="#1e1609"/>
        </g>
        <g id="Grupo_958788" data-name="Grupo 958788" transform="translate(48.573 59.152)">
          <path id="Trazado_696382" data-name="Trazado 696382" d="M602.188,235.665a3.3,3.3,0,0,1,.392.89,5.02,5.02,0,0,1,.17.91,4.913,4.913,0,0,1,0,.926.513.513,0,1,1-.617.057,4.913,4.913,0,0,1-.169-.91,4.981,4.981,0,0,1,0-.926A3.266,3.266,0,0,1,602.188,235.665Z" transform="translate(-601.944 -235.665)" fill="#1e1609"/>
        </g>
        <path id="Trazado_696383" data-name="Trazado 696383" d="M621.027,168.12l-8.544,1.76s-1.023-13.277-.42-15,3.73-1.516,3.73-1.516C616.6,154.682,621.027,168.12,621.027,168.12Z" transform="translate(-559.388 -126.634)" fill="#fff"/>
        <g id="Grupo_958789" data-name="Grupo 958789" transform="translate(34.844 25.232)">
          <path id="Trazado_696384" data-name="Trazado 696384" d="M567.1,149.6c.568.983,1.089,1.987,1.635,2.98.529,1,1.054,2,1.565,3.014,1.031,2.015,2.02,4.05,3,6.089l-.714.007c.934-2.042,1.876-4.082,2.86-6.1.487-1.012.989-2.018,1.494-3.022.523-1,1.021-2,1.566-2.989-.383,1.059-.811,2.1-1.215,3.148-.422,1.042-.847,2.082-1.286,3.116-.87,2.072-1.782,4.124-2.7,6.174a.394.394,0,0,1-.715.007c-.967-2.046-1.927-4.095-2.845-6.164-.463-1.032-.913-2.072-1.359-3.113C567.957,151.692,567.5,150.655,567.1,149.6Z" transform="translate(-567.098 -149.573)" fill="#1e1609"/>
        </g>
        <g id="Grupo_958791" data-name="Grupo 958791" transform="translate(36.175 22.723)">
          <path id="Trazado_696385" data-name="Trazado 696385" d="M570.635,145.492l-.158-2.288h8.191v2.448Z" transform="translate(-570.477 -143.204)" fill="#fff"/>
          <path id="Trazado_696386" data-name="Trazado 696386" d="M570.878,149.012l4.357,9.486,3.676-9.326Z" transform="translate(-570.72 -146.724)" fill="#fff"/>
          <g id="Grupo_958790" data-name="Grupo 958790" transform="translate(0.158 2.27)">
            <path id="Trazado_696387" data-name="Trazado 696387" d="M570.878,148.984c.691-.027,1.36-.019,2.028-.006l1.992.043,1.988.05c.667.023,1.331.016,2.024.072a7.873,7.873,0,0,1-1.985.542,11.354,11.354,0,0,1-2.048.123,12.353,12.353,0,0,1-2.036-.221A8.385,8.385,0,0,1,570.878,148.984Z" transform="translate(-570.878 -148.966)" fill="#1e1609"/>
          </g>
        </g>
        <g id="Grupo_958792" data-name="Grupo 958792" transform="translate(52.95 39.524)">
          <path id="Trazado_696388" data-name="Trazado 696388" d="M613.054,187.551a13.853,13.853,0,0,1,1.946-.725q.987-.3,1.992-.511c.669-.144,1.346-.255,2.027-.34a13.7,13.7,0,0,1,2.073-.124,13.689,13.689,0,0,1-1.946.726c-.658.2-1.321.37-1.992.509s-1.346.254-2.028.339A13.807,13.807,0,0,1,613.054,187.551Z" transform="translate(-613.054 -185.848)" fill="#1e1609"/>
        </g>
      </g>
      <g id="Grupo_958818" data-name="Grupo 958818" transform="translate(21.298 20.164)">
        <path id="Trazado_696389" data-name="Trazado 696389" d="M181.064,103.832s2.466-2.736,2.466-4.348c0-3.461-2.286-6.687-5.464-7.033-1.937-.21-6.117.235-7.2,1.661a5.317,5.317,0,0,0-3.784-.755c-1.828.529-5.375,3.776-4.728,13.894.3,4.757-9.6,11.738-4.647,15.874l26.811-2.9Z" transform="translate(-132.823 -92.403)" fill="#eb3f27"/>
        <path id="Trazado_696390" data-name="Trazado 696390" d="M125.561,195.131,111.124,175.71l3.487-2.274,11.4,11.275,8.57,4.513a27.892,27.892,0,0,1-3.474,6.334C130.191,196.621,127.215,197.709,125.561,195.131Z" transform="translate(-105.436 -141.509)" fill="#ffa686"/>
        <path id="Trazado_696391" data-name="Trazado 696391" d="M240.122,203.04l17.266-13.99-2.241-2.7-14.432,8.9-1.247-4.111-6.8,3.484s.738,5,1.972,7.464A3.913,3.913,0,0,0,240.122,203.04Z" transform="translate(-179.091 -149.337)" fill="#ffa686"/>
        <path id="Trazado_696392" data-name="Trazado 696392" d="M105.862,164.339s-.676-5.323-1.453-5.8-1.565.7-1.21,1.44.125,1.239-.288,1.018-4.465-2.726-4.618-.95c0,0-1.479.317-.883,1.258,0,0-1.075.624-.182,1.248,0,0-1.027.586-.249,1.066s3.651,1.559,5.4,3Z" transform="translate(-96.686 -132.412)" fill="#ffa686"/>
        <g id="Grupo_958794" data-name="Grupo 958794" transform="translate(1.606 27.564)">
          <path id="Trazado_696393" data-name="Trazado 696393" d="M100.763,162.43a1.745,1.745,0,0,1,.709-.055,2.294,2.294,0,0,1,.629.168,2.208,2.208,0,0,1,.559.341,1.572,1.572,0,0,1,.439.567,2.193,2.193,0,0,1-.7-.006,2.637,2.637,0,0,1-1.156-.5A1.968,1.968,0,0,1,100.763,162.43Z" transform="translate(-100.763 -162.362)" fill="#1e1609"/>
        </g>
        <g id="Grupo_958795" data-name="Grupo 958795" transform="translate(0.723 28.794)">
          <path id="Trazado_696394" data-name="Trazado 696394" d="M98.521,165.579a1.62,1.62,0,0,1,.658-.094,2.138,2.138,0,0,1,.591.119,2.084,2.084,0,0,1,.533.279,1.591,1.591,0,0,1,.45.489,1.709,1.709,0,0,1-.666.093,2.065,2.065,0,0,1-.583-.117,2.093,2.093,0,0,1-.526-.277A1.721,1.721,0,0,1,98.521,165.579Z" transform="translate(-98.521 -165.484)" fill="#1e1609"/>
        </g>
        <g id="Grupo_958796" data-name="Grupo 958796" transform="translate(0.541 29.85)">
          <path id="Trazado_696395" data-name="Trazado 696395" d="M98.059,168.453a1.167,1.167,0,0,1,.557-.264,1.409,1.409,0,0,1,.56.009,1.355,1.355,0,0,1,.522.238.947.947,0,0,1,.358.521,3.224,3.224,0,0,1-.573.06,2.064,2.064,0,0,1-.944-.216A1.833,1.833,0,0,1,98.059,168.453Z" transform="translate(-98.059 -168.165)" fill="#1e1609"/>
        </g>
        <g id="Grupo_958797" data-name="Grupo 958797" transform="translate(2.335 28.301)">
          <path id="Trazado_696396" data-name="Trazado 696396" d="M104.9,164.241c-.462.519-.844.916-1.179,1.368-.167.223-.333.447-.485.7-.169.244-.307.512-.519.8a2.139,2.139,0,0,1,.378-1.979,2.36,2.36,0,0,1,.8-.673A1.8,1.8,0,0,1,104.9,164.241Z" transform="translate(-102.611 -164.232)" fill="#1e1609"/>
        </g>
        <path id="Trazado_696397" data-name="Trazado 696397" d="M215.192,329.061s-1.182-5.178-1.436-6.445S217,264.391,217,264.391H205.108s2.024,54.824,2.04,56.27c.028,2.55-.056,4.6-.056,4.6s.967,5.23,2.877,6.974S214.766,332.865,215.192,329.061Z" transform="translate(-162.39 -196.628)" fill="#ffa686"/>
        <path id="Trazado_696398" data-name="Trazado 696398" d="M215.192,422.678s.142,2.5-1.268,2.972-4.954-1.229-5.43-2.418-1.4-4.359-1.4-4.359a6.264,6.264,0,0,0-1.441,1.9l-.174.713-.368,2.774,2.262.872s.117,2.695.874,3.566,1.8,2.75,6.345,2.747c1.587,0,2.518-2.311,2.206-4.133A38.192,38.192,0,0,0,215.192,422.678Z" transform="translate(-162.39 -290.244)" fill="#fff"/>
        <path id="Trazado_696399" data-name="Trazado 696399" d="M133.689,329.061s1.87-5.178,2.293-6.445,12.126-58.225,12.126-58.225l13.631,2.7s-18.681,52.126-18.888,53.572c-.366,2.55-.555,4.6-.555,4.6s-1.662,5.23-3.8,6.974S133.61,332.865,133.689,329.061Z" transform="translate(-119.109 -196.628)" fill="#ffa686"/>
        <path id="Trazado_696400" data-name="Trazado 696400" d="M181.841,273.059l-13.025-.617.58-8.051,13.63,2.7Z" transform="translate(-140.397 -196.628)" fill="#1e1609"/>
        <path id="Trazado_696401" data-name="Trazado 696401" d="M176.776,300.8l-8.836-2.024-1.9-47.87-14.933,48.083H140.47l11.694-65.584,26.292-2.08s2.581,2.789,3.111,12.025S176.776,300.8,176.776,300.8Z" transform="translate(-123.219 -176.593)" fill="#ffd947"/>
        <path id="Trazado_696402" data-name="Trazado 696402" d="M209.341,272.121a11.2,11.2,0,0,1-3.97,3.509l.205,5.17C205.5,280.876,210.564,276.461,209.341,272.121Z" transform="translate(-162.549 -201.312)" fill="#1e1609"/>
        <g id="Grupo_958798" data-name="Grupo 958798" transform="translate(33.246 56.446)">
          <path id="Trazado_696403" data-name="Trazado 696403" d="M181.461,235.666a4.109,4.109,0,0,1,.309,1.047,6.429,6.429,0,0,1,.085,1.047,6.34,6.34,0,0,1-.084,1.047,4.048,4.048,0,0,1-.31,1.047,4.047,4.047,0,0,1-.31-1.047,6.342,6.342,0,0,1-.084-1.047,6.429,6.429,0,0,1,.085-1.047A4.074,4.074,0,0,1,181.461,235.666Z" transform="translate(-181.068 -235.666)" fill="#1e1609"/>
        </g>
        <g id="Grupo_958799" data-name="Grupo 958799" transform="translate(51.207 55.045)">
          <path id="Trazado_696404" data-name="Trazado 696404" d="M226.8,232.111a3.642,3.642,0,0,1,.466.913,5.6,5.6,0,0,1,.245.949,5.527,5.527,0,0,1,.078.977,3.6,3.6,0,0,1-.144,1.015,3.594,3.594,0,0,1-.467-.912,5.529,5.529,0,0,1-.244-.95,5.637,5.637,0,0,1-.077-.978A3.644,3.644,0,0,1,226.8,232.111Z" transform="translate(-226.652 -232.111)" fill="#1e1609"/>
        </g>
        <g id="Grupo_958800" data-name="Grupo 958800" transform="translate(28.419 57.101)">
          <path id="Trazado_696405" data-name="Trazado 696405" d="M168.816,239.883q3.492-.547,7-.943c2.336-.275,4.676-.5,7.017-.725s4.685-.4,7.033-.552,4.7-.272,7.053-.332q-3.492.548-7,.944c-2.336.275-4.676.5-7.018.724s-4.686.4-7.033.551S171.171,239.822,168.816,239.883Z" transform="translate(-168.816 -237.33)" fill="#1e1609"/>
        </g>
        <path id="Trazado_696406" data-name="Trazado 696406" d="M129.977,422.677s-.474,2.5.873,2.972,5.117-1.229,5.752-2.418,1.981-4.359,1.981-4.359a5.206,5.206,0,0,1,1.189,1.9l.079.713v2.774l-2.377.872s-.476,2.695-1.347,3.566-2.166,2.75-6.71,2.747c-1.587,0-2.212-2.311-1.657-4.133A43.889,43.889,0,0,1,129.977,422.677Z" transform="translate(-115.396 -290.244)" fill="#fff"/>
        <g id="Grupo_958801" data-name="Grupo 958801" transform="translate(40.061 69.458)">
          <path id="Trazado_696407" data-name="Trazado 696407" d="M198.365,272.691a19.844,19.844,0,0,0,2.348.533.86.86,0,0,0,.446-.04,3.046,3.046,0,0,0,.455-.269c.316-.218.626-.466.931-.716.606-.512,1.2-1.049,1.753-1.621a10.582,10.582,0,0,0,1.5-1.888,5.257,5.257,0,0,1-1.028,2.283,10.391,10.391,0,0,1-1.721,1.832,8.4,8.4,0,0,1-1.039.741,3.505,3.505,0,0,1-.632.292,1.332,1.332,0,0,1-.765-.009A6.688,6.688,0,0,1,198.365,272.691Z" transform="translate(-198.365 -268.691)" fill="#1e1609"/>
        </g>
        <path id="Trazado_696408" data-name="Trazado 696408" d="M168.357,154.139l.706,30.636,26.292-2.08-2.642-29.734-5.174-1.887-13.159.374Z" transform="translate(-140.119 -127.958)" fill="#fff"/>
        <path id="Trazado_696409" data-name="Trazado 696409" d="M186.069,120.111l.395,11.538-2.821,1.036,7.5,16.222,5.661-16.6-3.453-.9.2-11.3Z" transform="translate(-149.382 -109.194)" fill="#ffa686"/>
        <path id="Trazado_696410" data-name="Trazado 696410" d="M201.469,137.873v-3.466H196.71S196.833,137.873,201.469,137.873Z" transform="translate(-157.301 -117.857)" fill="#ffa686"/>
        <path id="Trazado_696411" data-name="Trazado 696411" d="M201.353,112.45a9.872,9.872,0,0,1-.066,1.137,8.573,8.573,0,0,1-.7,2.587,4.33,4.33,0,0,1-3.973,2.812c-3.189,0-6.817-.913-6.817-6.536a5.8,5.8,0,0,1,5.778-5.826C198.766,106.624,201.353,108.446,201.353,112.45Z" transform="translate(-153.113 -101.021)" fill="#ffa686"/>
        <path id="Trazado_696412" data-name="Trazado 696412" d="M197,103.4a7.38,7.38,0,0,0-8.058-.733s2.654,4.471-2.7,5.949a5.581,5.581,0,0,1-.63-7.5C187.892,97.862,196.577,95.022,197,103.4Z" transform="translate(-149.858 -95.73)" fill="#eb3f27"/>
        <circle id="Elipse_7879" data-name="Elipse 7879" cx="1.892" cy="1.892" r="1.892" transform="translate(34.261 11.408)" fill="#f17353"/>
        <circle id="Elipse_7880" data-name="Elipse 7880" cx="0.357" cy="0.357" r="0.357" transform="translate(42.464 11.051)" fill="#1e1609"/>
        <path id="Trazado_696413" data-name="Trazado 696413" d="M214.947,120.807a.357.357,0,1,1-.357-.357A.357.357,0,0,1,214.947,120.807Z" transform="translate(-167.919 -109.399)" fill="#1e1609"/>
        <g id="Grupo_958802" data-name="Grupo 958802" transform="translate(44.72 12.627)">
          <path id="Trazado_696414" data-name="Trazado 696414" d="M210.449,124.451a1.648,1.648,0,0,1,.576.335,1.126,1.126,0,0,1,.394.611.49.49,0,0,1-.017.248.393.393,0,0,1-.176.218.706.706,0,0,1-.393.082,1.345,1.345,0,0,1-.644-.2c.221-.042.433-.065.619-.108a.531.531,0,0,0,.212-.086c.014-.017.02-.018.016-.026a.145.145,0,0,0-.005-.065,1.472,1.472,0,0,0-.236-.473C210.684,124.819,210.562,124.647,210.449,124.451Z" transform="translate(-210.189 -124.451)" fill="#1e1609"/>
        </g>
        <path id="Trazado_696415" data-name="Trazado 696415" d="M201.946,125.7a1.408,1.408,0,1,1-1.408-1.408A1.408,1.408,0,0,1,201.946,125.7Z" transform="translate(-158.767 -111.728)" fill="#e05e61"/>
        <path id="Trazado_696416" data-name="Trazado 696416" d="M216.893,124.3a8.574,8.574,0,0,1-.7,2.587,1.406,1.406,0,0,1,.7-2.587Z" transform="translate(-168.718 -111.731)" fill="#e05e61"/>
        <path id="Trazado_696417" data-name="Trazado 696417" d="M207.269,132.524a6.624,6.624,0,0,1-1.9,0s.27,1.391.95,1.391S207.269,132.524,207.269,132.524Z" transform="translate(-162.549 -116.716)" fill="#fff"/>
        <g id="Grupo_958803" data-name="Grupo 958803" transform="translate(34.899 12.317)">
          <path id="Trazado_696418" data-name="Trazado 696418" d="M186.683,123.679a2.261,2.261,0,0,0-.8.449.777.777,0,0,0-.219.712.651.651,0,0,0,.468.54,3.41,3.41,0,0,0,.914.177,1.707,1.707,0,0,1-1,.119.976.976,0,0,1-.506-.248.9.9,0,0,1-.266-.527,1.011,1.011,0,0,1,.415-1.009A1.417,1.417,0,0,1,186.683,123.679Z" transform="translate(-185.264 -123.664)" fill="#1e1609"/>
        </g>
        <path id="Trazado_696419" data-name="Trazado 696419" d="M299.155,183.721c.847-1.206,1-2.055.444-2.094a37.2,37.2,0,0,0-4.741,1.71s-3.708-1.413-4.182-1.259a3.306,3.306,0,0,0-1.467,1.454l2.443,2.653s4.4-.806,4.685-.952A23.68,23.68,0,0,0,299.155,183.721Z" transform="translate(-213.355 -146.472)" fill="#ffa686"/>
        <g id="Grupo_958804" data-name="Grupo 958804" transform="translate(31.027 24.022)">
          <path id="Trazado_696420" data-name="Trazado 696420" d="M175.633,154.128a.833.833,0,0,0-.121.495q-.006.261.011.522c.022.348.056.7.094,1.043.079.694.18,1.385.29,2.076q.337,2.069.726,4.129l-.267-.205,4.167-.448a.315.315,0,0,1,.347.279.323.323,0,0,1,0,.067v.011l-.283,2.5-.346-.391,2.2-.021a.36.36,0,0,1,.281.13l0,.005,3.732,4.5-.595-.014,4.572-5.026,0,0a.365.365,0,0,1,.314-.115l1.86.244-.383.425-.714-3.3,0-.009a.305.305,0,0,1,.234-.362.312.312,0,0,1,.142,0l3.273.859-.308.259c-.071-1.4-.139-2.794-.191-4.194s-.119-2.8-.156-4.2c.162,1.389.3,2.783.44,4.178s.277,2.79.4,4.188a.245.245,0,0,1-.221.266.238.238,0,0,1-.075,0l-.011,0-3.3-.745.373-.368.8,3.285a.347.347,0,0,1-.374.427h-.009l-1.864-.209.317-.119-4.535,5.06a.391.391,0,0,1-.553.03.4.4,0,0,1-.042-.044l-3.7-4.529.285.134-2.2-.021h-.007a.345.345,0,0,1-.342-.348.388.388,0,0,1,0-.043l.34-2.488.346.358-4.18.307h-.01a.242.242,0,0,1-.257-.206c-.2-1.39-.385-2.779-.518-4.177-.068-.7-.128-1.4-.165-2.1-.019-.351-.03-.7-.022-1.054,0-.176.013-.352.031-.527A.847.847,0,0,1,175.633,154.128Z" transform="translate(-175.436 -153.372)" fill="#1e1609"/>
        </g>
        <path id="Trazado_696421" data-name="Trazado 696421" d="M156.575,158.852a13.738,13.738,0,0,0-5.4,1.638c-1.963,1.338-2.593,7.524-.629,9.185l-1.636,6.2,8.57,4.513S158.8,161.162,156.575,158.852Z" transform="translate(-128.336 -132.671)" fill="#fff"/>
        <path id="Trazado_696422" data-name="Trazado 696422" d="M228.261,155.865s3.553.08,5.516,1.417,2.593,7.524.629,9.185l1.636,6.2-8.57,4.513S226.038,158.175,228.261,155.865Z" transform="translate(-175.667 -130.861)" fill="#fff"/>
        <path id="Trazado_696423" data-name="Trazado 696423" d="M177.646,200.877a4.612,4.612,0,0,0,4.51,1.038,11.545,11.545,0,0,0,4.241-2.545" transform="translate(-145.748 -157.225)" fill="none" stroke="#332737" stroke-linecap="round" stroke-linejoin="round" stroke-miterlimit="10" stroke-width="2"/>
        <g id="Grupo_958805" data-name="Grupo 958805" transform="translate(48.967 33.396)">
          <path id="Trazado_696424" data-name="Trazado 696424" d="M220.967,187.659a8.577,8.577,0,0,0,3.7-.264,2.8,2.8,0,0,0,1.322-1.046,3.791,3.791,0,0,0,.568-1.633,9.521,9.521,0,0,0,.066-1.842c-.019-.633-.07-1.265-.118-1.9-.107-1.267-.277-2.53-.457-3.811a17.643,17.643,0,0,1,1.067,3.731,13.526,13.526,0,0,1,.221,3.933,4.4,4.4,0,0,1-.739,1.95,3.274,3.274,0,0,1-1.728,1.2,4.835,4.835,0,0,1-2.009.138A10.771,10.771,0,0,1,220.967,187.659Z" transform="translate(-220.967 -177.165)" fill="#1e1609"/>
        </g>
        <g id="Grupo_958806" data-name="Grupo 958806" transform="translate(53.906 42.937)">
          <path id="Trazado_696425" data-name="Trazado 696425" d="M233.967,203.41a1.5,1.5,0,0,1-.333-.49,1.665,1.665,0,0,1-.123-.493,1.642,1.642,0,0,1,.033-.507,1.464,1.464,0,0,1,.242-.541,1.271,1.271,0,0,1,.373.47,1.479,1.479,0,0,1,.136.508,1.525,1.525,0,0,1-.045.524A1.28,1.28,0,0,1,233.967,203.41Z" transform="translate(-233.505 -201.379)" fill="#1e1609"/>
        </g>
        <g id="Grupo_958807" data-name="Grupo 958807" transform="translate(22.214 37.005)">
          <path id="Trazado_696426" data-name="Trazado 696426" d="M153.066,186.324a6.94,6.94,0,0,1,.869,1.356,9.18,9.18,0,0,1,.6,1.484,5.813,5.813,0,0,1,.188.8c.024.135.033.284.044.429a1.3,1.3,0,0,1-.067.523.749.749,0,0,1-.411.433.816.816,0,0,1-.531.006,1.54,1.54,0,0,1-.693-.492,2.393,2.393,0,0,0,.75.11.354.354,0,0,0,.238-.083.255.255,0,0,0,.063-.166l-.036-.258c-.027-.115-.048-.227-.087-.348-.063-.236-.137-.481-.212-.725-.149-.489-.292-.988-.42-1.5A10.42,10.42,0,0,1,153.066,186.324Z" transform="translate(-153.066 -186.324)" fill="#1e1609"/>
        </g>
        <g id="Grupo_958808" data-name="Grupo 958808" transform="translate(28.238 26.101)">
          <path id="Trazado_696427" data-name="Trazado 696427" d="M168.357,158.729a.859.859,0,0,1,.576-.054,1.056,1.056,0,0,1,.47.255.912.912,0,0,1,.249,1.043,3.185,3.185,0,0,1-.472-.231,2.012,2.012,0,0,1-.315-.236,1.887,1.887,0,0,1-.26-.308A2.514,2.514,0,0,1,168.357,158.729Z" transform="translate(-168.357 -158.649)" fill="#1e1609"/>
        </g>
        <g id="Grupo_958809" data-name="Grupo 958809" transform="translate(28.73 33.396)">
          <path id="Trazado_696428" data-name="Trazado 696428" d="M169.6,191.264c.017-1.191.088-2.37.175-3.546s.193-2.349.3-3.52.228-2.341.364-3.511.254-2.341.423-3.521a25.176,25.176,0,0,1,.191,3.557c-.011,1.187-.088,2.37-.193,3.55-.123,1.178-.269,2.353-.476,3.52A30.719,30.719,0,0,1,169.6,191.264Z" transform="translate(-169.605 -177.165)" fill="#1e1609"/>
        </g>
        <g id="Grupo_958810" data-name="Grupo 958810" transform="translate(52.449 25.004)">
          <path id="Trazado_696429" data-name="Trazado 696429" d="M229.951,155.865a.71.71,0,0,1,.441.21.778.778,0,0,1,.2.35.766.766,0,0,1,0,.4.808.808,0,0,1-.262.4,1.216,1.216,0,0,1-.349-.3.8.8,0,0,1-.163-.626A1.762,1.762,0,0,1,229.951,155.865Z" transform="translate(-229.806 -155.865)" fill="#1e1609"/>
        </g>
        <g id="Grupo_958811" data-name="Grupo 958811" transform="translate(57.577 35.607)">
          <path id="Trazado_696430" data-name="Trazado 696430" d="M243.985,182.775c-.079.462-.141.881-.2,1.307s-.11.842-.156,1.258a8.008,8.008,0,0,0-.069,1.2.989.989,0,0,0,.012.115c0,.03.013.067.005.065s.02.045.025.055-.005.021,0,.035c.025.029.106-.052.158-.136a2.065,2.065,0,0,0,.153-.3,1.065,1.065,0,0,1,.058.356.51.51,0,0,1-.179.414.412.412,0,0,1-.314.064.5.5,0,0,1-.255-.111.622.622,0,0,1-.175-.208.952.952,0,0,1-.092-.2,3.34,3.34,0,0,1-.115-1.437,4.876,4.876,0,0,1,.344-1.338A2.968,2.968,0,0,1,243.985,182.775Z" transform="translate(-242.822 -182.775)" fill="#1e1609"/>
        </g>
        <path id="Trazado_696431" data-name="Trazado 696431" d="M170.15,236.609" transform="translate(-141.205 -179.792)" fill="#eb3f27"/>
        <g id="Grupo_958812" data-name="Grupo 958812" transform="translate(44.596 119.017)">
          <path id="Trazado_696432" data-name="Trazado 696432" d="M209.873,394.5a18.247,18.247,0,0,1,2.387.039q1.184.086,2.356.256c.781.112,1.558.257,2.331.428a18.042,18.042,0,0,1,2.3.647,18.054,18.054,0,0,1-2.388-.038c-.789-.058-1.575-.141-2.356-.257s-1.558-.258-2.331-.429A18.222,18.222,0,0,1,209.873,394.5Z" transform="translate(-209.873 -394.477)" fill="#1e1609"/>
        </g>
        <g id="Grupo_958813" data-name="Grupo 958813" transform="translate(17.969 117.978)">
          <path id="Trazado_696433" data-name="Trazado 696433" d="M142.294,392.233a25.186,25.186,0,0,1,2.793-.306c.931-.063,1.862-.08,2.793-.087.931.007,1.862.024,2.793.086a25,25,0,0,1,2.793.307,24.909,24.909,0,0,1-2.793.307c-.931.063-1.862.08-2.793.086s-1.862-.025-2.793-.087A25.182,25.182,0,0,1,142.294,392.233Z" transform="translate(-142.294 -391.839)" fill="#1e1609"/>
        </g>
        <g id="Grupo_958814" data-name="Grupo 958814" transform="translate(20.577 43.203)">
          <path id="Trazado_696434" data-name="Trazado 696434" d="M148.913,202.054a5.508,5.508,0,0,1,1.14.667,8.541,8.541,0,0,1,.975.847,7.9,7.9,0,0,1,.836.988,4.521,4.521,0,0,1,.623,1.172,9.943,9.943,0,0,1-2.019-1.606,11.059,11.059,0,0,1-.846-.959A6.357,6.357,0,0,1,148.913,202.054Z" transform="translate(-148.913 -202.054)" fill="#1e1609"/>
        </g>
        <g id="Grupo_958815" data-name="Grupo 958815" transform="translate(60.331 45.915)">
          <path id="Trazado_696435" data-name="Trazado 696435" d="M251.1,208.938a2.3,2.3,0,0,1-.1.67,2.659,2.659,0,0,1-.242.55,2.6,2.6,0,0,1-.359.485,2,2,0,0,1-.543.415,1.545,1.545,0,0,1-.009-.7,2,2,0,0,1,.638-1.1A1.443,1.443,0,0,1,251.1,208.938Z" transform="translate(-249.812 -208.938)" fill="#1e1609"/>
        </g>
        <g id="Grupo_958817" data-name="Grupo 958817" transform="translate(60.376 8.581)">
          <path id="Trazado_696436" data-name="Trazado 696436" d="M249.93,114.981l0,.032,2.452,25.783a1.226,1.226,0,0,0,1.22,1.11H291.6l-2.438-27.063a.728.728,0,0,0-.726-.66h-37.8A.715.715,0,0,0,249.93,114.981Z" transform="translate(-249.925 -114.183)" fill="#1e1609"/>
          <rect id="Rectángulo_342366" data-name="Rectángulo 342366" width="31.857" height="1.504" transform="translate(56.7 27.722) rotate(180)" fill="#48485c"/>
          <path id="Trazado_696437" data-name="Trazado 696437" d="M253.577,114.981l0,.032L256,140.4h39.244l-2.438-25.559a.728.728,0,0,0-.726-.66H254.3A.731.731,0,0,0,253.577,114.981Z" transform="translate(-252.136 -114.183)" fill="#fff"/>
          <path id="Trazado_696438" data-name="Trazado 696438" d="M293.451,116.289H256.5l2.327,24.4h36.954Z" transform="translate(-253.908 -115.459)" fill="#48485c"/>
          <path id="Trazado_696439" data-name="Trazado 696439" d="M296.894,134.036l-2.752-.957-3.261,4.375-3.261-17.1-4.79,13.323-2.344-6.577-2.038,1.108-3.261-8.315-2.446,9.649-1.987-2.2" transform="translate(-262.548 -117.643)" fill="none" stroke="#019ae6" stroke-miterlimit="10" stroke-width="2"/>
          <path id="Trazado_696440" data-name="Trazado 696440" d="M302.072,134.2l-4.483-6.424-5.765,7.821-4.483-5.509-1.6,1.463-3.63-7.834-2.989,8.018-4.43-3.555" transform="translate(-264.933 -119.959)" fill="none" stroke="#eb3f27" stroke-miterlimit="10" stroke-width="2"/>
          <rect id="Rectángulo_342367" data-name="Rectángulo 342367" width="5.592" height="0.806" transform="translate(12.362 18.206) rotate(180)" fill="#019ae6"/>
          <rect id="Rectángulo_342368" data-name="Rectángulo 342368" width="5.592" height="0.806" transform="translate(19.813 18.206) rotate(180)" fill="#eb3f27"/>
          <rect id="Rectángulo_342369" data-name="Rectángulo 342369" width="7.218" height="5.134" transform="translate(30.737 1.812)" fill="#fff"/>
          <g id="Grupo_958816" data-name="Grupo 958816" transform="translate(32.43 2.463)">
            <path id="Trazado_696441" data-name="Trazado 696441" d="M334.152,123.95a1.613,1.613,0,1,1,1.563-1.267c.095.054.19.105.289.154a1.924,1.924,0,1,0-.708,1.048q-.106-.117-.216-.233A1.591,1.591,0,0,1,334.152,123.95Z" transform="translate(-332.236 -120.434)" fill="#eb3f27"/>
            <path id="Trazado_696442" data-name="Trazado 696442" d="M340.09,126.143a1.6,1.6,0,0,1-.635.968q.109.116.216.233a1.923,1.923,0,0,0,.708-1.047Q340.231,126.224,340.09,126.143Z" transform="translate(-336.611 -123.894)" fill="#019ae6"/>
          </g>
          <rect id="Rectángulo_342370" data-name="Rectángulo 342370" width="14.445" height="4.833" transform="translate(6.756 19.244)" fill="#fff"/>
          <path id="Trazado_696443" data-name="Trazado 696443" d="M268.626,167.96s.565-1.108.976-1.133c.639-.038.94.578,1.241.566.976-.038,1.1-1.208,2.04-1.208.5,0,.97,1.265,1.632,1.265.781,0,1.117-1.812,1.7-1.812s.733,1.057,1.256,1.095.824-1.359,1.676-1.378,1.43,1.548,2.7-1.133v3.89Z" transform="translate(-261.258 -144.506)" fill="#f54555"/>
          <path id="Trazado_696444" data-name="Trazado 696444" d="M344.291,167.439c-.888,0-1.157,2.339-1.9,3.094H346.2C345.448,169.778,345.18,167.439,344.291,167.439Z" transform="translate(-305.957 -146.456)" fill="#eb3f27"/>
          <path id="Trazado_696445" data-name="Trazado 696445" d="M330.8,165.284c-.888,0-1.157,2.981-1.9,3.943H332.7C331.955,168.265,331.687,165.284,330.8,165.284Z" transform="translate(-297.78 -145.15)" fill="#eb3f27"/>
          <path id="Trazado_696446" data-name="Trazado 696446" d="M337.544,161.281c-.888,0-1.157,4.174-1.9,5.52h3.808C338.7,165.455,338.433,161.281,337.544,161.281Z" transform="translate(-301.868 -142.724)" fill="#019ae6"/>
          <path id="Trazado_696447" data-name="Trazado 696447" d="M324.051,168.286c-.888,0-1.157,2.087-1.9,2.76h3.808C325.208,170.373,324.94,168.286,324.051,168.286Z" transform="translate(-293.692 -146.969)" fill="#019ae6"/>
          <path id="Trazado_696448" data-name="Trazado 696448" d="M336.944,155.344a.29.29,0,1,1-.29-.29A.29.29,0,0,1,336.944,155.344Z" transform="translate(-302.308 -138.951)" fill="#fff"/>
          <path id="Trazado_696449" data-name="Trazado 696449" d="M344.03,149.876a.29.29,0,1,1-.29-.29A.29.29,0,0,1,344.03,149.876Z" transform="translate(-306.602 -135.637)" fill="#fff"/>
        </g>
      </g>
    </g>
  </g>
</svg>
