<svg xmlns="http://www.w3.org/2000/svg" width="44.997" height="55.078" viewBox="0 0 44.997 55.078">
  <g id="Grupo_905582" data-name="Grupo 905582" transform="translate(-1063.41 -5694.495)">
    <path id="Trazado_123281" data-name="Trazado 123281" d="M14.174.294A7.085,7.085,0,0,1,23.237,6.8a11.6,11.6,0,0,1-1.511,6.365c-2.889,5.118-5.866,10.207-8.843,15.281A9.077,9.077,0,0,1,11.5,30.166C9.158,32.63,6.269,33.2,3.527,31.794A6.8,6.8,0,0,1,.344,23.611a21.377,21.377,0,0,1,1.877-3.974c2.86-5.133,6.247-9.972,8.2-15.6A6.329,6.329,0,0,1,14.174.294Z" transform="translate(1083.943 5710.741) rotate(13)" fill="none" stroke="#ffc107" stroke-width="3"/>
    <path id="Trazado_123282" data-name="Trazado 123282" d="M.3,26.385a10.433,10.433,0,0,1-.293-2.376q.528-8.051,1.247-16.1A9.927,9.927,0,0,1,3.483,2.539,6.174,6.174,0,0,1,10.009.193a5.838,5.838,0,0,1,4.444,4.444,9.741,9.741,0,0,1,.4,2.889Q14.233,16.3,13.47,25.079a8.219,8.219,0,0,1-.528,2.126,6.61,6.61,0,0,1-6.775,4.561C3.366,31.605,1.328,29.875.3,26.385Z" transform="translate(1072.358 5696.313) rotate(13)" fill="none" stroke="#ffc107" stroke-width="3"/>
  </g>
</svg>
