<svg xmlns="http://www.w3.org/2000/svg" width="123.794" height="247.801" viewBox="0 0 123.794 247.801">
  <g id="Grupo_1013391" data-name="Grupo 1013391" transform="translate(-1310.987 -1404.271)">
    <g id="Grupo_86513" data-name="Grupo 86513" transform="translate(1436.442 1425.663) rotate(108)">
      <g id="Grupo_86407" data-name="Grupo 86407" transform="translate(0 0.263)">
        <path id="Trazado_122877" data-name="Trazado 122877" d="M77.193.064C62.457,5.246,47.152,9.03,33.675,17.261a96.544,96.544,0,0,0-17.6,13.665C11.259,35.687,6.4,41.155,3.351,47.249.9,52.14-1.81,59.089,1.621,64.169c2.879,4.26,8.539,5.272,13.309,4.607,14.49-2.028,17.89-18.858,22.906-30.062C43.929,25.1,54.466,14.928,66.987,7.544c4.239-1.146,8.4-2.583,11.348-5.519C79.127,1.235,78.33-.336,77.193.064Z" transform="translate(114.274 0)" fill="#add031"/>
        <path id="Trazado_122878" data-name="Trazado 122878" d="M87.886,36.492q9.966-4.74,19.692-9.955A202.1,202.1,0,0,0,125.3,15.506c3.5-2.354,7.069-4.551,10.5-7,1.451-1.033,2.886-2.093,4.292-3.183.5-.388,1.6-.975,1.733-1.686a.979.979,0,0,0-.3-.915.8.8,0,0,0-.074-.194l-.164-.213a1.06,1.06,0,0,0-.46-.27l.208.088c-.185-.079-.367-.185-.559-.247-.113-.037-.231-.06-.346-.092a5.866,5.866,0,0,1-.668-.231l-.157-.069c-.021-1-.975-1.978-2.007-1.231-20.071,14.494-44.337,20.9-68.125,26.3a178.175,178.175,0,0,1-20.524,3.5c-6.7.723-13.39.3-20.119.7-7.339.437-15.132.185-22.032,3.144C.987,36.275-2.271,42.163,1.874,47.486,5.9,52.661,13.991,54.2,20.159,54.5c10.9.527,22.357-1.846,32.788-4.764A219.3,219.3,0,0,0,87.886,36.492Z" transform="translate(0 1.485)" fill="#add031"/>
      </g>
      <g id="Grupo_86408" data-name="Grupo 86408" transform="translate(122.867 0)">
        <path id="Trazado_122879" data-name="Trazado 122879" d="M.747,58.7C7.5,43.707,16.756,28.772,30.781,19.626A118.011,118.011,0,0,1,51.956,9.163c3.611-1.43,7.3-2.583,11-3.784C66.459,4.238,70.169,3.191,73.092.86c.413-.33-.037-.966-.49-.846-4.084,1.1-8.034,2.761-12.087,3.994C56.551,5.215,52.7,6.631,48.874,8.218c-7.307,3.036-14.577,6.355-21.09,10.9C14.55,28.345,5.321,43.391.021,58.391c-.148.418.538.718.726.3Z" transform="translate(0 0)" fill="#4f9638"/>
      </g>
      <g id="Grupo_86409" data-name="Grupo 86409" transform="translate(4.137 3.881)">
        <path id="Trazado_122880" data-name="Trazado 122880" d="M.34,41.33c3.428,1.76,7.273,1.712,11.038,1.719,4.826.007,9.624.446,14.457.377,10.084-.143,20.011-2.1,29.8-4.385A246.172,246.172,0,0,0,111.486,18.8c8.927-4.523,18.664-9.823,24.857-17.869.485-.628-.5-1.211-1.021-.788-7.1,5.736-14.078,11.16-22.291,15.24-8.448,4.2-16.938,8.233-25.756,11.616-8.677,3.331-17.53,5.916-26.486,8.37-9.458,2.592-19.017,5.191-28.8,6.219a86.389,86.389,0,0,1-16.25.014c-4.833-.4-10.22.746-14.727-1.425-.767-.37-1.444.758-.672,1.153Z" transform="translate(0 0)" fill="#4f9638"/>
      </g>
    </g>
    <g id="Grupo_93242" data-name="Grupo 93242" transform="translate(1331.799 1652.072) rotate(-103)">
      <path id="Trazado_122958" data-name="Trazado 122958" d="M.031,0c1.879,5.877-.31,13.382,0,19.573.342,6.8.783,13.865,1.71,20.615.9,6.513,2.241,13.557,6.4,18.863,5.135,6.554,8.658,3.284,9.147-3.782.353-5.08-1.019-17.693,2.377-21.079,3.133,14.334,5.49,28.618,15.373,40.059,2.4,2.775,9.9,11.726,13.928,8.438,3.325-2.709.059-16.635-1.325-20.133C55.816,73.368,70.822,85.891,85.406,85.2c17.569-.832-12.517-25.656-17.573-29.1-5.606-3.822-11.392-7.525-17.059-10.88,9.771-1.451,23.9,5.092,32.946-1.5,14.407-10.5-12.2-18.095-19.626-19.216a137.9,137.9,0,0,0-18.158-1.723c7.231,0,15.675.928,22.423-2.1,10.664-4.783-1.6-9.661-7.264-11.924-12.707-5.08-27.32-4.149-40.83-4.114-4.954.012-14.2.579-18.547-2.108Z" transform="translate(3.998 5.293)" fill="#4f9638"/>
      <g id="Grupo_86470" data-name="Grupo 86470" transform="translate(0 0)">
        <path id="Trazado_122959" data-name="Trazado 122959" d="M.033.826c1.3,3.537,3.833,6.509,6.189,9.408C7.741,12.1,9.2,14.016,10.687,15.908a.5.5,0,0,0,.316.4c.657.836,1.325,1.666,1.976,2.507a.428.428,0,0,0-.161.259c-.589,2.938-.069,6.224-.1,9.221-.033,3.035-.147,6.069-.212,9.1A81.181,81.181,0,0,0,13.753,55.6c.092.451.86.357.813-.11A152.415,152.415,0,0,1,14.2,37.053c.063-3.035.155-6.071.171-9.107.014-2.44.271-5.217-.249-7.673.194.253.4.5.593.752,5.272,6.929,10.894,13.547,16.5,20.2C41.389,53.293,51.4,66.187,65.249,74.242c.807.471,1.472-.72.722-1.237-13.009-8.99-22.847-21.626-32.9-33.627-1.57-1.874-3.119-3.761-4.675-5.647,1.277.057,2.581-.018,3.8.02,2.2.069,4.385.183,6.577.318,4.719.289,9.427.689,14.111,1.35a160.784,160.784,0,0,1,26.631,5.79c.08.024.11-.1.035-.124-4.4-1.56-8.656-3.248-13.194-4.393q-6.924-1.746-13.987-2.852c-4.352-.685-8.735-1.242-13.129-1.582-2.345-.181-4.693-.294-7.044-.373a27.44,27.44,0,0,0-5.351-.027q-5.082-6.171-10.179-12.334c-.866-1.042-1.761-2.061-2.65-3.087.915-.1,1.831-.257,2.73-.336q3.214-.278,6.442-.334a109.4,109.4,0,0,1,12.5.479c8.224.791,16.109,2.993,24.439,2.689a.143.143,0,0,0,0-.285c-8.4-.565-16.492-3.421-24.886-4.206A108.561,108.561,0,0,0,22.264,14q-3.226.083-6.444.381a24.5,24.5,0,0,0-3.231.4c-1.4-1.606-2.8-3.215-4.165-4.856C5.829,6.785,3.625,3.385,1.112.2.714-.3-.183.239.033.826Z" fill="#36753c"/>
        <path id="Trazado_122960" data-name="Trazado 122960" d="M2.524,8.254c-.6-2.626-.679-5.643-1.782-8.1A.321.321,0,0,0,.161.23c-.536,2.6.387,5.559.972,8.089.648,2.8,1.448,5.561,2.334,8.3C5.3,22.281,7.6,27.777,9.769,33.325c.19.487.976.292.8-.22C8.652,27.59,6.626,22.112,4.842,16.555,3.963,13.819,3.17,11.055,2.524,8.254Z" transform="translate(31.399 42.517)" fill="#36753c"/>
      </g>
    </g>
    <path id="Trazado_122727" data-name="Trazado 122727" d="M0,25.106a29.81,29.81,0,0,1,.628-6.091,13.909,13.909,0,0,1,3.2-6.948C4.771,11.039,5.407,9.745,6.324,8.7,12.784,1.333,20.841-1.387,30.436.661a16.46,16.46,0,0,1,8.316,4.716,22.335,22.335,0,0,1,6.387,11.746,19.022,19.022,0,0,1-4.021,15.789c-5.47,6.941-12.529,11.058-21.481,11.613A23.855,23.855,0,0,1,8.9,42.7a12.919,12.919,0,0,1-7.1-7.155A25.994,25.994,0,0,1,0,25.106Zm5.233.266a19.4,19.4,0,0,0,1.2,7.835,8.093,8.093,0,0,0,5.13,5.019,18.883,18.883,0,0,0,6.963,1.234A23.25,23.25,0,0,0,38.182,28.24C42.95,20.8,39.543,9.974,31.508,6.227a12.733,12.733,0,0,0-2.121-.761A19.267,19.267,0,0,0,8.763,13.434,19.7,19.7,0,0,0,5.237,25.372Z" transform="matrix(-0.309, -0.951, 0.951, -0.309, 1349.057, 1461.308)" fill="#ffc107"/>
  </g>
</svg>
