<svg xmlns="http://www.w3.org/2000/svg" width="356.48" height="282.682" viewBox="0 0 356.48 282.682">
  <g id="_27828939_7320705" data-name="27828939_7320705" transform="translate(0 -42.276)">
    <g id="Background_Complete" transform="translate(0 42.276)">
      <g id="Grupo_957205" data-name="Grupo 957205" transform="translate(0 9.037)">
        <rect id="Rectángulo_341953" data-name="Rectángulo 341953" width="356.48" height="0.178" transform="translate(0 233.456)" fill="#ebebeb"/>
        <rect id="Rectángulo_341954" data-name="Rectángulo 341954" width="23.615" height="0.178" transform="translate(297.147 244.932)" fill="#ebebeb"/>
        <rect id="Rectángulo_341955" data-name="Rectángulo 341955" width="6.198" height="0.178" transform="translate(229.949 246.867)" fill="#ebebeb"/>
        <rect id="Rectángulo_341956" data-name="Rectángulo 341956" width="13.683" height="0.178" transform="translate(282.75 238.311)" fill="#ebebeb"/>
        <rect id="Rectángulo_341957" data-name="Rectángulo 341957" width="30.795" height="0.178" transform="translate(37.401 239.509)" fill="#ebebeb"/>
        <rect id="Rectángulo_341958" data-name="Rectángulo 341958" width="4.515" height="0.178" transform="translate(74.544 239.509)" fill="#ebebeb"/>
        <rect id="Rectángulo_341959" data-name="Rectángulo 341959" width="66.787" height="0.178" transform="translate(93.734 242.52)" fill="#ebebeb"/>
        <path id="Trazado_694865" data-name="Trazado 694865" d="M179.949,256.612H42.277a4.075,4.075,0,0,1-4.07-4.07V59.022a4.075,4.075,0,0,1,4.07-4.07H179.949a4.074,4.074,0,0,1,4.069,4.07v193.52A4.074,4.074,0,0,1,179.949,256.612ZM42.277,55.131a3.9,3.9,0,0,0-3.891,3.891v193.52a3.9,3.9,0,0,0,3.891,3.891H179.949a3.9,3.9,0,0,0,3.891-3.891V59.022a3.9,3.9,0,0,0-3.891-3.891H42.277Z" transform="translate(-10.967 -54.952)" fill="#ebebeb"/>
        <path id="Trazado_694866" data-name="Trazado 694866" d="M396.245,256.612H258.574a4.074,4.074,0,0,1-4.069-4.07V59.022a4.074,4.074,0,0,1,4.069-4.07H396.245a4.074,4.074,0,0,1,4.07,4.07v193.52A4.074,4.074,0,0,1,396.245,256.612ZM258.574,55.131a3.9,3.9,0,0,0-3.891,3.891v193.52a3.9,3.9,0,0,0,3.891,3.891H396.245a3.9,3.9,0,0,0,3.891-3.891V59.022a3.9,3.9,0,0,0-3.891-3.891H258.574Z" transform="translate(-73.053 -54.952)" fill="#ebebeb"/>
      </g>
      <g id="Grupo_957230" data-name="Grupo 957230" transform="translate(46.096)">
        <rect id="Rectángulo_341960" data-name="Rectángulo 341960" width="126.274" height="74.11" transform="translate(145.365 48.209)" fill="#e0e0e0"/>
        <rect id="Rectángulo_341961" data-name="Rectángulo 341961" width="121.031" height="68.736" transform="translate(147.986 50.896)" fill="#ebebeb"/>
        <g id="Grupo_957221" data-name="Grupo 957221" transform="translate(20.035 169.172)">
          <g id="Grupo_957212" data-name="Grupo 957212" transform="translate(5.957 6.172)">
            <g id="Grupo_957206" data-name="Grupo 957206" transform="translate(15.775 11.554)">
              <path id="Trazado_694867" data-name="Trazado 694867" d="M123.873,336.019c.008-.252.856-25.283,4.928-29.242,3.96-3.849,8.5-.143,8.7.016l.409-.489c-.051-.043-5.18-4.231-9.549.016-4.254,4.137-5.087,28.638-5.12,29.679Z" transform="translate(-123.237 -304.419)" fill="#e0e0e0"/>
            </g>
            <g id="Grupo_957207" data-name="Grupo 957207" transform="translate(7.499 5.554)">
              <path id="Trazado_694868" data-name="Trazado 694868" d="M120.192,338.523c.029-.3,2.783-30.05-8.082-42.52l-.481.418c10.684,12.263,7.957,41.742,7.929,42.039Z" transform="translate(-111.629 -296.003)" fill="#e0e0e0"/>
            </g>
            <g id="Grupo_957208" data-name="Grupo 957208" transform="translate(16.169 3.263)">
              <path id="Trazado_694869" data-name="Trazado 694869" d="M124.085,334.453l.636-.042c-.023-.337-2.127-33.822,5.843-41.153l-.431-.469C121.939,300.325,123.993,333.063,124.085,334.453Z" transform="translate(-123.79 -292.789)" fill="#e0e0e0"/>
            </g>
            <g id="Grupo_957209" data-name="Grupo 957209" transform="translate(0 18.047)">
              <path id="Trazado_694870" data-name="Trazado 694870" d="M116.537,340.387l.637-.005c-.008-.922-.263-22.618-6.426-26.149a4.358,4.358,0,0,0-3.988-.389c-3.727,1.541-5.573,8.173-5.65,8.455l.615.168c.018-.066,1.842-6.613,5.279-8.034a3.754,3.754,0,0,1,3.426.353C116.28,318.136,116.535,340.164,116.537,340.387Z" transform="translate(-101.111 -313.526)" fill="#e0e0e0"/>
            </g>
            <g id="Grupo_957210" data-name="Grupo 957210" transform="translate(17.732 19.067)">
              <path id="Trazado_694871" data-name="Trazado 694871" d="M126.076,340.813l.636-.036c-.01-.171-.93-17.145,3.651-23.125,1.11-1.449,2.315-2.14,3.588-2.05,3,.21,5.518,4.6,5.543,4.646l.555-.314c-.109-.193-2.709-4.734-6.053-4.968-1.5-.106-2.89.668-4.139,2.3C125.133,323.433,126.035,340.107,126.076,340.813Z" transform="translate(-125.981 -314.957)" fill="#e0e0e0"/>
            </g>
            <g id="Grupo_957211" data-name="Grupo 957211" transform="translate(14.255)">
              <path id="Trazado_694872" data-name="Trazado 694872" d="M123.672,335.445c.125-1.646,2.994-40.4-2.055-47.232l-.512.379c4.909,6.641,1.962,46.4,1.931,46.805Z" transform="translate(-121.105 -288.213)" fill="#e0e0e0"/>
            </g>
          </g>
          <g id="Grupo_957213" data-name="Grupo 957213" transform="translate(0 26.007)">
            <path id="Trazado_694873" data-name="Trazado 694873" d="M102.99,318.491s3.029,1.117,2.129,3.753-10.479,6.976-10.479,6.976-4.012-3.677-.327-9.657S102.908,316.6,102.99,318.491Z" transform="translate(-92.755 -316.034)" fill="#ebebeb"/>
          </g>
          <g id="Grupo_957214" data-name="Grupo 957214" transform="translate(19.991 22.232)">
            <path id="Trazado_694874" data-name="Trazado 694874" d="M124.206,311.952s-3.225-.135-3.409,2.645,6.988,10.471,6.988,10.471,5.118-1.85,4.018-8.787S125.008,310.243,124.206,311.952Z" transform="translate(-120.794 -310.739)" fill="#ebebeb"/>
          </g>
          <g id="Grupo_957215" data-name="Grupo 957215" transform="translate(24.146 6.361)">
            <path id="Trazado_694875" data-name="Trazado 694875" d="M128.611,292.255s-2.15-.231-1.978-1.541,8.36-4.681,13.19.771c0,0-3.093,5.313-7.564,5.382S128.611,292.255,128.611,292.255Z" transform="translate(-126.623 -288.479)" fill="#ebebeb"/>
          </g>
          <g id="Grupo_957216" data-name="Grupo 957216" transform="translate(13.016)">
            <path id="Trazado_694876" data-name="Trazado 694876" d="M120.122,286.513s1.947.941,2.493-.262-4.619-8.394-11.6-6.323c0,0-.185,6.145,3.573,8.568S120.122,286.513,120.122,286.513Z" transform="translate(-111.012 -279.556)" fill="#ebebeb"/>
          </g>
          <g id="Grupo_957217" data-name="Grupo 957217" transform="translate(31.302 25.416)">
            <path id="Trazado_694877" data-name="Trazado 694877" d="M137.666,317.193s-1.484-1.2.118-1.783,9.461-.419,9.543,7.366c0,0-9.154,1.521-10.287-1.444S137.666,317.193,137.666,317.193Z" transform="translate(-136.66 -315.204)" fill="#ebebeb"/>
          </g>
          <g id="Grupo_957218" data-name="Grupo 957218" transform="translate(3.982 7.954)">
            <path id="Trazado_694878" data-name="Trazado 694878" d="M108,292.7s1.484-1.2-.118-1.783-9.461-.418-9.543,7.366c0,0,9.154,1.521,10.287-1.444S108,292.7,108,292.7Z" transform="translate(-98.34 -290.712)" fill="#ebebeb"/>
          </g>
          <g id="Grupo_957219" data-name="Grupo 957219" transform="translate(14.527 15.196)">
            <path id="Trazado_694879" data-name="Trazado 694879" d="M117.086,301.888s.13-1.457-1.045-.885-5.273,4.991-1.026,9.186c0,0,5.717-4.234,4.686-6.439S117.086,301.888,117.086,301.888Z" transform="translate(-113.131 -300.87)" fill="#ebebeb"/>
          </g>
          <g id="Grupo_957220" data-name="Grupo 957220" transform="translate(32.375 16.974)">
            <path id="Trazado_694880" data-name="Trazado 694880" d="M139.425,304.68s-.887-1.163.412-1.307,7.122,1.41,5.766,7.224c0,0-7.095-.533-7.4-2.948S139.425,304.68,139.425,304.68Z" transform="translate(-138.165 -303.364)" fill="#ebebeb"/>
          </g>
          <path id="Trazado_694881" data-name="Trazado 694881" d="M105.259,370.738H129.6l2.627-26.651H102.632Z" transform="translate(-95.59 -298.079)" fill="#f0f0f0"/>
          <rect id="Rectángulo_341962" data-name="Rectángulo 341962" width="32.193" height="5.881" transform="translate(37.935 48.948) rotate(180)" fill="#e6e6e6"/>
        </g>
        <g id="Grupo_957227" data-name="Grupo 957227" transform="translate(0 27.191)">
          <g id="Grupo_957222" data-name="Grupo 957222" transform="translate(2.892 2.209)">
            <path id="Trazado_694882" data-name="Trazado 694882" d="M134.74,97.295,111.048,83.512H92.795L68.711,96.642v89.325H134.74Z" transform="translate(-68.711 -83.512)" fill="#e0e0e0"/>
          </g>
          <g id="Grupo_957226" data-name="Grupo 957226">
            <g id="Grupo_957224" data-name="Grupo 957224" transform="translate(2.212 2.209)">
              <g id="Grupo_957223" data-name="Grupo 957223">
                <path id="Trazado_694883" data-name="Trazado 694883" d="M67.757,97.295l.679-.653a46.926,46.926,0,0,1,32.674-13.13h0a46.924,46.924,0,0,1,32.674,13.13l.679.653v88.672H67.757Zm62.284,1.9a42.8,42.8,0,0,0-57.858,0v82.348h57.858Z" transform="translate(-67.757 -83.512)" fill="#fafafa"/>
              </g>
            </g>
            <path id="Trazado_694884" data-name="Trazado 694884" d="M104.215,183.625H100.9V153.981H72.788v-3.319H100.9V120.342H72.788v-3.319H100.9V88.915h3.319v28.108h28.108v3.319H104.215v30.321h28.108v3.319H104.215Z" transform="translate(-66.989 -82.854)" fill="#f0f0f0"/>
            <g id="Grupo_957225" data-name="Grupo 957225">
              <path id="Trazado_694885" data-name="Trazado 694885" d="M64.654,95.5l.648-.648a49.44,49.44,0,0,1,69.837,0l.648.648V187.29H64.654Zm66.708,1.846a45.009,45.009,0,0,0-62.283,0v85.518h62.283Z" transform="translate(-64.654 -80.414)" fill="#f0f0f0"/>
            </g>
          </g>
        </g>
        <g id="Grupo_957229" data-name="Grupo 957229" transform="translate(235.748)">
          <circle id="Elipse_7806" data-name="Elipse 7806" cx="15.806" cy="15.806" r="15.806" fill="#e0e0e0"/>
          <circle id="Elipse_7807" data-name="Elipse 7807" cx="13.439" cy="13.439" r="13.439" transform="translate(2.367 2.367)" fill="#f0f0f0"/>
          <g id="Grupo_957228" data-name="Grupo 957228" transform="translate(8.468 15.152)">
            <path id="Trazado_694886" data-name="Trazado 694886" d="M414.088,73.594V64.2l-6.226,3.523" transform="translate(-407.383 -63.72)" fill="#f0f0f0"/>
            <path id="Trazado_694887" data-name="Trazado 694887" d="M413.895,73.88a.478.478,0,0,1-.478-.478V64.828l-5.511,3.118a.479.479,0,0,1-.472-.833l6.226-3.523a.478.478,0,0,1,.714.416v9.4A.478.478,0,0,1,413.895,73.88Z" transform="translate(-407.191 -63.528)" fill="#e0e0e0"/>
          </g>
        </g>
      </g>
    </g>
    <g id="Shadow_1_" transform="translate(20.315 294.887)">
      <ellipse id="_x3C_Path_x3E__359_" cx="154.735" cy="15.036" rx="154.735" ry="15.036" fill="#f5f5f5"/>
    </g>
    <g id="Speech_bubble" transform="translate(229.499 100.973)">
      <g id="Grupo_957232" data-name="Grupo 957232">
        <path id="Trazado_694888" data-name="Trazado 694888" d="M355.6,124.605H330.521a8.625,8.625,0,0,0-8.625,8.625v10.409a8.625,8.625,0,0,0,8.625,8.625h17.254l5.466,6.254.336-6.254H355.6a8.624,8.624,0,0,0,8.624-8.625V133.23A8.623,8.623,0,0,0,355.6,124.605Z" transform="translate(-321.896 -124.605)" fill="#b0c0d2"/>
        <g id="Grupo_957231" data-name="Grupo 957231" transform="translate(7.908 12.204)">
          <path id="Trazado_694889" data-name="Trazado 694889" d="M336.472,143.465a1.742,1.742,0,1,1-1.742-1.742A1.742,1.742,0,0,1,336.472,143.465Z" transform="translate(-332.988 -141.723)" fill="#fff"/>
          <path id="Trazado_694890" data-name="Trazado 694890" d="M347.241,143.465a1.742,1.742,0,1,1-1.742-1.742A1.742,1.742,0,0,1,347.241,143.465Z" transform="translate(-336.079 -141.723)" fill="#fff"/>
          <path id="Trazado_694891" data-name="Trazado 694891" d="M358.008,143.465a1.742,1.742,0,1,1-1.742-1.742A1.742,1.742,0,0,1,358.008,143.465Z" transform="translate(-339.17 -141.723)" fill="#fff"/>
          <path id="Trazado_694892" data-name="Trazado 694892" d="M368.776,143.465a1.742,1.742,0,1,1-1.742-1.742A1.742,1.742,0,0,1,368.776,143.465Z" transform="translate(-342.261 -141.723)" fill="#fff"/>
        </g>
      </g>
    </g>
    <g id="Character_4" transform="translate(223.158 133.314)">
      <g id="Grupo_957246" data-name="Grupo 957246">
        <path id="Trazado_694893" data-name="Trazado 694893" d="M323.514,218.3l-1.756,3.418c-3,2.7-5.809-1.751-5.809-1.751l-2.217-1.6a2.037,2.037,0,0,1-.468-2.594l1.209-2.4a2.125,2.125,0,0,1,2.736-1.134l2.137,1.059a4.2,4.2,0,0,1,1.559,1.33Z" transform="translate(-313.001 -182.052)" fill="#ec9c7f"/>
        <path id="Trazado_694894" data-name="Trazado 694894" d="M365.127,219.307c-4.034,5.934-12.045,16.218-18.953,18.554-9.772,2.865-20.684-9.278-25.889-16.236a3.345,3.345,0,0,1,4.586-4.706c4.69,3.241,14.034,9.471,17.279,9.614,4.345-4.116,8.307-10.02,12.062-14.847a6.659,6.659,0,0,1,10.915,7.621Z" transform="translate(-314.91 -181.17)" fill="#ffa686"/>
        <path id="Trazado_694895" data-name="Trazado 694895" d="M367,210.342a6.655,6.655,0,0,0-9.326,1.3l-.036.036-3.486,4.62c-1.112,1.5-2.246,2.966-3.379,4.392,1.74,1.761,5,5.989-2.916,5.825-.577-.014-1.141-.007-1.69.014a1.48,1.48,0,0,1-.456.021,33.525,33.525,0,0,0-14.117,3.964c.257.242.52.485.784.72a41,41,0,0,0,5.483,4.178,24,24,0,0,0,3.479,1.79,13.866,13.866,0,0,0,4.855,1.105,10.564,10.564,0,0,0,3.408-.449c.307-.1.627-.221.92-.335l.677-.314c.242-.107.428-.214.613-.314l.556-.314a24.743,24.743,0,0,0,3.315-2.4,54.012,54.012,0,0,0,4.905-4.77c1.49-1.6,2.866-3.251,4.192-4.912,1.319-1.7,2.552-3.337,3.772-5.2A6.677,6.677,0,0,0,367,210.342Z" transform="translate(-318.338 -181.17)" opacity="0.2"/>
        <g id="Grupo_957233" data-name="Grupo 957233" transform="translate(25.696 26.663)">
          <path id="Trazado_694896" data-name="Trazado 694896" d="M370.866,221.937a27.583,27.583,0,0,1-4.763,8.185,34.669,34.669,0,0,1-7.408,6.645c-.756.5-1.212.749-1.212.749l-3.529-6.481v-.007l-3.123-5.725s.278-.435.77-1.169c2.474-3.643,10.416-14.715,17.14-16.769C368.742,207.364,374.588,211.649,370.866,221.937Z" transform="translate(-349.556 -207.364)" fill="#407bff"/>
          <path id="Trazado_694897" data-name="Trazado 694897" d="M370.866,221.937a27.583,27.583,0,0,1-4.763,8.185,34.669,34.669,0,0,1-7.408,6.645c-.756.5-1.212.749-1.212.749l-3.529-6.481v-.007l-3.123-5.725s.278-.435.77-1.169c2.474-3.643,10.416-14.715,17.14-16.769C368.742,207.364,374.588,211.649,370.866,221.937Z" transform="translate(-349.556 -207.364)" fill="#b0c0d2" opacity="0.7"/>
          <path id="Trazado_694898" data-name="Trazado 694898" d="M358.6,244.106l-2.83.877-2.909-5.654-3.822-7.436,1.825-1.569.221.4,3.009,5.347,4.085,7.286Z" transform="translate(-349.042 -213.954)" fill="#407bff"/>
          <path id="Trazado_694899" data-name="Trazado 694899" d="M358.6,244.106l-2.83.877-2.909-5.654-3.822-7.436,1.825-1.569.221.4,3.009,5.347,4.085,7.286Z" transform="translate(-349.042 -213.954)" fill="#fff" opacity="0.6"/>
          <path id="Trazado_694900" data-name="Trazado 694900" d="M359.721,240.665l.421.749-2.83.877-2.909-5.654c.171-.577.364-1.141.577-1.7v-.007c.207-.52.421-1.041.656-1.547a43.1,43.1,0,0,1,8.955-12.434,132.769,132.769,0,0,1,2.538,13.076A34.671,34.671,0,0,1,359.721,240.665Z" transform="translate(-350.581 -211.262)" opacity="0.1"/>
        </g>
        <g id="Grupo_957234" data-name="Grupo 957234" transform="translate(38.065 155.633)">
          <path id="Trazado_694901" data-name="Trazado 694901" d="M366.392,388.257l9.115.24-.935,10.749-7.617-.188Z" transform="translate(-366.392 -388.257)" fill="#d9877c"/>
          <path id="Trazado_694902" data-name="Trazado 694902" d="M366.395,388.262l9.118.24-.525,6.02-8.279-.21Z" transform="translate(-366.393 -388.258)" opacity="0.2"/>
        </g>
        <g id="Grupo_957235" data-name="Grupo 957235" transform="translate(32.355 80.99)">
          <path id="Trazado_694903" data-name="Trazado 694903" d="M379.108,326.2c2.661-13.862,12.3-30.59,4.413-42.641l-25.138,3.988s.6,23.809,1.245,36.573c.669,13.272,3.422,38.26,3.422,38.26l10.44.121S379.262,341.561,379.108,326.2Z" transform="translate(-358.383 -283.563)" fill="#263238"/>
        </g>
        <path id="Trazado_694904" data-name="Trazado 694904" d="M375.389,392.785l-11.283-.1a.4.4,0,0,1-.388-.346l-.51-4.149a.394.394,0,0,1,.418-.441l12.565.854a.393.393,0,0,1,.357.481l-.772,3.4A.392.392,0,0,1,375.389,392.785Z" transform="translate(-327.412 -232.477)" fill="#263238"/>
        <path id="Trazado_694905" data-name="Trazado 694905" d="M392.516,300.374a68.076,68.076,0,0,1,.229,9.679c-.965,4.369-2.272,8.767-3.429,13.024C386.7,311.4,385.806,297.654,392.516,300.374Z" transform="translate(-334.346 -207.298)" opacity="0.2"/>
        <path id="Trazado_694906" data-name="Trazado 694906" d="M372.143,401.555a.429.429,0,0,0-.537-.355c-2.286.908-6.623.212-8.267-.1a1.352,1.352,0,0,0-1.054.217c-1.75,1.241-6.407,2-6.407,2a5.107,5.107,0,0,0-.233,2.742l17.459-.008A30.277,30.277,0,0,1,372.143,401.555Z" transform="translate(-325.209 -236.302)" fill="#263238"/>
        <g id="Grupo_957236" data-name="Grupo 957236" transform="translate(67.131 155.982)">
          <path id="Trazado_694907" data-name="Trazado 694907" d="M407.159,389.831l9.054-1.084.632,10.771-7.564.918Z" transform="translate(-407.159 -388.747)" fill="#d9877c"/>
          <path id="Trazado_694908" data-name="Trazado 694908" d="M407.163,389.835l9.057-1.084.352,6.032-8.223.991Z" transform="translate(-407.16 -388.748)" opacity="0.2"/>
        </g>
        <g id="Grupo_957237" data-name="Grupo 957237" transform="translate(52.003 79.941)">
          <path id="Trazado_694909" data-name="Trazado 694909" d="M411.777,324.935c.733-14.1,4.688-27.49,1.554-42.843l-27.391,7.4s3.864,23.5,6.255,36.057c2.485,13.055,8.643,37.428,8.643,37.428l10.358-1.314S414.039,340.126,411.777,324.935Z" transform="translate(-385.941 -282.092)" fill="#263238"/>
        </g>
        <path id="Trazado_694910" data-name="Trazado 694910" d="M417.035,392.408l-11.19,1.447a.394.394,0,0,1-.431-.289l-1.075-4.04a.394.394,0,0,1,.354-.495l12.563-.879a.394.394,0,0,1,.42.427l-.3,3.471A.4.4,0,0,1,417.035,392.408Z" transform="translate(-339.215 -232.594)" fill="#263238"/>
        <path id="Trazado_694911" data-name="Trazado 694911" d="M414.418,401.555a.429.429,0,0,0-.537-.355c-2.286.908-6.623.212-8.267-.1a1.352,1.352,0,0,0-1.054.217c-1.75,1.241-6.408,2-6.408,2a5.107,5.107,0,0,0-.233,2.742l17.459-.008A30.514,30.514,0,0,1,414.418,401.555Z" transform="translate(-337.343 -236.302)" fill="#263238"/>
        <g id="Grupo_957239" data-name="Grupo 957239" transform="translate(30.908 25.246)">
          <path id="Trazado_694912" data-name="Trazado 694912" d="M406.249,252.334c-.016,4.293-.264,7.763-1.071,10.267,0,0-37.049,11.883-48.026,1.953-3.362-24.235,4.738-44.688,8.455-53.225a8.5,8.5,0,0,1,6.65-5.043,115.184,115.184,0,0,1,25.364-.387c3.923.428,6.971,2.4,7.87,8.347a28.229,28.229,0,0,1,.255,5.084c-.041,1.467-.066,2.909-.083,4.326-.058,7.021.181,13.432.371,19.035C406.159,246.244,406.257,249.475,406.249,252.334Z" transform="translate(-356.353 -205.376)" fill="#b0c0d2"/>
          <g id="Grupo_957238" data-name="Grupo 957238" transform="translate(0 0.003)" opacity="0.7">
            <path id="Trazado_694913" data-name="Trazado 694913" d="M406.253,252.338c-.021,4.292-.264,7.757-1.077,10.267,0,0-37.045,11.878-48.025,1.954-3.358-24.241,4.741-44.688,8.456-53.23a8.524,8.524,0,0,1,6.652-5.041,115.276,115.276,0,0,1,25.36-.385c3.928.428,6.973,2.4,7.871,8.342a28.423,28.423,0,0,1,.257,5.083v.043c-.043,1.447-.064,2.887-.078,4.285-.029,3.173.007,6.224.071,9.126.071,3.529.193,6.837.3,9.91C406.16,246.243,406.26,249.472,406.253,252.338Z" transform="translate(-356.353 -205.379)" fill="#b0c0d2"/>
          </g>
          <path id="Trazado_694914" data-name="Trazado 694914" d="M414.615,224.657v.043c-.043,1.447-.064,2.887-.078,4.285-.029,3.173.007,6.224.071,9.126-4.627,5.825-15.329,8.556-18.979,5.654-3.715-2.945-8.377-9.2-8.377-9.2s3-4.37,10.809-10.509C398.289,225.5,414.615,222.717,414.615,224.657Z" transform="translate(-365.222 -210.705)" fill="#b0c0d2" opacity="0.1"/>
        </g>
        <path id="Trazado_694915" data-name="Trazado 694915" d="M375.389,392.785l-11.283-.1a.4.4,0,0,1-.388-.346l-.51-4.149a.394.394,0,0,1,.418-.441l12.565.854a.393.393,0,0,1,.357.481l-.772,3.4A.392.392,0,0,1,375.389,392.785Z" transform="translate(-327.412 -232.477)" fill="#fff" opacity="0.1"/>
        <path id="Trazado_694916" data-name="Trazado 694916" d="M417.035,392.408l-11.19,1.447a.394.394,0,0,1-.431-.289l-1.075-4.04a.394.394,0,0,1,.354-.495l12.563-.879a.394.394,0,0,1,.42.427l-.3,3.471A.4.4,0,0,1,417.035,392.408Z" transform="translate(-339.215 -232.594)" fill="#fff" opacity="0.1"/>
        <g id="Grupo_957241" data-name="Grupo 957241" transform="translate(49.321 15.463)">
          <path id="Trazado_694917" data-name="Trazado 694917" d="M384.534,210.7a11.943,11.943,0,0,0,1.59,3.367l.761,2.568,1.772.075,2.035-2.279a18.084,18.084,0,0,0,5.218-3.792l-.631-.971a27.935,27.935,0,0,1-5.086,4.157l-3.6-.061a14.615,14.615,0,0,1-.928-3.367Z" transform="translate(-382.855 -196.826)" fill="#407bff"/>
          <path id="Trazado_694918" data-name="Trazado 694918" d="M388,218.851a75.859,75.859,0,0,0-1.959,16.442L383.882,237l-1.693-1.709s2.4-11.665,4.129-16.606Z" transform="translate(-382.182 -199.414)" fill="#407bff"/>
          <g id="Grupo_957240" data-name="Grupo 957240" transform="translate(1.606)">
            <path id="Trazado_694919" data-name="Trazado 694919" d="M393.123,207.774l-8.691-1.911v-1.825a1.7,1.7,0,0,0,1.176-1.184,1.3,1.3,0,0,1,.036-.135,10.837,10.837,0,0,0,.014-1.148,5.18,5.18,0,0,0-.82-2.381l10.409-6.5,1.654-1.034.007-.007c.043,4.613.086,8.256,2.246,9.953C399.675,203.817,397.251,206.22,393.123,207.774Z" transform="translate(-384.432 -191.654)" fill="#ffa686"/>
            <path id="Trazado_694920" data-name="Trazado 694920" d="M397.065,191.664c-.128.349-2.5,10.793-11.293,11.193a1.283,1.283,0,0,1,.036-.135,10.835,10.835,0,0,0,.014-1.148,5.181,5.181,0,0,0-.82-2.381l10.409-6.5Z" transform="translate(-384.596 -191.657)" opacity="0.2"/>
          </g>
          <path id="Trazado_694921" data-name="Trazado 694921" d="M397.224,200.816a24.5,24.5,0,0,1-9.553,8.123s-2.939-2.078-2.66-4.737c0,0-2.992,2.695-2.825,8.736l3.926-3.379,1.658,1.552,1.811-1.407,2.507,4.015a22.831,22.831,0,0,0,9.777-9.584Z" transform="translate(-382.18 -194.284)" fill="#407bff"/>
          <path id="Trazado_694922" data-name="Trazado 694922" d="M397.224,200.816a24.5,24.5,0,0,1-9.553,8.123s-2.939-2.078-2.66-4.737c0,0-2.992,2.695-2.825,8.736l3.926-3.379,1.658,1.552,1.811-1.407,2.507,4.015a22.831,22.831,0,0,0,9.777-9.584Z" transform="translate(-382.18 -194.284)" fill="#fff" opacity="0.6"/>
        </g>
        <g id="Grupo_957244" data-name="Grupo 957244" transform="translate(47.008)">
          <path id="Trazado_694923" data-name="Trazado 694923" d="M385.568,174.431s-3.1-.327-3.729,1.829,1.212,4.452,1.212,4.452l2.994-3.454Z" transform="translate(-379.73 -171.243)" fill="#263238"/>
          <path id="Trazado_694924" data-name="Trazado 694924" d="M386.579,173.569c6.029-1.34,11.24,3.659,10.079,9.119s-2.076,9.144-5.85,11.007c-7.5,3.7-11.165.143-11.784-5.563C378.467,183,380.459,174.93,386.579,173.569Z" transform="translate(-378.935 -170.937)" fill="#ffa686"/>
          <path id="Trazado_694925" data-name="Trazado 694925" d="M391.329,187.221a2.76,2.76,0,0,1,2.086.3A5.46,5.46,0,0,1,391.329,187.221Z" transform="translate(-382.492 -174.895)" opacity="0.2"/>
          <path id="Trazado_694926" data-name="Trazado 694926" d="M391.275,187.958a2.271,2.271,0,0,1,1.762.737A4.481,4.481,0,0,1,391.275,187.958Z" transform="translate(-382.477 -175.13)" opacity="0.2"/>
          <path id="Trazado_694927" data-name="Trazado 694927" d="M389.485,186.95c-.067.483-.378.836-.693.789s-.516-.476-.449-.958.378-.836.693-.789S389.553,186.468,389.485,186.95Z" transform="translate(-381.632 -174.565)" fill="#263238"/>
          <path id="Trazado_694928" data-name="Trazado 694928" d="M381.537,185.894c-.068.483-.378.836-.693.789s-.516-.476-.449-.958.378-.836.693-.789S381.6,185.412,381.537,185.894Z" transform="translate(-379.35 -174.262)" fill="#263238"/>
          <path id="Trazado_694929" data-name="Trazado 694929" d="M383.687,187.007l-.267,4.083a2.562,2.562,0,0,1-2.064-.54A8.332,8.332,0,0,1,383.687,187.007Z" transform="translate(-379.63 -174.858)" fill="#d48568"/>
          <path id="Trazado_694930" data-name="Trazado 694930" d="M391.855,184.841a.277.277,0,0,0,.145,0,.285.285,0,0,0,.2-.353,2.872,2.872,0,0,0-1.737-1.966.282.282,0,0,0-.357.186.289.289,0,0,0,.186.36h0a2.294,2.294,0,0,1,1.359,1.572A.289.289,0,0,0,391.855,184.841Z" transform="translate(-382.137 -173.565)" fill="#263238"/>
          <path id="Trazado_694931" data-name="Trazado 694931" d="M380.134,183a.283.283,0,0,0,.244-.115,2.248,2.248,0,0,1,1.817-.972.284.284,0,0,0,.3-.269.288.288,0,0,0-.27-.3,2.816,2.816,0,0,0-2.309,1.2.288.288,0,0,0,.063.4A.3.3,0,0,0,380.134,183Z" transform="translate(-379.2 -173.232)" fill="#263238"/>
          <path id="Trazado_694932" data-name="Trazado 694932" d="M393.521,184.42c.75-1.494.46-3.769,0-5.813a2.083,2.083,0,0,1,1.427-2.57s-.2-1.686-3.15-2.156c-1.757-.28-3.359-.632-4.254.315s-2.111.791-2.427-.315-.852-3.4,2.809-3.858,3.4,2.016,4.765,1.963a7.684,7.684,0,0,1,6.663,3.84c1.7,3.208-1.14,8.347-1.14,8.347s-2.945.471-3.682,2.058S393.521,184.42,393.521,184.42Z" transform="translate(-380.645 -169.966)" fill="#263238"/>
          <path id="Trazado_694933" data-name="Trazado 694933" d="M403.628,191.814a4.924,4.924,0,0,1-3.244,1.954c-1.726.242-2.375-1.359-1.715-2.87.594-1.36,2.207-3.124,3.853-2.674A2.248,2.248,0,0,1,403.628,191.814Z" transform="translate(-384.526 -175.186)" fill="#ffa686"/>
          <g id="Grupo_957242" data-name="Grupo 957242" transform="translate(0.317 14.454)">
            <path id="Trazado_694934" data-name="Trazado 694934" d="M380.413,195.412s.454-2.17,1.323-2.769,3.7-.009,3.7-.009l-.047.5a13.254,13.254,0,0,0-2.033-.194c-.488.056-.914,3.019.3,3.8a1.845,1.845,0,0,0,2.437-.192.6.6,0,0,0-.111-.4l.92-.291a.671.671,0,0,0,.344.6c.391.279,1.789-.392,2.275-1.311s-.525-3.331-.91-3.408-2.355,1.223-2.355,1.223l.049-.515a5.193,5.193,0,0,1,2.363-1.305c.977-.027,1.789.939,2.076.985s1.195-1.879,1.195-1.879L393.2,191.5s1.244,6.175-3.186,8.21-10.94,1.379-10.628-5.252Z" transform="translate(-379.38 -190.239)" fill="#263238"/>
            <path id="Trazado_694935" data-name="Trazado 694935" d="M380.413,195.412s.454-2.17,1.323-2.769,3.7-.009,3.7-.009l-.047.5a13.254,13.254,0,0,0-2.033-.194c-.488.056-.914,3.019.3,3.8a1.845,1.845,0,0,0,2.437-.192.6.6,0,0,0-.111-.4l.92-.291a.671.671,0,0,0,.344.6c.391.279,1.789-.392,2.275-1.311s-.525-3.331-.91-3.408-2.355,1.223-2.355,1.223l.049-.515a5.193,5.193,0,0,1,2.363-1.305c.977-.027,1.789.939,2.076.985s1.195-1.879,1.195-1.879L393.2,191.5s1.244,6.175-3.186,8.21-10.94,1.379-10.628-5.252Z" transform="translate(-379.38 -190.239)" fill="#263238"/>
          </g>
          <g id="Grupo_957243" data-name="Grupo 957243" transform="translate(4.328 16.245)">
            <path id="Trazado_694936" data-name="Trazado 694936" d="M385.005,194.642a14.106,14.106,0,0,1,1.1,2.182c.17-.032.339-.064.508-.1,2.294-.482,3.233-1.333,3.578-2.128a2.188,2.188,0,0,0,.14-1.194,2.01,2.01,0,0,0-.2-.646,13.165,13.165,0,0,1-4.346,1.716C385.309,194.586,385.005,194.642,385.005,194.642Z" transform="translate(-385.005 -192.751)" fill="#263238"/>
            <path id="Trazado_694937" data-name="Trazado 694937" d="M386.1,194.467l.344.635c2.16-.458,3.631-1.021,4.2-1.7a2.01,2.01,0,0,0-.2-.646A13.175,13.175,0,0,1,386.1,194.467Z" transform="translate(-385.319 -192.751)" fill="#fff"/>
            <path id="Trazado_694938" data-name="Trazado 694938" d="M387.257,197.46c2.294-.482,3.233-1.333,3.578-2.128a8.973,8.973,0,0,0-2.463.953A2.775,2.775,0,0,0,387.257,197.46Z" transform="translate(-385.651 -193.492)" fill="#de5753"/>
          </g>
        </g>
        <path id="Trazado_694939" data-name="Trazado 694939" d="M405.237,219.271a72.98,72.98,0,0,1-9.7,14.256c-2.538,2.874-5.843,5.852-9.812,6.535a32.187,32.187,0,0,1-9.681-.026,89.245,89.245,0,0,1-19.442-5.076,3.337,3.337,0,0,1,1.367-6.435c4.213.222,8.5.509,12.652.654,4.084.054,8.628.361,12.388-.663.073-.026.48-.208.252-.176a4.877,4.877,0,0,1,.483-.549c3.587-4.139,6.865-10.166,9.824-14.929a6.658,6.658,0,0,1,11.668,6.41Z" transform="translate(-324.911 -181.33)" fill="#ffa686"/>
        <path id="Trazado_694940" data-name="Trazado 694940" d="M354.607,235.968l1.077,3.689c-.316,4.025-5.421,2.724-5.421,2.724l-2.708.366a2.037,2.037,0,0,1-2.124-1.561l-.772-2.573a2.124,2.124,0,0,1,1.206-2.7l2.279-.7a4.2,4.2,0,0,1,2.047-.107Z" transform="translate(-322.058 -188.639)" fill="#ffa686"/>
        <g id="Grupo_957245" data-name="Grupo 957245" transform="translate(55.857 26.262)">
          <path id="Trazado_694941" data-name="Trazado 694941" d="M410.3,206.8c9.456,3.321,8.637,10.42,6.094,15.881-2.408,5.17-13.021,16.161-13.021,16.161L392.472,226.67s5.94-5.97,9.06-11.4A25.1,25.1,0,0,1,410.3,206.8Z" transform="translate(-391.669 -206.801)" fill="#407bff"/>
          <path id="Trazado_694942" data-name="Trazado 694942" d="M410.3,206.8c9.456,3.321,8.637,10.42,6.094,15.881-2.408,5.17-13.021,16.161-13.021,16.161L392.472,226.67s5.94-5.97,9.06-11.4A25.1,25.1,0,0,1,410.3,206.8Z" transform="translate(-391.669 -206.801)" fill="#b0c0d2" opacity="0.7"/>
          <path id="Trazado_694943" data-name="Trazado 694943" d="M391.346,234.777l1.712-2.254,11.253,13.234-3.459,1.512Z" transform="translate(-391.346 -214.184)" fill="#407bff"/>
          <path id="Trazado_694944" data-name="Trazado 694944" d="M391.346,234.777l1.712-2.254,11.253,13.234-3.459,1.512Z" transform="translate(-391.346 -214.184)" fill="#fff" opacity="0.6"/>
        </g>
      </g>
    </g>
    <g id="Podium" transform="translate(197.231 161.751)">
      <g id="Grupo_957257" data-name="Grupo 957257">
        <g id="Grupo_957250" data-name="Grupo 957250" transform="translate(33.648)">
          <path id="Trazado_694945" data-name="Trazado 694945" d="M345.861,212.655l-2.132.877a1.456,1.456,0,0,1-1.9-.793h0a1.457,1.457,0,0,1,.793-1.9l2.132-.877a1.457,1.457,0,0,1,1.9.793h0A1.457,1.457,0,0,1,345.861,212.655Z" transform="translate(-328.966 -209.852)" fill="#263238"/>
          <g id="Grupo_957249" data-name="Grupo 957249" transform="translate(0 1.884)">
            <g id="Grupo_957247" data-name="Grupo 957247">
              <path id="Trazado_694946" data-name="Trazado 694946" d="M324.545,237.911a.7.7,0,0,1-.24-.042.712.712,0,0,1-.431-.91L331,217.015a5.121,5.121,0,0,1,2.8-2.975l3.47-1.487a.713.713,0,0,1,.562,1.31l-3.47,1.487a3.691,3.691,0,0,0-2.016,2.145l-7.122,19.944A.715.715,0,0,1,324.545,237.911Z" transform="translate(-323.832 -212.494)" fill="#263238"/>
            </g>
            <g id="Grupo_957248" data-name="Grupo 957248" opacity="0.3">
              <path id="Trazado_694947" data-name="Trazado 694947" d="M324.545,237.911a.7.7,0,0,1-.24-.042.712.712,0,0,1-.431-.91L331,217.015a5.121,5.121,0,0,1,2.8-2.975l3.47-1.487a.713.713,0,0,1,.562,1.31l-3.47,1.487a3.691,3.691,0,0,0-2.016,2.145l-7.122,19.944A.715.715,0,0,1,324.545,237.911Z" transform="translate(-323.832 -212.494)" fill="#fff"/>
            </g>
          </g>
        </g>
        <g id="Grupo_957254" data-name="Grupo 957254" transform="translate(19.389)">
          <path id="Trazado_694948" data-name="Trazado 694948" d="M325.86,212.655l-2.133.877a1.457,1.457,0,0,1-1.9-.793h0a1.457,1.457,0,0,1,.793-1.9l2.132-.877a1.457,1.457,0,0,1,1.9.793h0A1.457,1.457,0,0,1,325.86,212.655Z" transform="translate(-308.965 -209.852)" fill="#263238"/>
          <g id="Grupo_957253" data-name="Grupo 957253" transform="translate(0 1.884)">
            <g id="Grupo_957251" data-name="Grupo 957251">
              <path id="Trazado_694949" data-name="Trazado 694949" d="M304.544,237.911a.7.7,0,0,1-.24-.042.712.712,0,0,1-.431-.91L311,217.015a5.119,5.119,0,0,1,2.8-2.975l3.47-1.487a.713.713,0,0,1,.562,1.31l-3.47,1.487a3.691,3.691,0,0,0-2.016,2.145l-7.122,19.944A.716.716,0,0,1,304.544,237.911Z" transform="translate(-303.831 -212.494)" fill="#263238"/>
            </g>
            <g id="Grupo_957252" data-name="Grupo 957252" opacity="0.3">
              <path id="Trazado_694950" data-name="Trazado 694950" d="M304.544,237.911a.7.7,0,0,1-.24-.042.712.712,0,0,1-.431-.91L311,217.015a5.119,5.119,0,0,1,2.8-2.975l3.47-1.487a.713.713,0,0,1,.562,1.31l-3.47,1.487a3.691,3.691,0,0,0-2.016,2.145l-7.122,19.944A.716.716,0,0,1,304.544,237.911Z" transform="translate(-303.831 -212.494)" fill="#fff"/>
            </g>
          </g>
        </g>
        <g id="Grupo_957255" data-name="Grupo 957255" transform="translate(4.618 18.417)">
          <path id="Trazado_694951" data-name="Trazado 694951" d="M283.114,246.2V235.684l29.642,10.629h43.8V256.83h-43.8Z" transform="translate(-283.114 -235.684)" fill="#263238"/>
          <path id="Trazado_694952" data-name="Trazado 694952" d="M283.114,246.2V235.684l29.642,10.629h43.8V256.83h-43.8Z" transform="translate(-283.114 -235.684)" fill="#fff" opacity="0.2"/>
        </g>
        <path id="Trazado_694953" data-name="Trazado 694953" d="M371.257,259.338l-27.5-9.86V362.54h27.5Z" transform="translate(-295.902 -221.226)" fill="#263238"/>
        <rect id="Rectángulo_341963" data-name="Rectángulo 341963" width="40.634" height="113.062" transform="translate(7.218 28.252)" fill="#263238"/>
        <rect id="Rectángulo_341964" data-name="Rectángulo 341964" width="40.634" height="113.062" transform="translate(7.218 28.252)" fill="#fff" opacity="0.3"/>
        <path id="Trazado_694954" data-name="Trazado 694954" d="M371.257,259.338l-27.5-9.86V362.54h27.5Z" transform="translate(-295.902 -221.226)" fill="#fff" opacity="0.2"/>
        <rect id="Rectángulo_341965" data-name="Rectángulo 341965" width="33.685" height="96.461" transform="translate(10.062 34.535)" opacity="0.2"/>
        <rect id="Rectángulo_341966" data-name="Rectángulo 341966" width="40.634" height="1.764" transform="translate(7.218 28.103)" opacity="0.2"/>
        <rect id="Rectángulo_341967" data-name="Rectángulo 341967" width="73.106" height="6.941" transform="translate(4.618 134.373)" fill="#263238"/>
        <g id="Grupo_957256" data-name="Grupo 957256" transform="translate(4.618 18.417)">
          <path id="Trazado_694955" data-name="Trazado 694955" d="M356.558,246.313V256.83L326.916,246.2h-43.8V235.684h43.8Z" transform="translate(-283.114 -235.684)" fill="#263238"/>
          <path id="Trazado_694956" data-name="Trazado 694956" d="M356.558,246.313V256.83L326.916,246.2h-43.8V235.684h43.8Z" transform="translate(-283.114 -235.684)" fill="#fff" opacity="0.3"/>
          <rect id="Rectángulo_341968" data-name="Rectángulo 341968" width="43.802" height="10.518" fill="#fff" opacity="0.2"/>
        </g>
        <path id="Trazado_694957" data-name="Trazado 694957" d="M327.017,398.324h-43.9v3h40.879V399.31Z" transform="translate(-278.496 -263.951)" fill="#fff" opacity="0.2"/>
        <path id="Trazado_694958" data-name="Trazado 694958" d="M342.292,402.723h30.915v-1.166Z" transform="translate(-295.483 -264.879)" opacity="0.2"/>
        <rect id="Rectángulo_341969" data-name="Rectángulo 341969" width="73.106" height="6.941" transform="translate(4.618 134.373)" fill="#fff" opacity="0.3"/>
        <rect id="Rectángulo_341970" data-name="Rectángulo 341970" width="82.1" height="3.471" transform="translate(0 137.844)" fill="#263238"/>
        <rect id="Rectángulo_341971" data-name="Rectángulo 341971" width="43.019" height="3.253" transform="translate(0 137.844)" fill="#fff" opacity="0.2"/>
        <rect id="Rectángulo_341972" data-name="Rectángulo 341972" width="82.1" height="3.471" transform="translate(0 137.844)" fill="#fff" opacity="0.3"/>
      </g>
    </g>
    <g id="Character_1" transform="translate(30.933 161.464)">
      <g id="Grupo_957263" data-name="Grupo 957263">
        <g id="Grupo_957261" data-name="Grupo 957261" transform="translate(9.889)">
          <path id="Trazado_694959" data-name="Trazado 694959" d="M110.61,402.565l-.692,6.852-.564,5.547h-5.247v-12.4Z" transform="translate(-70.705 -264.881)" fill="#e4897b"/>
          <path id="Trazado_694960" data-name="Trazado 694960" d="M110.61,402.565l-.692,6.852-5.811.356v-7.208Z" transform="translate(-70.705 -264.881)" opacity="0.2"/>
          <path id="Trazado_694961" data-name="Trazado 694961" d="M109.042,415.314H102.5a.475.475,0,0,0-.475.4l-.878,5.178a.909.909,0,0,0,.907,1.036c2.282-.039,3.385-.173,6.263-.173,1.77,0,5.428.184,7.873.184,2.391,0,2.637-2.418,1.625-2.637-4.539-.982-6.3-2.336-7.806-3.627A1.481,1.481,0,0,0,109.042,415.314Z" transform="translate(-69.851 -268.54)" fill="#263238"/>
          <path id="Trazado_694962" data-name="Trazado 694962" d="M99.236,340.205l2.641,49.725,8.131-.576s6.675-45.7,3.64-50.277S99.236,340.205,99.236,340.205Z" transform="translate(-69.307 -246.147)"/>
          <path id="Trazado_694963" data-name="Trazado 694963" d="M141.612,402.565l-.692,6.852-.564,5.547H135.11v-12.4Z" transform="translate(-79.604 -264.881)" fill="#e4897b"/>
          <path id="Trazado_694964" data-name="Trazado 694964" d="M141.612,402.565l-.692,6.852-5.811.356v-7.208Z" transform="translate(-79.604 -264.881)" opacity="0.2"/>
          <path id="Trazado_694965" data-name="Trazado 694965" d="M91.068,313.45l4.548,6.168s20.639-1.547,27.193,2.8-1.138,59.566-1.138,59.566l-7.994.707s-1.055-47.641-2.029-47.9-38.416,4.138-43.755,0-1.258-23.179-1.258-23.179Z" transform="translate(-59.52 -238.773)" fill="#12263f"/>
          <path id="Trazado_694966" data-name="Trazado 694966" d="M140.044,415.314H133.5a.476.476,0,0,0-.475.4l-.878,5.178a.909.909,0,0,0,.908,1.036c2.282-.039,3.385-.173,6.263-.173,1.77,0,5.428.184,7.873.184,2.391,0,2.637-2.418,1.625-2.637-4.539-.982-6.3-2.336-7.806-3.627A1.485,1.485,0,0,0,140.044,415.314Z" transform="translate(-78.75 -268.54)" fill="#263238"/>
          <path id="Trazado_694967" data-name="Trazado 694967" d="M57.257,279l5.585,2.7,3.467,1.679,2.1-5.058,2.2-5.3-1.857-9.656C63.055,265.84,57.257,279,57.257,279Z" transform="translate(-57.257 -224.927)" fill="#407bff"/>
          <path id="Trazado_694968" data-name="Trazado 694968" d="M65.091,285.592l3.467,1.679,2.1-5.058c-.431-2.865-.795-5.3-.795-5.3S65.81,280.527,65.091,285.592Z" transform="translate(-59.506 -228.815)" opacity="0.2"/>
          <g id="Grupo_957258" data-name="Grupo 957258" transform="translate(17.519 11.639)">
            <path id="Trazado_694969" data-name="Trazado 694969" d="M108.77,242.388c-.02.413.183.758.453.771s.5-.312.524-.724-.183-.758-.453-.771S108.79,241.975,108.77,242.388Z" transform="translate(-89.562 -230.335)" fill="#263238"/>
            <path id="Trazado_694970" data-name="Trazado 694970" d="M108.9,243.741a14.8,14.8,0,0,0,1.8,3.625,2.384,2.384,0,0,1-1.99.277Z" transform="translate(-89.546 -230.931)" fill="#e48d6e"/>
            <path id="Trazado_694971" data-name="Trazado 694971" d="M106.729,239.018a.246.246,0,0,1-.144-.1.242.242,0,0,1,.071-.336,2.408,2.408,0,0,1,2.2-.272.243.243,0,0,1-.2.444h0a1.926,1.926,0,0,0-1.739.234A.237.237,0,0,1,106.729,239.018Z" transform="translate(-88.924 -229.329)" fill="#263238"/>
            <path id="Trazado_694972" data-name="Trazado 694972" d="M103.292,245.523a7.112,7.112,0,0,1-2.834,3.911,6.972,6.972,0,0,1-3.019,1.154,6.329,6.329,0,0,1-5.628-2.135c-2.438-2.721-2.221-5.706-2.288-10.79A6.934,6.934,0,0,1,99.4,231.2C104.264,233.461,104.6,241.019,103.292,245.523Z" transform="translate(-84.038 -227.14)" fill="#ffa686"/>
            <path id="Trazado_694973" data-name="Trazado 694973" d="M87.53,244.616c1.731,1.671,10.093-.332,10.063-6.584,0,0,3.668-2.669,4.3-6.482s-1.574-5.883-4.5-5.772c-2.581.1-2.844,1.431-2.844,1.431s-11.69-1.538-10.435,3.69C78.211,234.766,85.369,242.531,87.53,244.616Z" transform="translate(-81.829 -225.774)" fill="#263238"/>
            <path id="Trazado_694974" data-name="Trazado 694974" d="M100.809,242.869a5.75,5.75,0,0,0,1.254,3.471c1.049,1.289,2.254.587,2.533-.9.251-1.338.007-3.62-1.32-4.372C101.968,240.329,100.8,241.345,100.809,242.869Z" transform="translate(-87.277 -230.094)" fill="#ffa686"/>
            <path id="Trazado_694975" data-name="Trazado 694975" d="M105.093,253.654a7.168,7.168,0,0,1-2.14,2.291,6.972,6.972,0,0,1-3.019,1.154,15.4,15.4,0,0,1-1.718-1.588l1.531-2.3S102.549,255.383,105.093,253.654Z" transform="translate(-86.533 -233.65)" fill="#ffa686" opacity="0.2"/>
          </g>
          <path id="Trazado_694976" data-name="Trazado 694976" d="M87.253,260.068l2.558-7.551s4.378-1.882,8.026.723l-.314,5.727Z" transform="translate(-65.867 -221.623)" fill="#ffa686"/>
          <path id="Trazado_694977" data-name="Trazado 694977" d="M83.267,260.2l1.431-2.142s10.751-.658,15.281,4.268C99.978,262.324,89.485,264.494,83.267,260.2Z" transform="translate(-64.723 -223.393)" fill="#407bff"/>
          <g id="Grupo_957259" data-name="Grupo 957259" transform="translate(5.535 36.31)">
            <path id="Trazado_694979" data-name="Trazado 694979" d="M99.021,270.364c-.036.114-.078.235-.121.364-.963,2.9-1.775,5.746-2.46,8.449-.478,1.875-.9,3.679-1.276,5.4-1.7,7.814-2.388,13.81-2.937,15.792-3.993-.021-19.008-.05-27.207-.071,1.184-24.512,5.967-37.787,5.967-37.787s7.094-3.551,19.143-1.483a58.277,58.277,0,0,1,10.2,3.2C98.8,267.584,100.126,267.063,99.021,270.364Z" transform="translate(-65.02 -260.378)" fill="#d2e1f1"/>
          </g>
          <path id="Trazado_694980" data-name="Trazado 694980" d="M110.717,274.385c-.036.114-.078.235-.121.364-.962,2.9-1.775,5.746-2.46,8.449-.478,1.875-.9,3.679-1.276,5.4-1.861-4.891-.784-12.869-.784-12.869Z" transform="translate(-71.181 -228.088)" fill="#d2e1f1" opacity="0.2"/>
          <path id="Trazado_694981" data-name="Trazado 694981" d="M104.63,254.008c4.067-4.625,8.73-9.331,12.843-13.918,1.279-2.875,1.963-7.125,2.749-10.53l2.134-10.3.931.094,2.6.262c-.011,3.581-.15,7.129-.446,10.7a57.6,57.6,0,0,1-1.848,11.755,7.585,7.585,0,0,1-.679,1.5,90.953,90.953,0,0,1-5.9,7.4c-2.306,2.7-4.671,5.324-7.114,7.9l-5.262-4.854Z" transform="translate(-70.855 -212.264)" fill="#ffa686"/>
          <g id="Grupo_957260" data-name="Grupo 957260" transform="translate(48.079)">
            <path id="Trazado_694982" data-name="Trazado 694982" d="M127.911,219.581l-3.219-4.1,5.64-1.261s2.651,3.829.621,5.113Z" transform="translate(-124.692 -210.819)" fill="#ffa686"/>
            <path id="Trazado_694983" data-name="Trazado 694983" d="M125.931,209.449l3.367.1,1.035,3.3-5.64,1.261Z" transform="translate(-124.692 -209.449)" fill="#ffa686"/>
          </g>
          <path id="Trazado_694984" data-name="Trazado 694984" d="M101.627,269.352c-1.124-4.331,2.9-7.61,10.708-16.079l7.252,5.5s-4.83,8.6-8.983,10.99S101.627,269.352,101.627,269.352Z" transform="translate(-69.94 -222.028)" fill="#b0c0d2"/>
        </g>
        <g id="Grupo_957262" data-name="Grupo 957262" transform="translate(0 37.447)">
          <path id="Trazado_694985" data-name="Trazado 694985" d="M89.36,353.552l-1.547,50.656H90l2.549-50.656Z" transform="translate(-56.139 -288.259)" fill="#263238"/>
          <path id="Trazado_694986" data-name="Trazado 694986" d="M100.236,353.752h19.555l6.188,49.5h2.534l-5.7-53.022-22.574.527Z" transform="translate(-59.705 -287.306)" fill="#263238"/>
          <path id="Trazado_694987" data-name="Trazado 694987" d="M84.054,350.972H54.918l-6.091,52.5H50.2l.27-1.9-.221,1.9H51.63l7-49.382H81.416l.182,49.382h2.962l.92-52.5Z" transform="translate(-44.948 -287.518)" fill="#263238"/>
          <path id="Trazado_694988" data-name="Trazado 694988" d="M83.133,403.467l.92-52.5H54.918l-6.091,52.5H50.2l7-49.382h24.21l.182,49.382Z" transform="translate(-44.948 -287.518)" fill="#fff" opacity="0.2"/>
          <path id="Trazado_694989" data-name="Trazado 694989" d="M127.664,355.169h1.593l6.037,49.5h-1.442Z" transform="translate(-67.578 -288.723)" fill="#fff" opacity="0.2"/>
          <path id="Trazado_694990" data-name="Trazado 694990" d="M84.8,317.607l-6.135-50.83a5.456,5.456,0,0,0-5.417-4.8H44.685a1.3,1.3,0,0,0-1.3,1.3v52.894a9.971,9.971,0,0,0,9.971,9.971h57.12a.624.624,0,0,0,.625-.625h0a4.468,4.468,0,0,0-4.468-4.468H88.674A3.906,3.906,0,0,1,84.8,317.607Z" transform="translate(-43.387 -261.973)" fill="#263238"/>
          <path id="Trazado_694991" data-name="Trazado 694991" d="M111.107,325.511a.633.633,0,0,1-.627.627H53.357a9.97,9.97,0,0,1-9.967-9.974V263.27a1.307,1.307,0,0,1,.171-.642,1.289,1.289,0,0,1,1.126-.656H73.242a5.45,5.45,0,0,1,5.419,4.805L84.8,317.6a3.9,3.9,0,0,0,3.879,3.436h17.959a4.479,4.479,0,0,1,4.47,4.47Z" transform="translate(-43.388 -261.972)" fill="#fff" opacity="0.7"/>
          <path id="Trazado_694992" data-name="Trazado 694992" d="M89.718,326.4H53.357a9.97,9.97,0,0,1-9.967-9.974V263.534a1.307,1.307,0,0,1,.171-.642H72.094a4.347,4.347,0,0,1,4.328,3.907l5.34,52.417A8,8,0,0,0,89.718,326.4Z" transform="translate(-43.388 -262.236)" opacity="0.2"/>
        </g>
      </g>
    </g>
    <g id="Character_2" transform="translate(98.899 169.81)">
      <g id="Grupo_957271" data-name="Grupo 957271">
        <g id="Grupo_957269" data-name="Grupo 957269" transform="translate(9.101)">
          <path id="Trazado_694993" data-name="Trazado 694993" d="M214.752,401.714l1.007,6.812.811,5.515-5.088,1.285L208.448,403.3Z" transform="translate(-167.833 -272.982)" fill="#ebb376"/>
          <path id="Trazado_694994" data-name="Trazado 694994" d="M214.752,401.714l1.007,6.812-5.547,1.767-1.764-6.989Z" transform="translate(-167.833 -272.982)" opacity="0.2"/>
          <path id="Trazado_694995" data-name="Trazado 694995" d="M217.371,415.314h-6.544a.475.475,0,0,0-.475.4l-.878,5.178a.909.909,0,0,0,.908,1.036c2.282-.039,3.385-.173,6.263-.173,1.77,0,5.428.184,7.873.184,2.391,0,2.637-2.418,1.625-2.637-4.539-.982-6.3-2.336-7.806-3.627A1.484,1.484,0,0,0,217.371,415.314Z" transform="translate(-168.124 -276.886)" fill="#263238"/>
          <path id="Trazado_694996" data-name="Trazado 694996" d="M186.462,342.932,201.829,390.3l7.708-2.652s-5.33-45.878-9.44-49.517S186.462,342.932,186.462,342.932Z" transform="translate(-161.522 -254.469)" fill="#12263f"/>
          <path id="Trazado_694997" data-name="Trazado 694997" d="M217.371,415.314h-6.544a.475.475,0,0,0-.475.4l-.878,5.178a.909.909,0,0,0,.908,1.036c2.282-.039,3.385-.173,6.263-.173,1.77,0,5.428.184,7.873.184,2.391,0,2.637-2.418,1.625-2.637-4.539-.982-6.3-2.336-7.806-3.627A1.484,1.484,0,0,0,217.371,415.314Z" transform="translate(-168.124 -276.886)" fill="#fff" opacity="0.3"/>
          <g id="Grupo_957264" data-name="Grupo 957264" transform="translate(30.55 46.863)">
            <path id="Trazado_694999" data-name="Trazado 694999" d="M194.331,290.527l3.386-3.641,2.024,5.13s-3.217,3.066-4.728,1.342Z" transform="translate(-194.331 -286.885)" fill="#ffa686"/>
            <path id="Trazado_695000" data-name="Trazado 695000" d="M203.66,287.363l.4,3.188-2.96,1.464-2.024-5.13Z" transform="translate(-195.694 -286.885)" fill="#ebb376"/>
          </g>
          <g id="Grupo_957265" data-name="Grupo 957265" transform="translate(30.55 46.863)" opacity="0.1">
            <path id="Trazado_695002" data-name="Trazado 695002" d="M203.66,287.363l.4,3.188-2.96,1.464-2.024-5.13Z" transform="translate(-195.694 -286.885)"/>
          </g>
          <path id="Trazado_695003" data-name="Trazado 695003" d="M195.488,272.523a106.807,106.807,0,0,1,8.18,15.464c1.827,4.259-1.2,6.96-5.4,6.36a45.517,45.517,0,0,1-12.793-4.08l1.047-3.388c2.761.393,5.559.823,8.247,1.134a16.862,16.862,0,0,0,4.658.13c-.354.056-.761.242-1.269.992a2.563,2.563,0,0,0-.333,1.767c.04.187-.174-.351-.214-.414-2.44-4.691-5.626-9.632-8.248-14.264,0,0,6.127-3.7,6.127-3.7Z" transform="translate(-161.239 -235.9)" fill="#ffa686"/>
          <path id="Trazado_695004" data-name="Trazado 695004" d="M236.94,402.565l-.692,6.852-.563,5.547h-5.247v-12.4Z" transform="translate(-174.145 -273.227)" fill="#ebb376"/>
          <path id="Trazado_695005" data-name="Trazado 695005" d="M236.94,402.565l-.692,6.852-5.811.356v-7.208Z" transform="translate(-174.145 -273.227)" opacity="0.2"/>
          <path id="Trazado_695006" data-name="Trazado 695006" d="M186.4,313.45l4.548,6.168s20.639-1.547,27.193,2.8S217,381.983,217,381.983L209,382.69s-1.055-47.641-2.029-47.9-38.416,4.138-43.755,0-1.258-23.179-1.258-23.179Z" transform="translate(-154.062 -247.119)" fill="#12263f"/>
          <g id="Grupo_957266" data-name="Grupo 957266" transform="translate(4.037)">
            <path id="Trazado_695007" data-name="Trazado 695007" d="M182.875,238.841c.034.412.281.727.55.7s.459-.375.425-.786-.281-.727-.55-.7S182.84,238.429,182.875,238.841Z" transform="translate(-164.528 -226.006)" fill="#263238"/>
            <path id="Trazado_695008" data-name="Trazado 695008" d="M183.218,240.182a14.782,14.782,0,0,0,2.264,3.357,2.382,2.382,0,0,1-1.936.535Z" transform="translate(-164.628 -226.617)" fill="#d48c72"/>
            <path id="Trazado_695009" data-name="Trazado 695009" d="M180.4,235.707a.243.243,0,0,1-.13-.426,2.408,2.408,0,0,1,2.145-.558.242.242,0,0,1-.135.466h0a1.925,1.925,0,0,0-1.693.46A.236.236,0,0,1,180.4,235.707Z" transform="translate(-163.759 -225.032)" fill="#263238"/>
            <path id="Trazado_695010" data-name="Trazado 695010" d="M178.162,242.307a7.119,7.119,0,0,1-2.3,4.249,6.969,6.969,0,0,1-2.842,1.539,6.329,6.329,0,0,1-5.86-1.378c-2.774-2.378-2.95-5.366-3.683-10.4a6.934,6.934,0,0,1,8.941-7.7C177.544,230.221,178.864,237.671,178.162,242.307Z" transform="translate(-158.94 -223.202)" fill="#ffa686"/>
            <path id="Trazado_695011" data-name="Trazado 695011" d="M180.791,250.332a7.174,7.174,0,0,1-1.82,2.552,6.969,6.969,0,0,1-2.842,1.539,15.314,15.314,0,0,1-1.911-1.35l1.218-2.478S178.495,252.38,180.791,250.332Z" transform="translate(-162.044 -229.53)" opacity="0.2"/>
            <path id="Trazado_695012" data-name="Trazado 695012" d="M169.673,239.67c-.311,2.378-3.906.967-6.239,2.365,0,0-4.023-1.875-6.2-11.968-1.3-6.01,11.7-6.609,11.7-6.609a2.4,2.4,0,0,0-1.571-2.279s3.149-.138,4.239,2.319a2.491,2.491,0,0,0-.309-2.343s5.947,2.276,2.438,7.525c0,0-2.059-.495-1.442.7s3.891,4.542-1.176,7.821A5.037,5.037,0,0,0,169.673,239.67Z" transform="translate(-157.144 -221.155)" fill="#263238"/>
            <path id="Trazado_695013" data-name="Trazado 695013" d="M175.105,240.3a5.748,5.748,0,0,0,1.7,3.277c1.209,1.141,2.312.286,2.393-1.223.073-1.359-.468-3.59-1.882-4.161C175.922,237.629,174.9,238.79,175.105,240.3Z" transform="translate(-162.292 -226.004)" fill="#ffa686"/>
          </g>
          <path id="Trazado_695014" data-name="Trazado 695014" d="M176.293,260.582l-1.2-8.625a6.755,6.755,0,0,0-8.383-1.852l-.192,7.15Z" transform="translate(-155.797 -229.257)" fill="#ffa686"/>
          <path id="Trazado_695015" data-name="Trazado 695015" d="M162.594,260.2l1.431-2.142s10.751-.658,15.281,4.268C179.306,262.324,168.812,264.494,162.594,260.2Z" transform="translate(-154.671 -231.739)" fill="#407bff"/>
          <path id="Trazado_695016" data-name="Trazado 695016" d="M162.594,260.2l1.431-2.142s10.751-.658,15.281,4.268C179.306,262.324,168.812,264.494,162.594,260.2Z" transform="translate(-154.671 -231.739)" fill="#fff" opacity="0.5"/>
          <g id="Grupo_957267" data-name="Grupo 957267" transform="translate(0 28.516)">
            <path id="Trazado_695017" data-name="Trazado 695017" d="M182.072,271c0,.113,0,.232,0,.359-.021,2.862.089,5.667.281,8.332.13,1.849.3,3.628.475,5.323.838,7.706,2.092,13.62,2.186,15.575-4-.021-19.024-.049-27.23-.071-6.768-24.174-6.291-37.266-6.291-37.266s5.942-3.5,18.662-1.462a77.456,77.456,0,0,1,11.234,3.157C180.949,268.258,182.106,267.745,182.072,271Z" transform="translate(-151.482 -261.151)" fill="#407bff"/>
          </g>
          <g id="Grupo_957268" data-name="Grupo 957268" transform="translate(0 28.515)" opacity="0.7">
            <path id="Trazado_695018" data-name="Trazado 695018" d="M185.012,300.587c-4-.021-19.029-.05-27.235-.071-6.766-24.176-6.288-37.266-6.288-37.266s5.946-3.5,18.665-1.462a77.839,77.839,0,0,1,11.229,3.158c-.435,3.308.72,2.795.692,6.053,0,.114-.007.235-.007.356-.021,2.46.064,4.877.214,7.194.021.385.043.763.071,1.141.086,1.241.185,2.453.3,3.629.057.578.114,1.141.171,1.7C183.664,292.716,184.919,298.634,185.012,300.587Z" transform="translate(-151.482 -261.15)" fill="#fff"/>
          </g>
          <path id="Trazado_695019" data-name="Trazado 695019" d="M235.373,415.314h-6.544a.475.475,0,0,0-.475.4l-.878,5.178a.909.909,0,0,0,.908,1.036c2.282-.039,3.385-.173,6.263-.173,1.77,0,5.428.184,7.873.184,2.391,0,2.637-2.418,1.625-2.637-4.539-.982-6.3-2.336-7.806-3.627A1.486,1.486,0,0,0,235.373,415.314Z" transform="translate(-173.292 -276.886)" fill="#263238"/>
          <path id="Trazado_695020" data-name="Trazado 695020" d="M235.373,415.314h-6.544a.475.475,0,0,0-.475.4l-.878,5.178a.909.909,0,0,0,.908,1.036c2.282-.039,3.385-.173,6.263-.173,1.77,0,5.428.184,7.873.184,2.391,0,2.637-2.418,1.625-2.637-4.539-.982-6.3-2.336-7.806-3.627A1.486,1.486,0,0,0,235.373,415.314Z" transform="translate(-173.292 -276.886)" fill="#fff" opacity="0.4"/>
          <path id="Trazado_695021" data-name="Trazado 695021" d="M193.707,289.779c-2.139-1.048-3.715-6.124-3.715-6.124a24.365,24.365,0,0,1,3.344,1.355c.021.385.043.763.071,1.141C193.493,287.391,193.592,288.6,193.707,289.779Z" transform="translate(-162.536 -239.095)" opacity="0.2"/>
          <path id="Trazado_695022" data-name="Trazado 695022" d="M192.181,266.474c4.468,1.25,10.748,15.267,10.748,15.267s-2.639,4.343-6.644,4.584l-7.19-7.6Z" transform="translate(-162.278 -234.163)" fill="#407bff"/>
          <path id="Trazado_695023" data-name="Trazado 695023" d="M192.181,266.474c4.468,1.25,10.748,15.267,10.748,15.267s-2.639,4.343-6.644,4.584l-7.19-7.6Z" transform="translate(-162.278 -234.163)" fill="#fff" opacity="0.7"/>
        </g>
        <g id="Grupo_957270" data-name="Grupo 957270" transform="translate(0 29.101)">
          <path id="Trazado_695024" data-name="Trazado 695024" d="M184.688,353.552l-1.547,50.656h2.185l2.548-50.656Z" transform="translate(-151.468 -288.259)" fill="#263238"/>
          <path id="Trazado_695025" data-name="Trazado 695025" d="M195.565,353.752h19.554l6.189,49.5h2.533l-5.7-53.022-22.573.527Z" transform="translate(-155.034 -287.306)" fill="#263238"/>
          <path id="Trazado_695026" data-name="Trazado 695026" d="M179.382,350.972H150.247l-6.091,52.5h1.377l.269-1.9-.22,1.9h1.377l7-49.382h22.785l.182,49.382h2.961l.921-52.5Z" transform="translate(-140.277 -287.518)" fill="#263238"/>
          <path id="Trazado_695027" data-name="Trazado 695027" d="M178.462,403.467l.92-52.5H150.247l-6.091,52.5h1.377l7-49.382h24.21l.183,49.382Z" transform="translate(-140.277 -287.518)" fill="#fff" opacity="0.2"/>
          <path id="Trazado_695028" data-name="Trazado 695028" d="M222.992,355.169h1.593l6.037,49.5h-1.441Z" transform="translate(-162.907 -288.723)" fill="#fff" opacity="0.2"/>
          <path id="Trazado_695029" data-name="Trazado 695029" d="M180.125,317.607l-6.135-50.83a5.456,5.456,0,0,0-5.417-4.8H140.014a1.3,1.3,0,0,0-1.3,1.3v52.894a9.971,9.971,0,0,0,9.971,9.971h57.12a.624.624,0,0,0,.625-.625h0a4.468,4.468,0,0,0-4.468-4.468H184A3.906,3.906,0,0,1,180.125,317.607Z" transform="translate(-138.716 -261.973)" fill="#263238"/>
          <path id="Trazado_695030" data-name="Trazado 695030" d="M206.436,325.511a.633.633,0,0,1-.627.627H148.686a9.97,9.97,0,0,1-9.967-9.974V263.27a1.307,1.307,0,0,1,.171-.642,1.289,1.289,0,0,1,1.126-.656h28.554a5.45,5.45,0,0,1,5.419,4.805l6.139,50.827a3.9,3.9,0,0,0,3.878,3.436h17.959a4.479,4.479,0,0,1,4.47,4.47Z" transform="translate(-138.717 -261.972)" fill="#fff" opacity="0.7"/>
          <path id="Trazado_695031" data-name="Trazado 695031" d="M185.047,326.4H148.686a9.97,9.97,0,0,1-9.967-9.974V263.534a1.307,1.307,0,0,1,.171-.642h28.533a4.347,4.347,0,0,1,4.328,3.907l5.34,52.417A8,8,0,0,0,185.047,326.4Z" transform="translate(-138.717 -262.236)" opacity="0.2"/>
        </g>
      </g>
    </g>
    <g id="Character_3" transform="translate(161.574 180.654)">
      <g id="Grupo_957277" data-name="Grupo 957277">
        <g id="Grupo_957275" data-name="Grupo 957275" transform="translate(8.472)">
          <path id="Trazado_695032" data-name="Trazado 695032" d="M281.794,411.613l4.663,1.207,3.375-10.6-4.663-1.207Z" transform="translate(-250.932 -283.625)" fill="#b55b52"/>
          <g id="Grupo_957272" data-name="Grupo 957272" transform="translate(32.493 117.39)">
            <path id="Trazado_695033" data-name="Trazado 695033" d="M290.488,402.224l-1.875,5.89-4.531-1.631,1.74-5.468Z" transform="translate(-284.082 -401.016)" opacity="0.2"/>
          </g>
          <path id="Trazado_695034" data-name="Trazado 695034" d="M279.188,384.813l5.8-36.466-16.443-6.985,12.9-5.944s12.425,3.7,16.581,6.7-12.407,44.343-12.407,44.343Z" transform="translate(-247.129 -264.797)" fill="#407bff"/>
          <path id="Trazado_695035" data-name="Trazado 695035" d="M279.188,384.813l5.8-36.466-16.443-6.985,12.9-5.944s12.425,3.7,16.581,6.7-12.407,44.343-12.407,44.343Z" transform="translate(-247.129 -264.797)" fill="#727997" opacity="0.6"/>
          <path id="Trazado_695036" data-name="Trazado 695036" d="M286.208,414.19l-5.148-1.633a.392.392,0,0,0-.473.195l-1.983,3.854a.749.749,0,0,0,.455,1.041c1.805.538,2.706.709,4.97,1.427,1.392.442,4.224,1.5,6.146,2.109,1.881.6,2.678-1.243,1.936-1.668a12.649,12.649,0,0,1-5.235-4.8A1.22,1.22,0,0,0,286.208,414.19Z" transform="translate(-249.995 -286.933)" fill="#263238"/>
          <path id="Trazado_695037" data-name="Trazado 695037" d="M291.955,415.5a.645.645,0,0,0,.377-.461.359.359,0,0,0-.083-.345c-.449-.487-2.6-.14-2.848-.1a.114.114,0,0,0-.036.212,8.145,8.145,0,0,0,1.387.62A1.832,1.832,0,0,0,291.955,415.5Zm.126-.65a.131.131,0,0,1,.029.135.42.42,0,0,1-.247.307,3.091,3.091,0,0,1-2.088-.524C290.651,414.649,291.832,414.585,292.081,414.851Z" transform="translate(-253.088 -287.479)" fill="#407bff"/>
          <path id="Trazado_695038" data-name="Trazado 695038" d="M289.431,414.268c.637-.072,2.061-.714,2.142-1.257.019-.127-.019-.3-.306-.428-.029-.013-.059-.024-.088-.033-1.025-.325-1.83,1.48-1.865,1.56a.115.115,0,0,0,.012.113.113.113,0,0,0,.057.041A.115.115,0,0,0,289.431,414.268Zm1.745-1.476c.187.081.175.16.171.185-.048.326-1.049.867-1.728,1.026.229-.44.835-1.444,1.5-1.236C291.135,412.775,291.156,412.783,291.177,412.792Z" transform="translate(-253.088 -286.926)" fill="#407bff"/>
          <path id="Trazado_695039" data-name="Trazado 695039" d="M282.189,402.746l-.595,2.271,7.782,2.621,1.474-2.937Z" transform="translate(-250.875 -284.123)" fill="#407bff"/>
          <path id="Trazado_695040" data-name="Trazado 695040" d="M313.152,416.184l4.813-.194.165-11.123-4.813.194Z" transform="translate(-259.933 -284.731)" fill="#b55b52"/>
          <path id="Trazado_695041" data-name="Trazado 695041" d="M317.357,417.162h-5.4a.393.393,0,0,0-.392.329l-.725,4.273a.75.75,0,0,0,.749.855c1.884-.032,2.793-.143,5.168-.143,1.461,0,4.479.152,6.5.152,1.974,0,2.176-1.995,1.341-2.176a12.651,12.651,0,0,1-6.442-2.993A1.221,1.221,0,0,0,317.357,417.162Z" transform="translate(-259.267 -288.26)" fill="#263238"/>
          <g id="Grupo_957273" data-name="Grupo 957273" transform="translate(53.296 120.139)">
            <path id="Trazado_695042" data-name="Trazado 695042" d="M318.16,404.872l-.091,6.181-4.808-.251.083-5.737Z" transform="translate(-313.261 -404.872)" opacity="0.2"/>
          </g>
          <path id="Trazado_695043" data-name="Trazado 695043" d="M323.016,417.555a.645.645,0,0,0,.22-.553.359.359,0,0,0-.184-.3c-.575-.328-2.525.653-2.745.766a.114.114,0,0,0,.029.213,8.115,8.115,0,0,0,1.509.172A1.83,1.83,0,0,0,323.016,417.555Zm-.076-.658a.132.132,0,0,1,.068.12.421.421,0,0,1-.142.367,3.089,3.089,0,0,1-2.149.132C321.516,417.137,322.623,416.719,322.94,416.9Z" transform="translate(-261.969 -288.108)" fill="#407bff"/>
          <path id="Trazado_695044" data-name="Trazado 695044" d="M320.406,417.216c.586-.262,1.749-1.3,1.662-1.846-.021-.126-.11-.284-.421-.316a.837.837,0,0,0-.093-.005c-1.075,0-1.3,1.964-1.306,2.05a.115.115,0,0,0,.113.126A.106.106,0,0,0,320.406,417.216Zm1.217-1.935c.2.021.215.1.22.125.052.325-.739,1.144-1.337,1.5.085-.488.359-1.63,1.052-1.63C321.579,415.277,321.6,415.279,321.623,415.281Z" transform="translate(-261.97 -287.654)" fill="#407bff"/>
          <path id="Trazado_695045" data-name="Trazado 695045" d="M272.172,308.662l3.725,7.929s24.167.915,30.076,10.6c2.381,3.9-4.973,54.919-4.973,54.919l-6.171-.4s-2.731-28.544-2.192-45.488c0,0-24.847,3.493-31.534.144s-9.052-9.72-8.324-18.458S272.172,308.662,272.172,308.662Z" transform="translate(-242.567 -257.117)" fill="#407bff"/>
          <path id="Trazado_695046" data-name="Trazado 695046" d="M272.172,308.662l3.725,7.929s24.167.915,30.076,10.6c2.381,3.9-4.973,54.919-4.973,54.919l-6.171-.4s-2.731-28.544-2.192-45.488c0,0-24.847,3.493-31.534.144s-9.052-9.72-8.324-18.458S272.172,308.662,272.172,308.662Z" transform="translate(-242.567 -257.117)" fill="#727997" opacity="0.7"/>
          <path id="Trazado_695047" data-name="Trazado 695047" d="M249.482,279.02a81.512,81.512,0,0,0-5.751,16.586,1.646,1.646,0,0,0-.608-1.316c-.138-.1-.2-.111-.207-.1a3.643,3.643,0,0,0,1.266.2c4.177.008,8.572-.957,12.768-1.692l.869,2.741c-3.968,1.572-16.762,7.007-19.052,1.366a4.357,4.357,0,0,1-.158-2.454,61.051,61.051,0,0,1,5.642-17.851l5.231,2.52Z" transform="translate(-238.507 -247.885)" fill="#b55b52"/>
          <path id="Trazado_695048" data-name="Trazado 695048" d="M240.78,282.061l7.1,4.323s.386-.412.94-1.111a17.055,17.055,0,0,0,3.458-6.827,6.941,6.941,0,0,0,.053-2.482,4.065,4.065,0,0,0-5.792-3.059C243.419,274.1,240.78,282.061,240.78,282.061Z" transform="translate(-239.16 -246.748)" fill="#407bff"/>
          <path id="Trazado_695049" data-name="Trazado 695049" d="M251.773,286.526a17.055,17.055,0,0,0,3.458-6.827c-.265-.352-1.509-2.455-1.843-2.795C253.388,276.9,249.562,279.9,251.773,286.526Z" transform="translate(-242.118 -248.001)" opacity="0.2"/>
          <path id="Trazado_695050" data-name="Trazado 695050" d="M309.894,407.772l.12,2.346,8.21.145.516-3.245Z" transform="translate(-258.998 -285.349)" fill="#407bff"/>
          <path id="Trazado_695051" data-name="Trazado 695051" d="M278.615,250.457c.008.386.22.7.476.7s.455-.309.448-.694-.22-.7-.476-.7S278.608,250.072,278.615,250.457Z" transform="translate(-250.02 -240.21)" fill="#263238"/>
          <path id="Trazado_695052" data-name="Trazado 695052" d="M279.086,249.687l.931-.26S279.551,250.146,279.086,249.687Z" transform="translate(-250.155 -240.114)" fill="#263238"/>
          <path id="Trazado_695053" data-name="Trazado 695053" d="M279.086,251.266a10.62,10.62,0,0,0,1.439,2.472,1.674,1.674,0,0,1-1.385.247Z" transform="translate(-250.155 -240.642)" fill="#d38063"/>
          <path id="Trazado_695054" data-name="Trazado 695054" d="M278.417,246.908a.225.225,0,0,1-.111-.006,1.884,1.884,0,0,0-1.665.2.228.228,0,0,1-.279-.361,2.342,2.342,0,0,1,2.083-.278.228.228,0,0,1-.028.441Z" transform="translate(-249.348 -239.229)" fill="#263238"/>
          <path id="Trazado_695055" data-name="Trazado 695055" d="M250.854,316.649c13.809,3.367,26.58-5.465,26.58-5.465-4.323-10.974-2.64-19.883-1.664-25.19a29.647,29.647,0,0,0,.5-3.24,19.718,19.718,0,0,0-.108-3.309,74.837,74.837,0,0,1-.459-7.627s-5.648-1.877-18.821-1.785a3.681,3.681,0,0,0-.623.113c-.579.12-1.154.249-1.711.372q-.571.127-1.1.274c-.416.107-.818.22-1.2.328-2.032.573-3.447,1.077-3.447,1.077C255.141,287.719,247.757,305.2,250.854,316.649Z" transform="translate(-241.461 -246.028)" fill="#ffd947"/>
          <path id="Trazado_695056" data-name="Trazado 695056" d="M260.282,246.332c.389,4.738.451,6.75,2.917,9.2,3.71,3.685,9.5,2.336,10.547-2.383.943-4.247.15-11.283-4.575-13.2A6.357,6.357,0,0,0,260.282,246.332Z" transform="translate(-244.751 -237.243)" fill="#ffa686"/>
          <path id="Trazado_695057" data-name="Trazado 695057" d="M273.585,249.645a4.3,4.3,0,0,0,1.288,2.251c.9.851,1.7.433,1.745-.509a3.2,3.2,0,0,0-1.434-2.828C274.153,248.051,273.414,248.671,273.585,249.645Z" transform="translate(-248.569 -239.813)" fill="#b55b52"/>
          <path id="Trazado_695058" data-name="Trazado 695058" d="M284.427,298.613c.245-1.309.881-11.385.935-12.231a19.721,19.721,0,0,0-.108-3.309c-2.555-1.874-4.333,3.406-4.333,3.406S278.6,292.227,284.427,298.613Z" transform="translate(-250.551 -249.656)" opacity="0.2"/>
          <path id="Trazado_695059" data-name="Trazado 695059" d="M288.38,281.1a118.392,118.392,0,0,0,2.2,18.648,6.385,6.385,0,0,0,2.172,2.568c3.655,2.865,8.129,4.984,12.346,6.979l-.95,2.905a56.906,56.906,0,0,1-9.716-3.2c-3.679-1.769-8.044-3.732-9.329-8.146a78.125,78.125,0,0,1-2.9-19.628l6.17-.123Z" transform="translate(-251.052 -249.206)" fill="#ffa686"/>
          <g id="Grupo_957274" data-name="Grupo 957274" transform="translate(51.565 59.793)">
            <path id="Trazado_695060" data-name="Trazado 695060" d="M312.354,320.231l4.033,1.408L314.43,324.9s-4.119-.716-3.543-3.64Z" transform="translate(-310.832 -320.231)" fill="#ffa686"/>
            <path id="Trazado_695061" data-name="Trazado 695061" d="M319.166,323.673l-.947,3.017-2.34-1.226,1.956-3.258Z" transform="translate(-312.281 -320.798)" fill="#ffa686"/>
          </g>
          <path id="Trazado_695062" data-name="Trazado 695062" d="M284.871,272.516c2.739.779,6.111,9.337,6.044,12.238L281.75,289.3s-2.192-5.14-.143-12.452C282.377,274.1,283.386,272.094,284.871,272.516Z" transform="translate(-250.628 -246.725)" fill="#ffd947"/>
          <path id="Trazado_695063" data-name="Trazado 695063" d="M269.092,238.019c2.984,1.417,3.031,8.616-.841,11.581,0,0-.079,4.728,2.259,7.012s.679,7.569-4.4,11.367a12.751,12.751,0,0,0,1.447-3.035,13.771,13.771,0,0,1-5.163,5.1c-3.55,1.978-2.731,4.478-2.731,4.478s-5.406-.818-5.264-6.13a4.607,4.607,0,0,0,.078,3.445,8.443,8.443,0,0,1-3.6-7.326c.331-4.807,2.583-5.8,1.243-16.256C250.953,239.17,259.229,233.338,269.092,238.019Z" transform="translate(-242.052 -236.365)" fill="#263238"/>
        </g>
        <g id="Grupo_957276" data-name="Grupo 957276" transform="translate(0 18.257)">
          <path id="Trazado_695064" data-name="Trazado 695064" d="M272.6,353.552l-1.548,50.656h2.185l2.549-50.656Z" transform="translate(-239.376 -288.259)" fill="#263238"/>
          <path id="Trazado_695065" data-name="Trazado 695065" d="M283.473,353.752h19.555l6.188,49.5h2.534l-5.7-53.022-22.574.527Z" transform="translate(-242.942 -287.306)" fill="#263238"/>
          <path id="Trazado_695066" data-name="Trazado 695066" d="M267.291,350.972H238.155l-6.091,52.5h1.377l.27-1.9-.221,1.9h1.377l7-49.382h22.784l.182,49.382H267.8l.92-52.5Z" transform="translate(-228.186 -287.518)" fill="#263238"/>
          <path id="Trazado_695067" data-name="Trazado 695067" d="M266.37,403.467l.92-52.5H238.155l-6.091,52.5h1.377l7-49.382h24.211l.182,49.382Z" transform="translate(-228.186 -287.518)" fill="#fff" opacity="0.2"/>
          <path id="Trazado_695068" data-name="Trazado 695068" d="M310.9,355.169h1.593l6.037,49.5h-1.442Z" transform="translate(-250.815 -288.723)" fill="#fff" opacity="0.2"/>
          <path id="Trazado_695069" data-name="Trazado 695069" d="M268.033,317.607l-6.135-50.83a5.456,5.456,0,0,0-5.417-4.8H227.922a1.3,1.3,0,0,0-1.3,1.3v52.894a9.971,9.971,0,0,0,9.971,9.971h57.12a.624.624,0,0,0,.625-.625h0a4.468,4.468,0,0,0-4.468-4.468H271.911A3.907,3.907,0,0,1,268.033,317.607Z" transform="translate(-226.624 -261.973)" fill="#263238"/>
          <path id="Trazado_695070" data-name="Trazado 695070" d="M294.344,325.511a.633.633,0,0,1-.627.627H236.594a9.97,9.97,0,0,1-9.967-9.974V263.27a1.307,1.307,0,0,1,.171-.642,1.289,1.289,0,0,1,1.126-.656h28.554a5.45,5.45,0,0,1,5.419,4.805l6.139,50.827a3.9,3.9,0,0,0,3.879,3.436h17.96a4.479,4.479,0,0,1,4.47,4.47Z" transform="translate(-226.625 -261.972)" fill="#fff" opacity="0.7"/>
          <path id="Trazado_695071" data-name="Trazado 695071" d="M272.955,326.4H236.594a9.97,9.97,0,0,1-9.967-9.974V263.534a1.307,1.307,0,0,1,.171-.642h28.533a4.347,4.347,0,0,1,4.328,3.907L265,319.216A8,8,0,0,0,272.955,326.4Z" transform="translate(-226.625 -262.236)" opacity="0.2"/>
        </g>
      </g>
    </g>
  </g>
</svg>
