<svg id="Grupo_1012861" data-name="Grupo 1012861" xmlns="http://www.w3.org/2000/svg" xmlns:xlink="http://www.w3.org/1999/xlink" width="230.978" height="199.288" viewBox="0 0 230.978 199.288">
  <defs>
    <clipPath id="clip-path">
      <rect id="Rectángulo_350780" data-name="Rectángulo 350780" width="230.978" height="199.288" fill="none"/>
    </clipPath>
  </defs>
  <g id="Grupo_1012860" data-name="Grupo 1012860" clip-path="url(#clip-path)">
    <path id="Trazado_663216" data-name="Trazado 663216" d="M187.967,5.248c-3.787,3.992-5.622,9.391-7.224,14.538-.842,2.694-1.535,5.433-2.441,8.1a18.655,18.655,0,0,1-2.153,4.567,21.189,21.189,0,0,0-1.368,1.972,3.167,3.167,0,0,1-2.339-.49,4.282,4.282,0,0,1-1.167-3.742,23.73,23.73,0,0,1,1.713-8.728,31.292,31.292,0,0,1,4.991-7.75,30.324,30.324,0,0,1,2.956-3.126,14.157,14.157,0,0,0,2.833-2.682c2.793-4.505-6.085-4.334-8.2-4.15a26.233,26.233,0,0,0-14.324,5.131c-7.142,5.728-10.355,15.588-12.422,24.174-1.227,5.112-2.2,10.259-3.818,15.273a47.67,47.67,0,0,1-2.782,7.277c-.333.644-.824,1.767-1.641,1.417-.725-.313-1.044-2.545-1.216-3.262-2.877-11.935.836-24.478,6.818-34.85a34.211,34.211,0,0,1,4.572-6.249c.949-1.031,2.335-2.637,1.533-4.141-1.941-3.6-9.308-.953-11.926.156-8.744,3.7-18.022,10.724-20.141,20.434-1.323,6.072-.51,12.333.287,18.416.874,6.7,1.657,13.438,2.813,20.1a25.48,25.48,0,0,1,.283,11.313c-.351,1.279-.931,3.127-2.254,3.722-1.929.865-3.719-1.341-4.674-2.752-3.157-4.666-3.457-10.695-4.1-16.122a105.4,105.4,0,0,1,1.206-36.561,1.712,1.712,0,0,0-1.184-2.776c-4.269-.471-8.3,2.675-11.586,4.988A40.908,40.908,0,0,0,90.687,39.665c-5.629,8.125-6.428,18.321-4.71,27.83,2.032,11.209,8.278,21.572,12.3,32.138,1.166,3.064,2.9,6.717,2.95,10.074.087,5.613-7.746-.716-9.239-2.466a60.748,60.748,0,0,1-9.2-14.822,131.958,131.958,0,0,1-5.5-17.566A.843.843,0,0,0,77,74.432c-.706-1.645-2.458-1.741-3.789.03-2.719,3.634-2.444,8.964-2.291,13.216.38,10.553,2.271,21.6,7.8,30.752a61.477,61.477,0,0,0,22.046,20.8,77.9,77.9,0,0,0,14.269,6.556,65.376,65.376,0,0,0,15.743,2.65,128.952,128.952,0,0,0,17.346.518c4.284-.271,9.4-.869,13.008-3.484,2.85-.588,5.677-1.227,8.471-1.9,13.066-3.109,26.953-8.531,35.259-19.651,2.819-3.778,5.814-9.089,5.87-13.912a4.226,4.226,0,0,0-2.562-4.378c-2.626-.865-5.582.965-7.938,1.894-7.057,2.786-14.987,3.342-22.509,3.462-6.766.109-13.887-.524-19.983-3.706a20.36,20.36,0,0,1-8.16-7.129c-2.656-4.6,2.276-6.962,6.267-6.795,4.285.184,8.536,1.43,12.813,1.863,4.535.459,9.077.541,13.618.666,14.319.416,29.475-2.971,39.407-14.1a28.337,28.337,0,0,0,7.164-14.615,7.249,7.249,0,0,0-1.995-6.69c-2.4-2-5.531-1.141-7.936.383-3.621,2.294-6.788,5.233-10.466,7.486A85.644,85.644,0,0,1,196.4,74.745a35.058,35.058,0,0,1-11.909,2.215A52.006,52.006,0,0,1,174.449,77c-1.116-.157-8.35-2.539-6.5-3.8,1.54-1.041,5.029-.5,6.841-.6a95.7,95.7,0,0,0,13.43-1.089,74.222,74.222,0,0,0,13.024-4.346,53.614,53.614,0,0,0,18.643-11.3A39.808,39.808,0,0,0,230.3,38.444c.641-2.279,1.289-5.021-.375-7a1.661,1.661,0,0,0-2.01-.253c-2.632,1.893-5.767,2.859-8.5,4.577a68.875,68.875,0,0,1-10.4,5.927,15.109,15.109,0,0,1-12.572-.336c-.656-2.247,1.064-4.2,3.031-5.345,4.118-2.387,8.826-3.544,12.928-6.059a24.01,24.01,0,0,0,9.1-9.51A43.12,43.12,0,0,0,224.27,12.9c.766-2.6,2.106-6.38,1.089-9.038a1.114,1.114,0,0,0-.119-.21.408.408,0,0,0-.16-.384A17.08,17.08,0,0,0,216.54.749C213.02.356,209.44.143,205.9.035c-6.385-.2-13.3.323-17.938,5.219M151.273,115.5c3.42.421,12.894,3.574,10.961,8.49-1.955,4.975-11.182,4.092-15.143,3.753-6.55-.558-16.4-1.95-21.878-6.02-2.938-2.188-1.4-3.73,1.372-4.418a79.045,79.045,0,0,1,10.139-1.836,62.169,62.169,0,0,1,14.55.03" fill="#4f9638"/>
    <path id="Trazado_663217" data-name="Trazado 663217" d="M186.482,34.181q-3.981,3.688-7.879,7.476c-7.056,6.8-14.141,13.565-21.076,20.5-6.359,6.36-12.547,12.93-18.472,19.7-7.384,8.431-14.6,17.19-21.29,26.194a60.535,60.535,0,0,1-4.814-10.357c-.127-.338-.751-.327-.685.094a23.238,23.238,0,0,0,1.779,6.471,37.284,37.284,0,0,0,2.755,5.074c-.166.236-.355.466-.529.7a310.743,310.743,0,0,0-19.056,28.207.776.776,0,0,0,1.344.778,275.225,275.225,0,0,1,18.481-25.031c7.442-9.422,15.184-18.657,22.938-27.832,11.847-14.016,24.759-27.3,37.657-40.344,4.859-4.909,10.2-9.287,15.13-14.083.852-.83-.228-2-1.2-1.557a20.681,20.681,0,0,0-5.079,4" fill="#0a481c"/>
    <path id="Trazado_663218" data-name="Trazado 663218" d="M108.836,85.884a126.666,126.666,0,0,1-4.973-25.141c-.387-4.017-.58-8.057-.765-12.089-.18-3.89.3-8.18-.639-11.97a.414.414,0,0,0-.792,0c-.913,3.754-.3,8.15-.123,11.972.2,4.342.656,8.664,1.239,12.977a136.882,136.882,0,0,0,5.535,24.4.27.27,0,0,0,.518-.151" fill="#0a481c"/>
    <path id="Trazado_663219" data-name="Trazado 663219" d="M131.266,48.376a90.4,90.4,0,0,0,2.217,18.233,49.05,49.05,0,0,0,4.95,14.073c.176.289.642,0,.446-.261-2.914-3.952-3.2-9.465-4.256-14.129a91.176,91.176,0,0,1-2.055-17.461A68.378,68.378,0,0,1,137.3,19.484a.381.381,0,0,0-.6-.459c-3.035,2.469-3.069,8.484-3.681,12.037-.441,2.541-1.293,4.993-1.656,7.552a54.1,54.1,0,0,0-.094,9.767" fill="#0a481c"/>
    <path id="Trazado_663220" data-name="Trazado 663220" d="M161.577,32.136c-.619,2.458-1.263,4.916-1.771,7.4a31.94,31.94,0,0,0-.272,14.543.61.61,0,0,0,1.182-.3.154.154,0,0,0-.007-.023,31.012,31.012,0,0,1,.554-15.13c.572-2.382,1.245-4.734,1.87-7.1.506-1.945,1.562-4.463,1.1-6.472a.4.4,0,0,0-.736-.091,9.855,9.855,0,0,0-1,3.306c-.282,1.293-.6,2.58-.922,3.866" fill="#0a481c"/>
    <path id="Trazado_663221" data-name="Trazado 663221" d="M170.775,9.946a27.644,27.644,0,0,0-2.414,3.367,47.871,47.871,0,0,0-3.335,7.435c-.186.469.569.77.808.336,1.27-2.306,2.71-4.5,4.177-6.688.709-1.064,1.447-2.124,2.257-3.115s2.021-1.94,2.369-3.161a.635.635,0,0,0-.771-.77c-1.283.272-2.295,1.64-3.091,2.6" fill="#0a481c"/>
    <path id="Trazado_663222" data-name="Trazado 663222" d="M200.953,54.933a51.52,51.52,0,0,1-22.632.945c-.915-.207-1.3,1.185-.39,1.411,7.379,1.8,15.339.794,22.681-.775a45.73,45.73,0,0,0,10.543-3.835,42.38,42.38,0,0,0,10.186-6.123.338.338,0,0,0-.33-.566,51.126,51.126,0,0,0-9.332,4.694,47.118,47.118,0,0,1-10.727,4.25" fill="#0a481c"/>
    <path id="Trazado_663223" data-name="Trazado 663223" d="M195.69,25.533a.563.563,0,0,0,.8.795,96.5,96.5,0,0,1,15.284-12.04c.205-.141.084-.5-.174-.419a28.289,28.289,0,0,0-8.567,4.879,58.427,58.427,0,0,0-7.34,6.785" fill="#0a481c"/>
    <path id="Trazado_663224" data-name="Trazado 663224" d="M216.882,9.5c-.463.334-.936.676-1.386,1.037-.86.7-1.7,1.4-2.589,2.059a.164.164,0,0,0-.056.226h0a.167.167,0,0,0,.227.057c1.016-.489,2.073-.96,3.042-1.537a11.764,11.764,0,0,0,1.421-1A7.079,7.079,0,0,0,218.6,9.1c.165-.225-.156-.508-.376-.376-.431.269-.927.465-1.338.765" fill="#0a481c"/>
    <path id="Trazado_663225" data-name="Trazado 663225" d="M165.723,84.212a16.974,16.974,0,0,0-6.159-2.186,13.179,13.179,0,0,1-6-2.707.564.564,0,0,0-.8.795,13.126,13.126,0,0,0,5.971,3.222c2.2.633,4.468,1.1,6.7,1.58a.382.382,0,0,0,.289-.7" fill="#0a481c"/>
    <path id="Trazado_663226" data-name="Trazado 663226" d="M213.711,76a30.816,30.816,0,0,1-5.052,3.761,43.336,43.336,0,0,1-11.344,4.592,64.464,64.464,0,0,1-24.26,1.278c-.269-.036-.334.429-.063.477a61.989,61.989,0,0,0,25.306-.519,40.846,40.846,0,0,0,11.7-4.708c3.016-1.825,7.218-4.571,8.351-8.1a.462.462,0,0,0-.341-.557.455.455,0,0,0-.329.046A32.953,32.953,0,0,0,213.71,76" fill="#0a481c"/>
    <path id="Trazado_663227" data-name="Trazado 663227" d="M17.131,122.561c5.192,1.827,10.875,1.294,16.23.654,2.8-.336,5.588-.819,8.393-1.088a18.786,18.786,0,0,1,5.052.1,22.058,22.058,0,0,0,2.361.445A3.156,3.156,0,0,1,49.674,125a4.276,4.276,0,0,1-2.939,2.6,23.727,23.727,0,0,1-8.672,2,31.316,31.316,0,0,1-9.118-1.387,30.218,30.218,0,0,1-4.059-1.422,14.178,14.178,0,0,0-3.61-1.487c-5.258-.711-1.469,7.328-.437,9.183a26.258,26.258,0,0,0,10.542,10.98c8.154,4.18,18.469,3.082,27.153,1.456,5.171-.968,10.268-2.187,15.508-2.755a47.889,47.889,0,0,1,7.783-.437c.724.041,1.95.032,1.964.919.012.793-1.9,2-2.481,2.447-9.721,7.505-22.7,9.243-34.612,8.018a34.143,34.143,0,0,1-7.576-1.618c-1.33-.442-3.364-1.053-4.409.295-2.492,3.243,2.936,8.887,5.02,10.824,6.95,6.468,17.161,12.073,26.9,10.038,6.085-1.275,11.469-4.579,16.7-7.8,5.758-3.535,11.591-7,17.2-10.784a25.5,25.5,0,0,1,10.214-4.89c1.311-.2,3.237-.428,4.321.537,1.578,1.41.3,3.945-.6,5.394-2.969,4.789-8.35,7.528-13.039,10.336A105.464,105.464,0,0,1,67.539,181.31a1.713,1.713,0,0,0-2.05,2.22c1.312,4.094,5.833,6.483,9.288,8.542a40.945,40.945,0,0,0,13.559,5.254c9.72,1.817,19.362-1.622,27.337-7.076,9.406-6.439,16.316-16.38,24.32-24.371,2.324-2.323,4.955-5.406,8-6.818,5.089-2.375,2.512,7.366,1.524,9.445a60.8,60.8,0,0,1-9.776,14.462,132.3,132.3,0,0,1-13.788,12.2.839.839,0,0,0-.268.439c-1.214,1.316-.585,2.956,1.577,3.448,4.431,1,9.185-1.434,13-3.312,9.486-4.669,18.8-10.91,24.9-19.7a61.525,61.525,0,0,0,9.983-28.643,77.752,77.752,0,0,0,.149-15.711,65.253,65.253,0,0,0-4.015-15.459,128.586,128.586,0,0,0-6.622-16.057c-2-3.8-4.635-8.222-8.5-10.454-1.7-2.362-3.441-4.684-5.193-6.963C142.776,72.1,132.147,61.635,118.6,58.6c-4.6-1.032-10.676-1.592-15.1.326a4.226,4.226,0,0,0-2.951,4.13c.282,2.753,3.162,4.7,4.973,6.476,5.429,5.3,9.182,12.317,12.368,19.137,2.864,6.138,5.2,12.9,4.786,19.763A20.389,20.389,0,0,1,119.5,118.8c-3.122,4.307-7.289.765-8.767-2.947-1.585-3.99-2.187-8.38-3.537-12.462-1.437-4.328-3.221-8.5-4.961-12.713-5.474-13.244-14.766-25.7-28.993-30.217A28.365,28.365,0,0,0,56.967,59.9a7.258,7.258,0,0,0-5.3,4.559c-.838,3.008,1.222,5.516,3.6,7.09,3.573,2.368,7.554,4.055,11.114,6.494a86.036,86.036,0,0,1,10.762,8.389,35.133,35.133,0,0,1,6.9,9.971,52.075,52.075,0,0,1,4.14,9.154c.313,1.083,1.1,8.668-.815,7.489-1.58-.981-2.515-4.384-3.343-6a94.985,94.985,0,0,0-6.489-11.817,74.1,74.1,0,0,0-9.3-10.115A53.642,53.642,0,0,0,50.3,72.715a39.813,39.813,0,0,0-20.166-2.379c-2.343.348-5.111.875-6.233,3.2a1.657,1.657,0,0,0,.589,1.94c2.808,1.63,4.965,4.1,7.655,5.893a68.84,68.84,0,0,1,9.666,7.077,15.113,15.113,0,0,1,4.836,11.616c-1.785,1.522-4.275.747-6.121-.581-3.867-2.786-6.848-6.61-10.821-9.328a24.045,24.045,0,0,0-12.4-4.421,43.268,43.268,0,0,0-8.03.549c-2.69.365-6.688.686-8.7,2.7a1.3,1.3,0,0,0-.143.193.41.41,0,0,0-.284.3,17.086,17.086,0,0,0,1.188,8.83c1.079,3.375,2.351,6.732,3.7,10.006,2.431,5.912,5.733,12.01,12.1,14.245M132.81,110.988c-1.013-3.295-2.009-13.236,3.27-13.482,5.345-.247,8.308,8.54,9.619,12.294,2.17,6.211,4.928,15.781,3.449,22.443-.8,3.578-2.833,2.805-4.6.554a79.09,79.09,0,0,1-5.82-8.507,62.163,62.163,0,0,1-5.922-13.3" fill="#adce32"/>
    <path id="Trazado_663228" data-name="Trazado 663228" d="M50.02,114.433c3.331,1.42,6.686,2.791,10.05,4.137,9.1,3.664,18.169,7.368,27.335,10.862,8.409,3.2,16.938,6.17,25.541,8.813,10.719,3.295,21.665,6.3,32.624,8.731a60.561,60.561,0,0,1-7.49,8.629c-.258.255.014.82.365.587a23.213,23.213,0,0,0,5.18-4.271,37.687,37.687,0,0,0,3.5-4.592c.283.055.572.134.859.192a311.012,311.012,0,0,0,33.556,5.872.776.776,0,0,0,.163-1.543,275.575,275.575,0,0,1-30.411-6.641c-11.649-2.94-23.245-6.236-34.792-9.566C98.86,130.562,81.446,124.2,64.263,117.756c-6.47-2.429-12.652-5.518-19.047-8.058-1.106-.44-1.734,1.025-.93,1.735a20.689,20.689,0,0,0,5.731,3" fill="#0a481c"/>
    <path id="Trazado_663229" data-name="Trazado 663229" d="M128.982,164.2a126.683,126.683,0,0,1-20.924,14.821c-3.513,2-7.12,3.823-10.725,5.641-3.479,1.755-7.591,3.073-10.67,5.477a.415.415,0,0,0-.038.586.408.408,0,0,0,.363.139c3.8-.706,7.567-3.06,10.981-4.784,3.882-1.957,7.645-4.143,11.343-6.438a136.956,136.956,0,0,0,20.018-15.031c.261-.227-.082-.647-.348-.412" fill="#0a481c"/>
    <path id="Trazado_663230" data-name="Trazado 663230" d="M85.56,159.051a90.491,90.491,0,0,0,15.744-9.482A49.037,49.037,0,0,0,112.122,139.3c.195-.282-.26-.587-.419-.3-2.416,4.272-7.335,6.792-11.16,9.662a91.3,91.3,0,0,1-15.1,9.021,68.41,68.41,0,0,1-28.731,7.682.381.381,0,0,0-.178.735c3.5,1.757,9-.667,12.5-1.561,2.5-.642,5.088-.862,7.574-1.577a54.234,54.234,0,0,0,8.956-3.907" fill="#0a481c"/>
    <path id="Trazado_663231" data-name="Trazado 663231" d="M58.337,138.014c2.5-.441,5-.858,7.483-1.409a31.958,31.958,0,0,0,13.391-5.7.61.61,0,0,0-.777-.94,31.024,31.024,0,0,1-14.043,5.68c-2.407.45-4.831.8-7.249,1.194-1.983.334-4.713.4-6.358,1.643a.4.4,0,0,0,.218.711,9.9,9.9,0,0,0,3.428-.436c1.3-.273,2.6-.508,3.907-.74" fill="#0a481c"/>
    <path id="Trazado_663232" data-name="Trazado 663232" d="M34.316,138.689a27.552,27.552,0,0,0,4.06.831,48.206,48.206,0,0,0,8.149,0c.506-.025.471-.836-.023-.875-2.626-.217-5.216-.633-7.815-1.079-1.263-.214-2.531-.454-3.769-.787s-2.593-1.052-3.854-.87a.629.629,0,0,0-.518.726v0a.6.6,0,0,0,.127.288c.773,1.061,2.436,1.426,3.637,1.761" fill="#0a481c"/>
    <path id="Trazado_663233" data-name="Trazado 663233" d="M63.053,92.736A51.561,51.561,0,0,1,73.169,113.02c.186.919,1.616.706,1.449-.223-1.372-7.476-5.549-14.334-9.985-20.4a45.8,45.8,0,0,0-7.812-8.057,42.4,42.4,0,0,0-9.756-6.8.338.338,0,0,0-.381.532,51.047,51.047,0,0,0,8.1,6.6,47.2,47.2,0,0,1,8.267,8.058" fill="#0a481c"/>
    <path id="Trazado_663234" data-name="Trazado 663234" d="M38.357,109.561a.563.563,0,1,0,.4-1.053A96.5,96.5,0,0,1,21.51,99.474c-.212-.128-.491.129-.309.331a28.294,28.294,0,0,0,7.957,5.828,58.489,58.489,0,0,0,9.2,3.929" fill="#0a481c"/>
    <path id="Trazado_663235" data-name="Trazado 663235" d="M15.054,96.765c.495.287,1,.579,1.512.842.991.5,1.971.983,2.94,1.522a.169.169,0,0,0,.194-.276c-.86-.728-1.722-1.5-2.646-2.151a11.785,11.785,0,0,0-1.489-.89A7.176,7.176,0,0,0,14,95.358c-.275-.06-.4.349-.188.5.42.286.8.657,1.245.91" fill="#0a481c"/>
    <path id="Trazado_663236" data-name="Trazado 663236" d="M104.195,112.933a16.991,16.991,0,0,0,.52,6.514,13.207,13.207,0,0,1-.017,6.588.563.563,0,0,0,1.051.4,13.105,13.105,0,0,0,.5-6.761c-.319-2.263-.821-4.53-1.3-6.764a.382.382,0,0,0-.76.02" fill="#0a481c"/>
    <path id="Trazado_663237" data-name="Trazado 663237" d="M77.077,72.471a30.834,30.834,0,0,1,5.5,3.076,43.385,43.385,0,0,1,8.831,8.477A64.48,64.48,0,0,1,102.5,105.656c.078.262.529.131.461-.137a62.008,62.008,0,0,0-10.822-22.9,40.937,40.937,0,0,0-9.083-8.758c-2.9-2.007-7.128-4.721-10.813-4.313a.464.464,0,0,0-.195.824,33.1,33.1,0,0,0,5.034,2.1" fill="#0a481c"/>
  </g>
</svg>
