<svg xmlns="http://www.w3.org/2000/svg" width="144.461" height="135.737" viewBox="0 0 144.461 135.737">
  <g id="Grupo_93249" data-name="Grupo 93249" transform="translate(104.461 136.083) rotate(-155)">
    <path id="Trazado_122961" data-name="Trazado 122961" d="M44.512,5.387a94.6,94.6,0,0,0-16.5,10.058A151.858,151.858,0,0,0,12.051,29.291,33.873,33.873,0,0,0,5.98,37.28C4.272,40.443,2.654,44.332.591,46.73c-1.188,1.382-.445,5.091.984,4.293a5.994,5.994,0,0,0,.513-.376,191.807,191.807,0,0,1,14.594,13.5c4.483,4.383,9.046,8.452,13.376,13.345,7.213,8.154,15.7,20.03,24.677,18.831,3.965-.531,7.6-4.324,10.683-8.729,3.561-5.085,6.257-13.18,10.9-15.007C84.168,69.493,91.985,77,99.825,77.02c4.9.012,12.618-1.044,14.255-11.6,1.894-12.2-4.012-23.59-9.465-28.305a45.491,45.491,0,0,0-10.333-6.284c-4.169-2.038-7.8-4.172-11.315-9.021C79.546,17.086,76.542,11.426,73.035,6.9,69.246,2.008,64.958-.1,60.343,0,55.035.128,49.614,2.93,44.512,5.387Z" transform="translate(0.819 0)" fill="#add031"/>
    <g id="Grupo_86472" data-name="Grupo 86472" transform="translate(0 40.472)">
      <path id="Trazado_122962" data-name="Trazado 122962" d="M112.6,19.255C105.795,16.037,99.2,11.424,92.315,8.7A113.757,113.757,0,0,0,70.784,2.835C63.29,1.468,55.754,1.515,48.24.642a76.6,76.6,0,0,0-22.667.413C17.25,2.543,8.981,3.73.76,6.637c-.989.348-1.038,3.495,0,3.765,3.229.845,6.535-1.609,9.738-2.3,3.858-.823,7.7-1.274,11.571-1.867C29.511,5.1,36.72,3.969,44.2,4.7,59.123,6.153,74.26,5.861,89.05,10.29c7.911,2.367,15.45,7.726,23.279,10.8.646.255.923-1.525.275-1.833Z" fill="#36753c"/>
    </g>
    <g id="Grupo_86473" data-name="Grupo 86473" transform="translate(28.234 44.086)">
      <path id="Trazado_122963" data-name="Trazado 122963" d="M32.065,43.726A116.443,116.443,0,0,1,15.04,23.864c-2.608-3.749-5.138-7.7-7.527-11.916C6.374,9.941,5.27,7.872,4.17,5.794,3.091,3.756,2.036,1.3.614.072.325-.176-.1.243.023.908A20.886,20.886,0,0,0,2.406,6.9c1.212,2.336,2.506,4.541,3.808,6.71,2.5,4.172,5.068,8.2,7.74,11.988a101.074,101.074,0,0,0,17.6,19.725c.579.478,1.094-1.066.506-1.6Z" fill="#36753c"/>
    </g>
    <g id="Grupo_86474" data-name="Grupo 86474" transform="translate(40.821 12.372)">
      <path id="Trazado_122964" data-name="Trazado 122964" d="M.74,30.426C5.359,24.117,9.962,17.9,15.057,12.937A51.963,51.963,0,0,1,23.1,6.423c2.775-1.8,5.669-2.945,8.385-5,.388-.3.363-1.37-.1-1.4-2.918-.2-5.771,1.345-8.512,3.078A53.8,53.8,0,0,0,14.6,9.628,74.466,74.466,0,0,0,.132,28.975c-.38.721.133,2.1.608,1.451Z" fill="#36753c"/>
    </g>
    <g id="Grupo_86475" data-name="Grupo 86475" transform="translate(85.493 49.176)">
      <path id="Trazado_122965" data-name="Trazado 122965" d="M17.213,20.491a45.692,45.692,0,0,1-8.955-9.13C6.848,9.563,5.51,7.625,4.205,5.584,3.547,4.553,2.9,3.5,2.254,2.443,1.709,1.542,1.208.437.49.036.119-.172-.089.57.036,1.12A9.7,9.7,0,0,0,1.679,4.248q.985,1.561,1.99,3.078c1.356,2.038,2.736,4.045,4.15,5.946a31.821,31.821,0,0,0,9.165,8.748c.537.311.736-1.171.229-1.528Z" fill="#36753c"/>
    </g>
    <g id="Grupo_86476" data-name="Grupo 86476" transform="translate(69.591 37.754)">
      <path id="Trazado_122966" data-name="Trazado 122966" d="M26.163.428C21.546.306,16.934-.386,12.324.3A21.652,21.652,0,0,0,5.888,2.155,21.516,21.516,0,0,0,2.576,4.149,6.535,6.535,0,0,0,.089,6.594c-.182.379-.076,1.124.243,1.084.948-.13,1.83-1.134,2.729-1.687A19.767,19.767,0,0,1,6.227,4.422,32.278,32.278,0,0,1,12.965,2.6a99.293,99.293,0,0,1,13.2-1.059c.387-.006.388-1.1,0-1.109Z" fill="#36753c"/>
    </g>
  </g>
</svg>
