<svg xmlns="http://www.w3.org/2000/svg" width="78.328" height="78.326" viewBox="0 0 78.328 78.326">
  <g id="Grupo_86151" data-name="Grupo 86151" transform="translate(288.757 -327.65)">
    <path id="Trazado_122406" data-name="Trazado 122406" d="M-282.988,431.34a8.542,8.542,0,0,1-1.7-3.056,2.638,2.638,0,0,1,2.525-3.491,8.809,8.809,0,0,1,6.448,2.034c0-1.552,0-2.939,0-4.325,0-.446-.329-.3-.543-.3a9.183,9.183,0,0,1-3.677-.548,7.745,7.745,0,0,1-4.725-5.062,2.63,2.63,0,0,1,2.584-3.557,8.769,8.769,0,0,1,6.36,2.05v-1.846c0-1.708-.008-3.416,0-5.124.006-.988.484-1.556,1.285-1.573.832-.017,1.321.557,1.325,1.592.007,2.262,0,4.524,0,6.928a8.942,8.942,0,0,1,3.574-1.806,10.177,10.177,0,0,1,3.192-.189,2.6,2.6,0,0,1,2.231,3.45,7.927,7.927,0,0,1-7.739,5.677c-1.258.01-1.258.01-1.258,1.288v3.324a10.131,10.131,0,0,1,2.873-1.608,9.58,9.58,0,0,1,4-.361,2.586,2.586,0,0,1,2.177,3.249,8.373,8.373,0,0,1-1.716,3.207h7.493a10.512,10.512,0,0,1-1.512-2.651c-.761-2.176.414-3.837,2.729-3.843,2.565-.006,2.745.048,6.145,1.9,0-1.437,0-2.825,0-4.212,0-.387-.281-.288-.484-.285a9.877,9.877,0,0,1-3.03-.306,7.789,7.789,0,0,1-5.4-5.163,2.65,2.65,0,0,1,2.635-3.7,8.766,8.766,0,0,1,6.281,2.055c0-1.533-.006-2.92,0-4.307,0-.412-.273-.35-.52-.346a9.556,9.556,0,0,1-3.1-.319,7.772,7.772,0,0,1-5.324-5.241,2.612,2.612,0,0,1,2.543-3.582,8.789,8.789,0,0,1,6.333,1.942,15.763,15.763,0,0,0,.066-2.264c.014-.357-.013-.716.026-1.07a1.292,1.292,0,0,1,1.252-1.212,1.27,1.27,0,0,1,1.316,1.223c.055.838.023,1.681.029,2.523,0,.246,0,.493,0,.867a8.9,8.9,0,0,1,3.6-1.8,10.653,10.653,0,0,1,3.041-.189,2.592,2.592,0,0,1,2.326,3.5,7.888,7.888,0,0,1-7.767,5.621c-1.2.008-1.2.008-1.2,1.2V414.9c.26.1.345-.1.47-.2a8.662,8.662,0,0,1,6.278-1.634,2.588,2.588,0,0,1,2.235,3.448,7.922,7.922,0,0,1-7.583,5.677c-1.4.02-1.4.02-1.4,1.442q0,1.453.018,2.905c0,.037.049.074.113.163a8.361,8.361,0,0,1,4.175-1.834,10.92,10.92,0,0,1,2.518-.04,2.6,2.6,0,0,1,2.184,3.368,8.452,8.452,0,0,1-1.669,3.079h7.476a9.24,9.24,0,0,1-1.626-3.037,2.63,2.63,0,0,1,2.5-3.443,8.693,8.693,0,0,1,6.22,1.819,1.1,1.1,0,0,0,.285.092c0-1.41-.01-2.776.005-4.143.006-.479-.321-.372-.576-.365a9,9,0,0,1-3.818-.6,7.764,7.764,0,0,1-4.584-5.009,2.633,2.633,0,0,1,2.592-3.553,8.763,8.763,0,0,1,6.378,2.069c0-1.554,0-2.964,0-4.374,0-.368-.28-.289-.5-.295a12.491,12.491,0,0,1-2.361-.138,7.752,7.752,0,0,1-6.131-5.535,2.56,2.56,0,0,1,2.309-3.442,8.556,8.556,0,0,1,6.319,1.737c.075.061.161.11.36.244,0-1.487,0-2.873,0-4.26,0-.467-.34-.356-.6-.356a9.784,9.784,0,0,1-3.1-.337,7.767,7.767,0,0,1-5.324-5.428,2.564,2.564,0,0,1,2.285-3.337,8.649,8.649,0,0,1,6.454,1.785,1.267,1.267,0,0,0,.281.108c0-1.623,0-3.191,0-4.76,0-.739-.012-1.479,0-2.218.019-.922.517-1.467,1.3-1.46a1.322,1.322,0,0,1,1.3,1.483c.017,2.065.006,4.13.006,6.2v.679c.076.017.145.054.167.035a8.723,8.723,0,0,1,6.283-1.868,2.606,2.606,0,0,1,2.495,3.55,7.875,7.875,0,0,1-7.65,5.57c-1.295.021-1.295.021-1.295,1.338v3.166c.093-.016.174-.006.218-.042a8.707,8.707,0,0,1,6.217-1.848,2.618,2.618,0,0,1,2.513,3.548,7.88,7.88,0,0,1-7.713,5.592c-1.235.01-1.235.01-1.235,1.232v3.418a8.762,8.762,0,0,1,6.392-2.047,2.639,2.639,0,0,1,2.546,3.587,7.917,7.917,0,0,1-7.736,5.573c-1.2.008-1.2.008-1.2,1.177v3.283c.285.1.376-.145.518-.252a8.667,8.667,0,0,1,6.371-1.561,2.582,2.582,0,0,1,2.114,3.356,8.205,8.205,0,0,1-1.741,3.143h2.595c2.273,0,3.184.917,3.184,3.2,0,2.32,0,4.64,0,6.961a2.631,2.631,0,0,1-2.9,2.882q-36.254,0-72.508,0a2.639,2.639,0,0,1-2.914-2.944q0-3.633,0-7.267a2.591,2.591,0,0,1,2.785-2.829C-285.033,431.331-284.1,431.34-282.988,431.34Zm67.35,7.858q-3.741-.013-7.482-.026c-1.011,0-1.651-.494-1.676-1.275-.026-.838.584-1.327,1.668-1.332l7.481-.034c.228.012.455.034.683.035,2.08.014,2.068.013,1.938-2.093-.025-.409-.177-.524-.553-.512-.685.022-1.371.017-2.057.024-.382-.009-.764-.025-1.146-.025h-67.61c-1.762,0-1.727,0-1.775,1.735-.019.7.175.888.881.886q14.914-.036,29.828-.016a7.377,7.377,0,0,1,.765.013,1.218,1.218,0,0,1,1.146,1.355c-.042.84-.574,1.238-1.68,1.238q-14.646,0-29.293,0c-1.631,0-1.636,0-1.629,1.63,0,1.106-.119.972.984.972q34.341,0,68.681,0c.28,0,.56-.016.84-.024.686.009,1.371.007,2.057.03.367.013.576-.077.555-.5-.025-.532-.025-1.068,0-1.6.02-.42-.179-.52-.551-.508C-214.266,439.194-214.952,439.19-215.638,439.2Zm-56.31-19.611c.127,0,.254,0,.381,0a5.372,5.372,0,0,0,4.823-3.4c.079-.233.3-.5-.237-.559a5.643,5.643,0,0,0-5.57,2.977C-273.02,419.547-272.991,419.594-271.948,419.586Zm49.705-11.763a5.331,5.331,0,0,0,5.083-3.33c.1-.269.327-.56-.251-.62a5.625,5.625,0,0,0-5.479,2.884C-223.446,407.814-223.437,407.83-222.243,407.823Zm-44.416,19.653a5.447,5.447,0,0,0-5.758,2.647c-.2.344-.549.757-.344,1.1.19.318.705.129,1.071.118A5.18,5.18,0,0,0-266.659,427.476Zm9.313,0c.039.146.066.293.116.432a5.348,5.348,0,0,0,5.238,3.438c1,0,1.015-.025.567-.939A5.439,5.439,0,0,0-257.346,427.479ZM-231,427.41c-1.66-.015-1.716.062-1.157,1.093a5.277,5.277,0,0,0,4.958,2.845c.99.01,1.034-.052.57-.953A5.128,5.128,0,0,0-231,427.41Zm-10.829,0c-.507,0-.963-.016-1.417,0a5.348,5.348,0,0,0-4.681,3.367c-.094.253-.3.537.223.574A5.378,5.378,0,0,0-241.826,427.41Zm-5.16-19.587a5.331,5.331,0,0,0,5.047-3.388c.1-.269.265-.546-.248-.555a5.584,5.584,0,0,0-5.45,2.79C-248.278,407.793-248.245,407.833-246.986,407.823Zm28.955,19.582a5.364,5.364,0,0,0-5.088,3.349c-.1.271-.326.555.255.608a5.629,5.629,0,0,0,5.478-2.883C-216.829,427.421-216.843,427.4-218.03,427.406Zm-34.14-19.582c1.234.009,1.257-.014.645-1.109a5.476,5.476,0,0,0-5.133-2.835c-.677-.007-.707.234-.48.772A5.263,5.263,0,0,0-252.171,407.824Zm-28.606,7.824c-1.521-.013-1.56.024-1.038,1a5.268,5.268,0,0,0,5.032,2.937c.993,0,1.025-.029.559-.931A5.2,5.2,0,0,0-280.777,415.648Zm.185,11.763c-1.736-.016-1.766.014-1.173,1.091a5.32,5.32,0,0,0,5.016,2.848c.954,0,.982-.025.541-.9A5.146,5.146,0,0,0-280.592,427.41Zm28.411-7.822c1.232.01,1.266-.025.661-1.106a5.476,5.476,0,0,0-5.2-2.852c-.614,0-.67.165-.46.686A5.363,5.363,0,0,0-252.18,419.588Zm24.3,0c1.717.011,1.759-.053,1.174-1.1a5.363,5.363,0,0,0-5.042-2.842c-.821,0-.9.11-.532.865A5.1,5.1,0,0,0-227.884,419.585Zm5.536,0a5.367,5.367,0,0,0,5.174-3.328c.1-.242.386-.559-.22-.627a5.616,5.616,0,0,0-5.557,2.995C-223.417,419.579-223.408,419.594-222.349,419.589Zm-24.787,0a5.363,5.363,0,0,0,5.164-3.341c.081-.223.392-.559-.23-.617a5.61,5.61,0,0,0-5.549,3C-248.214,419.573-248.2,419.595-247.136,419.59Zm19.735-11.765h.305c.868,0,.9-.039.514-.821a5.443,5.443,0,0,0-5.255-3.123c-.625-.008-.752.154-.512.745A5.287,5.287,0,0,0-227.4,407.824Zm5.2-11.766a5.278,5.278,0,0,0,5.032-3.312c.085-.243.3-.505-.232-.566a5.492,5.492,0,0,0-5.463,2.772C-223.451,396.038-223.433,396.068-222.2,396.058Zm-5.314,0h.382c.912,0,.944-.034.517-.866a5.2,5.2,0,0,0-5.065-3.012c-.916.014-.988.1-.556.934A5.158,5.158,0,0,0-227.51,396.062Z" transform="translate(0 -38.407)" fill="#020202"/>
    <path id="Trazado_122407" data-name="Trazado 122407" d="M-252.77,353.156a10.494,10.494,0,0,1,10.446,10.464,10.5,10.5,0,0,1-10.465,10.448,10.507,10.507,0,0,1-10.444-10.47A10.488,10.488,0,0,1-252.77,353.156Zm1.143,2.755a5.876,5.876,0,0,0-2.273-.036,7.825,7.825,0,0,0-6.595,9.065,7.78,7.78,0,0,0,8.867,6.378,1.156,1.156,0,0,0,.227,0,7.861,7.861,0,0,0,6.324-9.155A7.767,7.767,0,0,0-251.626,355.911Z" transform="translate(-17.7 -17.687)" fill="#040303"/>
    <path id="Trazado_122408" data-name="Trazado 122408" d="M-206.115,426.831c0,.834-.3,1.252-.857,1.452a1.141,1.141,0,0,1-1.425-.418,25.864,25.864,0,0,1-1.522-2.632,1.144,1.144,0,0,1,.384-1.437,1.093,1.093,0,0,1,1.475-.1A9.687,9.687,0,0,1-206.115,426.831Z" transform="translate(-54.589 -66.432)" fill="#050505"/>
    <path id="Trazado_122409" data-name="Trazado 122409" d="M-187.989,356.783a1.22,1.22,0,0,1-.646.988c-.765.453-1.527.914-2.314,1.327a1.26,1.26,0,0,1-1.729-.47,1.247,1.247,0,0,1,.4-1.744,26.646,26.646,0,0,1,2.375-1.373A1.3,1.3,0,0,1-187.989,356.783Z" transform="translate(-66.49 -19.212)" fill="#050505"/>
    <path id="Trazado_122410" data-name="Trazado 122410" d="M-280.018,410.281a1.245,1.245,0,0,1-1.28-.891,1.167,1.167,0,0,1,.458-1.421,24.721,24.721,0,0,1,2.573-1.479,1.166,1.166,0,0,1,1.541.46,1.1,1.1,0,0,1-.072,1.535,10.783,10.783,0,0,1-3,1.764A.637.637,0,0,1-280.018,410.281Z" transform="translate(-5.12 -54.582)" fill="#050505"/>
    <path id="Trazado_122411" data-name="Trazado 122411" d="M-277.857,359.249a3.234,3.234,0,0,1-.594-.2c-.754-.419-1.509-.839-2.239-1.3a1.274,1.274,0,0,1-.483-1.779,1.265,1.265,0,0,1,1.722-.494c.81.42,1.6.88,2.37,1.372a1.188,1.188,0,0,1,.532,1.456A1.345,1.345,0,0,1-277.857,359.249Z" transform="translate(-5.13 -19.184)" fill="#050505"/>
    <path id="Trazado_122412" data-name="Trazado 122412" d="M-206.047,336.375a1.574,1.574,0,0,1-.186.671c-.425.721-.818,1.462-1.259,2.172a1.275,1.275,0,0,1-1.836.489,1.285,1.285,0,0,1-.413-1.8q.618-1.135,1.3-2.236a1.226,1.226,0,0,1,1.517-.56A1.229,1.229,0,0,1-206.047,336.375Z" transform="translate(-54.656 -5.12)" fill="#050505"/>
    <path id="Trazado_122413" data-name="Trazado 122413" d="M-258.564,423.577a1.286,1.286,0,0,1,1.279,1.724,18.882,18.882,0,0,1-1.505,2.637,1.17,1.17,0,0,1-1.625.347,1.217,1.217,0,0,1-.576-1.627c.44-.883.967-1.723,1.481-2.566A1.226,1.226,0,0,1-258.564,423.577Z" transform="translate(-19.167 -66.521)" fill="#050505"/>
    <path id="Trazado_122414" data-name="Trazado 122414" d="M-257.176,338.589a1.261,1.261,0,0,1-.852,1.235,1.157,1.157,0,0,1-1.479-.439,22.023,22.023,0,0,1-1.446-2.493,1.211,1.211,0,0,1,.452-1.61,1.209,1.209,0,0,1,1.652.2,16.181,16.181,0,0,1,1.632,2.819A.971.971,0,0,1-257.176,338.589Z" transform="translate(-19.182 -5.129)" fill="#050505"/>
    <path id="Trazado_122415" data-name="Trazado 122415" d="M-187.958,408.862a1.318,1.318,0,0,1-1.846,1.361,22.729,22.729,0,0,1-2.434-1.4,1.232,1.232,0,0,1-.391-1.739,1.254,1.254,0,0,1,1.723-.465c.785.411,1.545.87,2.306,1.325A1.2,1.2,0,0,1-187.958,408.862Z" transform="translate(-66.52 -54.643)" fill="#050505"/>
    <path id="Trazado_122416" data-name="Trazado 122416" d="M-286.083,383.016c.457,0,.916-.028,1.37.008a1.259,1.259,0,0,1,1.18,1.26,1.241,1.241,0,0,1-1.127,1.307,26.606,26.606,0,0,1-2.967,0,1.261,1.261,0,0,1-1.112-1.327,1.28,1.28,0,0,1,1.21-1.239C-287.049,382.988-286.565,383.015-286.083,383.016Z" transform="translate(-0.012 -38.386)" fill="#030303"/>
    <path id="Trazado_122417" data-name="Trazado 122417" d="M-233.384,330.174c0-.406-.017-.813,0-1.218a1.294,1.294,0,0,1,1.3-1.306,1.285,1.285,0,0,1,1.287,1.245c.036.912.037,1.828,0,2.74a1.26,1.26,0,0,1-1.3,1.223,1.267,1.267,0,0,1-1.283-1.237C-233.407,331.14-233.383,330.657-233.384,330.174Z" transform="translate(-38.394)" fill="#030303"/>
    <path id="Trazado_122418" data-name="Trazado 122418" d="M-230.8,432.528c0,.431.022.864,0,1.294a1.313,1.313,0,0,1-1.329,1.288,1.287,1.287,0,0,1-1.261-1.271c-.03-.887-.029-1.777,0-2.664a1.248,1.248,0,0,1,1.245-1.27,1.273,1.273,0,0,1,1.344,1.253C-230.774,431.613-230.8,432.071-230.8,432.528Z" transform="translate(-38.378 -70.909)" fill="#030303"/>
    <path id="Trazado_122419" data-name="Trazado 122419" d="M-183.866,383.014c.457,0,.915-.027,1.37.006a1.293,1.293,0,0,1,1.208,1.244,1.284,1.284,0,0,1-1.2,1.333c-.937.045-1.878.044-2.816,0a1.247,1.247,0,0,1-1.192-1.321,1.26,1.26,0,0,1,1.257-1.26c.456-.025.913,0,1.37,0Z" transform="translate(-70.916 -38.385)" fill="#030303"/>
    <path id="Trazado_122420" data-name="Trazado 122420" d="M-209.783,556.955c-.28.009-.56.024-.84.024q-34.341,0-68.682,0c-1.1,0-.979.134-.984-.972-.007-1.63,0-1.63,1.629-1.63q14.646,0,29.293,0c1.106,0,1.637-.4,1.68-1.238a1.218,1.218,0,0,0-1.146-1.355,7.385,7.385,0,0,0-.764-.013q-14.914,0-29.828.016c-.706,0-.9-.187-.881-.886.047-1.734.013-1.735,1.775-1.735h67.61c.382,0,.764.016,1.146.025q-.006,1.273-.012,2.545l-7.481.034c-1.083,0-1.694.494-1.668,1.332.025.78.665,1.27,1.676,1.275q3.741.015,7.482.026Q-209.781,555.678-209.783,556.955Zm-23.511-5.185c-3.414,0-6.827-.006-10.241,0-1.139,0-1.779.844-1.378,1.8.293.7.908.805,1.585.8q10.05-.009,20.1,0c1.061,0,1.685-.51,1.674-1.348s-.569-1.255-1.652-1.256Q-228.25,551.767-233.294,551.77Z" transform="translate(-5.859 -153.611)" fill="#d6845b"/>
    <path id="Trazado_122421" data-name="Trazado 122421" d="M-235.945,493.261c-1.043.008-1.071-.039-.6-.979a5.643,5.643,0,0,1,5.57-2.977c.54.055.316.326.237.559a5.372,5.372,0,0,1-4.823,3.4C-235.691,493.265-235.818,493.261-235.945,493.261Z" transform="translate(-36.004 -112.082)" fill="#adce32"/>
    <path id="Trazado_122422" data-name="Trazado 122422" d="M-74.044,454.9c-1.194.007-1.2-.009-.647-1.066a5.625,5.625,0,0,1,5.479-2.884c.578.06.348.351.251.62A5.331,5.331,0,0,1-74.044,454.9Z" transform="translate(-148.199 -85.484)" fill="#adce32"/>
    <path id="Trazado_122423" data-name="Trazado 122423" d="M-230.611,527.844a5.18,5.18,0,0,1-5.031,3.866c-.366.01-.881.2-1.071-.118-.2-.344.146-.758.344-1.1A5.447,5.447,0,0,1-230.611,527.844Z" transform="translate(-36.048 -138.775)" fill="#adce32"/>
    <path id="Trazado_122424" data-name="Trazado 122424" d="M-186.286,527.861a5.439,5.439,0,0,1,5.921,2.931c.448.913.43.943-.567.939a5.348,5.348,0,0,1-5.238-3.438C-186.22,528.155-186.247,528.008-186.286,527.861Z" transform="translate(-71.06 -138.789)" fill="#adce32"/>
    <path id="Trazado_122425" data-name="Trazado 122425" d="M-103.67,527.794a5.128,5.128,0,0,1,4.37,2.985c.465.9.42.963-.57.953a5.277,5.277,0,0,1-4.958-2.845C-105.385,527.855-105.329,527.779-103.67,527.794Z" transform="translate(-127.327 -138.79)" fill="#adce32"/>
    <path id="Trazado_122426" data-name="Trazado 122426" d="M-149.722,527.783a5.377,5.377,0,0,1-5.875,3.943c-.523-.037-.318-.321-.223-.574a5.348,5.348,0,0,1,4.681-3.367C-150.685,527.767-150.229,527.783-149.722,527.783Z" transform="translate(-92.103 -138.779)" fill="#adce32"/>
    <path id="Trazado_122427" data-name="Trazado 122427" d="M-154.891,454.977c-1.26.01-1.292-.03-.65-1.152a5.584,5.584,0,0,1,5.45-2.79c.513.009.346.286.248.555A5.331,5.331,0,0,1-154.891,454.977Z" transform="translate(-92.094 -85.562)" fill="#adce32"/>
    <path id="Trazado_122428" data-name="Trazado 122428" d="M-69.835,527.779c1.188-.007,1.2.016.644,1.073a5.629,5.629,0,0,1-5.478,2.883c-.581-.053-.359-.337-.255-.608A5.364,5.364,0,0,1-69.835,527.779Z" transform="translate(-148.195 -138.781)" fill="#adce32"/>
    <path id="Trazado_122429" data-name="Trazado 122429" d="M-180.932,454.979a5.263,5.263,0,0,1-4.968-3.171c-.227-.538-.2-.78.48-.772a5.476,5.476,0,0,1,5.133,2.835C-179.675,454.964-179.7,454.987-180.932,454.979Z" transform="translate(-71.239 -85.562)" fill="#adce32"/>
    <path id="Trazado_122430" data-name="Trazado 122430" d="M-265.757,489.421a5.2,5.2,0,0,1,4.552,3.011c.466.9.434.926-.559.931a5.268,5.268,0,0,1-5.032-2.937C-267.316,489.445-267.278,489.409-265.757,489.421Z" transform="translate(-15.02 -112.181)" fill="#adce32"/>
    <path id="Trazado_122431" data-name="Trazado 122431" d="M-265.56,527.791a5.146,5.146,0,0,1,4.384,3.042c.441.872.413.9-.541.9a5.32,5.32,0,0,1-5.016-2.848C-267.327,527.8-267.3,527.775-265.56,527.791Z" transform="translate(-15.031 -138.788)" fill="#adce32"/>
    <path id="Trazado_122432" data-name="Trazado 122432" d="M-181,493.325a5.363,5.363,0,0,1-5-3.272c-.21-.521-.154-.685.46-.686a5.476,5.476,0,0,1,5.2,2.852C-179.738,493.3-179.773,493.335-181,493.325Z" transform="translate(-71.176 -112.144)" fill="#adce32"/>
    <path id="Trazado_122433" data-name="Trazado 122433" d="M-100.61,493.354a5.1,5.1,0,0,1-4.4-3.076c-.372-.755-.289-.864.532-.864a5.363,5.363,0,0,1,5.042,2.842C-98.851,493.3-98.893,493.366-100.61,493.354Z" transform="translate(-127.274 -112.177)" fill="#adce32"/>
    <path id="Trazado_122434" data-name="Trazado 122434" d="M-74.148,493.263c-1.059,0-1.068-.01-.6-.96a5.616,5.616,0,0,1,5.557-2.995c.606.068.315.386.22.627A5.367,5.367,0,0,1-74.148,493.263Z" transform="translate(-148.201 -112.081)" fill="#adce32"/>
    <path id="Trazado_122435" data-name="Trazado 122435" d="M-155.028,493.276c-1.065,0-1.079-.016-.615-.953a5.61,5.61,0,0,1,5.549-3c.622.057.311.393.23.617A5.363,5.363,0,0,1-155.028,493.276Z" transform="translate(-92.108 -112.093)" fill="#adce32"/>
    <path id="Trazado_122436" data-name="Trazado 122436" d="M-100.047,454.979a5.286,5.286,0,0,1-4.948-3.2c-.24-.591-.113-.753.512-.745a5.443,5.443,0,0,1,5.255,3.123c.386.782.353.819-.514.821Z" transform="translate(-127.353 -85.563)" fill="#adce32"/>
    <path id="Trazado_122437" data-name="Trazado 122437" d="M-73.979,416.666c-1.237.01-1.255-.02-.662-1.106a5.492,5.492,0,0,1,5.463-2.772c.533.06.317.322.232.566A5.278,5.278,0,0,1-73.979,416.666Z" transform="translate(-148.218 -59.015)" fill="#adce32"/>
    <path id="Trazado_122438" data-name="Trazado 122438" d="M-100.217,416.755a5.158,5.158,0,0,1-4.722-2.944c-.433-.833-.36-.92.556-.934a5.2,5.2,0,0,1,5.065,3.012c.427.833.394.866-.517.866Z" transform="translate(-127.293 -59.101)" fill="#adce32"/>
    <path id="Trazado_122439" data-name="Trazado 122439" d="M-50.257,551.738l.012-2.545c.686-.006,1.371,0,2.057-.024.375-.012.527.1.553.512.13,2.106.143,2.107-1.938,2.093C-49.8,551.772-50.029,551.75-50.257,551.738Z" transform="translate(-165.39 -153.614)" fill="#c16d43"/>
    <path id="Trazado_122440" data-name="Trazado 122440" d="M-50.241,568.741q0-1.277,0-2.554c.686-.007,1.372,0,2.057-.026.372-.012.57.088.551.508-.025.532-.025,1.068,0,1.6.021.425-.189.514-.555.5C-48.87,568.748-49.555,568.75-50.241,568.741Z" transform="translate(-165.401 -165.397)" fill="#c16d43"/>
    <path id="Trazado_122441" data-name="Trazado 122441" d="M-245.637,377.256a7.779,7.779,0,0,1-8.867-6.378,7.825,7.825,0,0,1,6.595-9.065,5.876,5.876,0,0,1,2.273.036,2.865,2.865,0,0,0,.366.382,9.162,9.162,0,0,1,2.179,12.321A16.6,16.6,0,0,1-245.637,377.256Z" transform="translate(-23.69 -23.626)" fill="#f8da49"/>
    <path id="Trazado_122442" data-name="Trazado 122442" d="M-225.372,377.548a16.6,16.6,0,0,0,2.545-2.7,9.162,9.162,0,0,0-2.179-12.321,2.868,2.868,0,0,1-.366-.382,7.767,7.767,0,0,1,6.55,6.256,7.861,7.861,0,0,1-6.324,9.155A1.156,1.156,0,0,1-225.372,377.548Z" transform="translate(-43.955 -23.919)" fill="#f1bf43"/>
    <path id="Trazado_122443" data-name="Trazado 122443" d="M-153.495,557.661q5.044,0,10.088,0c1.084,0,1.641.43,1.652,1.256s-.613,1.348-1.674,1.348q-10.05,0-20.1,0c-.678,0-1.292-.106-1.585-.8-.4-.957.238-1.8,1.378-1.8C-160.322,557.655-156.909,557.661-153.495,557.661Z" transform="translate(-85.658 -159.502)" fill="#010100"/>
  </g>
</svg>
