<svg xmlns="http://www.w3.org/2000/svg" width="212.257" height="286.973" viewBox="0 0 212.257 286.973">
  <g id="Grupo_1013393" data-name="Grupo 1013393" transform="translate(-1145 -1095.001)">
    <g id="_12219841_4884156" data-name="12219841_4884156" transform="translate(1141.075 1095)">
      <g id="Iteration" transform="translate(22.78 0.001)">
        <g id="Grupo_1013131" data-name="Grupo 1013131" transform="translate(44.237 53.184)">
          <g id="Grupo_1013130" data-name="Grupo 1013130">
            <g id="Grupo_1013129" data-name="Grupo 1013129">
              <g id="Grupo_1013128" data-name="Grupo 1013128">
                <g id="Grupo_1013121" data-name="Grupo 1013121" transform="translate(0.132 0.11)">
                  <path id="Trazado_697966" data-name="Trazado 697966" d="M177.987,129.167a45.711,45.711,0,0,1,10-6.926l.105-11.278,18.236-3.951,4.764,10.222a45.7,45.7,0,0,1,11.97,2.166l8.046-7.9L246.8,121.6l-3.857,10.591a45.673,45.673,0,0,1,6.926,10l11.277.105,3.952,18.235L254.873,165.3a45.733,45.733,0,0,1-2.165,11.969l7.9,8.047-10.1,15.688-10.592-3.857a45.677,45.677,0,0,1-10,6.926l-.106,11.278L211.57,219.3,206.8,209.081a45.721,45.721,0,0,1-11.969-2.166l-8.046,7.9-15.689-10.1,3.857-10.592a45.667,45.667,0,0,1-6.927-10l-11.277-.105L152.8,165.778l10.222-4.766a45.756,45.756,0,0,1,2.166-11.969l-7.9-8.046,10.1-15.689,10.593,3.859Zm10.185,20.615a24.709,24.709,0,1,0,34.151-7.4A24.709,24.709,0,0,0,188.173,149.782Z" transform="translate(-152.803 -107.012)" fill="#e0e0e0"/>
                </g>
                <g id="Grupo_1013127" data-name="Grupo 1013127">
                  <g id="Grupo_1013122" data-name="Grupo 1013122" transform="translate(0.132 0.11)">
                    <path id="Trazado_697967" data-name="Trazado 697967" d="M177.987,129.167a45.711,45.711,0,0,1,10-6.926l.105-11.278,18.236-3.951,4.764,10.222a45.7,45.7,0,0,1,11.97,2.166l8.046-7.9L246.8,121.6l-3.857,10.591a45.673,45.673,0,0,1,6.926,10l11.277.105,3.952,18.235L254.873,165.3a45.733,45.733,0,0,1-2.165,11.969l7.9,8.047-10.1,15.688-10.592-3.857a45.677,45.677,0,0,1-10,6.926l-.106,11.278L211.57,219.3,206.8,209.081a45.721,45.721,0,0,1-11.969-2.166l-8.046,7.9-15.689-10.1,3.857-10.592a45.667,45.667,0,0,1-6.927-10l-11.277-.105L152.8,165.778l10.222-4.766a45.756,45.756,0,0,1,2.166-11.969l-7.9-8.046,10.1-15.689,10.593,3.859Zm10.185,20.615a24.709,24.709,0,1,0,34.151-7.4A24.709,24.709,0,0,0,188.173,149.782Z" transform="translate(-152.803 -107.012)" fill="none"/>
                  </g>
                  <g id="Grupo_1013124" data-name="Grupo 1013124" transform="translate(31.496 31.436)">
                    <g id="Grupo_1013123" data-name="Grupo 1013123">
                      <path id="Trazado_697968" data-name="Trazado 697968" d="M206.805,168.392s.07-.116.22-.335l.673-.965.5-.71c.2-.252.435-.508.681-.8l.8-.922a13.282,13.282,0,0,1,.995-.973,23.436,23.436,0,0,1,5.854-4.1,24.637,24.637,0,0,1,9.1-2.546l1.335-.1c.451-.006.908.017,1.369.025.46.024.93-.005,1.4.062l1.42.173.72.092.716.159,1.452.324c.485.124.958.306,1.444.459a12.638,12.638,0,0,1,1.45.524,23.049,23.049,0,0,1,2.842,1.388c.461.273.944.521,1.4.821l1.339.959c.221.165.457.314.67.493l.629.554c.417.376.855.734,1.261,1.131a26.362,26.362,0,0,1,2.266,2.608,25.882,25.882,0,0,1,1.96,2.95c.288.523.533,1.074.8,1.615.126.275.279.538.384.824l.32.857a22.738,22.738,0,0,1,1.57,7.283l.067.953-.021.959-.025.964a6.219,6.219,0,0,1-.069.964q-.119.963-.238,1.932-.214.954-.428,1.915a24.625,24.625,0,0,1-8.5,13.2l-1.566,1.183-1.661,1.018-.415.25-.435.211-.867.422-.864.417-.9.334a22.765,22.765,0,0,1-7.281,1.587l-.913.063c-.3.023-.607-.008-.909-.009-.6-.023-1.207-.018-1.8-.063a25.864,25.864,0,0,1-3.5-.562A26.187,26.187,0,0,1,218.75,205c-.529-.206-1.038-.456-1.552-.68l-.765-.343c-.251-.119-.485-.272-.726-.406l-1.427-.822c-.461-.289-.886-.625-1.326-.932a23.113,23.113,0,0,1-2.44-2.013,12.664,12.664,0,0,1-1.077-1.1c-.34-.38-.7-.735-1.015-1.125l-.9-1.188-.442-.585-.381-.618-.745-1.221c-.254-.4-.423-.837-.635-1.247s-.408-.823-.589-1.236l-.465-1.255a24.649,24.649,0,0,1-1.45-9.34,23.414,23.414,0,0,1,1.309-7.025,13.419,13.419,0,0,1,.474-1.309l.506-1.113c.161-.343.294-.666.442-.949l.439-.748.6-1.013c.139-.228.216-.339.216-.339s-.058.124-.186.356l-.571,1.027-.424.754c-.143.284-.272.609-.427.952l-.49,1.114a13.582,13.582,0,0,0-.458,1.307A23.548,23.548,0,0,0,203,180.9a24.548,24.548,0,0,0,1.484,9.254l.465,1.241c.181.408.391.81.588,1.222s.38.839.633,1.232l.742,1.206.379.61.439.578.89,1.172c.311.385.67.735,1.007,1.11a12.57,12.57,0,0,0,1.068,1.088,22.825,22.825,0,0,0,2.418,1.984c.435.3.856.634,1.313.919l1.413.809c.24.132.47.282.719.4l.757.337c.509.22,1.011.467,1.535.669a25.96,25.96,0,0,0,3.274.965,25.573,25.573,0,0,0,3.455.55c.588.044,1.184.038,1.78.06.3,0,.6.031.9.008l.9-.064a22.461,22.461,0,0,0,7.188-1.574l.884-.329.853-.412.855-.417.429-.209.409-.248,1.639-1,1.544-1.169a24.33,24.33,0,0,0,8.385-13.026q.213-.949.424-1.889l.237-1.907a6.051,6.051,0,0,0,.068-.952l.025-.951.022-.947-.066-.941a22.468,22.468,0,0,0-1.543-7.193l-.315-.846c-.1-.282-.254-.543-.378-.814-.267-.534-.508-1.078-.791-1.6A25.584,25.584,0,0,0,247.1,166.9a25.955,25.955,0,0,0-2.233-2.581c-.4-.393-.834-.748-1.244-1.12l-.62-.55c-.21-.178-.442-.326-.661-.489l-1.322-.951c-.448-.3-.925-.544-1.38-.815a22.827,22.827,0,0,0-2.807-1.38,12.5,12.5,0,0,0-1.433-.522c-.48-.152-.948-.334-1.427-.458l-1.436-.325-.708-.161-.713-.093-1.4-.176c-.462-.068-.928-.041-1.384-.066-.457-.009-.909-.034-1.356-.03l-1.323.09a24.557,24.557,0,0,0-9.039,2.479,23.521,23.521,0,0,0-5.849,4.029,13.447,13.447,0,0,0-1,.958l-.812.908c-.248.284-.491.535-.69.783l-.511.7-.7.945C206.894,168.288,206.805,168.392,206.805,168.392Z" transform="translate(-202.799 -156.949)" fill="#263238"/>
                    </g>
                  </g>
                  <g id="Grupo_1013126" data-name="Grupo 1013126">
                    <g id="Grupo_1013125" data-name="Grupo 1013125">
                      <path id="Trazado_697969" data-name="Trazado 697969" d="M177.909,129.1s-.228-.075-.679-.235l-2.019-.722-7.912-2.852.061-.021-10.074,15.705-.011-.1,7.906,8.037.041.041-.018.055a45.845,45.845,0,0,0-2.149,11.944l0,.065-.059.028-10.218,4.774.065-.13,3.963,18.232-.124-.1,11.277.1h.082l.037.073a45.758,45.758,0,0,0,6.911,9.967l.058.063-.029.08L171.16,204.7l-.058-.173,15.692,10.1-.189.019,8.044-7.9.067-.066.09.029a45.815,45.815,0,0,0,11.929,2.156l.1,0,.041.087c1.493,3.2,3.122,6.694,4.767,10.222l-.179-.088,18.234-3.953-.128.157c.033-3.562.069-7.406.105-11.278v-.1l.088-.045a45.67,45.67,0,0,0,9.956-6.894l.009-.008.074-.066.092.033,10.592,3.857-.193.065,10.1-15.687.021.2-7.895-8.048-.068-.069.03-.092a45.567,45.567,0,0,0,2.16-11.927l0-.1.087-.04,10.223-4.763-.087.174-3.946-18.236.146.119-11.277-.109H249.7l-.04-.079a45.643,45.643,0,0,0-6.9-9.973l-.058-.063.03-.08,3.862-10.589.054.161-15.682-10.111.155-.016-8.051,7.891-.051.05-.068-.022a45.692,45.692,0,0,0-11.939-2.17l-.065,0-.028-.059-4.755-10.226.108.053-18.241,3.928.058-.071c-.05,4.517-.092,8.214-.126,11.278v.032l-.028.014a46.139,46.139,0,0,0-7.711,4.943c-.794.625-1.362,1.12-1.744,1.446s-.57.492-.57.492.7-.7,2.278-1.978a45.285,45.285,0,0,1,7.7-4.995l-.029.046c.023-3.064.051-6.761.085-11.278v-.058l.057-.013,18.231-3.973.075-.016.033.07,4.775,10.217-.092-.062a45.892,45.892,0,0,1,12,2.161l-.118.028,8.04-7.9.072-.07.084.054,15.694,10.092.092.059-.037.1-3.852,10.592-.028-.144a45.891,45.891,0,0,1,6.952,10.03l-.129-.08,11.277.1h.12l.026.117q1.93,8.892,3.957,18.234l.026.122-.113.053-10.22,4.768.091-.136a45.886,45.886,0,0,1-2.171,12.01l-.038-.161,7.9,8.046.09.092-.07.109-10.1,15.689-.07.11-.122-.045-10.592-3.857.166-.033-.009.008a45.979,45.979,0,0,1-10.028,6.943l.089-.144c-.036,3.872-.073,7.716-.107,11.278v.13l-.127.028L211.525,219.4l-.125.027-.054-.116-4.763-10.223.136.091A46.088,46.088,0,0,1,194.71,207l.156-.037-8.048,7.895-.087.085-.1-.066-15.685-10.106-.1-.063.04-.109,3.862-10.59.028.143a45.985,45.985,0,0,1-6.943-10.034l.119.073-11.277-.112h-.1l-.022-.1-3.939-18.238-.019-.091.084-.04,10.225-4.758-.061.092a46,46,0,0,1,2.181-11.993l.023.1-7.887-8.055-.046-.048.036-.056,10.126-15.672.023-.035.039.014,7.874,2.9,2.019.748C177.678,129.01,177.909,129.1,177.909,129.1Z" transform="translate(-152.592 -106.837)" fill="#263238"/>
                    </g>
                  </g>
                </g>
              </g>
            </g>
          </g>
        </g>
        <g id="Grupo_1013140" data-name="Grupo 1013140" transform="translate(6.642 85.275)">
          <g id="Grupo_1013138" data-name="Grupo 1013138">
            <g id="Grupo_1013137" data-name="Grupo 1013137">
              <path id="Trazado_697978" data-name="Trazado 697978" d="M92.715,185.169a91.982,91.982,0,0,0,91.571,84.563V246.521a68.724,68.724,0,0,1-68.647-68.647s1.034-11.977,1.756-15.586l-22.851-4.3h0C93.711,162.09,92.386,181,92.715,185.169Z" transform="translate(-92.663 -157.992)" fill="#e0e0e0"/>
            </g>
          </g>
        </g>
        <g id="Grupo_1013144" data-name="Grupo 1013144" transform="translate(0 14.68)">
          <g id="Grupo_1013141" data-name="Grupo 1013141" transform="translate(0 56.629)">
            <path id="Trazado_697985" data-name="Trazado 697985" d="M127.7,148.243,82.075,135.729l14.763,35.612Z" transform="translate(-82.075 -135.729)" fill="#455a64"/>
          </g>
          <g id="Grupo_1013142" data-name="Grupo 1013142" transform="translate(12.053)">
            <path id="Trazado_697986" data-name="Trazado 697986" d="M123.234,113.72A68.765,68.765,0,0,1,187.7,68.669V45.458a92.018,92.018,0,0,0-86.414,60.69Z" transform="translate(-101.288 -45.458)" fill="#455a64"/>
          </g>
        </g>
        <g id="Grupo_1013148" data-name="Grupo 1013148" transform="translate(81.316)">
          <g id="Grupo_1013145" data-name="Grupo 1013145">
            <path id="Trazado_697993" data-name="Trazado 697993" d="M241.925,76.969,211.7,43.9l38.57-21.848Z" transform="translate(-211.699 -22.057)" fill="#e0e0e0"/>
          </g>
          <g id="Grupo_1013146" data-name="Grupo 1013146" transform="translate(20.229 13.299)">
            <path id="Trazado_697994" data-name="Trazado 697994" d="M295.648,89.956a68.679,68.679,0,0,0-51.7-23.488V43.257a91.888,91.888,0,0,1,69.177,31.421Z" transform="translate(-243.945 -43.257)" fill="#e0e0e0"/>
          </g>
        </g>
        <g id="Grupo_1013153" data-name="Grupo 1013153" transform="translate(149.892 37.706)">
          <g id="Grupo_1013150" data-name="Grupo 1013150" transform="translate(8.174 15.828)">
            <g id="Grupo_1013149" data-name="Grupo 1013149">
              <path id="Trazado_697999" data-name="Trazado 697999" d="M358.979,201.337l-21.017-9.851c4.28-9.133,8.207-22.293,8.207-32.469a67.9,67.9,0,0,0-7.362-30.967c-.848-1.673-3.92-7.243-4.763-8.637l19.856-12.02c1.221,2.017,4.579,8.128,5.612,10.167a90.9,90.9,0,0,1,9.868,41.456C369.381,172.624,364.716,189.1,358.979,201.337Z" transform="translate(-334.045 -107.394)" fill="#ffa686"/>
            </g>
          </g>
          <g id="Grupo_1013151" data-name="Grupo 1013151">
            <path id="Trazado_698000" data-name="Trazado 698000" d="M321.015,120.595,360.541,94.59,324.047,82.163Z" transform="translate(-321.015 -82.163)" fill="#ffa686"/>
          </g>
        </g>
      </g>
      <g id="Character" transform="translate(67.014 61.175)">
        <g id="Grupo_1013330" data-name="Grupo 1013330" transform="translate(0 0)">
          <g id="Grupo_1013193" data-name="Grupo 1013193" transform="translate(37.013 206.063)">
            <g id="Grupo_1013170" data-name="Grupo 1013170" transform="translate(0 0)">
              <g id="Grupo_1013169" data-name="Grupo 1013169">
                <g id="Grupo_1013168" data-name="Grupo 1013168">
                  <g id="Grupo_1013167" data-name="Grupo 1013167">
                    <g id="Grupo_1013166" data-name="Grupo 1013166">
                      <path id="Trazado_698020" data-name="Trazado 698020" d="M223.613,448.854l-1.788,18.936-10.235-.76,1.752-18.975Z" transform="translate(-211.59 -448.054)" fill="#ff725e"/>
                    </g>
                  </g>
                </g>
              </g>
            </g>
            <g id="Grupo_1013176" data-name="Grupo 1013176" transform="translate(5.234 0.153)">
              <g id="Grupo_1013175" data-name="Grupo 1013175">
                <g id="Grupo_1013174" data-name="Grupo 1013174">
                  <g id="Grupo_1013173" data-name="Grupo 1013173">
                    <g id="Grupo_1013172" data-name="Grupo 1013172">
                      <g id="Grupo_1013171" data-name="Grupo 1013171">
                        <path id="Trazado_698021" data-name="Trazado 698021" d="M219.946,466.791c-.085-.009.289-4.157.836-9.262s1.059-9.239,1.144-9.23-.289,4.156-.836,9.263S220.031,466.8,219.946,466.791Z" transform="translate(-219.934 -448.298)" fill="#263238"/>
                      </g>
                    </g>
                  </g>
                </g>
              </g>
            </g>
            <g id="Grupo_1013181" data-name="Grupo 1013181" transform="translate(0 17.636)">
              <g id="Grupo_1013180" data-name="Grupo 1013180">
                <g id="Grupo_1013179" data-name="Grupo 1013179">
                  <g id="Grupo_1013178" data-name="Grupo 1013178">
                    <g id="Grupo_1013177" data-name="Grupo 1013177">
                      <path id="Trazado_698022" data-name="Trazado 698022" d="M221.948,476.961l-10.235-.794-.124,1.339,10.235.76Z" transform="translate(-211.59 -476.167)" fill="#263238"/>
                    </g>
                  </g>
                </g>
              </g>
            </g>
            <g id="Grupo_1013187" data-name="Grupo 1013187" transform="translate(0.559 10.35)">
              <g id="Grupo_1013186" data-name="Grupo 1013186">
                <g id="Grupo_1013185" data-name="Grupo 1013185">
                  <g id="Grupo_1013184" data-name="Grupo 1013184">
                    <g id="Grupo_1013183" data-name="Grupo 1013183">
                      <g id="Grupo_1013182" data-name="Grupo 1013182">
                        <path id="Trazado_698023" data-name="Trazado 698023" d="M212.482,467.114c-.014-.013.088-.156.3-.388a7.128,7.128,0,0,1,1.006-.884,6.965,6.965,0,0,1,1.758-.944,5.464,5.464,0,0,1,6.246,1.807,4.7,4.7,0,0,1,.638,1.184,1.347,1.347,0,0,1,.117.478,10.78,10.78,0,0,0-.928-1.528,5.465,5.465,0,0,0-3.672-1.948,6.279,6.279,0,0,0-4.034,1.132C212.992,466.635,212.521,467.153,212.482,467.114Z" transform="translate(-212.481 -464.553)" fill="#263238"/>
                      </g>
                    </g>
                  </g>
                </g>
              </g>
            </g>
            <g id="Grupo_1013192" data-name="Grupo 1013192" transform="translate(1.061 5.401)" opacity="0.3">
              <g id="Grupo_1013191" data-name="Grupo 1013191">
                <g id="Grupo_1013190" data-name="Grupo 1013190">
                  <g id="Grupo_1013189" data-name="Grupo 1013189">
                    <g id="Grupo_1013188" data-name="Grupo 1013188">
                      <path id="Trazado_698024" data-name="Trazado 698024" d="M213.474,456.663l-.193,2.086,10.263.716.149-1.571Z" transform="translate(-213.281 -456.663)"/>
                    </g>
                  </g>
                </g>
              </g>
            </g>
          </g>
          <g id="Grupo_1013221" data-name="Grupo 1013221" transform="translate(79.92 205.539)">
            <g id="Grupo_1013198" data-name="Grupo 1013198" transform="translate(0 0)">
              <g id="Grupo_1013197" data-name="Grupo 1013197">
                <g id="Grupo_1013196" data-name="Grupo 1013196">
                  <g id="Grupo_1013195" data-name="Grupo 1013195">
                    <g id="Grupo_1013194" data-name="Grupo 1013194">
                      <path id="Trazado_698025" data-name="Trazado 698025" d="M290.255,447.218l1.231,18.98-10.227.868-1.272-19.014Z" transform="translate(-279.987 -447.218)" fill="#ff725e"/>
                    </g>
                  </g>
                </g>
              </g>
            </g>
            <g id="Grupo_1013204" data-name="Grupo 1013204" transform="translate(5.406 0.12)">
              <g id="Grupo_1013203" data-name="Grupo 1013203">
                <g id="Grupo_1013202" data-name="Grupo 1013202">
                  <g id="Grupo_1013201" data-name="Grupo 1013201">
                    <g id="Grupo_1013200" data-name="Grupo 1013200">
                      <g id="Grupo_1013199" data-name="Grupo 1013199">
                        <path id="Trazado_698026" data-name="Trazado 698026" d="M289.6,465.982c-.086,0-.373-4.15-.641-9.278s-.416-9.291-.33-9.295.372,4.149.641,9.279S289.684,465.978,289.6,465.982Z" transform="translate(-288.604 -447.409)" fill="#263238"/>
                      </g>
                    </g>
                  </g>
                </g>
              </g>
            </g>
            <g id="Grupo_1013209" data-name="Grupo 1013209" transform="translate(1.183 17.671)">
              <g id="Grupo_1013208" data-name="Grupo 1013208">
                <g id="Grupo_1013207" data-name="Grupo 1013207">
                  <g id="Grupo_1013206" data-name="Grupo 1013206">
                    <g id="Grupo_1013205" data-name="Grupo 1013205">
                      <path id="Trazado_698027" data-name="Trazado 698027" d="M292.1,475.387l-10.231.835.09,1.342,10.227-.868Z" transform="translate(-281.872 -475.387)" fill="#263238"/>
                    </g>
                  </g>
                </g>
              </g>
            </g>
            <g id="Grupo_1013215" data-name="Grupo 1013215" transform="translate(0.864 10.391)">
              <g id="Grupo_1013214" data-name="Grupo 1013214">
                <g id="Grupo_1013213" data-name="Grupo 1013213">
                  <g id="Grupo_1013212" data-name="Grupo 1013212">
                    <g id="Grupo_1013211" data-name="Grupo 1013211">
                      <g id="Grupo_1013210" data-name="Grupo 1013210">
                        <path id="Trazado_698028" data-name="Trazado 698028" d="M281.366,467.163a1.372,1.372,0,0,1,.237-.431,7.183,7.183,0,0,1,.854-1.032,6.993,6.993,0,0,1,1.586-1.211,5.463,5.463,0,0,1,6.453.8,4.714,4.714,0,0,1,.817,1.068,1.325,1.325,0,0,1,.191.454,10.727,10.727,0,0,0-1.159-1.362,5.467,5.467,0,0,0-3.935-1.343,6.28,6.28,0,0,0-3.8,1.756C281.794,466.609,281.411,467.2,281.366,467.163Z" transform="translate(-281.364 -463.782)" fill="#263238"/>
                      </g>
                    </g>
                  </g>
                </g>
              </g>
            </g>
            <g id="Grupo_1013220" data-name="Grupo 1013220" transform="translate(0.362 5.845)" opacity="0.3">
              <g id="Grupo_1013219" data-name="Grupo 1013219">
                <g id="Grupo_1013218" data-name="Grupo 1013218">
                  <g id="Grupo_1013217" data-name="Grupo 1013217">
                    <g id="Grupo_1013216" data-name="Grupo 1013216">
                      <path id="Trazado_698029" data-name="Trazado 698029" d="M280.564,456.937l.141,2.091,10.247-.916-.1-1.575Z" transform="translate(-280.564 -456.536)"/>
                    </g>
                  </g>
                </g>
              </g>
            </g>
          </g>
          <g id="Grupo_1013293" data-name="Grupo 1013293" transform="translate(39.679)">
            <g id="Grupo_1013231" data-name="Grupo 1013231" transform="translate(2.308 5.86)">
              <g id="Grupo_1013230" data-name="Grupo 1013230">
                <g id="Grupo_1013229" data-name="Grupo 1013229">
                  <g id="Grupo_1013228" data-name="Grupo 1013228">
                    <g id="Grupo_1013227" data-name="Grupo 1013227">
                      <g id="Grupo_1013226" data-name="Grupo 1013226">
                        <g id="Grupo_1013225" data-name="Grupo 1013225">
                          <g id="Grupo_1013224" data-name="Grupo 1013224">
                            <g id="Grupo_1013223" data-name="Grupo 1013223">
                              <g id="Grupo_1013222" data-name="Grupo 1013222">
                                <path id="Trazado_698030" data-name="Trazado 698030" d="M238.756,160.818l-14.094,2.1L224,150.862s-1.018-.044-1.919-5.189-2.564-13.865-2.564-13.865h0a19.352,19.352,0,0,1,19.015-.756l.886.46Z" transform="translate(-219.519 -128.916)" fill="#ffbe9d"/>
                              </g>
                            </g>
                          </g>
                        </g>
                      </g>
                    </g>
                  </g>
                </g>
              </g>
            </g>
            <g id="Grupo_1013239" data-name="Grupo 1013239" transform="translate(21.562 14.668)">
              <g id="Grupo_1013238" data-name="Grupo 1013238">
                <g id="Grupo_1013237" data-name="Grupo 1013237">
                  <g id="Grupo_1013236" data-name="Grupo 1013236">
                    <g id="Grupo_1013235" data-name="Grupo 1013235">
                      <g id="Grupo_1013234" data-name="Grupo 1013234">
                        <g id="Grupo_1013233" data-name="Grupo 1013233">
                          <g id="Grupo_1013232" data-name="Grupo 1013232">
                            <path id="Trazado_698031" data-name="Trazado 698031" d="M250.212,143.356c.085-.053,3.5-1.642,3.953,1.9s-3.323,3.293-3.342,3.192S250.212,143.356,250.212,143.356Z" transform="translate(-250.212 -142.956)" fill="#ffbe9d"/>
                          </g>
                        </g>
                      </g>
                    </g>
                  </g>
                </g>
              </g>
            </g>
            <g id="Grupo_1013247" data-name="Grupo 1013247" transform="translate(1.403 17.091)">
              <g id="Grupo_1013246" data-name="Grupo 1013246">
                <g id="Grupo_1013245" data-name="Grupo 1013245">
                  <g id="Grupo_1013244" data-name="Grupo 1013244">
                    <g id="Grupo_1013243" data-name="Grupo 1013243">
                      <g id="Grupo_1013242" data-name="Grupo 1013242">
                        <g id="Grupo_1013241" data-name="Grupo 1013241">
                          <g id="Grupo_1013240" data-name="Grupo 1013240">
                            <path id="Trazado_698032" data-name="Trazado 698032" d="M220.97,146.836a2.427,2.427,0,0,0-2.8,3.162c.688,3.506,4.192,2.076,4.179,1.974S220.97,146.836,220.97,146.836Z" transform="translate(-218.077 -146.818)" fill="#ffbe9d"/>
                          </g>
                        </g>
                      </g>
                    </g>
                  </g>
                </g>
              </g>
            </g>
            <g id="Grupo_1013251" data-name="Grupo 1013251" transform="translate(1.603 5.02)">
              <g id="Grupo_1013250" data-name="Grupo 1013250">
                <g id="Grupo_1013249" data-name="Grupo 1013249">
                  <g id="Grupo_1013248" data-name="Grupo 1013248">
                    <path id="Trazado_698033" data-name="Trazado 698033" d="M239.474,137.039c-.067,3.042.292,4.576.106,6.631a10.558,10.558,0,0,1-4.172,7.936c-2.66,2.031-6.605,2.64-9.451.923a8.3,8.3,0,0,1-4.091-4.833c-.617-2.176-1.511-6.061-1.888-8.29-.681-4.019-1.583-7.821-1.583-7.821l11.572-4.009,7.406,2.793Z" transform="translate(-218.395 -127.576)" fill="#263238"/>
                  </g>
                </g>
              </g>
            </g>
            <g id="Grupo_1013256" data-name="Grupo 1013256" transform="translate(12.881 30.698)">
              <g id="Grupo_1013255" data-name="Grupo 1013255">
                <g id="Grupo_1013254" data-name="Grupo 1013254">
                  <g id="Grupo_1013253" data-name="Grupo 1013253">
                    <g id="Grupo_1013252" data-name="Grupo 1013252">
                      <path id="Trazado_698034" data-name="Trazado 698034" d="M236.374,169.616a4.037,4.037,0,0,0,2.115-.16,3.992,3.992,0,0,0,1.9-.936c-.049-.083-.886.326-1.985.622S236.373,169.521,236.374,169.616Z" transform="translate(-236.374 -168.51)" fill="#263238"/>
                    </g>
                  </g>
                </g>
              </g>
            </g>
            <g id="Grupo_1013292" data-name="Grupo 1013292">
              <g id="Grupo_1013259" data-name="Grupo 1013259">
                <g id="Grupo_1013258" data-name="Grupo 1013258">
                  <g id="Grupo_1013257" data-name="Grupo 1013257">
                    <path id="Trazado_698035" data-name="Trazado 698035" d="M238.76,139.172c-.141-3.083-.476-6.582-.5-9.852a19.981,19.981,0,0,0-.154-4.213,9.834,9.834,0,0,0-1.357-3.418,5.288,5.288,0,0,0-4.056-2.112,5.446,5.446,0,0,0-4.233,1.853,4.088,4.088,0,0,0-4.34-.9,3.936,3.936,0,0,0-2.453,3.618,2.878,2.878,0,0,0-3.3.188,2.66,2.66,0,0,0-.71,3.127,2.7,2.7,0,0,0-1.731,1.8,2.534,2.534,0,0,0,.59,2.368c.684.731,1.753,1.021,2.487,1.705a2.9,2.9,0,0,1,.7,3.152" transform="translate(-215.84 -119.574)" fill="#263238"/>
                  </g>
                </g>
              </g>
              <g id="Grupo_1013263" data-name="Grupo 1013263" transform="translate(4.611 7.655)">
                <g id="Grupo_1013262" data-name="Grupo 1013262">
                  <g id="Grupo_1013261" data-name="Grupo 1013261">
                    <g id="Grupo_1013260" data-name="Grupo 1013260">
                      <path id="Trazado_698036" data-name="Trazado 698036" d="M223.192,135.46c-.011.006.038.123.186.309a2.4,2.4,0,0,0,.814.639,2.584,2.584,0,0,0,1.625.223,2.731,2.731,0,0,0,1.769-1.173l-.262-.025a2.454,2.454,0,0,0,1.878,1.506,2.966,2.966,0,0,0,2.632-.761,3.961,3.961,0,0,0,1.2-2.156l-.284.078a3.428,3.428,0,0,0,2.928.991,3.2,3.2,0,0,0,2.124-1.262,3.065,3.065,0,0,0,.6-1.481,1.293,1.293,0,0,0-.021-.57c-.026,0-.019.2-.09.555a3.219,3.219,0,0,1-.658,1.376,3.021,3.021,0,0,1-1.992,1.111,3.162,3.162,0,0,1-2.648-.932l-.219-.235-.065.314a3.689,3.689,0,0,1-1.109,1.975,2.642,2.642,0,0,1-2.332.689,2.178,2.178,0,0,1-1.672-1.292l-.1-.284-.161.258a2.5,2.5,0,0,1-1.567,1.092,2.463,2.463,0,0,1-1.5-.146A3.355,3.355,0,0,1,223.192,135.46Z" transform="translate(-223.191 -131.777)" fill="#455a64"/>
                    </g>
                  </g>
                </g>
              </g>
              <g id="Grupo_1013267" data-name="Grupo 1013267" transform="translate(4.306 3.784)">
                <g id="Grupo_1013266" data-name="Grupo 1013266">
                  <g id="Grupo_1013265" data-name="Grupo 1013265">
                    <g id="Grupo_1013264" data-name="Grupo 1013264">
                      <path id="Trazado_698037" data-name="Trazado 698037" d="M222.805,131.759a3.164,3.164,0,0,1,.3-1.366,2.2,2.2,0,0,1,1.12-1.016,2.361,2.361,0,0,1,1.87.041l.322.154-.086-.34a2.6,2.6,0,0,1-.042-1.033,2.831,2.831,0,0,1,1.2-1.883,2.927,2.927,0,0,1,1.831-.458,3.979,3.979,0,0,1,1.684.592c.013-.012-.095-.156-.36-.344a2.959,2.959,0,0,0-1.3-.477,3,3,0,0,0-3.389,2.524,2.843,2.843,0,0,0,.054,1.163l.236-.186a2.626,2.626,0,0,0-2.135-.011,2.356,2.356,0,0,0-1.2,1.185,2.189,2.189,0,0,0-.2,1.073C222.732,131.633,222.789,131.763,222.805,131.759Z" transform="translate(-222.704 -125.606)" fill="#455a64"/>
                    </g>
                  </g>
                </g>
              </g>
              <g id="Grupo_1013271" data-name="Grupo 1013271" transform="translate(11.656 5.889)">
                <g id="Grupo_1013270" data-name="Grupo 1013270">
                  <g id="Grupo_1013269" data-name="Grupo 1013269">
                    <g id="Grupo_1013268" data-name="Grupo 1013268">
                      <path id="Trazado_698038" data-name="Trazado 698038" d="M234.782,131.883c.043-.027-.042-.2-.068-.486a2.278,2.278,0,0,1,.2-1.1,11.44,11.44,0,0,1,.536-1.046c.154-.211.346-.112.369-.134s.006-.082-.1-.129a.429.429,0,0,0-.442.108,2.683,2.683,0,0,0-.346.469,4.18,4.18,0,0,0-.328.612,1.906,1.906,0,0,0-.126,1.268C234.577,131.768,234.75,131.908,234.782,131.883Z" transform="translate(-234.42 -128.962)" fill="#455a64"/>
                    </g>
                  </g>
                </g>
              </g>
              <g id="Grupo_1013275" data-name="Grupo 1013275" transform="translate(14.83 2.051)">
                <g id="Grupo_1013274" data-name="Grupo 1013274">
                  <g id="Grupo_1013273" data-name="Grupo 1013273">
                    <g id="Grupo_1013272" data-name="Grupo 1013272">
                      <path id="Trazado_698039" data-name="Trazado 698039" d="M243.015,124.027c.036-.019-.043-.275-.326-.607a1.764,1.764,0,0,0-.632-.464,1.476,1.476,0,0,0-1-.048,2.358,2.358,0,0,0-1.3,1.109c-.214.369-.3.612-.262.634s.2-.184.459-.506a2.555,2.555,0,0,1,1.2-.924,1.43,1.43,0,0,1,1.367.363C242.816,123.845,242.971,124.054,243.015,124.027Z" transform="translate(-239.481 -122.843)" fill="#455a64"/>
                    </g>
                  </g>
                </g>
              </g>
              <g id="Grupo_1013279" data-name="Grupo 1013279" transform="translate(18.917 13.44)">
                <g id="Grupo_1013278" data-name="Grupo 1013278">
                  <g id="Grupo_1013277" data-name="Grupo 1013277">
                    <g id="Grupo_1013276" data-name="Grupo 1013276">
                      <path id="Trazado_698040" data-name="Trazado 698040" d="M246.008,146.042a5.756,5.756,0,0,0,.894-2.452,5.609,5.609,0,0,0,.033-2.591c-.1,0-.106,1.153-.365,2.538S245.916,146.006,246.008,146.042Z" transform="translate(-245.995 -140.998)" fill="#455a64"/>
                    </g>
                  </g>
                </g>
              </g>
              <g id="Grupo_1013283" data-name="Grupo 1013283" transform="translate(17.445 16.007)">
                <g id="Grupo_1013282" data-name="Grupo 1013282">
                  <g id="Grupo_1013281" data-name="Grupo 1013281">
                    <g id="Grupo_1013280" data-name="Grupo 1013280">
                      <path id="Trazado_698041" data-name="Trazado 698041" d="M243.673,148.671a4.291,4.291,0,0,0,.624-1.745,4.2,4.2,0,0,0,.148-1.836,6.578,6.578,0,0,0-.479,1.773A6.492,6.492,0,0,0,243.673,148.671Z" transform="translate(-243.649 -145.09)" fill="#455a64"/>
                    </g>
                  </g>
                </g>
              </g>
              <g id="Grupo_1013287" data-name="Grupo 1013287" transform="translate(7.45 21.452)">
                <g id="Grupo_1013286" data-name="Grupo 1013286">
                  <g id="Grupo_1013285" data-name="Grupo 1013285">
                    <g id="Grupo_1013284" data-name="Grupo 1013284">
                      <path id="Trazado_698042" data-name="Trazado 698042" d="M227.742,153.77a5.452,5.452,0,0,0,.913,3.031,5.66,5.66,0,0,0,2.233,2.292,19.577,19.577,0,0,1-1.94-2.457A19.2,19.2,0,0,1,227.742,153.77Z" transform="translate(-227.716 -153.77)" fill="#455a64"/>
                    </g>
                  </g>
                </g>
              </g>
              <g id="Grupo_1013291" data-name="Grupo 1013291" transform="translate(5.329 19.139)">
                <g id="Grupo_1013290" data-name="Grupo 1013290">
                  <g id="Grupo_1013289" data-name="Grupo 1013289">
                    <g id="Grupo_1013288" data-name="Grupo 1013288">
                      <path id="Trazado_698043" data-name="Trazado 698043" d="M224.466,150.084a4.4,4.4,0,0,0,.219,2.828,4.5,4.5,0,0,0,1.647,2.332A15.4,15.4,0,0,1,225,152.8,15.3,15.3,0,0,1,224.466,150.084Z" transform="translate(-224.335 -150.083)" fill="#455a64"/>
                    </g>
                  </g>
                </g>
              </g>
            </g>
          </g>
          <g id="Grupo_1013294" data-name="Grupo 1013294" transform="translate(46.515 31.288)">
            <path id="Trazado_698044" data-name="Trazado 698044" d="M226.737,175.585l.124-3.024,14.731-3.112.521,2.49Z" transform="translate(-226.737 -169.449)" fill="#fff"/>
          </g>
          <g id="Grupo_1013319" data-name="Grupo 1013319" transform="translate(0 10.949)">
            <g id="Grupo_1013295" data-name="Grupo 1013295" transform="translate(0 55.61)">
              <path id="Trazado_698045" data-name="Trazado 698045" d="M152.988,233.12s-.728.374-.22.906,7.207,6.482,8.113,7.066a19.157,19.157,0,0,0,3.616,1.287l1.77-.329,1.036-4.267,1.25-2.053-.319-.472,1.177-4.562s-1.021-.414-1.489.321c-.659,1.037-1.569,2.713-1.569,2.713s-1.842.28-2.513-.519-4.576-7.39-5.048-7.5-1.19.029-.808,1.078,2.88,4.785,2.785,4.99-.474.486-.657.3-4.168-5.443-4.8-5.533c-.673-.1-1.155.447-.537,1.462s3.861,4.714,3.712,4.951-.58-.05-.58-.05-3.708-3.871-4.228-3.8c-.578.077-.668.658-.375,1.139s4.05,4.113,4.116,4.4c.043.189-.116.937-.418.681S153.283,232.874,152.988,233.12Z" transform="translate(-152.588 -225.674)" fill="#ffbe9d"/>
            </g>
            <g id="Grupo_1013296" data-name="Grupo 1013296" transform="translate(35.775 91.884)">
              <path id="Trazado_698046" data-name="Trazado 698046" d="M212.115,293.2l-.78,50.61-1.719,52.538,14.261,1.031,4.812-53.568,5.476-38.009,1.206-.074L246.143,345.3l6.714,50.783c.834-.208,13.462-1.206,13.462-1.206l-8.76-102.826L256.1,283.5l-37.543.834Z" transform="translate(-209.616 -283.498)" fill="#263238"/>
            </g>
            <g id="Grupo_1013297" data-name="Grupo 1013297" transform="translate(31.505 21.777)">
              <path id="Trazado_698047" data-name="Trazado 698047" d="M251.786,224.293,250.7,195.021l-1.806-20.214H236.585l-3.143-3.064-15.788,3.064-1.462,4.409s-12.679,4.037-13.383,5.268c0,0,4.447,17.552,6.542,27.388,1.437,6.749,2.95,13.666,2.95,13.666l-4,32.381c-.159,0,24.39-1.08,24.39-1.08l23.717-2.565Z" transform="translate(-202.81 -171.742)" fill="#455a64"/>
            </g>
            <g id="Grupo_1013298" data-name="Grupo 1013298" transform="translate(82.344)">
              <path id="Trazado_698048" data-name="Trazado 698048" d="M294.808,152.666s-3.613.283-3.827.283-3.933.342-3.933.342a1.907,1.907,0,0,1,1.026-1.283,12.862,12.862,0,0,0,2.657-1.28c.171-.3.55-.73.208-1.2s-6.573-6.8-6.787-7.137-.556-.984,0-1.112,1.24.47,1.71.855,2.9,2.435,3.153,2.306.043-.342.043-.342-4.121-4.241-4.164-4.369-.528-1.378.646-1.173c.562.1,4.844,4.473,5.015,4.3s-3.591-5-3.25-5.387.727-.77,1.411,0,3.63,4.7,3.846,4.746a.358.358,0,0,0,.386-.47c-.085-.3-1.836-3.347-1.836-3.69s.344-.427.686-.469,4.014,5.271,4.014,5.271,2.834,4.561,3.121,5.088a17.277,17.277,0,0,1,.812,2.309Z" transform="translate(-283.851 -137.028)" fill="#ffbe9d"/>
            </g>
            <g id="Grupo_1013299" data-name="Grupo 1013299" transform="translate(77.1 12.707)">
              <path id="Trazado_698049" data-name="Trazado 698049" d="M290.791,160.45l2.462,9.5-5.627,2.11-12.134-2.638v17.936l1.716,4.664s25.392-12.254,27.078-13.6c3.153-2.522-1.852-11.206-1.852-11.206l-4.61-9.926Z" transform="translate(-275.492 -157.284)" fill="#455a64"/>
            </g>
            <g id="Grupo_1013300" data-name="Grupo 1013300" transform="translate(11.962 34.519)">
              <path id="Trazado_698050" data-name="Trazado 698050" d="M191.2,192.054l-2.84,5.686L181.184,221.5l-8.02,2.139-1.507,7.33s12.541,2.94,14.867,1.93c3.95-1.715,10.542-18.072,10.542-18.072l-.892-13.984Z" transform="translate(-171.657 -192.054)" fill="#455a64"/>
            </g>
            <g id="Grupo_1013302" data-name="Grupo 1013302" transform="translate(94.79 25.16)">
              <g id="Grupo_1013301" data-name="Grupo 1013301">
                <path id="Trazado_698051" data-name="Trazado 698051" d="M311.727,181.226a16.884,16.884,0,0,0-8.036-4.071,4.075,4.075,0,0,1,1.349.126,12.131,12.131,0,0,1,5.787,2.932A4.08,4.08,0,0,1,311.727,181.226Z" transform="translate(-303.691 -177.135)" fill="#263238"/>
              </g>
            </g>
            <g id="Grupo_1013304" data-name="Grupo 1013304" transform="translate(94.362 24.739)">
              <g id="Grupo_1013303" data-name="Grupo 1013303">
                <path id="Trazado_698052" data-name="Trazado 698052" d="M309.079,177.041a10.966,10.966,0,0,0-6.069.385,6.486,6.486,0,0,1,6.069-.385Z" transform="translate(-303.009 -176.463)" fill="#263238"/>
              </g>
            </g>
            <g id="Grupo_1013306" data-name="Grupo 1013306" transform="translate(44.844 24.84)">
              <g id="Grupo_1013305" data-name="Grupo 1013305">
                <path id="Trazado_698053" data-name="Trazado 698053" d="M244.509,176.627a4.117,4.117,0,0,1-.689.479c-.225.15-.509.319-.849.5s-.718.4-1.157.6a29.178,29.178,0,0,1-3.137,1.3,39.238,39.238,0,0,1-4,1.13,42.612,42.612,0,0,1-7.481.957c-.965.036-1.746.039-2.285.018a4.123,4.123,0,0,1-.837-.061,4.166,4.166,0,0,1,.836-.066c.538-.018,1.315-.055,2.273-.121a50.673,50.673,0,0,0,7.422-1.045c1.428-.322,2.77-.7,3.975-1.1,1.2-.417,2.267-.819,3.136-1.226.442-.187.828-.385,1.17-.554s.636-.316.87-.448A4.128,4.128,0,0,1,244.509,176.627Z" transform="translate(-224.073 -176.625)" fill="#263238"/>
              </g>
            </g>
            <g id="Grupo_1013308" data-name="Grupo 1013308" transform="translate(45.648 73.825)">
              <g id="Grupo_1013307" data-name="Grupo 1013307">
                <path id="Trazado_698054" data-name="Trazado 698054" d="M248.708,256.486a5.16,5.16,0,0,1-.905.231c-.587.133-1.445.282-2.511.425a41,41,0,0,1-16.66-1.265c-1.032-.3-1.858-.578-2.418-.8a5.145,5.145,0,0,1-.86-.364,5.127,5.127,0,0,1,.9.244c.57.183,1.4.424,2.438.7a45.824,45.824,0,0,0,16.571,1.258c1.064-.113,1.924-.226,2.516-.321A5.2,5.2,0,0,1,248.708,256.486Z" transform="translate(-225.355 -254.711)" fill="#263238"/>
              </g>
            </g>
            <g id="Grupo_1013310" data-name="Grupo 1013310" transform="translate(21.037 51.578)">
              <g id="Grupo_1013309" data-name="Grupo 1013309">
                <path id="Trazado_698055" data-name="Trazado 698055" d="M186.128,233.808c-.087-.025.794-3.305,1.967-7.326s2.194-7.26,2.28-7.235-.794,3.3-1.967,7.327S186.215,233.833,186.128,233.808Z" transform="translate(-186.123 -219.247)" fill="#263238"/>
              </g>
            </g>
            <g id="Grupo_1013312" data-name="Grupo 1013312" transform="translate(59.484 85.088)">
              <g id="Grupo_1013311" data-name="Grupo 1013311">
                <path id="Trazado_698056" data-name="Trazado 698056" d="M247.467,272.664c.09,0,.255,3.649.367,8.153s.13,8.16.04,8.161-.255-3.647-.367-8.153S247.377,272.666,247.467,272.664Z" transform="translate(-247.41 -272.664)" fill="#263238"/>
              </g>
            </g>
            <g id="Grupo_1013314" data-name="Grupo 1013314" transform="translate(54.229 112.828)">
              <g id="Grupo_1013313" data-name="Grupo 1013313">
                <path id="Trazado_698057" data-name="Trazado 698057" d="M253.34,316.894c.016.089-3.174.748-7.123,1.472s-7.167,1.239-7.183,1.15,3.173-.747,7.125-1.472S253.324,316.806,253.34,316.894Z" transform="translate(-239.034 -316.884)" fill="#455a64"/>
              </g>
            </g>
            <g id="Grupo_1013316" data-name="Grupo 1013316" transform="translate(75.02 151.098)">
              <g id="Grupo_1013315" data-name="Grupo 1013315">
                <path id="Trazado_698058" data-name="Trazado 698058" d="M280.168,378.025a18.726,18.726,0,0,0-7.99,1.951,3.578,3.578,0,0,1,1.026-.684,12.208,12.208,0,0,1,5.74-1.4A3.6,3.6,0,0,1,280.168,378.025Z" transform="translate(-272.177 -377.889)" fill="#455a64"/>
              </g>
            </g>
            <g id="Grupo_1013318" data-name="Grupo 1013318" transform="translate(43.44 153.284)">
              <g id="Grupo_1013317" data-name="Grupo 1013317">
                <path id="Trazado_698059" data-name="Trazado 698059" d="M227.066,381.784c-.021.1-1.183-.144-2.623-.075s-2.578.4-2.607.3a6.909,6.909,0,0,1,5.231-.228Z" transform="translate(-221.835 -381.375)" fill="#455a64"/>
              </g>
            </g>
          </g>
          <g id="Grupo_1013321" data-name="Grupo 1013321" transform="translate(33.742 54.338)">
            <g id="Grupo_1013320" data-name="Grupo 1013320">
              <path id="Trazado_698060" data-name="Trazado 698060" d="M213.631,238.377a1.273,1.273,0,0,1-.1-.321l-.233-.933-.8-3.443c-.663-2.955-1.562-6.957-2.554-11.38L207.4,210.916c-.318-1.421-.578-2.588-.771-3.45l-.2-.94a1.34,1.34,0,0,1-.048-.333,1.352,1.352,0,0,1,.112.317l.26.926c.22.806.517,1.977.873,3.427.711,2.9,1.644,6.918,2.635,11.366s1.854,8.479,2.462,11.4c.289,1.428.525,2.6.7,3.466l.173.946A1.328,1.328,0,0,1,213.631,238.377Z" transform="translate(-206.375 -206.193)" fill="#263238"/>
            </g>
          </g>
          <g id="Grupo_1013323" data-name="Grupo 1013323" transform="translate(78.787 45.933)">
            <g id="Grupo_1013322" data-name="Grupo 1013322">
              <path id="Trazado_698061" data-name="Trazado 698061" d="M278.181,192.794a.743.743,0,0,1,.028.179c.013.137.029.311.05.526.04.463.095,1.146.151,2.026.12,1.76.259,4.31.418,7.46.314,6.3.683,15.007,1.044,24.625.057,1.549.113,3.076.166,4.524l0-.019c1.282,8.461,2.416,15.95,3.234,21.35.391,2.674.706,4.829.927,6.342q.15,1.091.235,1.713c.022.181.04.327.053.445a.616.616,0,0,1,.008.153.58.58,0,0,1-.038-.148l-.083-.44-.291-1.7c-.245-1.509-.593-3.66-1.024-6.327l-3.341-21.334v-.019c-.054-1.448-.111-2.974-.169-4.524C278.8,208.634,278.251,194.573,278.181,192.794Z" transform="translate(-278.181 -192.794)" fill="#263238"/>
            </g>
          </g>
          <g id="Grupo_1013325" data-name="Grupo 1013325" transform="translate(45.486 36.899)" opacity="0.3">
            <g id="Grupo_1013324" data-name="Grupo 1013324">
              <path id="Trazado_698062" data-name="Trazado 698062" d="M243.26,178.394a47.868,47.868,0,0,1-18.163,3.872,5.145,5.145,0,0,0,3.321,1.462,13.321,13.321,0,0,0,3.725-.318,56.279,56.279,0,0,0,9.062-2.546C242.215,180.486,243.4,179.4,243.26,178.394Z" transform="translate(-225.097 -178.394)"/>
            </g>
          </g>
          <g id="Grupo_1013327" data-name="Grupo 1013327" transform="translate(34.097 55.359)" opacity="0.3">
            <g id="Grupo_1013326" data-name="Grupo 1013326">
              <path id="Trazado_698063" data-name="Trazado 698063" d="M206.942,207.821c.1,2.285-.156,5.032.323,7.268a13.615,13.615,0,0,0,2.856,6.145C209.015,216.928,208.08,212.211,206.942,207.821Z" transform="translate(-206.942 -207.821)"/>
            </g>
          </g>
          <g id="Grupo_1013329" data-name="Grupo 1013329" transform="translate(52.309 89.775)" opacity="0.3">
            <g id="Grupo_1013328" data-name="Grupo 1013328">
              <path id="Trazado_698064" data-name="Trazado 698064" d="M236.167,262.712l-.194-.03c1.92,2.182,5.108,2.409,8.014,2.429s6.064-.167,8.014-2.323A39.321,39.321,0,0,1,236.167,262.712Z" transform="translate(-235.973 -262.682)"/>
            </g>
          </g>
        </g>
      </g>
      <g id="Speech_Bubble" transform="translate(66.703 60.551)">
        <g id="Grupo_1013374" data-name="Grupo 1013374" transform="translate(0 0)">
          <g id="Grupo_1013365" data-name="Grupo 1013365">
            <g id="Grupo_1013364" data-name="Grupo 1013364">
              <g id="Grupo_1013359" data-name="Grupo 1013359" transform="translate(0.108 0.117)">
                <g id="Grupo_1013358" data-name="Grupo 1013358">
                  <g id="Grupo_1013357" data-name="Grupo 1013357">
                    <path id="Trazado_698084" data-name="Trazado 698084" d="M188,147.7l-6.911-1.547a16.5,16.5,0,1,1,3.053-5.062l.006-.008Z" transform="translate(-152.264 -118.765)" fill="#fff"/>
                  </g>
                </g>
              </g>
              <g id="Grupo_1013363" data-name="Grupo 1013363">
                <g id="Grupo_1013362" data-name="Grupo 1013362">
                  <g id="Grupo_1013361" data-name="Grupo 1013361">
                    <g id="Grupo_1013360" data-name="Grupo 1013360">
                      <path id="Trazado_698085" data-name="Trazado 698085" d="M187.938,147.632l-3.8-6.65a.062.062,0,0,0-.085-.023.07.07,0,0,0-.02.018l-.006.008.109.058a16.465,16.465,0,0,0,.888-8.544,14.894,14.894,0,0,0-.634-2.538c-.155-.422-.3-.857-.471-1.287l-.608-1.272a16.645,16.645,0,0,0-9.337-7.936,16.454,16.454,0,0,0-6.912-.81,16.83,16.83,0,0,0-6.966,2.327,16.283,16.283,0,0,0-5.461,5.363,16.586,16.586,0,0,0-2.489,7.407,16.83,16.83,0,0,0,1.071,7.408,16.272,16.272,0,0,0,3.9,5.909,16.738,16.738,0,0,0,11.5,4.679,17.816,17.816,0,0,0,5.342-.881,16.418,16.418,0,0,0,7.106-4.745l-.058.019,6.924,1.489-6.9-1.605a.061.061,0,0,0-.058.019,16.382,16.382,0,0,1-7.071,4.66,17.717,17.717,0,0,1-5.286.85,16.561,16.561,0,0,1-11.345-4.648,16.075,16.075,0,0,1-3.836-5.832,16.613,16.613,0,0,1-1.048-7.3,16.344,16.344,0,0,1,2.453-7.3,16.054,16.054,0,0,1,5.377-5.284,16.607,16.607,0,0,1,6.862-2.3,16.25,16.25,0,0,1,6.815.788,16.467,16.467,0,0,1,9.237,7.81l.6,1.255c.171.425.314.854.47,1.271a14.684,14.684,0,0,1,.638,2.507,16.415,16.415,0,0,1-.831,8.471.062.062,0,0,0,.036.08.063.063,0,0,0,.073-.022l.005-.008-.1-.005C186.5,145.211,187.713,147.251,187.938,147.632Z" transform="translate(-152.092 -118.578)" fill="#263238"/>
                    </g>
                  </g>
                </g>
              </g>
            </g>
          </g>
          <g id="Grupo_1013373" data-name="Grupo 1013373" transform="translate(7.482 10)">
            <g id="Grupo_1013372" data-name="Grupo 1013372">
              <g id="Grupo_1013371" data-name="Grupo 1013371">
                <g id="Grupo_1013370" data-name="Grupo 1013370">
                  <g id="Grupo_1013369" data-name="Grupo 1013369">
                    <g id="Grupo_1013368" data-name="Grupo 1013368">
                      <g id="Grupo_1013367" data-name="Grupo 1013367">
                        <g id="Grupo_1013366" data-name="Grupo 1013366">
                          <path id="Trazado_698086" data-name="Trazado 698086" d="M164.02,141.452l2.368-2.367,4.566,4.058,8.962-8.624,2.2,2.367-11.5,10.823Z" transform="translate(-164.02 -134.519)" fill="#ff725e"/>
                        </g>
                      </g>
                    </g>
                  </g>
                </g>
              </g>
            </g>
          </g>
        </g>
      </g>
    </g>
    <g id="Grupo_1013376" data-name="Grupo 1013376" transform="translate(1184.373 1106.95)">
      <g id="Grupo_1012951" data-name="Grupo 1012951" transform="translate(0.123 0.102)">
        <g id="Grupo_1012950" data-name="Grupo 1012950">
          <g id="Grupo_1012949" data-name="Grupo 1012949">
            <path id="Trazado_697902" data-name="Trazado 697902" d="M124.36,46.049a13.464,13.464,0,0,1,3.289-1.429l.678-3.255,5.5-.1.792,3.229a13.484,13.484,0,0,1,3.337,1.313l2.78-1.822,3.957,3.821L142.97,50.65a13.455,13.455,0,0,1,1.429,3.29l3.255.678.1,5.5-3.229.792a13.48,13.48,0,0,1-1.313,3.337l1.822,2.78-3.82,3.958-2.842-1.723a13.474,13.474,0,0,1-3.289,1.429l-.678,3.255-5.5.1-.792-3.229a13.48,13.48,0,0,1-3.337-1.313l-2.78,1.822L118.036,67.5l1.723-2.842a13.477,13.477,0,0,1-1.43-3.289l-3.255-.678-.1-5.5,3.229-.792a13.48,13.48,0,0,1,1.313-3.337l-1.822-2.78,3.82-3.957,2.841,1.723Zm2.932,7.327a5.9,5.9,0,1,0,8.344-.147A5.9,5.9,0,0,0,127.292,53.376Z" transform="translate(-114.978 -41.268)" fill="#e0e0e0"/>
          </g>
        </g>
      </g>
      <g id="Grupo_1012955" data-name="Grupo 1012955" transform="translate(10.678 10.302)">
        <g id="Grupo_1012954" data-name="Grupo 1012954">
          <g id="Grupo_1012953" data-name="Grupo 1012953">
            <g id="Grupo_1012952" data-name="Grupo 1012952">
              <path id="Trazado_697903" data-name="Trazado 697903" d="M133.563,59.435a4.467,4.467,0,0,1,1.1-.964,5.874,5.874,0,0,1,3.85-.91,5.948,5.948,0,0,1,2.617.93,6.042,6.042,0,0,1,2.116,2.384,6.048,6.048,0,0,1,.57,3.473,6.021,6.021,0,0,1-4.981,5.16,6.046,6.046,0,0,1-3.491-.448,6.042,6.042,0,0,1-2.457-2.031,5.952,5.952,0,0,1-1.021-2.582,5.873,5.873,0,0,1,.775-3.879,4.445,4.445,0,0,1,.924-1.131c.032.027-.356.387-.811,1.2a5.887,5.887,0,0,0-.652,3.778,5.766,5.766,0,0,0,3.369,4.365,5.766,5.766,0,0,0,3.309.406,5.719,5.719,0,0,0,4.709-4.877,5.766,5.766,0,0,0-.521-3.292,5.765,5.765,0,0,0-4.48-3.213,5.884,5.884,0,0,0-3.753.785C133.937,59.066,133.59,59.466,133.563,59.435Z" transform="translate(-131.804 -57.527)" fill="#e0e0e0"/>
            </g>
          </g>
        </g>
      </g>
      <g id="Grupo_1012959" data-name="Grupo 1012959">
        <g id="Grupo_1012958" data-name="Grupo 1012958">
          <g id="Grupo_1012957" data-name="Grupo 1012957">
            <g id="Grupo_1012956" data-name="Grupo 1012956">
              <path id="Trazado_697904" data-name="Trazado 697904" d="M124.287,45.988a1.21,1.21,0,0,1-.183-.1l-.545-.315-2.142-1.265.067-.009-3.8,3.98.01-.107,1.833,2.772.033.05-.029.053a13.473,13.473,0,0,0-1.292,3.315l-.016.065-.066.016-3.227.8.092-.119c.035,1.731.071,3.569.109,5.5l-.106-.128,3.256.671.083.017.023.082a13.418,13.418,0,0,0,1.42,3.252l.046.075-.046.076-1.719,2.844-.024-.187,3.962,3.816-.2-.018L124.61,69.3l.082-.053.085.047a13.414,13.414,0,0,0,3.3,1.295l.1.023.024.1c.248,1.011.52,2.115.794,3.229l-.164-.126,5.5-.1-.161.134c.214-1.028.444-2.138.677-3.255l.021-.1.1-.028a13.337,13.337,0,0,0,3.245-1.41l0,0L138.3,69l.087.053,2.842,1.723-.209.027,3.822-3.957-.019.208L143,64.276l-.055-.084.049-.088a13.329,13.329,0,0,0,1.3-3.3l.024-.1.1-.023,3.229-.789-.123.159q-.046-2.816-.091-5.5l.124.149-3.254-.681-.09-.019-.024-.088a13.373,13.373,0,0,0-1.408-3.255l-.046-.076.046-.075,1.728-2.839.023.174-3.95-3.829.161.015-2.784,1.815-.062.04-.064-.036a13.415,13.415,0,0,0-3.3-1.311l-.066-.016-.016-.065c-.284-1.174-.539-2.232-.781-3.232l.1.077-5.5.072.073-.06c-.279,1.3-.507,2.364-.7,3.251l-.007.033-.031.009a14.022,14.022,0,0,0-2.515.967l-.592.309a1.411,1.411,0,0,1-.2.1,1.651,1.651,0,0,1,.183-.125c.125-.077.316-.193.58-.334a13.034,13.034,0,0,1,2.511-1.023l-.038.041c.179-.89.394-1.958.656-3.26l.012-.059h.061l5.5-.12.08,0,.019.078c.248,1,.511,2.054.8,3.226l-.082-.082a13.579,13.579,0,0,1,3.369,1.315l-.125,0,2.775-1.829.086-.056.075.072,3.965,3.813.081.078-.058.1-1.718,2.844v-.151a13.659,13.659,0,0,1,1.45,3.324l-.115-.107,3.256.673.122.025,0,.125q.05,2.683.1,5.5l0,.129-.125.031-3.229.794.12-.12a13.634,13.634,0,0,1-1.327,3.378l-.006-.172,1.823,2.779.073.112-.093.1-3.82,3.958-.093.1-.115-.07-2.842-1.723h.172a13.684,13.684,0,0,1-3.327,1.445l.119-.128c-.233,1.117-.464,2.227-.678,3.255l-.028.132-.134,0-5.5.094-.132,0-.031-.129c-.272-1.115-.542-2.218-.79-3.23l.12.12a13.673,13.673,0,0,1-3.376-1.331l.166-.006-2.782,1.819-.105.069-.09-.087-3.953-3.825-.087-.084.063-.1,1.727-2.839v.151a13.652,13.652,0,0,1-1.439-3.327l.106.1-3.254-.684-.1-.022,0-.106c-.029-1.93-.058-3.768-.084-5.5v-.1l.093-.023,3.231-.783-.081.082a13.608,13.608,0,0,1,1.334-3.359l0,.1-1.81-2.787-.038-.058.048-.049,3.844-3.935.031-.031.036.023,2.093,1.3.538.342A1.6,1.6,0,0,1,124.287,45.988Z" transform="translate(-114.782 -41.105)" fill="#e0e0e0"/>
            </g>
          </g>
        </g>
      </g>
    </g>
    <g id="Grupo_1013379" data-name="Grupo 1013379" transform="translate(1145 1351.868)">
      <g id="Grupo_1012951-2" data-name="Grupo 1012951" transform="translate(0.112 0.093)">
        <g id="Grupo_1012950-2" data-name="Grupo 1012950">
          <g id="Grupo_1012949-2" data-name="Grupo 1012949">
            <path id="Trazado_697902-2" data-name="Trazado 697902" d="M123.526,45.624a12.267,12.267,0,0,1,3-1.3l.617-2.966,5.011-.088.721,2.942a12.285,12.285,0,0,1,3.041,1.2l2.533-1.66,3.605,3.481-1.569,2.589a12.258,12.258,0,0,1,1.3,3l2.966.617.088,5.011-2.942.721a12.28,12.28,0,0,1-1.2,3.04l1.66,2.533-3.481,3.606-2.589-1.57a12.276,12.276,0,0,1-3,1.3l-.617,2.966-5.011.088-.721-2.942a12.281,12.281,0,0,1-3.04-1.2l-2.533,1.66-3.606-3.481,1.57-2.589a12.278,12.278,0,0,1-1.3-3l-2.966-.617-.088-5.011,2.942-.721a12.282,12.282,0,0,1,1.2-3.04l-1.66-2.533,3.481-3.605,2.589,1.569ZM126.2,52.3a5.376,5.376,0,1,0,7.6-.134A5.376,5.376,0,0,0,126.2,52.3Z" transform="translate(-114.978 -41.268)" fill="#e0e0e0"/>
          </g>
        </g>
      </g>
      <g id="Grupo_1012955-2" data-name="Grupo 1012955" transform="translate(9.729 9.386)">
        <g id="Grupo_1012954-2" data-name="Grupo 1012954">
          <g id="Grupo_1012953-2" data-name="Grupo 1012953">
            <g id="Grupo_1012952-2" data-name="Grupo 1012952">
              <path id="Trazado_697903-2" data-name="Trazado 697903" d="M133.406,59.265a4.07,4.07,0,0,1,1-.878,5.351,5.351,0,0,1,3.508-.829,5.419,5.419,0,0,1,2.384.847,5.5,5.5,0,0,1,1.928,2.172,5.509,5.509,0,0,1,.52,3.164,5.485,5.485,0,0,1-4.538,4.7,5.508,5.508,0,0,1-3.181-.408,5.505,5.505,0,0,1-2.239-1.851,5.423,5.423,0,0,1-.93-2.352,5.351,5.351,0,0,1,.706-3.534,4.049,4.049,0,0,1,.842-1.031c.029.025-.325.353-.739,1.091a5.363,5.363,0,0,0-.594,3.442,5.253,5.253,0,0,0,3.069,3.977,5.253,5.253,0,0,0,3.014.37,5.21,5.21,0,0,0,4.29-4.444,5.253,5.253,0,0,0-.475-3,5.252,5.252,0,0,0-4.082-2.927,5.361,5.361,0,0,0-3.419.715C133.747,58.929,133.432,59.293,133.406,59.265Z" transform="translate(-131.804 -57.527)" fill="#e0e0e0"/>
            </g>
          </g>
        </g>
      </g>
      <g id="Grupo_1012959-2" data-name="Grupo 1012959">
        <g id="Grupo_1012958-2" data-name="Grupo 1012958">
          <g id="Grupo_1012957-2" data-name="Grupo 1012957">
            <g id="Grupo_1012956-2" data-name="Grupo 1012956">
              <path id="Trazado_697904-2" data-name="Trazado 697904" d="M123.442,45.554a1.1,1.1,0,0,1-.167-.088l-.5-.287-1.951-1.153.061-.008-3.46,3.626.009-.1,1.67,2.526.03.046-.027.048a12.276,12.276,0,0,0-1.177,3.02l-.014.059-.06.015-2.94.73.083-.109c.031,1.577.065,3.252.1,5.01l-.1-.117,2.966.612.075.015.021.074a12.225,12.225,0,0,0,1.293,2.963l.042.069-.042.069L117.8,65.169l-.022-.17,3.61,3.477-.178-.017,2.531-1.663.074-.049.078.043a12.222,12.222,0,0,0,3,1.18l.087.021.022.088c.226.921.474,1.927.723,2.942l-.149-.115,5.011-.09-.147.122c.195-.937.4-1.948.617-2.966l.019-.091.09-.025a12.151,12.151,0,0,0,2.957-1.284l0,0,.081-.048.079.048,2.589,1.57-.19.025,3.482-3.6-.018.19-1.659-2.533-.05-.077.045-.08a12.144,12.144,0,0,0,1.183-3l.022-.088.088-.021,2.942-.719-.112.145q-.042-2.566-.083-5.011l.113.136-2.965-.621-.082-.017-.022-.08a12.184,12.184,0,0,0-1.283-2.966l-.042-.069.042-.069,1.574-2.586.021.159-3.6-3.489.147.014-2.537,1.653-.057.037-.058-.033a12.222,12.222,0,0,0-3.011-1.195l-.06-.015-.014-.059-.712-2.945.09.07-5.011.066.066-.055c-.254,1.183-.462,2.154-.636,2.962l-.006.03-.029.008a12.775,12.775,0,0,0-2.291.881l-.539.282a1.286,1.286,0,0,1-.181.091,1.5,1.5,0,0,1,.167-.114c.114-.07.288-.176.528-.3a11.877,11.877,0,0,1,2.288-.932l-.035.037c.163-.81.359-1.784.6-2.97l.011-.054h.056l5.01-.11.073,0,.018.071.731,2.939-.074-.074a12.372,12.372,0,0,1,3.07,1.2l-.114,0,2.529-1.666.078-.051.068.066,3.613,3.474.074.071-.053.088-1.565,2.591v-.138a12.444,12.444,0,0,1,1.321,3.028l-.1-.1,2.966.613.111.023,0,.114q.045,2.444.093,5.011l0,.117-.114.028-2.942.724.109-.109a12.422,12.422,0,0,1-1.209,3.078l-.006-.157,1.661,2.532.067.1-.085.088-3.48,3.606-.085.089-.105-.064-2.589-1.569h.157a12.467,12.467,0,0,1-3.031,1.317l.109-.117c-.212,1.018-.423,2.029-.618,2.966l-.025.12-.122,0-5.011.086-.121,0-.029-.117c-.248-1.016-.494-2.021-.72-2.943l.109.109a12.458,12.458,0,0,1-3.076-1.213l.151-.006L121.363,68.7l-.1.063-.082-.079-3.6-3.485-.079-.077.057-.094,1.573-2.586v.138a12.438,12.438,0,0,1-1.311-3.031l.1.09-2.965-.623-.095-.02,0-.1c-.027-1.758-.053-3.433-.077-5.011V53.8l.085-.021,2.944-.713-.074.074a12.4,12.4,0,0,1,1.215-3.06l0,.094-1.649-2.539-.034-.053.043-.045,3.5-3.585.028-.029.033.021,1.907,1.187.49.312A1.457,1.457,0,0,1,123.442,45.554Z" transform="translate(-114.782 -41.105)" fill="#e0e0e0"/>
            </g>
          </g>
        </g>
      </g>
    </g>
    <g id="Grupo_1013380" data-name="Grupo 1013380" transform="translate(1199.881 1351.868)">
      <g id="Grupo_1012951-3" data-name="Grupo 1012951" transform="translate(0.112 0.093)">
        <g id="Grupo_1012950-3" data-name="Grupo 1012950">
          <g id="Grupo_1012949-3" data-name="Grupo 1012949">
            <path id="Trazado_697902-3" data-name="Trazado 697902" d="M123.526,45.624a12.267,12.267,0,0,1,3-1.3l.617-2.966,5.011-.088.721,2.942a12.285,12.285,0,0,1,3.041,1.2l2.533-1.66,3.605,3.481-1.569,2.589a12.258,12.258,0,0,1,1.3,3l2.966.617.088,5.011-2.942.721a12.28,12.28,0,0,1-1.2,3.04l1.66,2.533-3.481,3.606-2.589-1.57a12.276,12.276,0,0,1-3,1.3l-.617,2.966-5.011.088-.721-2.942a12.281,12.281,0,0,1-3.04-1.2l-2.533,1.66-3.606-3.481,1.57-2.589a12.278,12.278,0,0,1-1.3-3l-2.966-.617-.088-5.011,2.942-.721a12.282,12.282,0,0,1,1.2-3.04l-1.66-2.533,3.481-3.605,2.589,1.569ZM126.2,52.3a5.376,5.376,0,1,0,7.6-.134A5.376,5.376,0,0,0,126.2,52.3Z" transform="translate(-114.978 -41.268)" fill="#e0e0e0"/>
          </g>
        </g>
      </g>
      <g id="Grupo_1012955-3" data-name="Grupo 1012955" transform="translate(9.729 9.386)">
        <g id="Grupo_1012954-3" data-name="Grupo 1012954">
          <g id="Grupo_1012953-3" data-name="Grupo 1012953">
            <g id="Grupo_1012952-3" data-name="Grupo 1012952">
              <path id="Trazado_697903-3" data-name="Trazado 697903" d="M133.406,59.265a4.07,4.07,0,0,1,1-.878,5.351,5.351,0,0,1,3.508-.829,5.419,5.419,0,0,1,2.384.847,5.5,5.5,0,0,1,1.928,2.172,5.509,5.509,0,0,1,.52,3.164,5.485,5.485,0,0,1-4.538,4.7,5.508,5.508,0,0,1-3.181-.408,5.505,5.505,0,0,1-2.239-1.851,5.423,5.423,0,0,1-.93-2.352,5.351,5.351,0,0,1,.706-3.534,4.049,4.049,0,0,1,.842-1.031c.029.025-.325.353-.739,1.091a5.363,5.363,0,0,0-.594,3.442,5.253,5.253,0,0,0,3.069,3.977,5.253,5.253,0,0,0,3.014.37,5.21,5.21,0,0,0,4.29-4.444,5.253,5.253,0,0,0-.475-3,5.252,5.252,0,0,0-4.082-2.927,5.361,5.361,0,0,0-3.419.715C133.747,58.929,133.432,59.293,133.406,59.265Z" transform="translate(-131.804 -57.527)" fill="#e0e0e0"/>
            </g>
          </g>
        </g>
      </g>
      <g id="Grupo_1012959-3" data-name="Grupo 1012959">
        <g id="Grupo_1012958-3" data-name="Grupo 1012958">
          <g id="Grupo_1012957-3" data-name="Grupo 1012957">
            <g id="Grupo_1012956-3" data-name="Grupo 1012956">
              <path id="Trazado_697904-3" data-name="Trazado 697904" d="M123.442,45.554a1.1,1.1,0,0,1-.167-.088l-.5-.287-1.951-1.153.061-.008-3.46,3.626.009-.1,1.67,2.526.03.046-.027.048a12.276,12.276,0,0,0-1.177,3.02l-.014.059-.06.015-2.94.73.083-.109c.031,1.577.065,3.252.1,5.01l-.1-.117,2.966.612.075.015.021.074a12.225,12.225,0,0,0,1.293,2.963l.042.069-.042.069L117.8,65.169l-.022-.17,3.61,3.477-.178-.017,2.531-1.663.074-.049.078.043a12.222,12.222,0,0,0,3,1.18l.087.021.022.088c.226.921.474,1.927.723,2.942l-.149-.115,5.011-.09-.147.122c.195-.937.4-1.948.617-2.966l.019-.091.09-.025a12.151,12.151,0,0,0,2.957-1.284l0,0,.081-.048.079.048,2.589,1.57-.19.025,3.482-3.6-.018.19-1.659-2.533-.05-.077.045-.08a12.144,12.144,0,0,0,1.183-3l.022-.088.088-.021,2.942-.719-.112.145q-.042-2.566-.083-5.011l.113.136-2.965-.621-.082-.017-.022-.08a12.184,12.184,0,0,0-1.283-2.966l-.042-.069.042-.069,1.574-2.586.021.159-3.6-3.489.147.014-2.537,1.653-.057.037-.058-.033a12.222,12.222,0,0,0-3.011-1.195l-.06-.015-.014-.059-.712-2.945.09.07-5.011.066.066-.055c-.254,1.183-.462,2.154-.636,2.962l-.006.03-.029.008a12.775,12.775,0,0,0-2.291.881l-.539.282a1.286,1.286,0,0,1-.181.091,1.5,1.5,0,0,1,.167-.114c.114-.07.288-.176.528-.3a11.877,11.877,0,0,1,2.288-.932l-.035.037c.163-.81.359-1.784.6-2.97l.011-.054h.056l5.01-.11.073,0,.018.071.731,2.939-.074-.074a12.372,12.372,0,0,1,3.07,1.2l-.114,0,2.529-1.666.078-.051.068.066,3.613,3.474.074.071-.053.088-1.565,2.591v-.138a12.444,12.444,0,0,1,1.321,3.028l-.1-.1,2.966.613.111.023,0,.114q.045,2.444.093,5.011l0,.117-.114.028-2.942.724.109-.109a12.422,12.422,0,0,1-1.209,3.078l-.006-.157,1.661,2.532.067.1-.085.088-3.48,3.606-.085.089-.105-.064-2.589-1.569h.157a12.467,12.467,0,0,1-3.031,1.317l.109-.117c-.212,1.018-.423,2.029-.618,2.966l-.025.12-.122,0-5.011.086-.121,0-.029-.117c-.248-1.016-.494-2.021-.72-2.943l.109.109a12.458,12.458,0,0,1-3.076-1.213l.151-.006L121.363,68.7l-.1.063-.082-.079-3.6-3.485-.079-.077.057-.094,1.573-2.586v.138a12.438,12.438,0,0,1-1.311-3.031l.1.09-2.965-.623-.095-.02,0-.1c-.027-1.758-.053-3.433-.077-5.011V53.8l.085-.021,2.944-.713-.074.074a12.4,12.4,0,0,1,1.215-3.06l0,.094-1.649-2.539-.034-.053.043-.045,3.5-3.585.028-.029.033.021,1.907,1.187.49.312A1.457,1.457,0,0,1,123.442,45.554Z" transform="translate(-114.782 -41.105)" fill="#e0e0e0"/>
            </g>
          </g>
        </g>
      </g>
    </g>
  </g>
</svg>
