<svg xmlns="http://www.w3.org/2000/svg" width="194.239" height="211.044" viewBox="0 0 194.239 211.044">
  <g id="Grupo_1013390" data-name="Grupo 1013390" transform="translate(-192.761 -1470.469)">
    <g id="Grupo_93241" data-name="Grupo 93241" transform="translate(233.324 1561.594) rotate(-49)">
      <path id="Trazado_122923" data-name="Trazado 122923" d="M84.6,2.934c-2.8,2.565-4.322,6.2-5.673,9.66-.706,1.812-1.318,3.666-2.068,5.46a12.92,12.92,0,0,1-1.7,3.041,14.859,14.859,0,0,0-1.038,1.291,2.179,2.179,0,0,1-1.585-.449A2.955,2.955,0,0,1,71.9,19.3a16.373,16.373,0,0,1,1.6-5.926,21.615,21.615,0,0,1,3.806-5.085A21.022,21.022,0,0,1,79.5,6.277a9.789,9.789,0,0,0,2.08-1.711C83.716,1.6,77.6,1.289,76.131,1.314A18.1,18.1,0,0,0,66.024,4.158c-5.195,3.6-7.881,10.232-9.716,16.044-1.092,3.46-2.007,6.957-3.365,10.33a33.029,33.029,0,0,1-2.265,4.876c-.261.426-.653,1.176-1.2.9-.485-.249-.6-1.8-.682-2.3-1.4-8.355,1.76-16.82,6.373-23.664a23.587,23.587,0,0,1,3.45-4.088c.7-.665,1.736-1.7,1.25-2.778C58.708.9,53.509,2.368,51.654,3,45.457,5.13,38.724,9.521,36.8,16.1c-1.2,4.117-.944,8.467-.688,12.693.28,4.656.495,9.331.971,13.972.27,2.63.551,5.253-.347,7.8-.3.863-.792,2.108-1.732,2.455-1.37.507-2.5-1.1-3.085-2.12-1.948-3.364-1.865-7.529-2.047-11.289-.417-8.509.079-16.929,2.588-25.115a1.182,1.182,0,0,0-.683-1.97c-2.919-.534-5.841,1.44-8.217,2.873a28.271,28.271,0,0,0-7.6,6.542c-4.263,5.322-5.309,12.307-4.582,18.933.859,7.816,4.661,15.251,6.918,22.718.655,2.166,1.671,4.771,1.545,7.078-.21,3.868-5.3-.866-6.241-2.143A41.894,41.894,0,0,1,7.978,57.888C6.531,53.856,5.91,49.7,5.039,45.53a.581.581,0,0,0-.179-.305c-.406-1.167-1.609-1.318-2.609-.161C.209,47.424.14,51.112.042,54.045-.2,61.333.567,69.029,3.93,75.6A42.446,42.446,0,0,0,18.108,90.983a53.742,53.742,0,0,0,9.509,5.2,45.067,45.067,0,0,0,10.711,2.583,88.688,88.688,0,0,0,11.917,1.191c2.962.02,6.51-.145,9.122-1.773,1.99-.268,3.967-.571,5.923-.9,9.145-1.512,18.968-4.576,25.216-11.832,2.123-2.466,4.439-5.977,4.712-9.3a2.914,2.914,0,0,0-1.553-3.138c-1.766-.723-3.891.394-5.558.921-4.992,1.578-10.478,1.58-15.662,1.3-4.664-.253-9.539-1.028-13.578-3.518a14.057,14.057,0,0,1-5.277-5.3c-1.606-3.3,1.9-4.683,4.638-4.375,2.942.332,5.808,1.394,8.732,1.9,3.1.534,6.22.805,9.346,1.116,9.837.976,20.435-.624,27.809-7.814a19.563,19.563,0,0,0,5.634-9.716,5,5,0,0,0-1.051-4.7c-1.557-1.49-3.754-1.051-5.484-.118-2.6,1.4-4.923,3.278-7.565,4.65a59.127,59.127,0,0,1-8.6,3.821,24.223,24.223,0,0,1-8.306.951,35.955,35.955,0,0,1-6.916-.458c-.761-.161-5.629-2.154-4.29-2.929,1.109-.643,3.486-.1,4.738-.083a65.828,65.828,0,0,0,9.3-.1A51.164,51.164,0,0,0,90.746,46.2c4.892-1.574,9.451-3.483,13.38-6.879a27.464,27.464,0,0,0,8-11.495c.551-1.538,1.124-3.395.078-4.834a1.145,1.145,0,0,0-1.371-.273c-1.9,1.178-4.107,1.689-6.074,2.741a47.586,47.586,0,0,1-7.448,3.58,10.428,10.428,0,0,1-8.639-.836c-.344-1.578.934-2.843,2.343-3.534,2.952-1.447,6.246-2.015,9.192-3.549a16.576,16.576,0,0,0,6.722-6.109,29.805,29.805,0,0,0,2.277-5.062c.652-1.75,1.763-4.293,1.184-6.171a.869.869,0,0,0-.071-.151.281.281,0,0,0-.091-.272c-1.521-1.354-3.8-1.785-5.746-2.143-2.4-.441-4.859-.76-7.289-1C92.81-.239,88.026-.214,84.6,2.934ZM54.025,77.069c2.334.456,8.7,3.081,7.139,6.372-1.588,3.333-7.9,2.277-10.606,1.854-4.484-.7-11.2-2.132-14.774-5.2-1.917-1.647-.785-2.639,1.158-2.977a54.652,54.652,0,0,1,7.068-.776A42.857,42.857,0,0,1,54.025,77.069Z" transform="translate(7.309 -0.737)" fill="#4f9638"/>
      <g id="Grupo_86453" data-name="Grupo 86453" transform="translate(21.317 3.45)" opacity="0.7">
        <path id="Trazado_122924" data-name="Trazado 122924" d="M66.561,2.555c-1.947,1.565-3.871,3.159-5.785,4.763-5.187,4.345-10.39,8.659-15.494,13.1-4.684,4.074-9.262,8.3-13.667,12.67C26.126,38.534,20.737,44.217,15.7,50.1a41.8,41.8,0,0,1-2.814-7.362c-.071-.239-.5-.261-.477.031a16.031,16.031,0,0,0,.913,4.541,25.832,25.832,0,0,0,1.652,3.626c-.13.155-.268.3-.4.458A214.459,214.459,0,0,0,.1,69.9a.536.536,0,0,0,.886.6A189.948,189.948,0,0,1,14.909,54.16c5.578-6.129,11.352-12.114,17.13-18.055C40.87,27.026,50.4,18.5,59.908,10.143,63.489,7,67.376,4.24,71,1.175c.628-.53-.061-1.387-.752-1.127A14.272,14.272,0,0,0,66.561,2.555Z" transform="translate(0 16.527)" fill="#0a481c"/>
        <path id="Trazado_122925" data-name="Trazado 122925" d="M3.25,34.4A87.36,87.36,0,0,1,1.036,16.853c-.073-2.786-.011-5.575.055-8.359.065-2.687.6-5.617.137-8.272A.286.286,0,0,0,.682.184c-.805,2.54-.6,5.6-.66,8.236-.071,3,.035,6,.226,8.994A94.539,94.539,0,0,0,2.88,34.475C2.938,34.711,3.307,34.638,3.25,34.4Z" transform="translate(7.364 16.539)" fill="#0a481c"/>
        <path id="Trazado_122926" data-name="Trazado 122926" d="M.056,20.008A62.492,62.492,0,0,0,.7,32.668c.583,3.424,1.14,6.793,2.73,9.924.106.208.442.032.32-.159-1.816-2.858-1.745-6.667-2.246-9.928A62.93,62.93,0,0,1,.931,20.381C1.189,13.431,2.419,6.629,5.6.4a.264.264,0,0,0-.39-.345C3,1.615,2.687,5.751,2.094,8.169,1.669,9.9.963,11.549.59,13.29A37.338,37.338,0,0,0,.056,20.008Z" transform="translate(27.808 6.187)" fill="#0a481c"/>
        <path id="Trazado_122927" data-name="Trazado 122927" d="M2.721,4.957C2.178,6.621,1.616,8.28,1.146,9.968a22.056,22.056,0,0,0-.887,10,.421.421,0,0,0,.824-.168A21.4,21.4,0,0,1,2.193,9.408c.508-1.612,1.084-3.2,1.63-4.8.448-1.312,1.292-3,1.065-4.4a.276.276,0,0,0-.493-.1,6.791,6.791,0,0,0-.85,2.228C3.286,3.217,3.005,4.089,2.721,4.957Z" transform="translate(46.79 11.517)" fill="#0a481c"/>
        <path id="Trazado_122928" data-name="Trazado 122928" d="M4.505,1.64a19.024,19.024,0,0,0-1.824,2.2A33.122,33.122,0,0,0,.027,8.8c-.149.315.355.558.539.272.986-1.527,2.081-2.967,3.194-4.4.54-.7,1.1-1.393,1.7-2.037S6.951,1.394,7.251.569A.436.436,0,0,0,6.759,0C5.863.121,5.1,1.019,4.505,1.64Z" transform="translate(52.408 0)" fill="#0a481c"/>
        <path id="Trazado_122929" data-name="Trazado 122929" d="M16.293,5.193c-5.02.846-10.711,1.033-15.629-.44C.045,4.568-.29,5.506.33,5.7c4.993,1.6,10.523,1.285,15.653.558a31.559,31.559,0,0,0,7.441-2.135A29.225,29.225,0,0,0,30.732.405a.233.233,0,0,0-.2-.4C28.2.487,26.066,1.837,23.887,2.788A32.564,32.564,0,0,1,16.293,5.193Z" transform="translate(59.231 28.873)" fill="#0a481c"/>
        <path id="Trazado_122930" data-name="Trazado 122930" d="M.126,7.27c-.362.343.136.921.511.586A66.6,66.6,0,0,1,11.74.3c.147-.086.082-.34-.1-.3A19.517,19.517,0,0,0,5.506,2.952,40.234,40.234,0,0,0,.126,7.27Z" transform="translate(73.19 6.3)" fill="#0a481c"/>
        <path id="Trazado_122931" data-name="Trazado 122931" d="M2.941.48c-.335.208-.677.421-1,.647C1.318,1.566.7,2.007.059,2.42a.116.116,0,0,0,.1.207c.723-.288,1.474-.561,2.17-.911A8.215,8.215,0,0,0,3.355,1.1,4.93,4.93,0,0,0,4.145.294C4.274.146,4.062-.064,3.9.018,3.59.181,3.239.293,2.941.48Z" transform="translate(85.737 3.075)" fill="#0a481c"/>
        <path id="Trazado_122932" data-name="Trazado 122932" d="M8.819,4.078a11.693,11.693,0,0,0-4.134-1.8,9.106,9.106,0,0,1-4-2.152A.388.388,0,0,0,.1.637a9.051,9.051,0,0,0,3.951,2.5c1.48.542,3.021.973,4.536,1.41A.264.264,0,0,0,8.819,4.078Z" transform="translate(41.041 48.449)" fill="#0a481c"/>
        <path id="Trazado_122933" data-name="Trazado 122933" d="M28.629,2.422a21.227,21.227,0,0,1-3.662,2.343A29.9,29.9,0,0,1,16.938,7.38,44.471,44.471,0,0,1,.176,7.094c-.184-.038-.251.28-.067.325a42.767,42.767,0,0,0,17.448.858A28.222,28.222,0,0,0,25.839,5.6C28,4.486,31.029,2.8,31.979.422a.318.318,0,0,0-.438-.386A22.809,22.809,0,0,0,28.629,2.422Z" transform="translate(54.664 46.764)" fill="#0a481c"/>
      </g>
    </g>
    <g id="Grupo_86514" data-name="Grupo 86514" transform="translate(192.761 1513.533) rotate(-2)">
      <path id="Trazado_122890" data-name="Trazado 122890" d="M38.25.156c-9.633,1.211-12.308,10.271-11.2,18.76.948,7.3,5.856,14.329,5.4,21.766-.322,5.283-5.738,3.917-9.393,2.986-4.62-1.177-9.412-2.836-14.247-2.47-3.686.279-7.417,2.249-8.549,6.014-.965,3.206.883,6.13,3.2,8.21,6.768,6.082,17.16,8.687,25.452,11.806,3.076,1.157,12.686,2.422,13.468,6.116.545,2.582-5.111,2.735-6.754,2.853-6.11.449-12.2-.35-18.311-.212-4.016.09-14.148.6-13.237,6.791.624,4.214,5.187,7.5,8.566,9.452a104.4,104.4,0,0,0,15.8,7.324,137.688,137.688,0,0,0,21.2,5.54,157.909,157.909,0,0,0,20.964,3.1c3.229.2,6.458.144,9.684.418a1.633,1.633,0,0,0,1.171,1.372,107.96,107.96,0,0,0,18.9,4.476c5.049.646,10.559.562,14.815-2.605,4.835-3.6,7.651-9.658,11.049-14.487,3.127-4.448,6.932-8.648,9.181-13.641,2.309-5.125,4.575-14-1.586-17.442-7.829-4.375-16.988,3.551-24.721,4.363-1.885.2-5.1.025-5.893-2.165-.542-1.5.584-3.243,1.355-4.442,2.32-3.6,5.7-6.573,8.842-9.43,5.453-4.95,12.035-10.451,8.682-18.712-3.813-9.4-16.245-9.887-23.612-4.6-4.109,2.949-6.72,7.366-8.653,11.947a44.988,44.988,0,0,0-2.032,6.046c-.926,3.491-3.209,5.185-6.7,2.935-5.331-3.435-7.112-11.5-9.173-17.016-2.354-6.3-4.851-12.543-8.441-18.258C57.815,7.954,50.011-1.323,38.25.156Z" transform="translate(0 0)" fill="#add031"/>
      <g id="Grupo_86419" data-name="Grupo 86419" transform="translate(37.206 15.353)">
        <path id="Trazado_122891" data-name="Trazado 122891" d="M.009,1.074A71.115,71.115,0,0,0,3.687,17.509a119.159,119.159,0,0,0,6.748,14.5A173.975,173.975,0,0,0,28.557,59.161a179.958,179.958,0,0,0,23.3,23.513Q57.8,87.712,64.1,92.335c4.375,3.2,9.272,7.163,14.66,8.363.708.158,1.354-.742.75-1.29-3.821-3.455-8.749-5.76-12.957-8.735-4.4-3.113-8.673-6.438-12.811-9.892A161.876,161.876,0,0,1,31.918,58.4,175.337,175.337,0,0,1,14.324,31.979C9.1,22.42,4.161,11.559,2.174.781,1.954-.425-.155-.162.009,1.074Z" transform="translate(0 0)" fill="#4f9638"/>
      </g>
      <g id="Grupo_86420" data-name="Grupo 86420" transform="translate(102.47 71.208)">
        <path id="Trazado_122892" data-name="Trazado 122892" d="M1.58,29.34c3.116-4.852,6.054-9.819,9.226-14.634,1.549-2.351,3.153-4.665,4.863-6.9,1.8-2.351,3.884-4.555,5.461-7.062.248-.392-.263-.954-.663-.663a29.852,29.852,0,0,0-5.783,6.153c-1.8,2.328-3.48,4.736-5.1,7.189C6.325,18.375,3.324,23.495.135,28.493c-.581.915.867,1.753,1.445.847Z" transform="translate(0 0)" fill="#4f9638"/>
      </g>
      <g id="Grupo_86421" data-name="Grupo 86421" transform="translate(55.364 11.514)">
        <path id="Trazado_122893" data-name="Trazado 122893" d="M7.649,48.366c2.825-7.663,2.235-16.375.878-24.275A99.233,99.233,0,0,0,5.335,10.95C4.232,7.456,3.108,3.163.87.2.577-.187-.137.014.023.561,1.045,3.99,2.818,7.228,3.944,10.651A100,100,0,0,1,7.2,23.36c1.5,7.982,2.665,17.027.1,24.913-.071.217.263.3.342.093Z" transform="translate(0 0)" fill="#4f9638"/>
      </g>
      <g id="Grupo_86422" data-name="Grupo 86422" transform="translate(3.395 50.004)">
        <path id="Trazado_122894" data-name="Trazado 122894" d="M51.272,9.162c-4.595-.426-9.1-.587-13.68-1.225C33.221,7.33,28.8,7.1,24.441,6.416a116.807,116.807,0,0,1-13.2-2.771C7.636,2.642,4.23.2.47,0A.49.49,0,0,0,.225.907C7.447,5.513,16.561,7.155,24.912,8.3c4.135.564,8.3.9,12.458,1.279,4.657.426,9.249.079,13.9.336.485.025.474-.706,0-.751Z" transform="translate(0 0)" fill="#4f9638"/>
      </g>
      <g id="Grupo_86423" data-name="Grupo 86423" transform="translate(11.939 83.086)">
        <path id="Trazado_122895" data-name="Trazado 122895" d="M.34,1.278C10.071,5.9,20.762,7.75,31.436,8.825a116.992,116.992,0,0,0,17.284.206c2.8-.135,5.594-.313,8.391-.437,2.509-.113,5.326.339,7.578-.872a.712.712,0,0,0,0-1.219C62.7,5.481,60.5,5.9,58.311,5.983c-2.8.113-5.594.268-8.391.39a137.11,137.11,0,0,1-16.787-.124A143.182,143.182,0,0,1,.867.031C.139-.2-.368.942.34,1.278Z" transform="translate(0 0)" fill="#4f9638"/>
      </g>
      <g id="Grupo_86424" data-name="Grupo 86424" transform="translate(80.02 32.559)">
        <path id="Trazado_122896" data-name="Trazado 122896" d="M.659,48.385c2.077-5.06,4.233-10.014,6.751-14.871a88.745,88.745,0,0,1,8.729-13.189c3.226-4.208,7.093-7.457,11.171-10.787,1.843-1.5,3.531-3.181,5.4-4.651,1.674-1.315,4.036-2.2,5.487-3.7a.69.69,0,0,0-.3-1.143c-3.85-.6-8.044,4.886-10.587,7.124-1.97,1.733-4.143,3.2-6.042,5.021-2.12,2.032-3.96,4.315-5.958,6.463A54.481,54.481,0,0,0,5.942,32.193c-2.464,5.1-4.1,10.666-5.921,16.017-.141.409.48.559.638.175Z" transform="translate(0 0)" fill="#4f9638"/>
      </g>
    </g>
    <g id="Grupo_86515" data-name="Grupo 86515" transform="translate(317.969 1627.251) rotate(146)">
      <path id="Trazado_122897" data-name="Trazado 122897" d="M94.159,55.608a11.54,11.54,0,0,0,2.775-8.715c-.321-3.776-2.336-6.6-4.9-9.242a25.744,25.744,0,0,0-3.456-2.966h-.01a34.8,34.8,0,0,0-3.38-2.167h-.01c-1.262-.723-2.57-1.379-3.9-2.016-2.132-1.018-4.3-1.917-6.45-2.885a11.077,11.077,0,0,1-5.27-4.282c-1.144-1.9-1.893-4.057-2.932-6.012l-.4-.714a10.407,10.407,0,0,0-3.082-3.442c-3.446-2.355-7.343-2.034-11.3-1.849a19,19,0,0,1-7.446-.772A14.578,14.578,0,0,1,39.134,6.9c-.133-.112-.254-.244-.376-.366-.169-.167-.328-.342-.5-.508a32.356,32.356,0,0,0-3.826-3.656A11.873,11.873,0,0,0,28.656.222c-4.749-.581-9.5.118-14.227.5-1.085.084-2.175.128-3.237.315a.659.659,0,0,0-.6-.435c-1.679-.1-3.126,1.076-4.3,2.157a19.085,19.085,0,0,0-2.4,2.66A17.18,17.18,0,0,0,2.842,6.972v.01a20.307,20.307,0,0,0-2.831,11c.236,7.305,4.529,14.191,11.5,16.59.276.093.564.188.862.273h.01c.328.087.656.175,1.006.244a55.587,55.587,0,0,0,6.725.531,22.843,22.843,0,0,1,7.461,1.708,9.6,9.6,0,0,1,1.994,1.21A11.57,11.57,0,0,1,31.132,40c.01,0,.01,0,.01.01a38.517,38.517,0,0,1,4.282,6.285c1.917,3.145,3.951,6.228,7.607,7.492,4.12,1.435,8.772.23,12.96-.291.411-.048.811-.1,1.22-.134.349-.044.7-.076,1.045-.108a25.037,25.037,0,0,1,5.018.024,22.865,22.865,0,0,1,6.955,2.307A55.838,55.838,0,0,0,79.3,59.29c.348.09.7.179,1.047.248a17.734,17.734,0,0,0,2.732.387A14.18,14.18,0,0,0,94.159,55.608Z" transform="translate(0.054 0)" fill="#36753c"/>
      <g id="Grupo_86426" data-name="Grupo 86426" transform="translate(0 4.713)">
        <path id="Trazado_122898" data-name="Trazado 122898" d="M94.239,47.383c-1.308-.81-2.427-1.923-3.665-2.833-2.688-1.975-5.531-3.769-8.326-5.585-8.809-5.726-17.753-11.283-26.824-16.587-3.437-2.009-6.868-4.025-10.473-5.72C42.01,15.274,39.017,14,36.014,12.765,29,9.873,21.916,7.155,14.805,4.516c-3.1-1.151-6.21-2.369-9.372-3.349C4.4.846,3.362.518,2.3.281A11.14,11.14,0,0,0,1.2.071C.983.045.345-.056.789.042.063-.117-.347.98.386,1.141c-.076-.017.282.122.428.193.263.129.526.255.793.377.822.373,1.665.694,2.506,1.022,2.567,1,5.177,1.894,7.764,2.844,7.012,2.575,14.007,5.2,20.94,7.978a175.283,175.283,0,0,1,18.2,8.3Q65.5,29.674,79.35,38.525c4.852,3.1,9.567,6.586,14.766,9.094.137.067.252-.156.123-.236Z" transform="translate(0 0)" fill="#4f9638"/>
      </g>
      <g id="Grupo_86427" data-name="Grupo 86427" transform="translate(60.238 29.621)">
        <path id="Trazado_122899" data-name="Trazado 122899" d="M1.385,1.148a3.214,3.214,0,0,1-1.169.006A.247.247,0,0,1,.132.69,1.242,1.242,0,0,1,.4.56C1.552-.017,3.281.094,4.5.042A47.689,47.689,0,0,1,9.479.093a69.733,69.733,0,0,1,10.3,1.462q2.636.582,5.215,1.342H25a34.794,34.794,0,0,1,3.38,2.167,81.028,81.028,0,0,0-8.888-2.526A69.823,69.823,0,0,0,9.4,1.042,46.317,46.317,0,0,0,4.66.867c-.866.02-1.724.082-2.587.184C1.839,1.073,1.612,1.116,1.385,1.148Z" transform="translate(0 0)" fill="#4f9638"/>
      </g>
      <g id="Grupo_86428" data-name="Grupo 86428" transform="translate(44.967 22.497)">
        <path id="Trazado_122900" data-name="Trazado 122900" d="M12.3,30.861c-.212-.271-.422-.553-.633-.824a53.306,53.306,0,0,1-5.972-9.106C2.687,14.943-.3,7.89.025,1.038.035.795.054.563.073.321A.365.365,0,0,1,.8.379C.783.714.776,1.049.778,1.394.765,8.009,3.6,14.754,6.519,20.531A56.294,56.294,0,0,0,12.473,29.6c.294.38.589.76.871,1.148C13,30.785,12.648,30.818,12.3,30.861Z" transform="translate(0 0)" fill="#4f9638"/>
      </g>
      <g id="Grupo_86429" data-name="Grupo 86429" transform="translate(70.045 36.797)">
        <path id="Trazado_122901" data-name="Trazado 122901" d="M10.351,22.741c-.351-.069-.7-.158-1.047-.248A51.686,51.686,0,0,1,5.524,16.4,41.657,41.657,0,0,1,2.4,8.871C1.585,6.172.988,3.42.12.737.089.623.046.519.015.4-.09.07.4-.175.513.16S.761.851.874,1.2c1.57,4.661,2.52,9.443,4.748,13.883A52.621,52.621,0,0,0,9.84,22.039C10.013,22.277,10.176,22.514,10.351,22.741Z" transform="translate(0 0)" fill="#4f9638"/>
      </g>
      <g id="Grupo_86430" data-name="Grupo 86430" transform="translate(42.433 16.518)">
        <path id="Trazado_122902" data-name="Trazado 122902" d="M24.244.8a74.771,74.771,0,0,0-11.206.475A62.678,62.678,0,0,0,6.564,2.4,27.2,27.2,0,0,0,3.1,3.433c-.65.241-1.265.557-1.906.809-.252.1-.513.191-.774.271-.375.1-.546-.41-.3-.634l.1-.084c1.473-1.352,3.854-1.889,5.74-2.355A50.321,50.321,0,0,1,12.86.34,76.393,76.393,0,0,1,23.845.09Z" transform="translate(0 0)" fill="#4f9638"/>
      </g>
      <g id="Grupo_86431" data-name="Grupo 86431" transform="translate(26.958 15.124)">
        <path id="Trazado_122903" data-name="Trazado 122903" d="M4.228,24.871a11.571,11.571,0,0,0-1.567-1.459,56.008,56.008,0,0,1-2.2-10.159C-.025,9.3-.324,5.009.6,1.07.662.77.737.482.822.194c.088-.328.667-.21.6.131s-.126.66-.173.992A34.742,34.742,0,0,0,.969,6.343a55.48,55.48,0,0,0,2.647,16.7C3.81,23.658,4.015,24.264,4.228,24.871Z" transform="translate(0 0)" fill="#4f9638"/>
      </g>
      <g id="Grupo_86432" data-name="Grupo 86432" transform="translate(18.896 6.019)">
        <path id="Trazado_122904" data-name="Trazado 122904" d="M.038,5.13a3.2,3.2,0,0,1,.187-.3C1.314,3.324,3.992,2.628,5.59,2.1A45.831,45.831,0,0,1,11.878.52a38.862,38.862,0,0,1,7.541-.51c.169.166.328.341.5.508.122.122.243.253.376.366a.218.218,0,0,1-.081,0,39.665,39.665,0,0,0-8.3.611,45.41,45.41,0,0,0-6.4,1.722,25.082,25.082,0,0,0-2.852,1.2c-.478.245-.939.543-1.426.787h-.01a4.641,4.641,0,0,1-.9.352C.058,5.629-.069,5.324.038,5.13Z" transform="translate(0 0)" fill="#36753c"/>
      </g>
      <g id="Grupo_86433" data-name="Grupo 86433" transform="translate(9.115 9.11)">
        <path id="Trazado_122905" data-name="Trazado 122905" d="M3.308,25.733c-.3-.085-.585-.18-.862-.273-.41-1.69-.737-3.4-1.034-5.126A83.028,83.028,0,0,1,.177,10.477C.015,7.243-.3,3.58.693.44A1.587,1.587,0,0,1,.762.222C.9-.2,1.549.043,1.412.468a1.408,1.408,0,0,0-.058.209A17.506,17.506,0,0,0,.828,5.744c.009,1.871.04,3.733.171,5.6.215,2.964.7,5.91,1.2,8.847C2.512,22.05,2.858,23.908,3.308,25.733Z" transform="translate(0 0)" fill="#36753c"/>
      </g>
    </g>
  </g>
</svg>
