<svg xmlns="http://www.w3.org/2000/svg" width="280.806" height="262.913" viewBox="0 0 280.806 262.913">
  <g id="_21094702_6409772_1_" data-name="21094702_6409772 (1)" transform="translate(105.64 -73.892)">
    <g id="OBJECTS" transform="translate(-105.64 73.892)">
      <line id="Línea_176" data-name="Línea 176" x2="12.873" transform="translate(37.073 257.95)" fill="none" stroke="#423b37" stroke-miterlimit="10" stroke-width="0.839"/>
      <g id="Grupo_955293" data-name="Grupo 955293" transform="translate(0)">
        <path id="Trazado_693646" data-name="Trazado 693646" d="M319.587,342.589H59.636s-8.17-41.586,24.121-81.7,29.8-123.519,92.227-136.119c56.369-11.377,86.337,10.144,93.7,39.9C281.877,213.989,357.526,288.692,319.587,342.589Z" transform="translate(-49.332 -80.377)" fill="#d2e1f1"/>
        <g id="Grupo_955275" data-name="Grupo 955275" transform="translate(9.485 62.625)">
          <g id="Grupo_955266" data-name="Grupo 955266" transform="translate(0 179.585)">
            <path id="Trazado_693647" data-name="Trazado 693647" d="M58.86,427.291H98.576s2.751-6.092-.589-16.506c-4.52-1.572-21.615-3.144-21.615-3.144a49.474,49.474,0,0,1-5.5,7.4C65.76,415.038,59.826,419.927,58.86,427.291Z" transform="translate(-58.86 -407.641)" fill="#12263f"/>
            <path id="Trazado_693648" data-name="Trazado 693648" d="M87.809,417.9l-.549-.439a29.434,29.434,0,0,0,4.295-7.129l.658.246A29.54,29.54,0,0,1,87.809,417.9Z" transform="translate(-67.307 -408.44)" fill="#455955"/>
            <path id="Trazado_693649" data-name="Trazado 693649" d="M75.953,418.16s.346-.03.953-.022a20.034,20.034,0,0,1,2.512.2,20.919,20.919,0,0,1,3.483.816,16.787,16.787,0,0,1,1.882.762,15.53,15.53,0,0,1,1.834,1.033,13.245,13.245,0,0,1,1.655,1.312,11.854,11.854,0,0,1,1.371,1.52c.191.272.379.54.551.809l.451.819c.124.277.246.544.363.805s.19.526.281.774a10.348,10.348,0,0,1,.358,1.387c.061.422.138.783.159,1.088.04.606.063.951.063.951s-.072-.339-.2-.93c-.055-.3-.172-.644-.278-1.046-.131-.4-.283-.841-.476-1.312-.1-.233-.2-.479-.322-.725s-.263-.49-.4-.747q-.236-.366-.483-.749l-.556-.743a13.35,13.35,0,0,0-1.342-1.4,12.591,12.591,0,0,0-1.586-1.227,17.916,17.916,0,0,0-3.536-1.8,24.753,24.753,0,0,0-3.347-1.011c-1-.216-1.851-.377-2.45-.451S75.953,418.16,75.953,418.16Z" transform="translate(-63.944 -410.763)" fill="#455955"/>
            <path id="Trazado_693650" data-name="Trazado 693650" d="M91.818,418.861a.35.35,0,0,1-.248-.1c-3.063-3.063-8.79-2.876-8.843-2.868a.359.359,0,0,1-.365-.337.352.352,0,0,1,.337-.366c.246-.007,6.086-.209,9.369,3.074a.351.351,0,0,1-.249.6Z" transform="translate(-65.85 -409.884)" fill="#fff"/>
          </g>
          <g id="Grupo_955267" data-name="Grupo 955267" transform="translate(82.752 87.759)">
            <path id="Trazado_693651" data-name="Trazado 693651" d="M200.557,279.061s-1.435,18.275,0,32.718,3.264,46.867,3.264,56.594c-4.451,4.451-15.387,1.769-15.387,1.769s-8.548-51.878-11.791-92.555C187.55,275.523,200.557,279.061,200.557,279.061Z" transform="translate(-176.644 -276.941)" fill="#ffa686"/>
            <path id="Trazado_693652" data-name="Trazado 693652" d="M192.027,426.783h27.9a11.019,11.019,0,0,0-5.7-6.289c-4.52-2.161-4.574-8.348-5.836-13.755-6.152-2.555-15.387,1.769-15.387,1.769Z" transform="translate(-181.219 -315.306)" fill="#86c7b9"/>
          </g>
          <g id="Grupo_955268" data-name="Grupo 955268" transform="translate(3.249)">
            <path id="Trazado_693653" data-name="Trazado 693653" d="M88.456,182.367s1.83-42.27,36.747-27.019c6.19,0,12.773,10.808,12.773,24.072s16.212,7.369,8.843,24.465c-18.275,11.5-69.563,40.382-69.563,40.382s.3-6.129-7.067-10.256-10.2-15.978-.468-25.705S86.688,201.232,88.456,182.367Z" transform="translate(-63.484 -152.029)" fill="#423b37"/>
            <path id="Trazado_693654" data-name="Trazado 693654" d="M115.195,188.651s1.521-.658,3.7-1.819c1.1-.568,2.337-1.3,3.64-2.116.653-.405,1.307-.856,1.971-1.312s1.318-.95,1.948-1.469c.644-.5,1.257-1.043,1.845-1.59l.854-.832.794-.85c.5-.577.972-1.144,1.385-1.711a18.352,18.352,0,0,0,1.07-1.658c.289-.539.55-1.037.748-1.5.218-.451.337-.871.473-1.206l.327-1.086s-.058.408-.2,1.123c-.1.347-.185.786-.36,1.263-.085.24-.176.5-.271.764l-.37.821a18.05,18.05,0,0,1-2.336,3.589,22.872,22.872,0,0,1-1.65,1.769c-.6.566-1.22,1.126-1.873,1.646a33.642,33.642,0,0,1-4.038,2.762,41.352,41.352,0,0,1-3.788,1.943c-1.132.517-2.11.868-2.79,1.116S115.195,188.651,115.195,188.651Z" transform="translate(-78.864 -157.822)" fill="#70645d"/>
            <path id="Trazado_693655" data-name="Trazado 693655" d="M148.954,171.98s.029-.618.1-1.524c.031-.452.066-.979.1-1.544s.071-1.161.087-1.759.022-1.192.02-1.752c-.011-.278-.021-.549-.031-.8-.025-.253-.04-.5-.053-.721s-.054-.428-.077-.609-.058-.338-.078-.47l-.07-.418.2.372a3.265,3.265,0,0,1,.205.445c.066.177.141.378.213.6a10,10,0,0,1,.306,1.564,13.785,13.785,0,0,1,.063,1.818,15.679,15.679,0,0,1-.176,1.8,14.372,14.372,0,0,1-.321,1.542A9.985,9.985,0,0,1,148.954,171.98Z" transform="translate(-88.905 -155.108)" fill="#70645d"/>
          </g>
          <g id="Grupo_955269" data-name="Grupo 955269" transform="translate(16.914 41.833)">
            <path id="Trazado_693656" data-name="Trazado 693656" d="M82.934,253.9l28.561,44.039s20.216,25.075,50.247,16.506c2.859-.816-7.217-10.022-7.217-26.823V261.977c6.039,0,10.241,1.18,18.161-2.359,0-9.138-.922-34.782-14.776-39.2s-18.275-8.843-24.76-8.843c-8.547,1.769-27.367,5.241-27.367,5.241s-9.036,3.355-14.587,8.907S83.585,241.591,82.934,253.9Z" transform="translate(-82.934 -211.572)" fill="#ffd947"/>
            <path id="Trazado_693657" data-name="Trazado 693657" d="M124.988,228.088s6.556,24.4,20.6,21.311c12.485-2.742,8.922-29.432,4.545-36.823C147.114,215.6,124.988,228.088,124.988,228.088Z" transform="translate(-95.442 -211.871)" fill="#fff2c7"/>
            <path id="Trazado_693658" data-name="Trazado 693658" d="M111.306,273.22s2.215-10.317,4.2-15.917c0,11.5,1.87,17.621,6.5,29.149S141.666,317.729,154.93,308c-2.947,6.485-16.212,13.854-34.487-19.453-7.664-4.422-16.8-11.106-16.8-11.106Z" transform="translate(-89.093 -225.174)" fill="#cc9639"/>
            <path id="Trazado_693659" data-name="Trazado 693659" d="M184.683,273.16h-.009a.351.351,0,0,1-.342-.36c0-.171.459-17.217,2.216-24.538a.352.352,0,1,1,.684.164c-1.74,7.248-2.193,24.221-2.2,24.392A.353.353,0,0,1,184.683,273.16Z" transform="translate(-113.093 -222.404)" fill="#cc9639"/>
          </g>
          <g id="Grupo_955270" data-name="Grupo 955270" transform="translate(4.033 92.092)">
            <path id="Trazado_693660" data-name="Trazado 693660" d="M156.288,335.721s20.437,31.342,12.577,43.919-14.738,10.612-28.914,10.612c-12.353-4.324-26.5-11.4-40.257-20.044v3.537s-13.559,3.733-24.759-2.948c.884-13.116.259-16.936,0-25.152-4.225-4.226-14.443-12.282-8.547-28.2s9.727-36.258,32.718-34.192c20.731,1.863,11.289,26.528,10.98,37.139C128.365,342.782,156.288,335.721,156.288,335.721Z" transform="translate(-64.6 -283.108)" fill="#727997"/>
            <path id="Trazado_693661" data-name="Trazado 693661" d="M78.564,356.981a265.173,265.173,0,0,1,0-34.687l.7.055a264.254,264.254,0,0,0,0,34.581Z" transform="translate(-68.58 -294.763)" fill="#574e49"/>
            <path id="Trazado_693662" data-name="Trazado 693662" d="M156.273,403.974s-13.726-6.951-35.8-25.841l-.991,5.381S142.884,400.633,156.273,403.974Z" transform="translate(-80.923 -311.371)" fill="#332e2b"/>
            <path id="Trazado_693663" data-name="Trazado 693663" d="M124.941,336.177s-5.675,24.465-10.391,49.814c4-9.134,8.546-29.819,14.718-45.2A45.7,45.7,0,0,1,124.941,336.177Z" transform="translate(-79.457 -298.892)" fill="#332e2b"/>
            <path id="Trazado_693664" data-name="Trazado 693664" d="M156.417,404.171a269.005,269.005,0,0,1-35.86-25.862l.462-.53a268.173,268.173,0,0,0,35.752,25.785Z" transform="translate(-81.243 -311.266)" fill="#574e49"/>
          </g>
          <g id="Grupo_955271" data-name="Grupo 955271" transform="translate(27.492 16.873)">
            <path id="Trazado_693665" data-name="Trazado 693665" d="M129.34,229.823s4.98,20.735,17.1,17.686c10.832-2.727,5.911-28.819,4-32.8C147.926,217.217,129.34,229.823,129.34,229.823Z" transform="translate(-107.315 -187.545)" fill="#ffa686"/>
            <path id="Trazado_693666" data-name="Trazado 693666" d="M133.8,176.045S132.185,190,110.078,190a19.657,19.657,0,0,1-4.026,3.292A9.93,9.93,0,0,0,103.2,188.4c-1.908-1.909-4.473-.411-5.109,3.666-.582,3.734,1.3,9.771,7.271,8.745,1.768,5.5,6.425,18.471,18.412,18.471,9.825,0,19-15.25,19-19.939,2.947,0,6.261-1.712,6.261-8.786s-5.868-4.281-7.44-.155C140.4,183.539,135.957,183.12,133.8,176.045Z" transform="translate(-97.991 -176.045)" fill="#ffa686"/>
            <path id="Trazado_693667" data-name="Trazado 693667" d="M133.09,202.9l-.725,2.413c-.211.723-.452,1.566-.683,2.473a27.072,27.072,0,0,0-.585,2.852,6.616,6.616,0,0,0,.053,2.774,1.467,1.467,0,0,0,.667.894,1.548,1.548,0,0,0,.514.165l.269.041.271-.011a2.407,2.407,0,0,0,.514-.056,3.627,3.627,0,0,0,.469-.089c.289-.086.552-.137.755-.223.412-.15.656-.228.656-.228s-.214.133-.6.353c-.19.119-.445.212-.729.346a3.7,3.7,0,0,1-.473.169,2.412,2.412,0,0,1-.552.129,2.291,2.291,0,0,1-1.326-.126,1.942,1.942,0,0,1-1.015-1.152,6.51,6.51,0,0,1-.167-3.083,22.853,22.853,0,0,1,1.585-5.363A24.5,24.5,0,0,1,133.09,202.9Z" transform="translate(-107.6 -184.033)" fill="#94563b"/>
            <path id="Trazado_693668" data-name="Trazado 693668" d="M133.361,224.456a10.373,10.373,0,0,0,1.208-.38,10.829,10.829,0,0,0,1.15-.512,7.472,7.472,0,0,0,1.185-.773,5.245,5.245,0,0,0,.545-.465c.176-.159.325-.339.484-.5s.277-.351.413-.512.232-.338.341-.49.213-.293.278-.431l.2-.348.188-.3s-.016.128-.057.351c-.023.112-.051.249-.082.4a3.034,3.034,0,0,1-.167.509,3.3,3.3,0,0,1-.256.586,5.331,5.331,0,0,1-.372.616,5.6,5.6,0,0,1-.49.6,5.77,5.77,0,0,1-.593.539,5.086,5.086,0,0,1-.666.444,5.335,5.335,0,0,1-.694.337,5.457,5.457,0,0,1-1.311.34A3.876,3.876,0,0,1,133.361,224.456Z" transform="translate(-108.511 -189.041)" fill="#94563b"/>
            <path id="Trazado_693669" data-name="Trazado 693669" d="M139.584,192.543a4.37,4.37,0,0,1,.875-1.41,5.149,5.149,0,0,1,.594-.568,4.371,4.371,0,0,1,.781-.521,2.447,2.447,0,0,1,.464-.211,2.865,2.865,0,0,1,.5-.167,3.737,3.737,0,0,1,1.1-.112,3.8,3.8,0,0,1,1.1.2,6.05,6.05,0,0,1,.943.478c.259.211.5.424.717.628a8.023,8.023,0,0,1,.494.663c.071.1.143.2.2.3l.134.3c.086.183.148.35.2.484.1.271.145.429.145.429s-.145-.095-.372-.265c-.112-.086-.25-.188-.393-.312a3.821,3.821,0,0,0-.5-.377l-.589-.407c-.221-.112-.445-.231-.666-.363-.242-.076-.476-.183-.718-.252a3.491,3.491,0,0,0-.747-.1,3.392,3.392,0,0,0-.762.039,5.794,5.794,0,0,0-.756.188,5.89,5.89,0,0,0-.718.276c-.235.089-.444.213-.655.3-.192.117-.391.2-.553.3l-.434.249Z" transform="translate(-110.362 -180.061)" fill="#423b37"/>
            <path id="Trazado_693670" data-name="Trazado 693670" d="M161.594,198.028s3.8-4.618,3.8-1.671-1.418,5.6-3.8,5.6A5.6,5.6,0,0,0,161.594,198.028Z" transform="translate(-116.908 -181.794)" fill="#d58a6f"/>
            <path id="Trazado_693671" data-name="Trazado 693671" d="M105.5,200.181s-2.472-3.912-3.4-2.978-.771,7.014,3.4,6.516C104.964,202.687,104.817,200.87,105.5,200.181Z" transform="translate(-99.074 -182.295)" fill="#df9276"/>
            <path id="Trazado_693672" data-name="Trazado 693672" d="M146.252,201.122a1.4,1.4,0,1,1-1.375-1.646A1.529,1.529,0,0,1,146.252,201.122Z" transform="translate(-111.527 -183.014)" fill="#423b37"/>
            <path id="Trazado_693673" data-name="Trazado 693673" d="M124.379,201.122A1.4,1.4,0,1,1,123,199.476,1.529,1.529,0,0,1,124.379,201.122Z" transform="translate(-105.021 -183.014)" fill="#423b37"/>
            <path id="Trazado_693674" data-name="Trazado 693674" d="M150.895,215.778s-.162.4-.5,1.085-.832,1.65-1.52,2.758a36.7,36.7,0,0,1-2.549,3.663c-.508.641-1.059,1.286-1.65,1.913s-1.218,1.239-1.879,1.818a21.572,21.572,0,0,1-2.076,1.6,17.732,17.732,0,0,1-2.2,1.278c-.379.165-.747.341-1.12.481-.379.123-.742.267-1.11.362a13.734,13.734,0,0,1-2.092.41l-.944.068-.852-.03c-.533-.019-.991-.117-1.369-.157-.745-.171-1.161-.282-1.161-.282l1.18.147c.378,0,.833.06,1.355.031l.828-.046.909-.122a13.292,13.292,0,0,0,1.993-.507c.348-.11.689-.27,1.046-.406l1.06-.5a20.578,20.578,0,0,0,2.093-1.283,21.558,21.558,0,0,0,2-1.57c.647-.557,1.265-1.149,1.85-1.756s1.149-1.217,1.663-1.837c1.042-1.227,1.962-2.422,2.7-3.487s1.341-1.96,1.73-2.609S150.895,215.778,150.895,215.778Z" transform="translate(-107.474 -187.863)" fill="#94563b"/>
          </g>
          <g id="Grupo_955273" data-name="Grupo 955273" transform="translate(16.36 84.16)">
            <path id="Trazado_693675" data-name="Trazado 693675" d="M82.7,271.818s9.539.119,22.213,5.72c-1.473,8.843-5.1,30.557-5.1,47.261-3.442,3.442-14.8,7.27-14.8,7.27S80.636,294.515,82.7,271.818Z" transform="translate(-82.147 -271.818)" fill="#ffa686"/>
            <g id="Grupo_955272" data-name="Grupo 955272" transform="translate(1.204 51.826)">
              <path id="Trazado_693676" data-name="Trazado 693676" d="M101.17,345.888c-1.151-1.151-15.806.85-17.31,8.12,0,4.716,2.4,2.974,2.4,5.923-1.277,6.681.5,28.664,14.057,27.288,4.317-1.768,6.757-9.289,6.757-9.289s3.793-6.639,2.548-11.314a30.987,30.987,0,0,0-9.3-15.556C101.806,348.621,102.321,347.038,101.17,345.888Z" transform="translate(-83.86 -345.584)" fill="#12263f"/>
              <path id="Trazado_693677" data-name="Trazado 693677" d="M97.851,379.951l.418,2.816c.116.843.294,1.821.47,2.867s.381,2.159.634,3.259c.222,1.107.509,2.2.8,3.212.133.513.312.988.452,1.452s.336.876.483,1.272.343.729.48,1.047l.209.436.218.345.406.671s-.191-.209-.518-.592l-.269-.32-.272-.408a7.848,7.848,0,0,1-.611-1.009c-.183-.389-.425-.8-.6-1.258s-.413-.933-.563-1.451-.357-1.038-.487-1.588c-.148-.545-.29-1.1-.407-1.663s-.223-1.125-.319-1.68-.161-1.107-.239-1.637c-.135-1.064-.2-2.064-.252-2.918s-.044-1.571-.048-2.07S97.851,379.951,97.851,379.951Z" transform="translate(-88.015 -355.806)" fill="#5e8c82"/>
              <path id="Trazado_693678" data-name="Trazado 693678" d="M91.852,381.253l.415,2.184c.237,1.3.552,3.04.867,4.778.086.431.172.864.257,1.289s.142.851.248,1.248c.089.4.175.793.256,1.163s.138.726.224,1.045c.174.637.289,1.181.384,1.558s.131.6.131.6-.1-.2-.259-.554-.391-.863-.643-1.487c-.13-.31-.227-.659-.344-1.024l-.352-1.156c-.125-.4-.214-.823-.31-1.251l-.284-1.3c-.146-.88-.3-1.759-.389-2.589s-.167-1.605-.188-2.274C91.8,382.146,91.852,381.253,91.852,381.253Z" transform="translate(-86.231 -356.193)" fill="#5e8c82"/>
            </g>
          </g>
          <g id="Grupo_955274" data-name="Grupo 955274" transform="translate(30.795 157.681)">
            <path id="Trazado_693679" data-name="Trazado 693679" d="M118.978,404.258a32.682,32.682,0,0,1-6.5,1.877l-.88-4.4-2.637.4.819,4.5a60.131,60.131,0,0,1-7.088.726,56.61,56.61,0,0,0,5.64,17.474l12.516-5.108S120.157,408.8,118.978,404.258Z" transform="translate(-102.692 -383.979)" fill="#e6d18e"/>
            <path id="Trazado_693680" data-name="Trazado 693680" d="M107.493,396.286s-5.387-15.617,1-19.822c2.493.125,4.606,7.905,5.916,18.4A16.283,16.283,0,0,1,107.493,396.286Z" transform="translate(-103.488 -376.464)" fill="#735643"/>
          </g>
        </g>
        <g id="Grupo_955290" data-name="Grupo 955290" transform="translate(68.286)">
          <path id="Trazado_693681" data-name="Trazado 693681" d="M277.06,245l16.229,17.638s-13.613,11.641-28.645,16.062-20.424,2.947-36.929,2.947a117.358,117.358,0,0,1-3.242-14.739s17.07-3.5,29.475-6.484C262.747,258.3,267.113,253.338,277.06,245Z" transform="translate(-166.919 -117.056)" fill="#ffa686"/>
          <g id="Grupo_955276" data-name="Grupo 955276" transform="translate(44.642 203.4)">
            <path id="Trazado_693682" data-name="Trazado 693682" d="M250.052,352.4s-.343,13.018,4.078,17.441c-6.091,3.734-10.062,3.979-12.331,7.909s-13.574,20.241-28.994,14.346c-2.643.242-5.2-1.376-5.2-3.242-3.144-.885-1.026-4.088,3.034-5.819s9.606-7.765,12.972-11.129c-4.716,0-10.021.24-10.021-3.441s5.5-1.324,11-4.173,6.681-4.028,9.629-4.028C239.828,357.773,248.382,354.071,250.052,352.4Z" transform="translate(-206.096 -352.4)" fill="#12263f"/>
            <path id="Trazado_693683" data-name="Trazado 693683" d="M208.25,401.19s.242-.047.651-.164a7.331,7.331,0,0,0,.732-.212c.28-.1.594-.2.938-.308l1.084-.427.591-.23.6-.284,1.253-.591c.424-.2.828-.469,1.246-.7s.843-.457,1.244-.705c.384-.275.774-.529,1.144-.784l1.085-.719c.343-.233.63-.5.92-.717.564-.453,1.058-.81,1.395-1.071s.544-.4.544-.4-.159.184-.45.5-.707.76-1.227,1.279a11.314,11.314,0,0,1-.858.822l-1.05.811c-.369.275-.745.57-1.138.852-.408.261-.841.5-1.265.746-.434.233-.852.5-1.291.7l-1.314.551c-.214.086-.42.181-.63.253l-.625.185c-.406.12-.789.234-1.147.32a15.457,15.457,0,0,1-1.761.268A4.731,4.731,0,0,1,208.25,401.19Z" transform="translate(-206.736 -364.737)" fill="#5e8c82"/>
            <path id="Trazado_693684" data-name="Trazado 693684" d="M215.647,406.153l.53-.247c.34-.145.814-.379,1.386-.646s1.231-.594,1.944-.922c.362-.155.708-.368,1.08-.545l1.113-.563,1.087-.607c.351-.212.732-.366,1.049-.594l.955-.6c.3-.2.61-.35.858-.54.5-.379.934-.675,1.232-.894s.484-.331.484-.331-.137.16-.391.431-.617.661-1.077,1.112a8.645,8.645,0,0,1-.8.65l-.925.693a10.339,10.339,0,0,1-1.042.66l-1.1.641-1.145.552c-.38.177-.75.36-1.125.5-.744.288-1.436.561-2.051.734A16.458,16.458,0,0,1,215.647,406.153Z" transform="translate(-208.936 -366.457)" fill="#5e8c82"/>
            <path id="Trazado_693685" data-name="Trazado 693685" d="M225.629,408.664s.516-.327,1.3-.773c.393-.22.845-.481,1.336-.748l1.529-.843c.521-.283,1.024-.594,1.519-.85.467-.3.912-.561,1.3-.779.722-.507,1.258-.819,1.258-.819a13.956,13.956,0,0,1-1.012,1.14c-.345.3-.76.632-1.215.98-.474.314-.987.641-1.513.944-.542.272-1.069.571-1.6.783s-1.011.422-1.444.561A10.711,10.711,0,0,1,225.629,408.664Z" transform="translate(-211.905 -367.703)" fill="#5e8c82"/>
          </g>
          <g id="Grupo_955277" data-name="Grupo 955277" transform="translate(77.647 244.666)">
            <path id="Trazado_693686" data-name="Trazado 693686" d="M303.13,411.136l-22.795,1.376a60.832,60.832,0,0,1-20.074,6.682c-11.789,1.769-5.82,7.884-4.568,9.137h52.683S308.534,416.541,303.13,411.136Z" transform="translate(-253.073 -411.136)" fill="#12263f"/>
            <path id="Trazado_693687" data-name="Trazado 693687" d="M289.25,419.484a.351.351,0,0,1-.344-.286,4.525,4.525,0,0,0-1.874-2.918.352.352,0,0,1,.36-.6,5.191,5.191,0,0,1,2.205,3.391.351.351,0,0,1-.28.41A.37.37,0,0,1,289.25,419.484Z" transform="translate(-263.122 -412.472)" fill="#12263f"/>
            <path id="Trazado_693688" data-name="Trazado 693688" d="M282.71,421.562a.351.351,0,0,1-.343-.28,6.9,6.9,0,0,0-1.245-2.637.351.351,0,0,1,.542-.447,7.508,7.508,0,0,1,1.39,2.94.35.35,0,0,1-.273.415A.312.312,0,0,1,282.71,421.562Z" transform="translate(-261.392 -413.199)" fill="#12263f"/>
            <path id="Trazado_693689" data-name="Trazado 693689" d="M275.115,423.4a.351.351,0,0,1-.348-.311,7.1,7.1,0,0,0-.62-2.167.352.352,0,0,1,.626-.32,7.717,7.717,0,0,1,.692,2.406.353.353,0,0,1-.308.39Z" transform="translate(-259.329 -413.895)" fill="#12263f"/>
          </g>
          <g id="Grupo_955278" data-name="Grupo 955278" transform="translate(81.241 155.782)">
            <path id="Trazado_693690" data-name="Trazado 693690" d="M340.907,307.58s42.339-9.728,42.339,30.065c0,5.588-3.861,12.674-8.147,14.148,0,9.728,2.091,15.074-12.942,15.074-24.76,1.277-45.529,1.4-58.5,1.4.443,3.094.518,2.708.992,5.237-2.358,2.359-11.4,6.092-22.795,1.376a33.892,33.892,0,0,0-1.67-6.682c-4.126,0-16.949-1.08-20.928-17.292-1.822-7.423.59-14.591,6.288-18.669-2.357-7.074-16.308-35.764,1.769-45.392S318.407,301.586,340.907,307.58Z" transform="translate(-258.188 -284.623)" fill="#727997"/>
            <path id="Trazado_693691" data-name="Trazado 693691" d="M338.365,332.962s.214-.087.593-.223.92-.334,1.574-.544,1.421-.453,2.247-.692,1.725-.433,2.618-.647c1.791-.407,3.6-.759,4.956-.979.679-.115,1.251-.18,1.648-.24s.628-.073.628-.073-.218.081-.6.207-.93.309-1.591.5c-1.32.393-3.091.857-4.873,1.267-.894.2-1.787.391-2.629.562-.838.191-1.624.356-2.3.485s-1.246.216-1.642.287S338.365,332.962,338.365,332.962Z" transform="translate(-282.035 -297.989)" fill="#4c6152"/>
            <path id="Trazado_693692" data-name="Trazado 693692" d="M301.394,324.9s-.09-.342-.247-.943c-.075-.3-.179-.66-.3-1.074s-.261-.877-.412-1.385c-.313-1.01-.707-2.178-1.178-3.408-.22-.621-.486-1.246-.753-1.884-.248-.645-.57-1.268-.861-1.9s-.641-1.243-.955-1.855c-.364-.582-.689-1.178-1.049-1.725-.388-.525-.718-1.07-1.091-1.539s-.736-.908-1.087-1.3c-.378-.362-.715-.705-1.016-1.012a8.351,8.351,0,0,0-.848-.712l-.757-.614.836.5a8.362,8.362,0,0,1,.937.623c.339.273.721.582,1.129.934.386.372.774.805,1.2,1.25s.795.984,1.206,1.516c.383.551.752,1.139,1.126,1.737.328.622.691,1.241,1,1.886.289.653.61,1.293.856,1.952.269.65.5,1.3.708,1.936.228.629.389,1.255.555,1.844s.291,1.154.421,1.67c.235,1.04.371,1.919.462,2.533S301.394,324.9,301.394,324.9Z" transform="translate(-267.901 -290.847)" fill="#4c6152"/>
            <path id="Trazado_693693" data-name="Trazado 693693" d="M346.026,368.045s49.857,3.372,59.538,5.068a11.092,11.092,0,0,1-4.34,3.493C393.509,374.294,355.918,369.053,346.026,368.045Z" transform="translate(-284.314 -309.435)" fill="#242e27"/>
            <path id="Trazado_693694" data-name="Trazado 693694" d="M288.514,371.759s.282-.258.855-.692a25.491,25.491,0,0,1,2.592-1.716,32.254,32.254,0,0,1,4.351-2.113,32.692,32.692,0,0,1,6.025-1.774,35.428,35.428,0,0,1,7.409-.666,18.956,18.956,0,0,1,2.008.081c.676.053,1.368.079,2.053.157l4.2.462,8.786,1,9.067,1.074c3.037.367,6.068.788,9.055,1.178s5.922.8,8.761,1.213,5.585.8,8.178,1.243l7.311,1.213,6.152,1.183c1.836.327,3.413.734,4.716,1.043l4.087.994L380,374.777c-1.308-.276-2.89-.641-4.735-.92l-6.169-1.05-7.323-1.1c-2.6-.4-5.346-.747-8.184-1.145s-5.774-.8-8.762-1.166-6.017-.777-9.056-1.131l-9.058-1.121-8.779-1.044-4.194-.5c-.685-.089-1.358-.124-2.026-.188a18.17,18.17,0,0,0-1.979-.11,35.067,35.067,0,0,0-7.327.542l-1.643.324-1.548.4c-.508.117-.984.29-1.455.437s-.929.288-1.359.466a31.985,31.985,0,0,0-4.377,1.988A22.6,22.6,0,0,0,288.514,371.759Z" transform="translate(-267.208 -308.466)" fill="#4c6152"/>
            <path id="Trazado_693695" data-name="Trazado 693695" d="M301.937,404.25c-7.281,0-12-.17-12.07-.172a.353.353,0,0,1-.339-.365.345.345,0,0,1,.365-.338c.1,0,9.8.354,22.9.046a.343.343,0,0,1,.36.343.352.352,0,0,1-.343.36C308.811,404.217,305.127,404.25,301.937,404.25Z" transform="translate(-267.509 -319.943)" fill="#4c6152"/>
          </g>
          <g id="Grupo_955279" data-name="Grupo 955279" transform="translate(33.551 136.281)">
            <path id="Trazado_693696" data-name="Trazado 693696" d="M215.883,268.175c3.769,1.15,4.913,4.13,3.145,11.4s-1.376,8.646-6.681,7.073c-4.323,2.555-6.959.414-11.872-.56s-10.055-1.522-9.426-8.778c-1.112-1.863-.937-5.229.318-6.737a6.436,6.436,0,0,1,2.375-6.206c1.736-3.974,5.242-8.768,9.172-7.2S213.328,263.062,215.883,268.175Z" transform="translate(-190.309 -256.867)" fill="#12263f"/>
            <path id="Trazado_693697" data-name="Trazado 693697" d="M214.449,267.176a47.515,47.515,0,0,0-4.7-4.8,10.724,10.724,0,0,0-2.727-1.811,1.85,1.85,0,0,0-1.4-.1c-.072.037-.236.132-.334.2a1.935,1.935,0,0,0-.25.227,1.523,1.523,0,0,0-.346.6,2.915,2.915,0,0,0,.06,1.492,7.755,7.755,0,0,0,.6,1.5,20.939,20.939,0,0,0,1.785,2.784,47.8,47.8,0,0,0,4.38,5.054l.1.1-.015.152-.146,1.487a5.544,5.544,0,0,0-.057.745V276.3c.007.249.051.494.076.741l.086.742a4.7,4.7,0,0,0,.15.73l.177.725a5.423,5.423,0,0,0,.237.707l.261.7c.095.23.225.445.337.669s.219.453.36.66l.424.622a14.525,14.525,0,0,0,.941,1.185,12.531,12.531,0,0,1-1.041-1.108l-.471-.6c-.157-.2-.271-.431-.41-.646s-.275-.432-.388-.662l-.313-.7a4.407,4.407,0,0,1-.284-.715l-.213-.741a4.852,4.852,0,0,1-.185-.747l-.119-.762c-.035-.254-.091-.508-.108-.764l-.03-.769-.03-.771a5.728,5.728,0,0,1,.028-.769l.119-1.535.086.255a48.644,48.644,0,0,1-4.509-5.068,18.942,18.942,0,0,1-1.824-2.9,8.417,8.417,0,0,1-.63-1.634,3.509,3.509,0,0,1-.032-1.835,2.137,2.137,0,0,1,.5-.839,2.435,2.435,0,0,1,.382-.327,4.5,4.5,0,0,1,.4-.223,2.3,2.3,0,0,1,1.864.141,11.14,11.14,0,0,1,2.794,2.007,27.49,27.49,0,0,1,2.333,2.457C213.091,265.381,213.8,266.26,214.449,267.176Z" transform="translate(-194.377 -257.732)" fill="#5e8c82"/>
            <path id="Trazado_693698" data-name="Trazado 693698" d="M195.985,268.717l1.905,1.465c1.142.872,2.655,2.04,4.234,3.092a25.179,25.179,0,0,0,2.373,1.432,8.971,8.971,0,0,0,2.217.86,3.656,3.656,0,0,0,.932.086,1.424,1.424,0,0,0,.388-.049,1.179,1.179,0,0,0,.32-.1,1.7,1.7,0,0,0,.424-.221l.145-.095-.121.124a1.417,1.417,0,0,1-.386.313,1.312,1.312,0,0,1-.324.159,1.633,1.633,0,0,1-.41.124,3.19,3.19,0,0,1-1.025.054,5.981,5.981,0,0,1-1.182-.232,9.779,9.779,0,0,1-1.246-.47,12.984,12.984,0,0,1-1.259-.643c-.417-.237-.83-.5-1.237-.763a29.582,29.582,0,0,1-4.107-3.373c-.519-.5-.922-.955-1.209-1.264S195.985,268.717,195.985,268.717Z" transform="translate(-191.998 -260.391)" fill="#5e8c82"/>
            <path id="Trazado_693699" data-name="Trazado 693699" d="M193.845,278.819l.63.314c.4.205.977.472,1.666.8s1.5.684,2.379,1.034a25.588,25.588,0,0,0,2.789.949,12.529,12.529,0,0,0,1.446.317,9.012,9.012,0,0,0,1.411.121,5.5,5.5,0,0,0,1.3-.143,3.465,3.465,0,0,0,.569-.188,2.358,2.358,0,0,0,.5-.249,2.489,2.489,0,0,0,.424-.3,2.111,2.111,0,0,0,.348-.323,4.106,4.106,0,0,0,.482-.621l.34-.611s-.018.061-.053.176a5.2,5.2,0,0,1-.165.5,4.281,4.281,0,0,1-.4.721,3.054,3.054,0,0,1-.747.793,3.659,3.659,0,0,1-1.154.608,5.139,5.139,0,0,1-1.423.258,7.826,7.826,0,0,1-1.527-.068,13.036,13.036,0,0,1-1.531-.31,20.868,20.868,0,0,1-5.175-2.307A20.479,20.479,0,0,1,193.845,278.819Z" transform="translate(-191.361 -263.396)" fill="#5e8c82"/>
            <path id="Trazado_693700" data-name="Trazado 693700" d="M193.845,284.957l.634.227c.4.149.982.333,1.676.552a22.105,22.105,0,0,0,5.155,1.053,8.637,8.637,0,0,0,1.4-.023,6.018,6.018,0,0,0,1.3-.281,4.4,4.4,0,0,0,1.094-.555,4.336,4.336,0,0,0,.793-.776,5.934,5.934,0,0,0,.514-.814c.119-.263.219-.5.292-.7.122-.4.2-.64.2-.64s-.018.243-.07.674c-.04.212-.1.469-.181.764a4.527,4.527,0,0,1-.424.945,4.039,4.039,0,0,1-.8.958,4.3,4.3,0,0,1-1.2.723,6.825,6.825,0,0,1-2.95.427,15.518,15.518,0,0,1-5.26-1.379A16.63,16.63,0,0,1,193.845,284.957Z" transform="translate(-191.361 -264.639)" fill="#5e8c82"/>
            <path id="Trazado_693701" data-name="Trazado 693701" d="M195.985,291.857l.571,0c.362.01.879-.008,1.494-.022a19.449,19.449,0,0,0,4.406-.559,7.75,7.75,0,0,0,1.113-.382,5.713,5.713,0,0,0,.979-.544,4.439,4.439,0,0,0,.773-.691,4.27,4.27,0,0,0,.511-.785,5.226,5.226,0,0,0,.288-.759c.061-.237.1-.452.129-.628.033-.355.062-.566.062-.566s.034.2.075.57c0,.183.008.409-.008.668a3.743,3.743,0,0,1-.171.864,3.789,3.789,0,0,1-.468.952,4.063,4.063,0,0,1-.816.866,6.253,6.253,0,0,1-2.279,1.111,12.824,12.824,0,0,1-4.608.283A13.024,13.024,0,0,1,195.985,291.857Z" transform="translate(-191.998 -265.807)" fill="#5e8c82"/>
          </g>
          <g id="Grupo_955280" data-name="Grupo 955280" transform="translate(110.141 97.957)">
            <path id="Trazado_693702" data-name="Trazado 693702" d="M333.188,203.231S326.8,202.9,315.6,216.78c-1.662,2.057-8.161,7.407-16.278,15.524,2.685,7.777,8.024,16.665,16.229,17.638,5.158,7.122,19.8,12.525,23.63,19.305s3.311,14.216,1.836,22.469c8.843-1.769,21.563-3.408,25.779,2.484,11.135,15.561,26.032,12.187,28.685,18.966,6.632-6.632,3.678-7.215,1.91-13.7s-1.093-14.334-4.46-26.284c-3.263-11.58-6-18.968-12.189-32.527S354.314,196.676,333.188,203.231Z" transform="translate(-299.323 -202.318)" fill="#adce32"/>
            <path id="Trazado_693703" data-name="Trazado 693703" d="M348.415,276.8a19.521,19.521,0,0,1,5.368,5.479c.211.373.427.775.6,1.141,3.27-9.577,8.438-27.476,8.438-37.3-1.768,7.86-6.976,21.124-6.976,21.124Z" transform="translate(-313.924 -215.345)" fill="#828a2b"/>
            <path id="Trazado_693704" data-name="Trazado 693704" d="M365.564,308.365s14.344-8.793,14.344-25.889C381.677,289.944,379.712,303.4,365.564,308.365Z" transform="translate(-319.025 -226.159)" fill="#828a2b"/>
            <path id="Trazado_693705" data-name="Trazado 693705" d="M322.619,257.984l-.686-.151c2.864-13,5.765-28.574,5.795-28.73l.69.129C328.39,229.388,325.486,244.973,322.619,257.984Z" transform="translate(-306.048 -210.285)" fill="#828a2b"/>
          </g>
          <g id="Grupo_955287" data-name="Grupo 955287">
            <g id="Grupo_955285" data-name="Grupo 955285">
              <path id="Trazado_693706" data-name="Trazado 693706" d="M187.49,351.71c-.121-2.685,1.73-20.306,2.545-23.854.672-2.928,2.66-10.54,4.026-15.421.514-1.835,3.261-16.859,3.626-18.324a10.633,10.633,0,0,0,4.274-1.169c-1.4,6.5-2.867,17.739-4.059,21.509-.847,2.68-2.061,7.5-3.179,12.032-.8,3.248-1.364,22.09-1.265,24.293Z" transform="translate(-155.918 -131.315)" fill="#405245"/>
              <path id="Trazado_693707" data-name="Trazado 693707" d="M254.945,121.191c-1.865,4.1-6.146,7.813-13.087,11.34-3.935,2-10.414,6.684-14.988,10.125.727-2.168,1.492-4.312,2.249-6.424,3.135-8.752,6.377-17.8,6.444-27.747l-4.215-.029c-.063,9.229-3.043,17.548-6.2,26.355a143.672,143.672,0,0,0-5.079,16.182c-1.167,5.063-2.233,10.248-3.26,15.351a58.292,58.292,0,0,0-1.785-8.58c-1.571-5.139-9.058-17.012-10.025-18.539-4.107-6.485-7.238-21.535-9.388-25.477l-3.7,2.018c1.92,3.521,5.968,19.639,9.458,25.6,3.329,5.685,8.221,13.039,9.625,17.63,1.844,6.029,2.675,15.721,2.689,22.745-2.48,11.727-5.149,22.737-9.482,33.685a21.34,21.34,0,0,1,3.3,2.746,76.624,76.624,0,0,0,3.576-9.322c11.13-5.971,26.641-21.789,28.253-24.116l-2.5-2.4c-1.365,1.973-16.032,17.4-24.112,21.145,3.1-10.725,5.317-21.784,7.479-32.589,1.251-6.25,2.544-12.714,3.981-18.953.182-.788.381-1.573.588-2.357,2.573-2.01,13.635-10.566,19-13.294,7.827-3.977,12.738-8.345,15.015-13.353Z" transform="translate(-157.235 -76.444)" fill="#405245"/>
              <g id="Grupo_955281" data-name="Grupo 955281">
                <path id="Trazado_693708" data-name="Trazado 693708" d="M183.262,103.933c-2.146,4.018-10.624,10.47-17.016,4.078-10.8,6.334-23.139-3.357-20.175-12.1-5.1-3.567-4.962-15.062,2.473-16.728,0-6.771,8.693-21.185,25.7-12.449,8.165-8.166,20.984-2.484,19.744,9.31,10.77,3.5,8.955,19.867-1.881,20.831C194.129,102.334,188.422,105.391,183.262,103.933Z" transform="translate(-142.555 -62.892)" fill="#0b481e"/>
                <path id="Trazado_693709" data-name="Trazado 693709" d="M164.3,112.932s7.156,6.938,15.147-1.054C176.813,117.147,169.177,119.782,164.3,112.932Z" transform="translate(-149.023 -77.462)" fill="#548c65"/>
                <path id="Trazado_693710" data-name="Trazado 693710" d="M189.11,101.337s9.309,4.742,14.754-2.459C202.81,102.918,195.17,107.4,189.11,101.337Z" transform="translate(-156.402 -73.595)" fill="#548c65"/>
                <path id="Trazado_693711" data-name="Trazado 693711" d="M152.18,93.117s-1.077-5.651,6.487-8.989C153.586,84.128,150.6,89.46,152.18,93.117Z" transform="translate(-145.292 -69.208)" fill="#548c65"/>
                <path id="Trazado_693712" data-name="Trazado 693712" d="M170.648,89.321s.593-7.377,9.592-5.621C175.891,81.592,170.648,82.471,170.648,89.321Z" transform="translate(-150.911 -68.781)" fill="#548c65"/>
                <path id="Trazado_693713" data-name="Trazado 693713" d="M212.345,87.661s-1.054-6.251-9.485-6.251C206.549,80,212.345,81.265,212.345,87.661Z" transform="translate(-160.491 -68.246)" fill="#548c65"/>
                <path id="Trazado_693714" data-name="Trazado 693714" d="M147.561,107.776s3.464-7.433,11.761-2.314C157.607,101.974,149.107,101.107,147.561,107.776Z" transform="translate(-144.044 -74.759)" fill="#548c65"/>
                <path id="Trazado_693715" data-name="Trazado 693715" d="M186.754,68.358s-4.416,5.548,4.527,7.567C187.592,75.925,181.249,73.863,186.754,68.358Z" transform="translate(-155.06 -64.518)" fill="#548c65"/>
              </g>
              <g id="Grupo_955282" data-name="Grupo 955282" transform="translate(49.33 57.231)">
                <path id="Trazado_693716" data-name="Trazado 693716" d="M238.926,148.34c3.063-5.781,17.918-5.781,19.344,3.341,14.276-3.148,24.487,12.05,18.05,20.7,4.384,5.8-4.4,18.62-13.254,17.8-1.261,7.272-21.78,17.311-26.464,4.286-12,6.131-23.651-3.621-18.032-16.272-11.139-6.288-4.818-25.152,6.969-23.438C225.265,147.959,234.769,144.183,238.926,148.34Z" transform="translate(-212.769 -144.351)" fill="#0b481e"/>
                <path id="Trazado_693717" data-name="Trazado 693717" d="M230.947,159.15s9.9,2.759,4.13,10.944C239.844,167.038,239.263,159.15,230.947,159.15Z" transform="translate(-218.175 -148.753)" fill="#548c65"/>
                <path id="Trazado_693718" data-name="Trazado 693718" d="M221.027,190.734s4.5-5.5,10.536-1.391C231.563,185.9,222.469,184.852,221.027,190.734Z" transform="translate(-215.225 -156.899)" fill="#548c65"/>
                <path id="Trazado_693719" data-name="Trazado 693719" d="M236.023,203.785s3.6-6.726,11.666-2C245.218,197.9,237.718,198.074,236.023,203.785Z" transform="translate(-219.685 -160.647)" fill="#548c65"/>
                <path id="Trazado_693720" data-name="Trazado 693720" d="M246.359,160.387s5.622-7.377,13,0C257.074,155.117,248.641,153.185,246.359,160.387Z" transform="translate(-222.759 -147.721)" fill="#548c65"/>
                <path id="Trazado_693721" data-name="Trazado 693721" d="M246.694,213.068s2.826-8.081,11.885-4.421C256.676,206.744,247.631,204.6,246.694,213.068Z" transform="translate(-222.859 -162.961)" fill="#548c65"/>
                <path id="Trazado_693722" data-name="Trazado 693722" d="M277.462,210.316s-6.69-2.777-9.851,2.609C267.61,210.231,271.33,206.537,277.462,210.316Z" transform="translate(-229.08 -163.491)" fill="#548c65"/>
              </g>
              <g id="Grupo_955283" data-name="Grupo 955283" transform="translate(59.257 5.615)">
                <path id="Trazado_693723" data-name="Trazado 693723" d="M258.077,94.736c6.52-2.123,6.731-11.659.048-11.622,1.437-3.892-2.477-10.333-7.45-8.338-.447-4.456-8.222-6.09-11.09.573-4.506-1.1-9.637,4.213-7.357,7.965-4.1-1-7.705,6.121-3.35,9.537C226.577,96,229.6,103,235.31,101c2.082,3.426,7.073,5.108,9.312.676C247.359,106.183,259.891,106.787,258.077,94.736Z" transform="translate(-226.898 -70.884)" fill="#0b481e"/>
                <path id="Trazado_693724" data-name="Trazado 693724" d="M234.485,87.545s6.587-4.53,9.573,2.5C244.058,84.946,238.762,83.268,234.485,87.545Z" transform="translate(-229.154 -75.114)" fill="#548c65"/>
                <path id="Trazado_693725" data-name="Trazado 693725" d="M268.138,102.088s-.937-8.063-7.415-5.368C263.361,94.728,268.138,94.786,268.138,102.088Z" transform="translate(-236.958 -78.236)" fill="#548c65"/>
                <path id="Trazado_693726" data-name="Trazado 693726" d="M251.787,111.242s-2.138-7.029,6.041-8.179C253.123,102.666,249.259,106.766,251.787,111.242Z" transform="translate(-234.062 -80.447)" fill="#548c65"/>
                <path id="Trazado_693727" data-name="Trazado 693727" d="M229.716,101.3s5.706-4.806,8,4.35C237.713,100.756,234.312,96.7,229.716,101.3Z" transform="translate(-227.736 -79.332)" fill="#548c65"/>
                <path id="Trazado_693728" data-name="Trazado 693728" d="M267.261,86.83s-4.088-5.4-9.65-.62C259.8,82.954,266.276,81.724,267.261,86.83Z" transform="translate(-236.033 -74.601)" fill="#548c65"/>
              </g>
              <g id="Grupo_955284" data-name="Grupo 955284" transform="translate(91.227 26.776)">
                <path id="Trazado_693729" data-name="Trazado 693729" d="M277.676,121.131c-4.54,4.539,3.693,10.34,6.4,7.635,2,2.976,8.491,3.5,9.613-1,3.347,1.943,8.428-2.676,5.213-8.059,4.507-2.051,3.251-8.883-.532-9.185,2.83-4.35-4.892-14.315-12.409-6.8-4-2.451-10.023,2.367-8.051,6.18C273.367,109.546,268.317,116.3,277.676,121.131Z" transform="translate(-272.402 -101.004)" fill="#0b481e"/>
                <path id="Trazado_693730" data-name="Trazado 693730" d="M280.238,113.576s7.99-.351,5.882,6.131C288.06,117.766,288.133,112.115,280.238,113.576Z" transform="translate(-274.733 -104.672)" fill="#548c65"/>
                <path id="Trazado_693731" data-name="Trazado 693731" d="M306.375,114.194s-4.443,3.682-7.052-.856C300.227,117.582,304.443,118.009,306.375,114.194Z" transform="translate(-280.409 -104.673)" fill="#548c65"/>
                <path id="Trazado_693732" data-name="Trazado 693732" d="M301.044,135.837s-5.857-2.967-1.115-7.709C296.064,129.533,296.011,134.413,301.044,135.837Z" transform="translate(-279.759 -109.071)" fill="#548c65"/>
                <path id="Trazado_693733" data-name="Trazado 693733" d="M289.016,137.674s4.676-4.737,0-6.721C291.717,130.953,294.219,135.314,289.016,137.674Z" transform="translate(-277.344 -109.912)" fill="#548c65"/>
                <path id="Trazado_693734" data-name="Trazado 693734" d="M295.61,124.356s6.5-3.864,8.255,3.162C303.865,123.829,300.243,120.264,295.61,124.356Z" transform="translate(-279.305 -107.407)" fill="#548c65"/>
              </g>
            </g>
            <g id="Grupo_955286" data-name="Grupo 955286" transform="translate(13.684 214.392)">
              <path id="Trazado_693735" data-name="Trazado 693735" d="M170.234,369.237c1.492-3.442,5.947,1.671,12.871,1.671s9.884-.981,9.884,2.389S187.979,410,181.613,410s-9.02-1.069-14.031-3.085-7.019-.442-4.394-5.944S166.4,378.079,170.234,369.237Z" transform="translate(-162.032 -368.046)" fill="#735643"/>
              <path id="Trazado_693736" data-name="Trazado 693736" d="M176.384,379.951s-.9,6.273,3.665,6.273,2.4,7.414,6.821,6.341c-2.523,2.523-5.273-.8-5.273-3.925s-2.251-.841-4.007-.841S175.177,382.636,176.384,379.951Z" transform="translate(-166.118 -371.587)" fill="#574134"/>
              <path id="Trazado_693737" data-name="Trazado 693737" d="M187.11,378.132a24.358,24.358,0,0,1,4.742,8.13C191.852,383.047,192.028,378.132,187.11,378.132Z" transform="translate(-169.491 -371.046)" fill="#574134"/>
              <path id="Trazado_693738" data-name="Trazado 693738" d="M172.694,408.359s5.3,1.415,7.988-1.278C180.682,409.515,174.927,410.592,172.694,408.359Z" transform="translate(-165.203 -379.656)" fill="#574134"/>
              <path id="Trazado_693739" data-name="Trazado 693739" d="M188.011,401.731s-1.055,6.075-4.743,8.183-5.562,5.035-9.075,2.576c1.756,3.162,4.684.819,7.612-.469S188.011,408.3,188.011,401.731Z" transform="translate(-165.649 -378.065)" fill="#574134"/>
              <path id="Trazado_693740" data-name="Trazado 693740" d="M198.526,377.74c.564-1.118,1.639,1.756,1.064,2.9S197.618,379.54,198.526,377.74Z" transform="translate(-172.797 -370.854)" fill="#574134"/>
              <path id="Trazado_693741" data-name="Trazado 693741" d="M173.675,404.143c.636.564-1,1.639-1.648,1.064S172.652,403.235,173.675,404.143Z" transform="translate(-164.952 -378.693)" fill="#574134"/>
              <path id="Trazado_693742" data-name="Trazado 693742" d="M181.059,385.064c-.4.558-1.4-.661-.993-1.231S181.7,384.166,181.059,385.064Z" transform="translate(-167.368 -372.689)" fill="#574134"/>
              <path id="Trazado_693743" data-name="Trazado 693743" d="M177.73,374.459c-.4.558-1.4-.661-.993-1.231S178.372,373.561,177.73,374.459Z" transform="translate(-166.378 -369.534)" fill="#574134"/>
              <path id="Trazado_693744" data-name="Trazado 693744" d="M197.891,403.158c-.672.134-.568-1.44.119-1.577S198.974,402.941,197.891,403.158Z" transform="translate(-172.563 -378.018)" fill="#574134"/>
              <path id="Trazado_693745" data-name="Trazado 693745" d="M195.4,406.447c-.554.111-.468-1.186.1-1.3S196.3,406.27,195.4,406.447Z" transform="translate(-171.846 -379.079)" fill="#574134"/>
              <path id="Trazado_693746" data-name="Trazado 693746" d="M191.71,422.933c-.554.111-.468-1.187.1-1.3S192.6,422.755,191.71,422.933Z" transform="translate(-170.748 -383.982)" fill="#574134"/>
              <path id="Trazado_693747" data-name="Trazado 693747" d="M189.479,419.668c-.554.111-.468-1.186.1-1.3S190.37,419.49,189.479,419.668Z" transform="translate(-170.084 -383.011)" fill="#574134"/>
            </g>
          </g>
          <g id="Grupo_955288" data-name="Grupo 955288" transform="translate(69.906 57.888)">
            <path id="Trazado_693748" data-name="Trazado 693748" d="M255.827,178.693s18.556,17.566,46.558.52c-.313-9.166,1.832-21.695-2.64-26.165s-8.253-7.761-16.8-7.761-12.085,0-17.391,2.653-14.681,11.915-17.686,14.918-9.372,3.535-3.242,9.666C246.395,176.824,249.048,181.738,255.827,178.693Z" transform="translate(-242.054 -145.286)" fill="#423b37"/>
            <path id="Trazado_693749" data-name="Trazado 693749" d="M261.658,186.466s5.8-.689,15.917-10.809c3.341,3.341,10.513,3.98,15.818,3.98-.981-2.505-1.525-6.333,1.572-7.811,4.324-2.063,11.4,4.127,9.433,10.612,2.254,2.255,7.958,10.033,17.587,11.605-9.728,3.821-11.84,17.97-11.84,17.97a46.367,46.367,0,0,0-11.959-6.488c-3.22,4.228-5.529,5.358-7.888,5.358s-6.083-2.5-8.7-4.47c-.835,1.18-3.018,5.285-5.256.491-3.119-6.681-2.689-9.076-3.931-10.317C270.354,194.523,264.9,191.673,261.658,186.466Z" transform="translate(-247.885 -153.06)" fill="#ffa686"/>
            <path id="Trazado_693750" data-name="Trazado 693750" d="M321.161,187.1a1.632,1.632,0,0,1-.114.689,1.594,1.594,0,0,1-.141.308,1.547,1.547,0,0,1-.2.324c-.085.1-.167.212-.264.312a2.229,2.229,0,0,1-.32.275l-.348.239c-.122.066-.255.1-.376.156s-.243.086-.356.122a1.354,1.354,0,0,1-.334.045,3.094,3.094,0,0,1-.69-.014,3.931,3.931,0,0,1,.563-.369c.082-.051.177-.085.265-.149s.178-.131.275-.189.194-.126.3-.181l.279-.221a1.719,1.719,0,0,0,.284-.212c.083-.083.178-.151.264-.225s.162-.152.24-.223.16-.136.22-.209C320.97,187.311,321.161,187.1,321.161,187.1Z" transform="translate(-264.648 -157.723)" fill="#94563b"/>
            <path id="Trazado_693751" data-name="Trazado 693751" d="M311.472,181.244s-1.769-4.912.785-4.912,5.305,4.127,2.555,5.9C313.83,180.361,312.7,180.017,311.472,181.244Z" transform="translate(-262.524 -154.52)" fill="#c7836b"/>
            <path id="Trazado_693752" data-name="Trazado 693752" d="M313.65,215.8l.215-.413c.148-.252.314-.641.544-1.083.116-.221.216-.474.344-.729s.259-.523.377-.811.246-.581.386-.875.252-.6.372-.913c.257-.609.5-1.222.7-1.813.1-.294.209-.574.31-.842s.175-.526.252-.764c.144-.478.3-.872.388-1.152s.165-.438.165-.438,0,.169-.031.463-.06.717-.13,1.221a5.465,5.465,0,0,1-.14.809c-.069.282-.14.582-.225.889s-.154.63-.273.944-.242.63-.363.947-.248.632-.405.928-.306.589-.452.873a8.331,8.331,0,0,1-.471.787c-.158.246-.3.48-.457.683-.3.41-.578.733-.778.954A3.449,3.449,0,0,1,313.65,215.8Z" transform="translate(-263.349 -163.334)" fill="#94563b"/>
            <path id="Trazado_693753" data-name="Trazado 693753" d="M297.319,220.594a6.88,6.88,0,0,0,.535-.823c.071-.124.136-.261.2-.4s.113-.3.176-.457a3.2,3.2,0,0,0,.138-1.011,4.1,4.1,0,0,0-.053-.516c-.058-.164-.075-.338-.135-.5s-.124-.313-.178-.464c-.079-.14-.147-.278-.209-.409-.117-.266-.27-.46-.346-.62s-.13-.249-.13-.249.086.052.233.155a3.144,3.144,0,0,1,.569.478c.105.114.221.24.335.379.1.152.2.315.3.491a4.624,4.624,0,0,1,.226.584,4.521,4.521,0,0,1,.094.651,3.051,3.051,0,0,1-.067.658,2.716,2.716,0,0,1-.2.6,3.067,3.067,0,0,1-.634.882A2.481,2.481,0,0,1,297.319,220.594Z" transform="translate(-258.492 -166.063)" fill="#94563b"/>
            <path id="Trazado_693754" data-name="Trazado 693754" d="M275.467,199.665a3.675,3.675,0,0,1-.034-1.448,4.536,4.536,0,0,1,.163-.693,3.993,3.993,0,0,1,.312-.748,4.527,4.527,0,0,1,.49-.743,4.08,4.08,0,0,1,.692-.644c.134-.09.261-.188.4-.266s.292-.133.437-.2a3.468,3.468,0,0,1,.888-.228,4.439,4.439,0,0,1,.835-.006,3.085,3.085,0,0,1,.711.151,3.265,3.265,0,0,1,.965.431c.217.132.331.219.331.219s-.15.027-.4.053c-.122.011-.27.029-.431.034a4.256,4.256,0,0,0-.537.067,5.176,5.176,0,0,0-.6.1c-.2.065-.417.086-.618.167a4.574,4.574,0,0,0-.6.256c-.1.053-.19.107-.289.154s-.178.132-.268.194a4.675,4.675,0,0,0-.516.426c-.149.171-.32.322-.456.5s-.283.349-.4.529-.24.352-.357.512Z" transform="translate(-251.967 -159.976)" fill="#423b37"/>
            <path id="Trazado_693755" data-name="Trazado 693755" d="M284.072,201.947a1.4,1.4,0,1,1-2.144-.045A1.529,1.529,0,0,1,284.072,201.947Z" transform="translate(-253.826 -162.001)" fill="#423b37"/>
            <path id="Trazado_693756" data-name="Trazado 693756" d="M246.359,180.7l.249-.006.689-.1a9.634,9.634,0,0,0,1.041-.272,8.706,8.706,0,0,0,1.307-.48l.736-.3.387-.159.379-.211c.513-.285,1.05-.589,1.614-.886a16.421,16.421,0,0,0,1.664-1.052l1.7-1.124c.568-.378,1.084-.833,1.621-1.238l1.568-1.207.754-.571c.242-.193.464-.4.688-.59l1.255-1.09c.774-.679,1.451-1.215,1.911-1.6l.74-.6-.644.694c-.422.431-1,1.069-1.739,1.8-.367.366-.764.764-1.184,1.183-.212.208-.422.431-.651.642l-.735.611-1.548,1.268c-.54.417-1.055.882-1.629,1.273l-1.741,1.124a14.075,14.075,0,0,1-1.728,1.019c-.585.292-1.159.555-1.7.809l-.4.188-.409.136-.776.255-.712.231a5.539,5.539,0,0,1-.665.13,9.881,9.881,0,0,1-1.087.154c-.308.008-.544.009-.7,0S246.359,180.7,246.359,180.7Z" transform="translate(-243.335 -152.401)" fill="#70645d"/>
          </g>
          <g id="Grupo_955289" data-name="Grupo 955289" transform="translate(166.372 222.953)">
            <path id="Trazado_693757" data-name="Trazado 693757" d="M411.139,380.23S407.657,390.336,398.2,395.3c-3.565,6.148-6.893,13.7-9.755,14.7-2.784.967-9.082,2.063-9.082,9.137h18.514A135.24,135.24,0,0,0,424.8,395.075C423.4,387.93,418.528,381.958,411.139,380.23Z" transform="translate(-379.36 -380.23)" fill="#12263f"/>
            <path id="Trazado_693758" data-name="Trazado 693758" d="M402.362,418.144a.351.351,0,0,1-.249-.1c-1.125-1.125-3.44-.7-3.462-.693a.352.352,0,0,1-.133-.691c.11-.022,2.7-.5,4.091.887a.351.351,0,0,1,0,.5A.345.345,0,0,1,402.362,418.144Z" transform="translate(-384.974 -391.035)" fill="#fff"/>
            <path id="Trazado_693759" data-name="Trazado 693759" d="M405.825,411.737a.351.351,0,0,1-.249-.1c-1.323-1.323-3.5-.707-3.516-.7a.351.351,0,0,1-.2-.674c.1-.03,2.59-.744,4.212.879a.351.351,0,0,1,0,.5A.348.348,0,0,1,405.825,411.737Z" transform="translate(-385.978 -389.107)" fill="#fff"/>
            <path id="Trazado_693760" data-name="Trazado 693760" d="M409.913,404.9a.351.351,0,0,1-.249-.1c-1.319-1.319-3.563-.54-3.585-.533a.351.351,0,1,1-.236-.662c.109-.039,2.687-.935,4.318.7a.351.351,0,0,1,0,.5A.346.346,0,0,1,409.913,404.9Z" transform="translate(-387.167 -387.097)" fill="#fff"/>
          </g>
          <path id="Trazado_693761" data-name="Trazado 693761" d="M268.661,327.647S293.755,320.3,317.633,315c3.593-7.43,10.13-25.928,14.492-40.9-5.713-3.468-19.062-6.23-25.693-4.272-4.814,19.137-5.813,30.761-9.646,39.938C284.112,317.175,277.309,321.438,268.661,327.647Z" transform="translate(-180.062 -124.247)" fill="#ffa686"/>
        </g>
        <g id="Grupo_955292" data-name="Grupo 955292" transform="translate(0 250.836)">
          <g id="Grupo_955291" data-name="Grupo 955291" transform="translate(21.494)">
            <path id="Trazado_693762" data-name="Trazado 693762" d="M75.953,430.943s11.242-4.716,18.787-6.092,5.841-6.7,12.785-4.333,5.961,4.913,12.249,4.913,11.595-2.368,16.7,0,18.335,3.743,23.807,1.778,11.368-1.791,16.084.972,11.79-3.329,20.437,2.763Z" transform="translate(-75.953 -419.918)" fill="#735643"/>
            <path id="Trazado_693763" data-name="Trazado 693763" d="M109.61,430.162s5.8-4.567,11.944-1.581C119.885,426.913,113.474,424.717,109.61,430.162Z" transform="translate(-85.964 -421.935)" fill="#574134"/>
            <path id="Trazado_693764" data-name="Trazado 693764" d="M143.86,430.9s8.782-1.756,14.051,0C156.155,429.139,148.427,428.1,143.86,430.9Z" transform="translate(-96.15 -422.669)" fill="#574134"/>
          </g>
          <path id="Trazado_693765" data-name="Trazado 693765" d="M45.36,435.164l12.044-.2,13.823-.187c5.337-.074,11.359-.159,17.929-.2l21.213-.174c7.527-.06,15.466-.144,23.677-.148l51.46-.14,51.46.138c8.212,0,16.149.083,23.677.145l21.213.176c6.569.041,12.591.124,17.928.2l13.823.188,12.044.205-12.044.205-13.823.188c-5.337.076-11.359.159-17.928.2l-21.213.176c-7.527.063-15.465.142-23.677.145l-51.46.138-51.46-.14c-8.212,0-16.149-.088-23.677-.148l-21.213-.174c-6.57-.041-12.591-.126-17.929-.2L57.4,435.368Z" transform="translate(-45.36 -424.14)" fill="#735643"/>
        </g>
      </g>
    </g>
  </g>
</svg>
